<svg width="26" height="27" viewBox="0 0 26 27" fill="none" xmlns="http://www.w3.org/2000/svg">
<path fill-rule="evenodd" clip-rule="evenodd" d="M0.210938 13.1789C0.210938 6.16957 5.87481 0.467285 12.8364 0.467285C19.7985 0.467285 25.4626 6.16957 25.4626 13.1786C25.4626 15.3662 24.9097 17.6259 23.8696 19.7248C23.9121 20.0742 23.9415 20.4388 23.9415 20.8331C23.9415 25.0747 21.3274 26.6553 19.6797 26.6553H19.0716C18.3147 26.6553 17.6988 26.0352 17.6988 25.2731V16.3931C17.6988 15.6316 18.3147 15.0118 19.0716 15.0118H19.6797C20.9297 15.0118 22.7343 15.9252 23.5332 18.2175C24.1921 16.5688 24.5421 14.8503 24.5421 13.1789C24.5421 6.68024 19.2907 1.39347 12.8364 1.39347C6.38202 1.39347 1.13088 6.68024 1.13088 13.1789C1.13088 14.8515 1.48117 16.57 2.13984 18.2184C2.93839 15.9255 4.74243 15.0118 5.99329 15.0118H6.60139C7.35804 15.0118 7.97363 15.6316 7.97363 16.3931V25.2731C7.97363 26.0352 7.35804 26.6553 6.60139 26.6553H5.99329C4.34563 26.6553 1.73146 25.0747 1.73146 20.8334C1.73146 20.4391 1.76094 20.0751 1.80342 19.7262C0.76325 17.628 0.210938 15.3677 0.210938 13.1789ZM5.99329 15.9383H6.60139C6.8508 15.9383 7.05401 16.1423 7.05401 16.3931V25.2731C7.05401 25.5242 6.8508 25.7288 6.60139 25.7288H5.99329C4.7011 25.7288 2.65169 24.4002 2.65169 20.8331C2.65169 17.2672 4.70139 15.9383 5.99329 15.9383ZM19.0716 25.7288H19.6797C20.9716 25.7288 23.0213 24.4002 23.0216 20.8331C23.0216 17.2672 20.9719 15.9383 19.6797 15.9383H19.0716C18.8222 15.9383 18.6193 16.1423 18.6193 16.3931V25.2731C18.6193 25.5242 18.8222 25.7288 19.0716 25.7288Z" fill="black" fill-opacity="0.87"/>
</svg>
