<svg width="27" height="27" viewBox="0 0 27 27" fill="none" xmlns="http://www.w3.org/2000/svg">
<path fill-rule="evenodd" clip-rule="evenodd" d="M3.79698 0.0582275H23.3958C25.1942 0.0582275 26.6576 1.52534 26.6576 3.32823V22.9762C26.6576 24.7791 25.1942 26.2462 23.3955 26.2462H3.79698C1.99859 26.2462 0.535156 24.7791 0.535156 22.9759V3.32823C0.535156 1.52534 1.99859 0.0582275 3.79698 0.0582275ZM23.3955 25.32C24.6851 25.32 25.7334 24.2684 25.7334 22.9762V3.32823C25.7334 2.03571 24.6848 0.984409 23.3955 0.984409H3.79698C2.50798 0.984409 1.45902 2.036 1.45902 3.32823V22.9762C1.45902 24.2687 2.50798 25.32 3.79698 25.32H23.3955Z" fill="black" fill-opacity="0.87"/>
</svg>
