<svg width="28" height="27" viewBox="0 0 28 27" fill="none" xmlns="http://www.w3.org/2000/svg">
<path fill-rule="evenodd" clip-rule="evenodd" d="M20.3576 0.0582275H23.8578C25.6562 0.0582275 27.1196 1.52534 27.1196 3.32823V22.9762C27.1196 24.7791 25.6562 26.2462 23.8578 26.2462H20.3576C18.5593 26.2462 17.0961 24.7791 17.0961 22.9759V3.32823C17.0961 1.52534 18.5593 0.0582275 20.3576 0.0582275ZM23.8575 25.32C25.1471 25.32 26.1954 24.2684 26.1954 22.9762H26.1957V3.32823C26.1957 2.03542 25.1471 0.984118 23.8578 0.984118H20.3576C19.0686 0.984118 18.0203 2.03571 18.0203 3.32823V22.9762C18.0203 24.2687 19.0689 25.32 20.3576 25.32H23.8575Z" fill="black" fill-opacity="0.87"/>
<path fill-rule="evenodd" clip-rule="evenodd" d="M7.75907 26.2462H4.25892C2.46052 26.2462 0.99707 24.7791 0.99707 22.9759V3.32823C0.99707 1.52534 2.46052 0.0582275 4.25892 0.0582275H7.75907C9.55747 0.0582275 11.0206 1.52534 11.0206 3.32823V22.9762C11.0206 24.7791 9.55747 26.2462 7.75907 26.2462ZM4.25921 0.984118C2.96991 0.984118 1.92123 2.03571 1.92123 3.32823H1.92094V22.9759C1.92094 24.2684 2.96991 25.3197 4.25892 25.3197H7.75936C9.04808 25.3197 10.0968 24.2682 10.0968 22.9759V3.32823C10.0968 2.03542 9.04779 0.984118 7.75936 0.984118H4.25921Z" fill="black" fill-opacity="0.87"/>
</svg>
