<svg width="27" height="22" viewBox="0 0 27 22" fill="none" xmlns="http://www.w3.org/2000/svg">
<path d="M26.5761 7.23276C26.3955 7.05177 26.103 7.05177 25.9224 7.23276L22.6661 10.4978L19.4098 7.23276C19.2292 7.05177 18.9367 7.05177 18.7561 7.23276C18.5756 7.41345 18.5756 7.70705 18.7561 7.88775L22.0127 11.1528L18.7561 14.4173C18.5756 14.598 18.5756 14.8913 18.7561 15.0723C18.8464 15.1628 18.9648 15.2082 19.083 15.2082C19.2008 15.2082 19.3192 15.1628 19.4098 15.0723L22.6664 11.8078L25.9227 15.0723C26.013 15.1628 26.1314 15.2082 26.2495 15.2082C26.3677 15.2082 26.4858 15.1628 26.5764 15.0723C26.7566 14.8913 26.7566 14.598 26.5764 14.4173L23.3197 11.1528L26.5764 7.88775C26.7563 7.70705 26.7563 7.41345 26.5761 7.23276Z" fill="black" fill-opacity="0.87"/>
<path fill-rule="evenodd" clip-rule="evenodd" d="M8.26797 6.04064L13.5473 1.5037C14.4863 0.696817 15.1765 0.828921 15.5042 0.981102C15.8316 1.13183 16.3813 1.57062 16.3813 2.81019V19.4943C16.3813 20.7345 15.8318 21.1727 15.5042 21.324C15.3776 21.3825 15.1977 21.4377 14.9695 21.4377C14.6067 21.4377 14.124 21.2966 13.5473 20.8011L8.26797 16.2639C7.66455 15.7459 6.48294 15.308 5.68882 15.308H3.77899C2.02008 15.308 0.588867 13.8729 0.588867 12.1093V10.1955C0.588867 8.4319 2.02008 6.99738 3.77899 6.99738H5.68882C6.48381 6.99738 7.66455 6.55916 8.26797 6.04064ZM15.1184 20.4825C15.3277 20.3856 15.4577 20.0073 15.4577 19.4943H15.4574V2.8099C15.4574 2.29749 15.3274 1.91834 15.1181 1.82203C14.9091 1.72572 14.537 1.87266 14.1487 2.20641L8.86908 6.74335C8.09992 7.40533 6.70237 7.92327 5.68882 7.92327H3.77899C2.52947 7.92327 1.51215 8.94227 1.51215 10.1952V12.109C1.51215 13.3622 2.52947 14.3812 3.77899 14.3812H5.68882C6.70237 14.3812 8.09992 14.8998 8.86908 15.5606L11.9234 18.1852L14.149 20.0981C14.5373 20.4315 14.9094 20.5785 15.1184 20.4825Z" fill="black" fill-opacity="0.87"/>
</svg>
