<svg width="22" height="22" viewBox="0 0 22 22" fill="none" xmlns="http://www.w3.org/2000/svg">
<path fill-rule="evenodd" clip-rule="evenodd" d="M3.33857 6.99741H5.24841C6.04341 6.99741 7.22414 6.5592 7.82757 6.04068L13.1072 1.50374C14.0459 0.697145 14.7358 0.829249 15.0638 0.98114C15.3915 1.13187 15.9412 1.57066 15.9412 2.81023V19.4943C15.9412 20.7345 15.3918 21.1724 15.0641 21.324C14.9372 21.3825 14.7573 21.4378 14.5294 21.4378C14.1666 21.4378 13.6836 21.2966 13.1072 20.8011L7.82757 16.2639C7.22443 15.746 6.04282 15.308 5.24841 15.308H3.33857C1.57937 15.308 0.148438 13.8729 0.148438 12.1093V10.1956C0.148438 8.43222 1.57908 6.99741 3.33857 6.99741ZM14.6777 1.82265C14.4688 1.72633 14.097 1.87328 13.7083 2.20703L8.42897 6.74339C7.65922 7.40536 6.26225 7.9233 5.24841 7.9233H3.33857C2.08905 7.9233 1.07201 8.94231 1.07201 10.1953V12.109C1.07201 13.3623 2.08905 14.3813 3.33857 14.3813H5.24841C6.26196 14.3813 7.65922 14.8998 8.42897 15.5606L11.4827 18.1855L13.7083 20.0984C14.097 20.4319 14.4688 20.5788 14.6777 20.4828C14.8873 20.3859 15.0173 20.0076 15.0173 19.4946V2.81052C15.0173 2.29811 14.8873 1.91896 14.6777 1.82265Z" fill="black" fill-opacity="0.87"/>
<path d="M18.8176 15.0805C18.5996 15.2131 18.5 15.4872 18.6095 15.7186C18.7186 15.949 18.9955 16.0491 19.2158 15.9199C20.8911 14.9399 21.9511 13.1155 21.9511 11.1523C21.9511 9.18932 20.892 7.36518 19.2172 6.38459C18.9966 6.25568 18.7197 6.3552 18.6103 6.58652C18.5012 6.81756 18.6005 7.09195 18.8187 7.22435C20.1736 8.04956 21.0269 9.54489 21.0269 11.152C21.0269 12.759 20.173 14.2552 18.8176 15.0805Z" fill="black" fill-opacity="0.87"/>
</svg>
