<svg width="27" height="27" viewBox="0 0 27 27" fill="none" xmlns="http://www.w3.org/2000/svg">
<path d="M13.4147 21.0892C13.8787 21.0892 14.2547 20.7122 14.2547 20.2471C14.2547 19.782 13.8787 19.405 13.4147 19.405C12.9508 19.405 12.5747 19.782 12.5747 20.2471C12.5747 20.7122 12.9508 21.0892 13.4147 21.0892Z" fill="black" fill-opacity="0.87"/>
<path fill-rule="evenodd" clip-rule="evenodd" d="M0.353516 13.1522C0.353516 5.93248 6.21307 0.0582275 13.4147 0.0582275C20.6167 0.0582275 26.4759 5.93248 26.4759 13.1522C26.4759 20.372 20.6164 26.2462 13.4147 26.2462C6.21307 26.2462 0.353516 20.372 0.353516 13.1522ZM1.27767 13.1522C1.27767 19.8613 6.72216 25.3197 13.4147 25.3197C20.1073 25.3197 25.5518 19.8613 25.5518 13.1522C25.5518 6.44315 20.1073 0.9847 13.4147 0.9847C6.72216 0.9847 1.27767 6.44315 1.27767 13.1522Z" fill="black" fill-opacity="0.87"/>
<path d="M13.4147 5.67209C11.181 5.67209 9.33788 7.38012 9.11729 9.56215C9.09262 9.80424 9.29202 10.0021 9.53496 10.0021H9.57908C9.82231 10.0021 10.0159 9.80395 10.047 9.56244C10.2626 7.89224 11.6906 6.59797 13.4144 6.59797C15.2868 6.59797 16.8095 8.12531 16.8095 10.0021C16.8095 10.9111 16.4565 11.7663 15.8151 12.4094C15.7094 12.5156 15.5547 12.6413 15.3757 12.7865C14.522 13.4796 13.1262 14.6115 12.9669 16.9218C12.95 17.1648 13.1489 17.3626 13.3921 17.3626H13.4362C13.6794 17.3626 13.8739 17.1648 13.8939 16.9221C14.0501 15.054 15.1864 14.1319 15.9567 13.5063C16.1558 13.3445 16.328 13.2055 16.4684 13.0643C17.2843 12.2458 17.7334 11.1584 17.7334 10.0021C17.7342 7.61406 15.7965 5.67209 13.4147 5.67209Z" fill="black" fill-opacity="0.87"/>
</svg>
