<svg width="28" height="22" viewBox="0 0 28 22" fill="none" xmlns="http://www.w3.org/2000/svg">
<path fill-rule="evenodd" clip-rule="evenodd" d="M6.04529 15.308H4.13545C2.37624 15.308 0.945312 13.8729 0.945312 12.1093V10.1956C0.945312 8.43193 2.37624 6.99741 4.13545 6.99741H6.04529C6.84029 6.99741 8.02102 6.5592 8.62445 6.04068L13.9041 1.50374C14.8428 0.697145 15.5327 0.829249 15.8607 0.98114C16.1884 1.13187 16.7381 1.57066 16.7381 2.81023V19.4943C16.7381 20.7345 16.1887 21.1724 15.861 21.324C15.7341 21.3825 15.5542 21.4378 15.3263 21.4378C14.9635 21.4378 14.4805 21.2966 13.9041 20.8011L8.62445 16.2639C8.02102 15.746 6.84 15.308 6.04529 15.308ZM4.13574 7.92359C2.88621 7.92359 1.86918 8.9426 1.86918 10.1956H1.86889V12.109C1.86889 13.3623 2.88592 14.3813 4.13545 14.3813H6.04529C7.05914 14.3813 8.45611 14.8998 9.22585 15.5606L12.2802 18.1852L14.5058 20.0981C14.8944 20.4316 15.2662 20.5785 15.4752 20.4825C15.6848 20.3856 15.8148 20.0073 15.8148 19.4943V2.81023C15.8148 2.29782 15.6848 1.91867 15.4752 1.82236C15.2662 1.72604 14.8944 1.87299 14.5058 2.20674L9.22614 6.74368C8.4564 7.40565 7.05943 7.92359 6.04558 7.92359H4.13574Z" fill="black" fill-opacity="0.87"/>
<path d="M19.6144 15.0805C19.3965 15.2131 19.2969 15.4872 19.4063 15.7186C19.5155 15.949 19.7924 16.0491 20.0127 15.9199C21.688 14.9399 22.748 13.1155 22.748 11.1523C22.748 9.18932 21.6889 7.36518 20.0141 6.38459C19.7935 6.25568 19.5166 6.3552 19.4072 6.58652C19.2981 6.81756 19.3973 7.09195 19.6156 7.22435C20.9705 8.04956 21.8238 9.54489 21.8238 11.152C21.8238 12.759 20.9699 14.2552 19.6144 15.0805Z" fill="black" fill-opacity="0.87"/>
<path d="M19.9593 1.68673C19.7137 1.6166 19.4644 1.7714 19.4063 2.02048C19.3477 2.26956 19.5018 2.51747 19.7468 2.58934C23.536 3.69302 26.1439 7.15101 26.1439 11.1525C26.1439 15.1538 23.5363 18.6118 19.7468 19.7157C19.5018 19.787 19.3477 20.0352 19.4066 20.284C19.4653 20.5331 19.7143 20.6882 19.9599 20.6178C24.1676 19.4137 27.0677 15.5853 27.0677 11.1525C27.0677 6.7192 24.1676 2.8908 19.9593 1.68673Z" fill="black" fill-opacity="0.87"/>
</svg>
