<svg width="27" height="27" viewBox="0 0 27 27" fill="none" xmlns="http://www.w3.org/2000/svg">
<path fill-rule="evenodd" clip-rule="evenodd" d="M21.7584 24.8492C20.856 25.7495 19.6593 26.2447 18.388 26.2459C12.5618 26.2453 0.0517578 13.7039 0.0517578 7.86393C0.0517578 6.58915 0.546343 5.38945 1.44379 4.48567C2.53658 3.39014 3.59657 2.85794 4.68588 2.85794C6.10607 2.85794 7.27519 3.78878 8.32706 4.79498C9.38937 5.8102 10.2218 7.1583 10.2218 7.86364C10.2218 8.77003 9.80936 9.38487 9.4451 9.92725C8.74037 10.9777 8.18368 11.8076 11.3184 14.9501C12.9528 16.5886 14.1617 17.3847 15.015 17.3847C15.5041 17.3847 15.8866 17.1272 16.3295 16.8281C16.8706 16.4635 17.4836 16.05 18.388 16.05C19.0904 16.05 20.4351 16.8845 21.4492 17.9495L21.4504 17.9507C22.6776 19.2415 24.9591 21.6413 21.7584 24.8492ZM4.68559 3.78471C3.85403 3.78471 3.00795 4.22787 2.09744 5.14008C1.37471 5.8684 0.976202 6.8359 0.976202 7.86393C0.976202 10.2718 3.60964 14.4735 7.68561 18.5681C11.7674 22.6689 15.9682 25.3191 18.388 25.3191C19.4128 25.3185 20.3782 24.9187 21.1056 24.1933C23.4717 21.8213 22.3023 20.1892 20.7802 18.5894C19.7728 17.5302 18.6872 16.9768 18.388 16.9768C17.7657 16.9768 17.3393 17.264 16.8456 17.5969C16.349 17.9318 15.7862 18.3115 15.015 18.3115C13.8737 18.3115 12.5316 17.4767 10.665 15.6051C7.25546 12.187 7.69083 10.8814 8.67855 9.4096C9.01089 8.91494 9.29736 8.48749 9.29736 7.86334C9.29736 7.56276 8.74531 6.47451 7.68909 5.46539C6.83837 4.65211 5.83498 3.78471 4.68559 3.78471Z" fill="black" fill-opacity="0.87"/>
<path d="M13.5785 6.60868C16.8172 6.83622 19.4132 9.43845 19.6401 12.6855C19.6581 12.9406 19.8633 13.1484 20.1185 13.1484C20.3736 13.1484 20.5823 12.9406 20.5666 12.6852C20.3367 8.9272 17.3271 5.91033 13.5785 5.67988C13.3237 5.66446 13.1171 5.87367 13.1171 6.12886C13.1171 6.38521 13.3243 6.59093 13.5785 6.60868Z" fill="black" fill-opacity="0.87"/>
<path d="M13.5785 0.985835C19.9066 1.22414 25.0112 6.34096 25.2486 12.6845C25.2579 12.9403 25.464 13.1481 25.7197 13.1481C25.9748 13.1481 26.1826 12.9403 26.1736 12.6845C25.935 5.8303 20.4162 0.297966 13.5785 0.0584922C13.3237 0.0497629 13.1171 0.258102 13.1171 0.51358C13.1171 0.76993 13.3237 0.975942 13.5785 0.985835Z" fill="black" fill-opacity="0.87"/>
</svg>
