<svg width="23" height="20" viewBox="0 0 23 20" fill="none" xmlns="http://www.w3.org/2000/svg">
<path fill-rule="evenodd" clip-rule="evenodd" d="M10.5612 19.171C10.5005 19.1331 9.06698 18.2448 8.24731 17.6666C2.17413 13.3872 -0.688598 8.41351 0.58937 4.36311C1.31586 2.06031 3.33833 0.513184 5.62172 0.513184C7.07296 0.513184 8.53756 1.07564 9.63935 2.05682C10.4834 2.8087 11.0514 4.00491 11.1992 4.33692C11.3614 3.97174 11.9254 2.79852 12.7584 2.05682C13.8599 1.07593 15.3239 0.513184 16.7754 0.513184C19.0591 0.513184 21.0816 2.06031 21.8081 4.3634C23.086 8.4138 20.2233 13.3872 14.1501 17.6666C13.3302 18.2448 11.8963 19.1331 11.8357 19.171C11.6598 19.2806 11.4334 19.3409 11.1989 19.3409C10.9649 19.3409 10.7382 19.2806 10.5612 19.171ZM5.62172 1.43907C3.74264 1.43907 2.07429 2.72636 1.46999 4.64215C0.320018 8.28781 3.05214 12.8736 8.77905 16.9089C9.57636 17.4711 11.0325 18.3737 11.0471 18.383C11.0662 18.3946 11.1199 18.415 11.1992 18.415C11.2784 18.415 11.3315 18.3952 11.3504 18.383C11.3652 18.3737 12.8219 17.4708 13.619 16.9089C19.3459 12.8733 22.078 8.2881 20.9277 4.64245C20.3234 2.72636 18.6548 1.43907 16.7757 1.43907C15.5474 1.43907 14.3069 1.91657 13.3722 2.74905C12.5651 3.46719 12.02 4.76495 12.0142 4.77804C11.7884 5.41615 11.4061 5.51509 11.1989 5.51509C10.9916 5.51509 10.6094 5.41645 10.3746 4.75564C10.3743 4.75564 9.82946 3.46457 9.02605 2.74905C8.09087 1.91657 6.84976 1.43907 5.62172 1.43907Z" fill="black" fill-opacity="0.87"/>
</svg>
