<svg width="28" height="27" viewBox="0 0 28 27" fill="none" xmlns="http://www.w3.org/2000/svg">
<path fill-rule="evenodd" clip-rule="evenodd" d="M26.4676 9.46771C26.4676 10.1653 26.2798 10.722 25.9277 11.1153C26.6681 11.4982 27.0971 12.2954 27.0971 13.3782C27.0971 15.0488 26.1819 15.8958 24.3772 15.8958H20.4756C20.1999 15.8958 19.9961 15.9735 19.9012 16.1145C19.7999 16.2653 19.806 16.513 19.9184 16.794C20.837 19.0883 21.6567 22.2598 20.3436 24.3389C19.6037 25.5102 18.2915 26.1598 16.4432 26.2699C15.8717 26.3062 15.3939 25.8384 15.3939 25.2616V23.156C15.3939 20.5618 14.5429 19.4546 13.1335 17.6209C12.2418 16.4612 11.163 15.0549 9.99674 12.8797C9.54714 13.7517 8.64098 14.3509 7.59637 14.3509H3.67684C2.18698 14.3509 0.974609 13.1351 0.974609 11.6409V2.79391C0.974609 1.30001 2.18698 0.0835713 3.67684 0.0838624H7.59579C8.53649 0.0838624 9.36545 0.569798 9.84958 1.30292C12.746 0.49497 16.5541 0.0838624 21.1751 0.0838624C23.1741 0.0838624 24.3676 0.894142 24.3676 2.25062C24.3676 2.49228 24.3673 2.98025 24.1267 3.40825C25.0366 3.70813 25.5576 4.51434 25.5576 5.69001C25.5576 6.18293 25.4615 6.72301 25.1385 7.14461C25.977 7.48962 26.4676 8.3162 26.4676 9.46771ZM9.37386 11.6409C9.37386 12.6241 8.57655 13.4242 7.59608 13.4242H3.67684C2.69608 13.4242 1.89877 12.6241 1.89877 11.6409V2.79391C1.89877 1.81098 2.69608 1.0106 3.67684 1.0106H7.59637C8.5719 1.0106 9.36603 1.80254 9.37357 2.77965L9.37415 11.5535V11.6409H9.37386ZM20.4756 14.9691H24.3772C25.8725 14.9691 26.173 14.3608 26.173 13.3788C26.173 12.6532 25.9347 11.7882 24.7975 11.7882H24.167C23.9119 11.7882 23.705 11.5809 23.705 11.3247C23.705 11.0691 23.9119 10.8612 24.167 10.8612C25.1318 10.8612 25.5434 10.4445 25.5434 9.46771C25.5434 8.74885 25.3048 7.89143 24.167 7.89143H23.2577C23.0026 7.89143 22.7956 7.68411 22.7956 7.4279C22.7956 7.17228 23.0026 6.96438 23.2577 6.96438C24.2605 6.96438 24.6335 6.61965 24.6335 5.68972C24.6335 4.69047 24.1833 4.20454 23.2577 4.20454H22.4351C22.18 4.20454 21.973 3.99725 21.973 3.74104C21.973 3.48539 22.18 3.27752 22.4351 3.27752C23.4437 3.27752 23.4437 2.80177 23.4437 2.25004C23.4437 1.13143 21.8575 1.0106 21.1754 1.0106C16.7451 1.0106 13.0879 1.39026 10.2969 2.13911V2.77906C10.2971 2.78401 10.298 2.78896 10.298 2.79391V11.4461C11.6248 14.1407 12.8656 15.7543 13.8646 17.0549C15.2889 18.9072 16.3175 20.2459 16.3175 23.156V25.2616C16.3175 25.3067 16.348 25.3446 16.3878 25.3446H16.388C17.9229 25.2534 18.9907 24.7477 19.5628 23.8428C20.7244 22.0033 19.7468 18.8536 19.0607 17.1393C18.8285 16.5599 18.8555 16.0117 19.1358 15.5956C19.4078 15.1915 19.8835 14.9691 20.4756 14.9691Z" fill="black" fill-opacity="0.87"/>
</svg>
