<svg width="27" height="24" viewBox="0 0 27 24" fill="none" xmlns="http://www.w3.org/2000/svg">
<path d="M2.07034 23.0772L24.4683 0.623014L25.1215 1.27792L2.72361 23.7321L2.07034 23.0772Z" fill="black" fill-opacity="0.87"/>
<path d="M22.8182 5.8726C22.6632 5.72944 22.4882 5.57552 22.3004 5.41635L21.6328 6.0856C24.1368 8.19722 25.7334 10.7988 25.7334 12.1778C25.7334 14.7416 20.2207 21.5382 13.5964 21.5382C11.5324 21.5382 9.57788 20.8766 7.86309 19.8896L7.17636 20.5777C8.88419 21.595 11.0767 22.4644 13.5964 22.4644C17.868 22.4644 21.2079 19.9696 22.8182 18.4824C25.0789 16.3958 26.6576 13.8032 26.6576 12.1778C26.6576 10.5527 25.0789 7.95978 22.8182 5.8726Z" fill="black" fill-opacity="0.87"/>
<path d="M4.37457 18.483C4.52928 18.6259 4.70459 18.7801 4.89209 18.9387L5.55995 18.2691C3.05597 16.1578 1.45931 13.5565 1.45931 12.1778C1.45931 9.61343 6.97202 2.81708 13.5964 2.81708C15.6603 2.81708 17.6149 3.47905 19.3297 4.46546L20.0161 3.77759C18.3086 2.75976 16.1163 1.8909 13.5964 1.8909C9.32478 1.8909 5.98488 4.38574 4.37457 5.87263C2.11382 7.95981 0.535156 10.5527 0.535156 12.1778C0.535156 13.8032 2.11382 16.3958 4.37457 18.483Z" fill="black" fill-opacity="0.87"/>
<path d="M13.5964 16.6263C12.8774 16.6263 12.2006 16.4502 11.5997 16.1441L10.9191 16.8267C11.7074 17.2862 12.6203 17.5533 13.5964 17.5533C16.5531 17.5533 18.9584 15.1417 18.9584 12.1781C18.9584 11.1995 18.692 10.2847 18.2337 9.4938L17.5528 10.1767C17.8584 10.7785 18.0337 11.4573 18.0337 12.1781C18.0337 14.6307 16.0435 16.6263 13.5964 16.6263Z" fill="black" fill-opacity="0.87"/>
<path d="M13.5964 7.72876C14.3153 7.72876 14.9922 7.90509 15.593 8.2112L16.2736 7.52828C15.485 7.06941 14.5725 6.80258 13.5964 6.80258C10.6396 6.80258 8.23434 9.21361 8.23434 12.1778C8.23434 13.1557 8.50079 14.0706 8.9588 14.8615L9.64001 14.1791C9.33438 13.5765 9.15907 12.8979 9.15907 12.1778C9.15907 9.72485 11.149 7.72876 13.5964 7.72876Z" fill="black" fill-opacity="0.87"/>
</svg>
