<svg width="24" height="27" viewBox="0 0 24 27" fill="none" xmlns="http://www.w3.org/2000/svg">
<path d="M13.0237 2.02303C9.75047 2.02303 6.67349 3.30419 4.3596 5.62996C2.04513 7.95603 0.770508 11.0491 0.770508 14.3392C0.770508 17.6292 2.04513 20.7211 4.35931 23.0478C6.67407 25.3741 9.75076 26.6553 13.0243 26.6553C16.297 26.6553 19.3739 25.3741 21.6884 23.0481C22.4492 22.2834 23.1052 21.4261 23.6384 20.4988C23.7655 20.2771 23.69 19.994 23.4699 19.8662C23.2493 19.7379 22.9677 19.8139 22.8403 20.035C22.3473 20.8925 21.7403 21.6857 21.0368 22.3928C18.8966 24.5443 16.0506 25.7288 13.0243 25.7288C9.99768 25.7288 7.15173 24.5443 5.01124 22.3925C2.87075 20.2416 1.69195 17.381 1.69195 14.3392C1.69224 11.2967 2.87075 8.43641 5.01124 6.28524C7.15173 4.13375 9.99681 2.9492 13.0237 2.9492C16.0503 2.94891 18.8963 4.13375 21.0368 6.28524C21.4916 6.74236 21.9056 7.23964 22.2746 7.76311L15.945 6.60328C15.6975 6.55643 15.4551 6.72403 15.4088 6.97602C15.3634 7.22742 15.5293 7.46864 15.7797 7.51462L22.607 8.76608C22.6669 8.77714 22.7265 8.78267 22.7853 8.78267C23.0091 8.78267 23.2175 8.70323 23.3741 8.55454C23.5715 8.36686 23.6642 8.09134 23.6283 7.79745L22.783 0.873673C22.7517 0.619651 22.521 0.440119 22.2694 0.470672C22.017 0.501515 21.8372 0.73255 21.8682 0.986573L22.5523 6.59717C22.281 6.2608 21.9936 5.93665 21.6881 5.62967C19.3737 3.30419 16.2961 2.02303 13.0237 2.02303Z" fill="black" fill-opacity="0.87"/>
</svg>
