<svg width="28" height="22" viewBox="0 0 28 22" fill="none" xmlns="http://www.w3.org/2000/svg">
<path fill-rule="evenodd" clip-rule="evenodd" d="M14.0583 0.890625C18.3299 0.890625 21.6698 3.38576 23.2801 4.87207C25.5409 6.95983 27.1196 9.55215 27.1196 11.1778C27.1196 12.8032 25.5409 15.3958 23.2801 17.483C21.6698 18.9702 18.3299 21.4651 14.0583 21.4651C9.78671 21.4651 6.4468 18.9699 4.8365 17.483C2.57574 15.3958 0.99707 12.8032 0.99707 11.1778C0.99707 9.55215 2.57574 6.95983 4.8365 4.87207C6.4468 3.38547 9.78671 0.890625 14.0583 0.890625ZM1.92123 11.1778C1.92123 13.7419 7.43394 20.5386 14.0583 20.5386C20.6827 20.5386 26.1954 13.7419 26.1954 11.1778C26.1954 8.61346 20.6827 1.81681 14.0583 1.81681C7.43394 1.81681 1.92123 8.61346 1.92123 11.1778Z" fill="black" fill-opacity="0.87"/>
<path fill-rule="evenodd" clip-rule="evenodd" d="M8.69629 11.1778C8.69629 8.21335 11.1016 5.80231 14.0583 5.80231C17.0151 5.80231 19.4204 8.21364 19.4204 11.1778C19.4204 14.1417 17.0151 16.5533 14.0583 16.5533C11.1016 16.5533 8.69629 14.1417 8.69629 11.1778ZM9.62102 11.1778C9.62102 13.6308 11.611 15.6263 14.0583 15.6263C16.5054 15.6263 18.4956 13.6308 18.4956 11.1778C18.4956 8.7243 16.5054 6.72907 14.0583 6.72907C11.611 6.72907 9.62102 8.7243 9.62102 11.1778Z" fill="black" fill-opacity="0.87"/>
</svg>
