<svg width="27" height="24" viewBox="0 0 27 24" fill="none" xmlns="http://www.w3.org/2000/svg">
<path fill-rule="evenodd" clip-rule="evenodd" d="M11.2478 0.483154C14.5938 0.483154 17.3155 3.21251 17.3155 6.5663C17.3155 9.92038 14.5938 12.6494 11.2478 12.6494C7.90214 12.6494 5.18018 9.92038 5.18018 6.5663C5.18018 3.21251 7.90214 0.483154 11.2478 0.483154ZM11.2476 1.4265C8.42081 1.4265 6.12059 3.73219 6.12059 6.5663C6.12059 9.40041 8.42052 11.7064 11.2476 11.7064C14.0746 11.7064 16.3745 9.40041 16.3745 6.5663C16.3745 3.73219 14.0743 1.4265 11.2476 1.4265Z" fill="black" fill-opacity="0.87"/>
<path fill-rule="evenodd" clip-rule="evenodd" d="M0.0517578 21.1684C0.0517578 19.4039 2.0629 14.8237 11.2476 14.8237C20.4325 14.8237 22.4434 19.4039 22.4436 21.1684C22.4436 22.8604 21.0516 23.8724 19.706 23.8724H2.78939C1.4435 23.8724 0.0517578 22.8604 0.0517578 21.1684ZM2.78939 22.9291H19.706C20.5771 22.9291 21.5027 22.3122 21.5029 21.1684C21.5029 19.7671 19.6192 15.7667 11.2478 15.7667C2.87647 15.7667 0.992457 19.7671 0.992457 21.1684C0.992457 22.3122 1.91835 22.9291 2.78939 22.9291Z" fill="black" fill-opacity="0.87"/>
<path d="M25.7041 9.21237H19.1813C18.9212 9.21237 18.7108 9.42334 18.7108 9.68378C18.7108 9.94422 18.9215 10.1555 19.1813 10.1555H25.7041C25.9641 10.1555 26.1743 9.94422 26.1743 9.68378C26.1743 9.42334 25.9638 9.21237 25.7041 9.21237Z" fill="black" fill-opacity="0.87"/>
</svg>
