<svg width="27" height="24" viewBox="0 0 27 24" fill="none" xmlns="http://www.w3.org/2000/svg">
<path fill-rule="evenodd" clip-rule="evenodd" d="M5.48193 6.5663C5.48193 3.21251 8.2036 0.483154 11.5496 0.483154C14.8956 0.483154 17.6172 3.21222 17.6172 6.5663C17.6172 9.92038 14.8956 12.6494 11.5496 12.6494C8.2036 12.6494 5.48193 9.92038 5.48193 6.5663ZM6.42234 6.5663C6.42234 9.40041 8.72256 11.7064 11.5496 11.7064C14.3763 11.7064 16.6766 9.40041 16.6766 6.5663C16.6766 3.73219 14.3763 1.4265 11.5496 1.4265C8.72256 1.4265 6.42234 3.73219 6.42234 6.5663Z" fill="black" fill-opacity="0.87"/>
<path fill-rule="evenodd" clip-rule="evenodd" d="M0.353516 21.1684C0.353516 19.4039 2.36495 14.8237 11.5496 14.8237C20.7343 14.8237 22.7451 19.4039 22.7454 21.1684C22.7454 22.8604 21.3534 23.8724 20.0078 23.8724H3.09115C1.74526 23.8724 0.353516 22.8604 0.353516 21.1684ZM3.09115 22.9291H20.0078C20.8788 22.9291 21.8044 22.3122 21.8047 21.1684C21.8047 19.7671 19.9207 15.7667 11.5496 15.7667C3.17822 15.7667 1.29421 19.7671 1.29421 21.1684C1.29421 22.3122 2.21982 22.9291 3.09115 22.9291Z" fill="black" fill-opacity="0.87"/>
<path d="M26.0057 9.21242H23.2147V6.41467C23.2147 6.15395 23.0043 5.94299 22.7442 5.94299C22.4842 5.94299 22.274 6.15395 22.274 6.41467V9.21242H19.4833C19.2232 9.21242 19.0131 9.42338 19.0131 9.68381C19.0131 9.94423 19.2235 10.1555 19.4833 10.1555H22.274V12.9529C22.274 13.2137 22.4844 13.4246 22.7442 13.4246C23.0043 13.4246 23.2147 13.2134 23.2147 12.9529V10.1555H26.0057C26.2658 10.1555 26.4759 9.94423 26.4759 9.68381C26.4759 9.42338 26.2655 9.21242 26.0057 9.21242Z" fill="black" fill-opacity="0.87"/>
</svg>
