<svg width="28" height="25" viewBox="0 0 28 25" fill="none" xmlns="http://www.w3.org/2000/svg">
<path fill-rule="evenodd" clip-rule="evenodd" d="M22.9075 24.3366H5.10624C3.35691 24.3366 2.03047 23.7145 1.37103 22.5847C0.711871 21.4551 0.821005 19.9906 1.67869 18.4627L10.6953 2.39371C11.5544 0.862297 12.7308 0.019043 14.0067 0.019043C15.283 0.019043 16.4591 0.861715 17.3185 2.39313L26.3345 18.4627C27.1922 19.9906 27.3013 21.4545 26.6422 22.5847C25.9833 23.7145 24.6566 24.3366 22.9075 24.3366ZM11.5002 2.84735L2.48413 18.9163C1.79392 20.146 1.68188 21.2828 2.16892 22.1171C2.65567 22.9513 3.69854 23.4105 5.10624 23.4105H22.9078C24.3152 23.4105 25.3587 22.9513 25.8452 22.1171C26.3319 21.2828 26.2196 20.146 25.5294 18.9163L16.5136 2.84735C15.8249 1.62029 14.9347 0.944352 14.0067 0.944352C13.0788 0.944352 12.1886 1.62029 11.5002 2.84735Z" fill="black" fill-opacity="0.87"/>
<path d="M14.0068 10.9356C13.7284 10.9356 13.5032 11.1617 13.5032 11.4408V19.2376C13.5032 19.5166 13.7284 19.7424 14.0068 19.7424C14.2851 19.7424 14.5103 19.5166 14.5103 19.2376V11.4411C14.5103 11.162 14.2851 10.9356 14.0068 10.9356Z" fill="black" fill-opacity="0.87"/>
<path d="M14.0067 9.14267C14.4618 9.14267 14.8308 8.77282 14.8308 8.31657C14.8308 7.86033 14.4618 7.49048 14.0067 7.49048C13.5516 7.49048 13.1827 7.86033 13.1827 8.31657C13.1827 8.77282 13.5516 9.14267 14.0067 9.14267Z" fill="black" fill-opacity="0.87"/>
</svg>
