<svg width="24" height="27" viewBox="0 0 24 27" fill="none" xmlns="http://www.w3.org/2000/svg">
<path d="M16.6618 0.0838623H4.06231C2.26393 0.0838623 0.800781 1.55096 0.800781 3.35385V20.0748C0.800781 21.8777 2.26393 23.3448 4.06231 23.3448H15.2079C15.4633 23.3448 15.6703 23.1373 15.6703 22.8813C15.6703 22.6255 15.4633 22.418 15.2079 22.418H4.06231C2.77361 22.418 1.72465 21.3667 1.72465 20.0745V3.35385C1.72465 2.06105 2.77361 1.01004 4.06231 1.01004H16.6618C17.9502 1.01004 18.9994 2.06075 18.9994 3.35385V11.0155C18.9994 11.2716 19.2061 11.4788 19.4615 11.4788C19.7169 11.4788 19.9236 11.2716 19.9236 11.0155V3.35385C19.9233 1.55096 18.4601 0.0838623 16.6618 0.0838623Z" fill="black" fill-opacity="0.87"/>
<path d="M5.51586 7.1557H15.2079C15.4633 7.1557 15.6703 6.94852 15.6703 6.69244C15.6703 6.43637 15.4633 6.22919 15.2079 6.22919H5.51586C5.26103 6.22919 5.05408 6.43637 5.05408 6.69244C5.05408 6.94852 5.26103 7.1557 5.51586 7.1557Z" fill="black" fill-opacity="0.87"/>
<path d="M5.51586 16.7292H15.2079C15.4633 16.7292 15.6703 16.522 15.6703 16.2659C15.6703 16.0099 15.4633 15.8027 15.2079 15.8027H5.51586C5.26103 15.8027 5.05408 16.0099 5.05408 16.2659C5.05408 16.522 5.26103 16.7292 5.51586 16.7292Z" fill="black" fill-opacity="0.87"/>
<path d="M5.51586 11.9423H15.2079C15.4633 11.9423 15.6703 11.7348 15.6703 11.4788C15.6703 11.2227 15.4633 11.0155 15.2079 11.0155H5.51586C5.26103 11.0155 5.05408 11.2227 5.05408 11.4788C5.05408 11.7348 5.26103 11.9423 5.51586 11.9423Z" fill="black" fill-opacity="0.87"/>
<path d="M23.1628 19.5994C22.9822 19.4187 22.6897 19.4187 22.5094 19.5994L19.9227 22.1923V15.6095C19.9227 15.3534 19.7161 15.1462 19.4606 15.1462C19.2052 15.1462 18.9986 15.3534 18.9986 15.6095V22.1923L16.4127 19.5994C16.2319 19.4187 15.9396 19.4187 15.7591 19.5994C15.5786 19.7804 15.5786 20.0737 15.7591 20.2544L18.7382 23.2412C18.9309 23.4345 19.1875 23.5404 19.4606 23.5404C19.7341 23.5404 19.9909 23.4345 20.1834 23.2412L23.1628 20.2544C23.343 20.0737 23.343 19.7804 23.1628 19.5994Z" fill="black" fill-opacity="0.87"/>
<path d="M23.1627 25.8086C23.1627 25.5525 22.9561 25.3453 22.7007 25.3453H16.2211C15.9657 25.3453 15.7591 25.5525 15.7591 25.8086C15.7591 26.0646 15.9657 26.2718 16.2211 26.2718H22.7007C22.9561 26.2718 23.1627 26.0646 23.1627 25.8086Z" fill="black" fill-opacity="0.87"/>
</svg>
