<svg width="27" height="27" viewBox="0 0 27 27" fill="none" xmlns="http://www.w3.org/2000/svg">
<path fill-rule="evenodd" clip-rule="evenodd" d="M0.290039 13.1778C0.290039 5.95811 6.14959 0.0838623 13.3513 0.0838623C20.5532 0.0838623 26.4125 5.95811 26.4125 13.1778C26.4125 20.3975 20.5529 26.2718 13.3513 26.2718C6.14959 26.2718 0.290039 20.3975 0.290039 13.1778ZM1.21419 13.1778C1.21419 19.8869 6.65869 25.3453 13.3513 25.3453C20.0438 25.3453 25.4883 19.8869 25.4883 13.1778C25.4883 6.46819 20.0438 1.01004 13.3513 1.01004C6.65869 1.01004 1.21419 6.46819 1.21419 13.1778Z" fill="black" fill-opacity="0.87"/>
<path d="M13.3513 8.45465C13.8854 8.45465 14.3184 8.02057 14.3184 7.48511C14.3184 6.94964 13.8854 6.51556 13.3513 6.51556C12.8171 6.51556 12.3842 6.94964 12.3842 7.48511C12.3842 8.02057 12.8171 8.45465 13.3513 8.45465Z" fill="black" fill-opacity="0.87"/>
<path d="M13.3513 10.4991C13.0491 10.4991 12.8041 10.7447 12.8041 11.0476V19.3285C12.8041 19.6314 13.0491 19.877 13.3513 19.877C13.6534 19.877 13.8984 19.6314 13.8984 19.3285V11.0476C13.8984 10.7447 13.6534 10.4991 13.3513 10.4991Z" fill="black" fill-opacity="0.87"/>
</svg>
