<svg width="28" height="27" viewBox="0 0 28 27" fill="none" xmlns="http://www.w3.org/2000/svg">
<path fill-rule="evenodd" clip-rule="evenodd" d="M25.1438 1.01076C25.6473 0.92085 26.1483 1.04608 26.5169 1.35639C26.8849 1.66641 27.0965 2.13962 27.0971 2.65603V19.9348C27.0971 22.1759 24.963 23.9998 22.34 23.9998C19.7168 23.9998 17.5826 22.1759 17.5826 19.9348C17.5826 17.6934 19.7168 15.8701 22.34 15.8701C23.9131 15.8701 25.3066 16.5293 26.173 17.5375V2.65573C26.173 2.41256 26.0847 2.20413 25.9245 2.06897C25.7637 1.9341 25.5443 1.88331 25.3066 1.92593L18.6986 3.11288L11.233 4.36433C10.8365 4.43061 10.4891 4.8431 10.4891 5.24739V22.8146C10.4891 25.056 8.35462 26.8793 5.73169 26.8793C3.10906 26.8793 0.974609 25.056 0.974609 22.8146C0.974609 20.5735 3.10906 18.7496 5.7314 18.7496C7.30511 18.7496 8.69857 19.4085 9.56435 20.4171V5.24739C9.56435 4.38068 10.2305 3.58988 11.0806 3.44742L18.5407 2.19712L25.1438 1.01076ZM18.5065 19.9345C18.5065 21.6635 20.2259 23.0697 22.3394 23.0697C24.453 23.0697 26.1724 21.6633 26.1724 19.9345C26.1724 18.2057 24.4527 16.7996 22.3394 16.7996C20.2259 16.7996 18.5065 18.2057 18.5065 19.9345ZM5.73169 25.9495C3.61815 25.9495 1.89874 24.5434 1.89874 22.8146C1.89874 21.0853 3.61815 19.6794 5.73169 19.6794C7.84555 19.6794 9.56464 21.0853 9.56464 22.8146C9.56464 24.5431 7.84555 25.9495 5.73169 25.9495Z" fill="black" fill-opacity="0.87"/>
</svg>
