<svg width="27" height="28" viewBox="0 0 27 28" fill="none" xmlns="http://www.w3.org/2000/svg">
<path fill-rule="evenodd" clip-rule="evenodd" d="M23.3958 7.99922H21.0578V3.12971C21.0578 1.94573 20.0965 0.9823 18.9161 0.9823H8.27669C7.09566 0.9823 6.13494 1.94573 6.13494 3.12971V7.99922H3.79698C1.99859 7.99922 0.535156 9.46632 0.535156 11.2695V18.2867C0.535156 20.0896 1.99859 21.5564 3.79698 21.5564H6.13494V25.0228C6.13494 26.2062 7.09566 27.1703 8.27669 27.1703H18.9161C20.0965 27.1703 21.0578 26.2062 21.0578 25.0228V21.5564H23.3958C25.1942 21.5564 26.6576 20.0896 26.6576 18.2867V11.2695C26.6576 9.46632 25.1942 7.99922 23.3958 7.99922ZM8.27669 1.90877C7.60534 1.90877 7.05909 2.45668 7.05909 3.12971V7.99922H20.1337V3.12971C20.1337 2.45668 19.5874 1.90877 18.9161 1.90877H8.27669ZM23.3955 20.6303C24.6851 20.6303 25.7334 19.5787 25.7334 18.2867V11.2695C25.7334 9.97728 24.6848 8.92598 23.3955 8.92598H3.79698C2.50769 8.92598 1.45902 9.97757 1.45902 11.2695V18.2864C1.45902 19.5787 2.50798 20.63 3.79698 20.63H6.13494V17.1635C6.13494 15.9799 7.09566 15.0164 8.27669 15.0164H18.9158C20.0962 15.0164 21.0575 15.9799 21.0575 17.1635V20.6303H23.3955ZM20.1337 25.0228C20.1337 25.6959 19.5874 26.2438 18.9161 26.2438H8.27669C7.60534 26.2438 7.05909 25.6959 7.05909 25.0228V17.1635C7.05909 16.4905 7.60534 15.9429 8.27669 15.9429H18.9161C19.5874 15.9429 20.1337 16.4908 20.1337 17.1635V25.0228Z" fill="black" fill-opacity="0.87"/>
<path d="M23.0461 12.6729C23.6259 12.6729 24.0959 12.2017 24.0959 11.6204C24.0959 11.0392 23.6259 10.568 23.0461 10.568C22.4663 10.568 21.9962 11.0392 21.9962 11.6204C21.9962 12.2017 22.4663 12.6729 23.0461 12.6729Z" fill="black" fill-opacity="0.87"/>
</svg>
