<svg width="28" height="28" viewBox="0 0 28 28" fill="none" xmlns="http://www.w3.org/2000/svg">
<path fill-rule="evenodd" clip-rule="evenodd" d="M0.99707 14.0766C0.99707 6.85659 6.85635 0.98291 14.0583 0.98291C21.2603 0.98291 27.1196 6.85659 27.1196 14.0766C27.1196 21.2961 21.26 27.1697 14.0583 27.1697C6.85664 27.1697 0.99707 21.2964 0.99707 14.0766ZM1.92123 14.0766C1.92123 20.7851 7.36574 26.2433 14.0583 26.2433C20.7509 26.2433 26.1954 20.7854 26.1954 14.0766C26.1954 7.36754 20.7509 1.9088 14.0583 1.9088C7.36574 1.9088 1.92123 7.36725 1.92123 14.0766Z" fill="black" fill-opacity="0.87"/>
<path d="M14.0583 15.4803C14.8318 15.4803 15.4588 14.8517 15.4588 14.0763C15.4588 13.3009 14.8318 12.6724 14.0583 12.6724C13.2849 12.6724 12.6579 13.3009 12.6579 14.0763C12.6579 14.8517 13.2849 15.4803 14.0583 15.4803Z" fill="black" fill-opacity="0.87"/>
<path fill-rule="evenodd" clip-rule="evenodd" d="M6.59692 14.0766C6.59692 9.95231 9.94378 6.59735 14.0583 6.59735C18.1729 6.59735 21.5198 9.95231 21.5198 14.0766C21.5198 18.2012 18.1729 21.5559 14.0583 21.5559C9.94378 21.5559 6.59692 18.2012 6.59692 14.0766ZM7.52108 14.0763C7.52108 17.69 10.4535 20.6294 14.0583 20.6294C17.6632 20.6294 20.5956 17.6897 20.5956 14.0763C20.5956 10.463 17.6632 7.52324 14.0583 7.52324C10.4535 7.52324 7.52108 10.4627 7.52108 14.0763Z" fill="black" fill-opacity="0.87"/>
</svg>
