<svg width="27" height="27" viewBox="0 0 27 27" fill="none" xmlns="http://www.w3.org/2000/svg">
<path fill-rule="evenodd" clip-rule="evenodd" d="M0.523438 12.0391C0.523438 5.78597 6.3827 0.699097 13.5847 0.699097C20.7866 0.699097 26.6459 5.78597 26.6462 12.0391C26.6462 18.291 20.7869 23.3779 13.585 23.3779C12.1291 23.3779 10.3182 22.9828 10.2419 22.9656C10.1754 22.9513 10.093 22.9432 10.0041 22.9432C9.68023 22.9432 9.29245 23.0465 9.08348 23.1879L4.6653 26.1795C4.42555 26.3415 4.19393 26.4236 3.97654 26.4236C3.74463 26.4236 3.53826 26.3296 3.39546 26.1582C3.2692 26.0057 3.13655 25.7223 3.22537 25.2364L4.07261 20.5816C4.12979 20.2647 3.92313 19.6572 3.56003 19.3173C3.53245 19.2917 3.37398 19.1378 2.96327 18.6408C1.3669 16.7078 0.523438 14.4251 0.523438 12.0391ZM10.4398 22.061C10.4578 22.065 12.2309 22.4514 13.5847 22.4514C20.2772 22.4514 25.7217 17.7804 25.7217 12.0388C25.7217 6.29635 20.2772 1.62528 13.5847 1.62528C6.89209 1.62528 1.44759 6.29635 1.4473 12.0391C1.4473 14.2069 2.21762 16.285 3.67497 18.0498C4.05055 18.504 4.19161 18.6411 4.19306 18.6428C4.76253 19.1753 5.10212 20.0808 4.98109 20.7472L4.13385 25.4023C4.1324 25.4092 4.13124 25.4162 4.13008 25.4229C4.13588 25.4191 4.14169 25.4153 4.14778 25.4113L8.56567 22.42C9.03878 22.0999 9.87411 21.9358 10.4398 22.061Z" fill="black" fill-opacity="0.87"/>
<path d="M13.5847 13.4424C14.358 13.4424 14.9849 12.814 14.9849 12.0388C14.9849 11.2635 14.358 10.6351 13.5847 10.6351C12.8114 10.6351 12.1845 11.2635 12.1845 12.0388C12.1845 12.814 12.8114 13.4424 13.5847 13.4424Z" fill="black" fill-opacity="0.87"/>
<path d="M19.0446 13.4424C19.8179 13.4424 20.4448 12.814 20.4448 12.0388C20.4448 11.2635 19.8179 10.6351 19.0446 10.6351C18.2713 10.6351 17.6444 11.2635 17.6444 12.0388C17.6444 12.814 18.2713 13.4424 19.0446 13.4424Z" fill="black" fill-opacity="0.87"/>
<path d="M8.12477 13.4424C8.89809 13.4424 9.52499 12.814 9.52499 12.0388C9.52499 11.2635 8.89809 10.6351 8.12477 10.6351C7.35145 10.6351 6.72455 11.2635 6.72455 12.0388C6.72455 12.814 7.35145 13.4424 8.12477 13.4424Z" fill="black" fill-opacity="0.87"/>
</svg>
