<svg width="27" height="28" viewBox="0 0 27 28" fill="none" xmlns="http://www.w3.org/2000/svg">
<path fill-rule="evenodd" clip-rule="evenodd" d="M22.0493 10.3288C24.6198 10.3288 26.7113 8.23229 26.7113 5.65569C26.7113 3.0785 24.6201 0.9823 22.0493 0.9823C19.4792 0.9823 17.3876 3.0785 17.3876 5.65598C17.3876 6.20883 17.4889 6.73754 17.666 7.23046L9.02525 11.3449C8.17772 10.1708 6.80369 9.4026 5.25056 9.4026C2.6804 9.4026 0.588867 11.4991 0.588867 14.0763C0.588867 16.6526 2.6804 18.75 5.25056 18.75C6.80369 18.75 8.17772 17.9818 9.02525 16.8077L17.666 20.9221C17.4892 21.4153 17.3879 21.944 17.3879 22.4969C17.3879 25.0735 19.4792 27.1703 22.0493 27.1703C24.6201 27.1703 26.7113 25.0735 26.7113 22.4966C26.7113 19.9197 24.6201 17.8232 22.0493 17.8232C20.3595 17.8232 18.881 18.7325 18.0633 20.0853L9.49197 16.0043C9.75929 15.4156 9.91255 14.7641 9.91255 14.0763C9.91255 13.3884 9.75958 12.7366 9.49197 12.1483L18.0636 8.06643C18.8812 9.41977 20.3595 10.3288 22.0493 10.3288ZM25.7871 5.65598C25.7871 3.58946 24.1107 1.90848 22.0493 1.90848C19.9886 1.90848 18.3121 3.58946 18.3118 5.65598C18.3118 7.72221 19.9883 9.40289 22.0493 9.40289C24.1107 9.40289 25.7871 7.72221 25.7871 5.65598ZM5.25056 17.8235C3.1895 17.8235 1.51302 16.1428 1.51302 14.0763C1.51302 12.0098 3.18979 10.3288 5.25056 10.3288C7.31162 10.3288 8.98839 12.0098 8.98839 14.0763C8.98839 16.1428 7.31162 17.8235 5.25056 17.8235ZM25.7871 22.4969C25.7871 20.4306 24.1107 18.75 22.0493 18.75C19.9886 18.75 18.3121 20.4306 18.3118 22.4969C18.3118 24.5634 19.9883 26.2441 22.0493 26.2441C24.1107 26.2441 25.7871 24.5634 25.7871 22.4969Z" fill="black" fill-opacity="0.87"/>
</svg>
