<svg width="22" height="28" viewBox="0 0 22 28" fill="none" xmlns="http://www.w3.org/2000/svg">
<path fill-rule="evenodd" clip-rule="evenodd" d="M2.19066 26.712C1.82891 27.0722 1.51299 27.1703 1.27504 27.1703C1.14482 27.1703 1.03884 27.1412 0.961175 27.1086C0.741906 27.0184 0.374023 26.7492 0.374023 25.9618V4.3297C0.374023 2.48374 1.88088 0.9823 3.73314 0.9823H18.2034C20.0554 0.9823 21.5622 2.48374 21.5622 4.3297V25.9621C21.5622 26.7495 21.1943 27.0184 20.9745 27.1089C20.8974 27.1412 20.7908 27.1703 20.6612 27.1703C20.4233 27.1703 20.1073 27.0722 19.7456 26.712L15.7042 22.6843L11.2531 18.2489C11.096 18.0921 10.8402 18.0915 10.6826 18.2489L6.2321 22.6843L2.19066 26.712ZM1.30307 4.3297V14.4249H1.30336V25.9621C1.30336 26.0832 1.31767 26.1658 1.33197 26.2176C1.37898 26.1911 1.44759 26.1425 1.53314 26.0567L5.57457 22.029L10.0259 17.5936C10.5453 17.0763 11.3912 17.0763 11.9106 17.5936L16.362 22.029L20.4031 26.0564C20.4887 26.1422 20.5573 26.1908 20.6043 26.2173C20.6186 26.1655 20.6326 26.0829 20.6326 25.9618V4.3297C20.6326 2.9947 19.543 1.90848 18.2034 1.90848H3.73285C2.3927 1.90848 1.30307 2.9947 1.30307 4.3297Z" fill="black" fill-opacity="0.87"/>
</svg>
