<svg width="27" height="28" viewBox="0 0 27 28" fill="none" xmlns="http://www.w3.org/2000/svg">
<path fill-rule="evenodd" clip-rule="evenodd" d="M22.144 8.17987C22.1431 9.75261 20.8663 11.0329 19.2975 11.0329C17.7276 11.0329 16.4505 9.75261 16.4505 8.17928C16.4505 6.60567 17.7276 5.32565 19.2969 5.32565C20.0577 5.32565 20.7723 5.62216 21.3101 6.16164C21.8477 6.70053 22.144 7.41779 22.144 8.17987ZM20.6571 6.81634C20.2937 6.45232 19.8107 6.25213 19.2969 6.25213C18.237 6.25213 17.3749 7.11692 17.3752 8.17928C17.3752 9.24194 18.2375 10.1061 19.2972 10.1061H19.2978C20.3572 10.1061 21.2196 9.24194 21.2196 8.17987C21.2196 7.66425 21.0199 7.18093 20.6571 6.81634Z" fill="black" fill-opacity="0.87"/>
<path fill-rule="evenodd" clip-rule="evenodd" d="M11.3905 27.1708C10.0388 27.1708 8.77074 26.6462 7.82104 25.6944L1.82595 19.6842C0.876544 18.7319 0.353516 17.4612 0.353516 16.1061C0.353516 14.7501 0.876544 13.4794 1.82595 12.5274L11.7684 2.56051C12.5225 1.80455 13.9467 1.18098 15.0117 1.13908L18.9666 0.984281C20.0524 0.935979 21.4863 1.51037 22.2458 2.27186L25.1901 5.22294C25.952 5.98705 26.516 7.43088 26.4739 8.51041L26.3198 12.4759C26.2786 13.5432 25.656 14.9713 24.9022 15.7272L14.96 25.6944C14.01 26.6462 12.7425 27.1708 11.3905 27.1708ZM12.4218 3.21579L2.47959 13.1826C0.8719 14.7941 0.8719 17.4172 2.47959 19.029L8.47439 25.0391C9.24936 25.816 10.285 26.2443 11.3902 26.2443C12.4955 26.2443 13.5311 25.816 14.3061 25.0391L24.2486 15.0722C24.8383 14.4807 25.3646 13.2755 25.3965 12.4404L25.5506 8.47433C25.5828 7.65057 25.1187 6.46134 24.5368 5.87822L21.5922 2.92714C21.0326 2.36497 19.9056 1.90814 19.081 1.90814C19.0543 1.90814 19.0284 1.90872 19.0026 1.91017L15.0477 2.06468C14.2141 2.09669 13.0116 2.62423 12.4218 3.21579Z" fill="black" fill-opacity="0.87"/>
</svg>
