<svg width="28" height="28" viewBox="0 0 28 28" fill="none" xmlns="http://www.w3.org/2000/svg">
<path d="M16.3445 20.6299H6.0691C5.81368 20.6299 5.60703 20.8371 5.60703 21.0932C5.60703 21.3493 5.81368 21.5564 6.0691 21.5564H16.3442C16.5996 21.5564 16.8063 21.3493 16.8063 21.0932C16.8063 20.8371 16.5999 20.6299 16.3445 20.6299Z" fill="black" fill-opacity="0.87"/>
<path d="M16.3445 15.7182H6.0691C5.81368 15.7182 5.60703 15.9257 5.60703 16.1815C5.60703 16.4375 5.81368 16.645 6.0691 16.645H16.3442C16.5996 16.645 16.8063 16.4375 16.8063 16.1815C16.8063 15.9254 16.5999 15.7182 16.3445 15.7182Z" fill="black" fill-opacity="0.87"/>
<path fill-rule="evenodd" clip-rule="evenodd" d="M26.1436 10.3291C26.1436 10.073 26.3503 9.86584 26.6057 9.86584C26.8611 9.86584 27.0678 10.073 27.0678 10.3291V23.9003C27.0678 25.7031 25.6043 27.1703 23.8057 27.1703H4.20714C2.40875 27.1703 0.945312 25.7031 0.945312 23.9V4.2523C0.945312 2.44941 2.40875 0.9823 4.20714 0.9823H18.2064C20.0048 0.9823 21.468 2.44941 21.4677 4.2523V23.9003C21.4677 25.1928 22.5167 26.2441 23.8057 26.2441C25.0952 26.2441 26.1436 25.1925 26.1436 23.9003V10.3291ZM1.86918 23.9C1.86918 25.1925 2.91814 26.2438 4.20714 26.2438H21.5339C20.9238 25.6487 20.5441 24.8183 20.5441 23.9V4.2523C20.5441 2.95978 19.4954 1.90848 18.2064 1.90848H4.20714C2.91785 1.90848 1.86918 2.96007 1.86918 4.2523V23.9Z" fill="black" fill-opacity="0.87"/>
<path fill-rule="evenodd" clip-rule="evenodd" d="M7.00718 5.19276H15.4064C16.433 5.19276 17.2684 6.03048 17.2684 7.05937V9.86611C17.2684 10.8959 16.433 11.7327 15.4064 11.7327H7.00718C5.98028 11.7327 5.14523 10.8959 5.14523 9.86611V7.05937C5.14523 6.03048 5.98028 5.19276 7.00718 5.19276ZM15.4067 10.806C15.9239 10.806 16.3445 10.3846 16.3445 9.86582H16.3442V7.05908C16.3442 6.54027 15.9237 6.11894 15.4064 6.11894H7.00718C6.48967 6.11894 6.06939 6.54027 6.06939 7.05908V9.86582C6.06939 10.3846 6.48967 10.806 7.00718 10.806H15.4067Z" fill="black" fill-opacity="0.87"/>
</svg>
