<svg width="27" height="27" viewBox="0 0 27 27" fill="none" xmlns="http://www.w3.org/2000/svg">
<path fill-rule="evenodd" clip-rule="evenodd" d="M21.4813 11.1086C21.4813 13.8124 20.448 16.2784 18.7573 18.132L26.6837 26.0788C26.8665 26.2619 26.8665 26.5587 26.6837 26.742C26.5008 26.9253 26.2048 26.9253 26.0219 26.742L18.0952 18.7954C16.2463 20.4903 13.7862 21.5262 11.0895 21.5262C5.35965 21.5262 0.698242 16.8528 0.698242 11.1086C0.698242 5.36475 5.35994 0.69165 11.0898 0.69165C16.8196 0.69165 21.4813 5.36475 21.4813 11.1086ZM1.6343 11.1086C1.6343 16.3355 5.87629 20.5878 11.0898 20.5878C16.3035 20.5878 20.5452 16.3355 20.5452 11.1086C20.5452 5.88181 16.3035 1.62976 11.0898 1.62976C5.876 1.62976 1.6343 5.88181 1.6343 11.1086Z" fill="black" fill-opacity="0.87"/>
<path d="M15.229 10.2843H6.9505C6.69189 10.2843 6.48233 10.4944 6.48233 10.7534C6.48233 11.0123 6.69189 11.2222 6.9505 11.2222H15.2293C15.4879 11.2222 15.6972 11.0121 15.6972 10.7534C15.6972 10.4941 15.4876 10.2843 15.229 10.2843Z" fill="black" fill-opacity="0.87"/>
</svg>
