<svg width="27" height="28" viewBox="0 0 27 28" fill="none" xmlns="http://www.w3.org/2000/svg">
<path fill-rule="evenodd" clip-rule="evenodd" d="M20.783 11.3999C20.783 14.1033 19.7494 16.5694 18.0587 18.4229L25.9854 26.3695C26.1683 26.5525 26.1683 26.8496 25.9854 27.0326C25.8029 27.2159 25.5065 27.2159 25.324 27.0326L17.397 19.086C15.5481 20.781 13.0882 21.8171 10.3912 21.8171C4.6614 21.8171 0 17.1438 0 11.3996C0 5.65539 4.6614 0.9823 10.3912 0.9823C16.121 0.9823 20.7827 5.65539 20.783 11.3999ZM0.935764 11.3996C0.935764 16.6264 5.17747 20.8787 10.3912 20.8787C15.605 20.8787 19.8467 16.6264 19.8467 11.3996C19.8467 6.17246 15.605 1.92012 10.3912 1.92012C5.17747 1.92012 0.935764 6.17275 0.935764 11.3996Z" fill="black" fill-opacity="0.87"/>
<path d="M14.8849 10.9305H10.8591V6.8941C10.8591 6.63513 10.649 6.42534 10.3912 6.42534C10.1326 6.42534 9.92333 6.63513 9.92333 6.8941V10.9305H5.89757C5.63896 10.9305 5.42969 11.1403 5.42969 11.3996C5.42969 11.6583 5.63925 11.8684 5.89757 11.8684H9.92333V15.1939C9.92333 15.4535 10.1329 15.6633 10.3912 15.6633C10.6492 15.6633 10.8591 15.4532 10.8591 15.1939V11.8684H14.8849C15.1438 11.8684 15.3527 11.6583 15.3527 11.3996C15.3527 11.1403 15.1438 10.9305 14.8849 10.9305Z" fill="black" fill-opacity="0.87"/>
</svg>
