<svg width="26" height="28" viewBox="0 0 26 28" fill="none" xmlns="http://www.w3.org/2000/svg">
<path fill-rule="evenodd" clip-rule="evenodd" d="M3.84979 15.9098H2.87744C1.81309 15.9098 0.947266 15.0416 0.947266 13.9748V12.52C0.947266 11.4529 1.81309 10.585 2.87744 10.585H3.84979V1.36097C3.84979 1.09589 4.06429 0.880859 4.3287 0.880859C4.59312 0.880859 4.80733 1.09589 4.80733 1.36097V10.5847H5.77997C6.84432 10.5847 7.71014 11.4526 7.71014 12.5197V13.9745C7.71014 15.0416 6.84432 15.9098 5.77997 15.9098H4.80733V26.5887C4.80733 26.8541 4.59312 27.0688 4.3287 27.0688C4.06429 27.0688 3.84979 26.8541 3.84979 26.5887V15.9098ZM2.87744 11.5452C2.34106 11.5452 1.9051 11.9825 1.9051 12.52V13.9748C1.9051 14.5126 2.34106 14.9496 2.87744 14.9496H5.77997C6.31606 14.9496 6.75231 14.5126 6.75231 13.9748V12.52C6.75231 11.9825 6.31606 11.5452 5.77997 11.5452H2.87744Z" fill="black" fill-opacity="0.87"/>
<path fill-rule="evenodd" clip-rule="evenodd" d="M12.5572 21.7294H11.5849C10.5206 21.7294 9.65448 20.8611 9.65448 19.7947V18.3395C9.65448 17.2722 10.5206 16.4045 11.5849 16.4045H12.5572V1.36097C12.5572 1.09589 12.7717 0.880859 13.0362 0.880859C13.3009 0.880859 13.5151 1.09589 13.5151 1.36097V16.4045H14.4874C15.5517 16.4045 16.4175 17.2722 16.4175 18.3395V19.7947C16.4175 20.8611 15.5517 21.7294 14.4874 21.7294H13.5151V26.5887C13.5151 26.8541 13.3009 27.0688 13.0362 27.0688C12.7717 27.0688 12.5572 26.8541 12.5572 26.5887V21.7294ZM11.5849 17.3647C11.0485 17.3647 10.6126 17.8018 10.6126 18.3395V19.7947C10.6126 20.3321 11.0485 20.7692 11.5849 20.7692H14.4874C15.0238 20.7692 15.4597 20.3321 15.4597 19.7947V18.3395C15.4597 17.8018 15.0238 17.3647 14.4874 17.3647H11.5849Z" fill="black" fill-opacity="0.87"/>
<path fill-rule="evenodd" clip-rule="evenodd" d="M21.2647 11.5449H20.2924C19.228 11.5449 18.3622 10.6772 18.3622 9.61017V8.15529C18.3622 7.08827 19.228 6.22029 20.2924 6.22029H21.2647V1.36097C21.2647 1.09589 21.4789 0.880859 21.7437 0.880859C22.0084 0.880859 22.2226 1.09589 22.2226 1.36097V6.22H23.1949C24.2593 6.22 25.1251 7.08798 25.1251 8.155V9.60988C25.1251 10.6769 24.2593 11.5449 23.1949 11.5449H22.2226V26.5884C22.2226 26.8538 22.0084 27.0685 21.7437 27.0685C21.4789 27.0685 21.2647 26.8538 21.2647 26.5884V11.5449ZM20.2924 7.18051C19.7563 7.18051 19.32 7.61756 19.32 8.15529V9.61017C19.32 10.1476 19.7563 10.5849 20.2924 10.5849H23.1949C23.7313 10.5849 24.1673 10.1476 24.1673 9.61017V8.15529C24.1673 7.61756 23.7313 7.18051 23.1949 7.18051H20.2924Z" fill="black" fill-opacity="0.87"/>
</svg>
