<svg width="27" height="28" viewBox="0 0 27 28" fill="none" xmlns="http://www.w3.org/2000/svg">
<path fill-rule="evenodd" clip-rule="evenodd" d="M0.535156 13.9748C0.535156 6.75511 6.39471 0.880859 13.5964 0.880859C20.7983 0.880859 26.6576 6.75511 26.6576 13.9748C26.6576 21.1946 20.798 27.0688 13.5964 27.0688C6.39471 27.0688 0.535156 21.1949 0.535156 13.9748ZM1.45931 13.9748C1.45931 20.6839 6.90381 26.1423 13.5964 26.1423C20.2889 26.1423 25.7334 20.6842 25.7334 13.9748C25.7334 7.26548 20.2889 1.80733 13.5964 1.80733C6.90381 1.80733 1.45931 7.26577 1.45931 13.9748Z" fill="black" fill-opacity="0.87"/>
<path d="M14.1224 13.8471C14.0962 13.818 14.0605 13.7313 14.0585 13.6943V5.55425C14.0585 5.29848 13.8515 5.09131 13.5964 5.09131C13.3413 5.09131 13.1343 5.29848 13.1343 5.55425V13.6941C13.1343 13.9725 13.2716 14.3045 13.4675 14.5009L18.169 19.2139C18.2596 19.3044 18.378 19.3501 18.4958 19.3501C18.6137 19.3501 18.7321 19.3044 18.8227 19.2139C19.0029 19.0329 19.0029 18.7396 18.8227 18.5586L14.1224 13.8471Z" fill="black" fill-opacity="0.87"/>
</svg>
