<svg width="28" height="28" viewBox="0 0 28 28" fill="none" xmlns="http://www.w3.org/2000/svg">
<path fill-rule="evenodd" clip-rule="evenodd" d="M27.1196 13.9748C27.1196 21.1946 21.2603 27.0688 14.0583 27.0688C6.85664 27.0688 0.99707 21.1946 0.99707 13.9748C0.99707 6.75511 6.85635 0.880859 14.0583 0.880859C21.2603 0.880859 27.1196 6.75511 27.1196 13.9748ZM26.1954 13.9748C26.1954 7.26548 20.7509 1.80704 14.0583 1.80704C7.36574 1.80704 1.92094 7.26548 1.92094 13.9748C1.92094 20.6839 7.36603 26.1423 14.0583 26.1423C20.7506 26.1423 26.1954 20.6839 26.1954 13.9748Z" fill="black" fill-opacity="0.87"/>
<path fill-rule="evenodd" clip-rule="evenodd" d="M12.7168 19.5319C12.3372 19.7601 11.9633 19.8762 11.606 19.8762C10.8546 19.8762 10.0964 19.3099 10.0964 18.0448V9.90435C10.0964 8.63947 10.8546 8.07323 11.606 8.07323C11.9633 8.07323 12.3372 8.18904 12.7168 8.41745L19.3746 12.4219C20.0207 12.8104 20.3916 13.3763 20.3916 13.9746C20.3913 14.5725 20.0207 15.1382 19.3746 15.5266L12.7168 19.5319ZM11.606 8.9997C11.0775 8.9997 11.0206 9.63258 11.0206 9.90464V18.0448C11.0206 18.3165 11.0775 18.9497 11.606 18.9497C11.7912 18.9497 12.0106 18.8767 12.2414 18.7376L18.8997 14.7326C19.2605 14.5155 19.4674 14.2393 19.4674 13.9748C19.4674 13.7103 19.2605 13.4336 18.8997 13.2166L12.2414 9.21182C12.0106 9.07303 11.7912 8.9997 11.606 8.9997Z" fill="black" fill-opacity="0.87"/>
</svg>
