<svg width="27" height="28" viewBox="0 0 27 28" fill="none" xmlns="http://www.w3.org/2000/svg">
<path fill-rule="evenodd" clip-rule="evenodd" d="M13.6508 5.38023C15.4524 5.38023 16.9181 6.84938 16.9181 8.65548C16.9181 10.4613 15.4524 11.9307 13.6508 11.9307C11.8492 11.9307 10.3835 10.4613 10.3835 8.65548C10.3835 6.84938 11.8492 5.38023 13.6508 5.38023ZM13.6508 6.30642C12.3586 6.30642 11.3076 7.36034 11.3076 8.65548C11.3076 9.95062 12.3586 11.0043 13.6508 11.0043C14.943 11.0043 15.994 9.95062 15.994 8.65548C15.994 7.36034 14.943 6.30642 13.6508 6.30642Z" fill="black" fill-opacity="0.87"/>
<path fill-rule="evenodd" clip-rule="evenodd" d="M25.2945 21.5664L26.3252 25.183C26.4619 25.664 26.3855 26.145 26.1156 26.5043C25.8454 26.8625 25.4048 27.0688 24.9061 27.0688H2.39583C1.89718 27.0688 1.456 26.8625 1.18636 26.5037C0.916135 26.1447 0.839799 25.6634 0.976797 25.183L2.00747 21.5664L3.16121 17.5178C3.35249 16.845 4.04938 16.3184 4.74743 16.3184H9.01671C7.43398 13.8907 5.89536 10.9449 5.89536 8.65548C5.89536 4.36851 9.37458 0.880859 13.6508 0.880859C17.9271 0.880859 21.4063 4.36851 21.4063 8.65548C21.4063 10.9452 19.868 13.8907 18.285 16.3187H22.5542C23.252 16.3187 23.9492 16.845 24.1404 17.5181L25.2945 21.5664ZM6.81981 8.65548C6.81981 4.87918 9.88397 1.80704 13.6508 1.80704C17.4177 1.80704 20.4819 4.87918 20.4819 8.65548C20.4819 12.9299 14.2464 20.1954 14.1834 20.2678C13.8929 20.6042 13.4091 20.6048 13.1179 20.2678C13.0549 20.1954 6.81981 12.9323 6.81981 8.65548ZM24.9058 26.1426C25.1151 26.1426 25.2826 26.0731 25.3775 25.9462C25.473 25.8194 25.4942 25.6384 25.4367 25.4373L24.4057 21.821L23.252 17.7724C23.1736 17.496 22.8407 17.2448 22.5542 17.2448H17.6624C16.2718 19.2561 14.9987 20.7392 14.8821 20.8748C14.5581 21.249 14.1213 21.455 13.6508 21.455C13.1806 21.455 12.7438 21.249 12.4199 20.8748C12.3032 20.7392 11.0302 19.2561 9.63958 17.2448H4.74772C4.46124 17.2448 4.12833 17.4962 4.04967 17.7724L2.89593 21.821L1.86525 25.4373C1.80778 25.6384 1.82839 25.8194 1.92417 25.9462C2.01908 26.0731 2.18627 26.1426 2.39583 26.1426H24.9058Z" fill="black" fill-opacity="0.87"/>
</svg>
