<svg width="27" height="21" viewBox="0 0 27 21" fill="none" xmlns="http://www.w3.org/2000/svg">
<path fill-rule="evenodd" clip-rule="evenodd" d="M20.3723 6.80945C20.6475 6.80945 20.9749 6.94592 21.169 7.14116L24.0986 10.0771C24.2922 10.2715 24.4283 10.5997 24.4283 10.8755V11.502C24.4283 12.061 23.9749 12.5157 23.417 12.5157H20.0356C19.4786 12.5157 19.0247 12.0612 19.0247 11.5026V7.82291C19.0247 7.26395 19.478 6.80945 20.0344 6.80945H20.3723ZM23.417 11.5896C23.4638 11.5896 23.5041 11.5491 23.5041 11.5026V10.8755C23.5021 10.8403 23.4687 10.7586 23.444 10.7312L20.5148 7.79498C20.4884 7.77141 20.4068 7.73737 20.3703 7.73533L20.0356 7.73591C19.9883 7.73591 19.9485 7.77548 19.9485 7.8232V11.5026C19.9485 11.5491 19.9892 11.5896 20.0356 11.5896H23.417Z" fill="black" fill-opacity="0.87"/>
<path fill-rule="evenodd" clip-rule="evenodd" d="M20.5984 4.62534C21.1228 4.62534 21.7971 4.90555 22.1677 5.27655L25.941 9.05925C26.311 9.43083 26.5911 10.1073 26.5911 10.6326V16.5246C26.5911 17.5534 25.7555 18.3912 24.7292 18.3912H24.0213C23.7992 19.7713 22.6048 20.8307 21.1661 20.8307C19.7273 20.8307 18.5338 19.7713 18.3115 18.3912H9.90938C9.68676 19.7713 8.49325 20.8307 7.05449 20.8307C5.61573 20.8307 4.42194 19.7713 4.19932 18.3912H2.33069C1.3038 18.3912 0.46875 17.5534 0.46875 16.5246V3.00111C0.46875 1.50752 1.68054 0.292114 3.17096 0.292114H15.0842C16.5744 0.292114 17.7861 1.50752 17.7861 3.00111V4.62534H20.5984ZM1.39232 3.00111C1.39232 2.0179 2.19021 1.21888 3.17096 1.21888H15.0842C16.0647 1.21888 16.862 2.0179 16.862 3.00111V13.0733C16.862 13.1571 16.7915 13.2278 16.7082 13.2278H1.39232V3.00111ZM24.7292 17.4641C25.2464 17.4641 25.667 17.0425 25.667 16.5243V10.6326C25.667 10.3561 25.4827 9.91007 25.2873 9.71424L21.5141 5.93154C21.3193 5.73629 20.8744 5.55181 20.5981 5.55181H17.7859V13.073C17.7859 13.6689 17.3026 14.154 16.7079 14.154H1.39203V16.5243C1.39203 17.0425 1.81318 17.4641 2.3304 17.4641H4.19903C4.42165 16.0837 5.61544 15.0251 7.0542 15.0251C8.49296 15.0251 9.68647 16.0837 9.90909 17.4641H18.3115C18.5338 16.0837 19.7273 15.0251 21.1661 15.0251C22.6048 15.0251 23.7986 16.0837 24.0213 17.4641H24.7292ZM5.08283 17.9276C5.08283 19.0174 5.96722 19.9037 7.0542 19.9037C8.14147 19.9037 9.02557 19.0176 9.02557 17.9276C9.02557 16.8376 8.14118 15.9516 7.0542 15.9516C5.96722 15.9516 5.08283 16.8376 5.08283 17.9276ZM21.1661 19.9037C20.0794 19.9037 19.1953 19.0174 19.1953 17.9276C19.1953 16.8376 20.0794 15.9516 21.1661 15.9516C22.2531 15.9516 23.1375 16.8376 23.1375 17.9276C23.1375 19.0176 22.2531 19.9037 21.1661 19.9037Z" fill="black" fill-opacity="0.87"/>
</svg>
