<svg width="27" height="15" viewBox="0 0 27 15" fill="none" xmlns="http://www.w3.org/2000/svg">
<path fill-rule="evenodd" clip-rule="evenodd" d="M23.0738 2.51414C23.8618 2.03628 24.6287 1.96437 25.235 2.31161C25.8407 2.65827 26.1742 3.36096 26.1742 4.28968V11.3686C26.1742 12.2974 25.8407 12.9998 25.2347 13.3467C24.9819 13.4911 24.7015 13.5631 24.4028 13.5631C23.9855 13.5631 23.5327 13.4227 23.0735 13.1439L19.1746 10.7778V11.3686C19.1746 13.1873 17.7111 14.6673 15.9127 14.6673H3.31359C1.5152 14.6673 0.0517578 13.1873 0.0517578 11.3686V4.28968C0.0517578 2.47099 1.5152 0.991627 3.31359 0.991333H15.913C17.7114 0.991333 19.1749 2.4707 19.1749 4.28939V4.88025L23.0738 2.51414ZM18.2504 11.3686C18.2504 12.6719 17.202 13.7324 15.9127 13.7324H3.31359C2.02459 13.7324 0.975623 12.6722 0.975623 11.3686V4.28968C0.975623 2.98613 2.0243 1.92562 3.31359 1.92562H15.9127C17.2017 1.92562 18.2504 2.98613 18.2504 4.28968V11.3686ZM24.779 12.5336C25.0785 12.3622 25.2501 11.9375 25.2501 11.3686V4.28968C25.2501 3.72083 25.0785 3.2961 24.779 3.12468C24.4803 2.95355 24.0316 3.02312 23.5486 3.31576L19.1749 5.96981V9.6888L23.5486 12.3425C24.0316 12.6355 24.4806 12.7045 24.779 12.5336Z" fill="black" fill-opacity="0.87"/>
</svg>
