<svg width="27" height="26" viewBox="0 0 27 26" fill="none" xmlns="http://www.w3.org/2000/svg">
<path fill-rule="evenodd" clip-rule="evenodd" d="M18.5376 7.95253L24.8687 8.87452C25.9696 9.03476 26.3106 9.60336 26.416 9.92795C26.521 10.2522 26.5785 10.913 25.7821 11.6907L21.2006 16.1665C20.9919 16.3704 20.841 16.8357 20.8903 17.124L21.9717 23.4437C22.1169 24.2918 21.8864 24.7798 21.6673 25.0401C21.4249 25.3283 21.0668 25.4868 20.6593 25.4868C20.3252 25.4868 19.9624 25.3848 19.581 25.1841L13.9175 22.2006C13.6731 22.0718 13.1565 22.0718 12.9127 22.2006L7.24856 25.1841C6.40193 25.6305 5.60346 25.5645 5.16231 25.0401C4.94317 24.7801 4.71271 24.2915 4.85812 23.4437L5.93927 17.1243C5.98862 16.8357 5.83798 16.3704 5.629 16.1668L1.04722 11.6907C0.2505 10.913 0.308549 10.2525 0.413617 9.92795C0.518395 9.60336 0.859722 9.03476 1.96062 8.87452L8.29168 7.95253C8.58106 7.91037 8.97609 7.62274 9.10496 7.36068L11.9369 1.6113C12.4291 0.61197 13.074 0.462769 13.4148 0.462769C13.7555 0.462769 14.4004 0.61197 14.8927 1.61159L17.7246 7.36068C17.8538 7.62274 18.2482 7.91008 18.5376 7.95253ZM20.5556 15.5037L25.1371 11.0276C25.4529 10.7196 25.6021 10.4151 25.5365 10.2138C25.4709 10.0126 25.1717 9.85465 24.7355 9.79095L18.4038 8.8687C17.8097 8.78231 17.161 8.30999 16.8954 7.77075L14.0638 2.02139C13.8687 1.62497 13.6258 1.38852 13.4145 1.38852C13.2032 1.38852 12.9603 1.62526 12.7652 2.02139L9.93359 7.77075C9.66805 8.30999 9.01905 8.78202 8.42462 8.8687L2.09355 9.79095C1.65731 9.85465 1.35807 10.0126 1.29247 10.2138C1.22717 10.4157 1.37664 10.7196 1.69243 11.0276L6.27451 15.5037C6.70437 15.9231 6.95221 16.6871 6.85063 17.2807L5.76948 23.5996C5.70388 23.9826 5.74045 24.29 5.86932 24.4433C5.8937 24.4724 5.96859 24.5611 6.17147 24.5611C6.29657 24.5611 6.51106 24.5273 6.81957 24.3645L12.4825 21.3804C12.7382 21.2461 13.0694 21.1716 13.4151 21.1716C13.7608 21.1716 14.0919 21.2461 14.3479 21.3804L20.0112 24.3645C20.3194 24.5273 20.5336 24.5611 20.6593 24.5611C20.8619 24.5611 20.9364 24.4727 20.9611 24.4433C21.0903 24.29 21.1269 23.9826 21.0613 23.5998L19.9795 17.2807C19.8779 16.6871 20.1258 15.9231 20.5556 15.5037Z" fill="black" fill-opacity="0.87"/>
</svg>
