<svg width="28" height="28" viewBox="0 0 28 28" fill="none" xmlns="http://www.w3.org/2000/svg">
<path fill-rule="evenodd" clip-rule="evenodd" d="M2.80726 0.880859H6.30709C7.33371 0.880859 8.16875 1.71858 8.16875 2.74748V6.25637C8.16875 7.28527 7.33371 8.12241 6.30709 8.12241H2.80726C1.78065 8.12241 0.945312 7.28527 0.945312 6.25637V2.74748C0.945312 1.71858 1.78065 0.880859 2.80726 0.880859ZM6.30709 7.19593C6.82374 7.19593 7.2446 6.77402 7.2446 6.25637V2.74748C7.2446 2.22896 6.82374 1.80733 6.30709 1.80733H2.80726C2.29004 1.80733 1.86947 2.22896 1.86947 2.74748V6.25637C1.86947 6.77402 2.29004 7.19593 2.80726 7.19593H6.30709Z" fill="black" fill-opacity="0.87"/>
<path fill-rule="evenodd" clip-rule="evenodd" d="M21.706 0.880859H25.2058C26.2324 0.880859 27.0678 1.71858 27.0678 2.74748V6.25637C27.0678 7.28527 26.2324 8.12241 25.2058 8.12241H21.706C20.6794 8.12241 19.8441 7.28527 19.8441 6.25637V2.74748C19.8441 1.71858 20.6794 0.880859 21.706 0.880859ZM25.2058 7.19593C25.7231 7.19593 26.1436 6.77402 26.1436 6.25637V2.74748C26.1436 2.22896 25.7231 1.80733 25.2058 1.80733H21.706C21.1891 1.80733 20.7685 2.22896 20.7685 2.74748V6.25637C20.7685 6.77402 21.1891 7.19593 21.706 7.19593H25.2058Z" fill="black" fill-opacity="0.87"/>
<path fill-rule="evenodd" clip-rule="evenodd" d="M12.2569 0.880859H15.7562C16.7828 0.880859 17.6181 1.71858 17.6184 2.74748V6.25637C17.6184 7.28527 16.7831 8.12241 15.7565 8.12241H12.2569C11.2306 8.12241 10.3953 7.28527 10.3953 6.25637V2.74748C10.3953 1.71858 11.2306 0.880859 12.2569 0.880859ZM15.7565 7.19593C16.274 7.19593 16.6943 6.77402 16.6943 6.25637V2.74748C16.6943 2.22896 16.274 1.80733 15.7565 1.80733H12.2569C11.7397 1.80733 11.3191 2.22896 11.3191 2.74748V6.25637C11.3191 6.77402 11.7397 7.19593 12.2569 7.19593H15.7565Z" fill="black" fill-opacity="0.87"/>
<path fill-rule="evenodd" clip-rule="evenodd" d="M2.80726 19.8267H6.30709C7.33371 19.8267 8.16875 20.6644 8.16875 21.6933V25.2022C8.16875 26.2311 7.33371 27.0688 6.30709 27.0688H2.80726C1.78065 27.0688 0.945312 26.2311 0.945312 25.2022V21.6933C0.945312 20.6644 1.78065 19.8267 2.80726 19.8267ZM6.30709 26.1423C6.82374 26.1423 7.2446 25.7207 7.2446 25.2022V21.6933C7.2446 21.1751 6.82374 20.7537 6.30709 20.7537H2.80726C2.29004 20.7537 1.86947 21.1751 1.86947 21.6933V25.2022C1.86947 25.7207 2.29004 26.1423 2.80726 26.1423H6.30709Z" fill="black" fill-opacity="0.87"/>
<path fill-rule="evenodd" clip-rule="evenodd" d="M21.706 19.8267H25.2058C26.2324 19.8267 27.0678 20.6644 27.0678 21.6933V25.2022C27.0678 26.2311 26.2324 27.0688 25.2058 27.0688H21.706C20.6794 27.0688 19.8441 26.2311 19.8441 25.2022V21.6933C19.8441 20.6644 20.6794 19.8267 21.706 19.8267ZM25.2058 26.1423C25.7231 26.1423 26.1436 25.7207 26.1436 25.2022V21.6933C26.1436 21.1751 25.7231 20.7537 25.2058 20.7537H21.706C21.1891 20.7537 20.7685 21.1751 20.7685 21.6933V25.2022C20.7685 25.7207 21.1891 26.1423 21.706 26.1423H25.2058Z" fill="black" fill-opacity="0.87"/>
<path fill-rule="evenodd" clip-rule="evenodd" d="M12.2569 19.8267H15.7562C16.7828 19.8267 17.6181 20.6644 17.6184 21.6933V25.2022C17.6184 26.2311 16.7831 27.0688 15.7565 27.0688H12.2569C11.2306 27.0688 10.3953 26.2311 10.3953 25.2022V21.6933C10.3953 20.6644 11.2306 19.8267 12.2569 19.8267ZM15.7565 26.1423C16.274 26.1423 16.6943 25.7207 16.6943 25.2022V21.6933C16.6943 21.1751 16.274 20.7537 15.7565 20.7537H12.2569C11.7397 20.7537 11.3191 21.1751 11.3191 21.6933V25.2022C11.3191 25.7207 11.7397 26.1423 12.2569 26.1423H15.7565Z" fill="black" fill-opacity="0.87"/>
<path fill-rule="evenodd" clip-rule="evenodd" d="M2.80726 10.3542H6.30709C7.33371 10.3542 8.16875 11.1919 8.16875 12.2208V15.7291C8.16875 16.758 7.33371 17.5957 6.30709 17.5957H2.80726C1.78065 17.5957 0.945312 16.758 0.945312 15.7291V12.2208C0.945312 11.1919 1.78065 10.3542 2.80726 10.3542ZM6.30709 16.669C6.82374 16.669 7.2446 16.2476 7.2446 15.7288V12.2208C7.2446 11.702 6.82374 11.2807 6.30709 11.2807H2.80726C2.29004 11.2807 1.86947 11.702 1.86947 12.2208V15.7288C1.86947 16.2476 2.29004 16.669 2.80726 16.669H6.30709Z" fill="black" fill-opacity="0.87"/>
<path fill-rule="evenodd" clip-rule="evenodd" d="M21.706 10.3542H25.2058C26.2324 10.3542 27.0678 11.1919 27.0678 12.2208V15.7291C27.0678 16.758 26.2324 17.5957 25.2058 17.5957H21.706C20.6794 17.5957 19.8441 16.758 19.8441 15.7291V12.2208C19.8441 11.1919 20.6794 10.3542 21.706 10.3542ZM25.2058 16.669C25.7231 16.669 26.1436 16.2476 26.1436 15.7288V12.2208C26.1436 11.702 25.7231 11.2807 25.2058 11.2807H21.706C21.1891 11.2807 20.7685 11.702 20.7685 12.2208V15.7288C20.7685 16.2476 21.1891 16.669 21.706 16.669H25.2058Z" fill="black" fill-opacity="0.87"/>
<path fill-rule="evenodd" clip-rule="evenodd" d="M12.2569 10.3542H15.7562C16.7828 10.3542 17.6181 11.1919 17.6184 12.2208V15.7291C17.6184 16.758 16.7831 17.5957 15.7565 17.5957H12.2569C11.2306 17.5957 10.3953 16.758 10.3953 15.7291V12.2208C10.3953 11.1919 11.2306 10.3542 12.2569 10.3542ZM15.7565 16.669C16.274 16.669 16.6943 16.2476 16.6943 15.7288V12.2208C16.6943 11.702 16.274 11.2807 15.7565 11.2807H12.2569C11.7397 11.2807 11.3191 11.702 11.3191 12.2208V15.7288C11.3191 16.2476 11.7397 16.669 12.2569 16.669H15.7565Z" fill="black" fill-opacity="0.87"/>
</svg>
