<svg width="28" height="28" viewBox="0 0 28 28" fill="none" xmlns="http://www.w3.org/2000/svg">
<path fill-rule="evenodd" clip-rule="evenodd" d="M4.25011 0.880859H9.14981C10.9482 0.880859 12.4116 2.34796 12.4116 4.15085V9.06283C12.4116 10.8657 10.9482 12.3325 9.14981 12.3325H4.25011C2.45172 12.3325 0.988281 10.8657 0.988281 9.06283V4.15085C0.988281 2.34796 2.45172 0.880859 4.25011 0.880859ZM9.14981 11.4064C10.4388 11.4064 11.4875 10.3548 11.4875 9.06283V4.15085C11.4875 2.85805 10.4385 1.80675 9.14981 1.80675H4.25011C2.96082 1.80675 1.91215 2.85834 1.91215 4.15085V9.06283C1.91215 10.3551 2.96111 11.4064 4.25011 11.4064H9.14981Z" fill="black" fill-opacity="0.87"/>
<path fill-rule="evenodd" clip-rule="evenodd" d="M18.9492 0.880859H23.8489C25.6473 0.880859 27.1107 2.34796 27.1107 4.15085V9.06283C27.1107 10.8657 25.6473 12.3325 23.8489 12.3325H18.9492C17.1508 12.3325 15.6874 10.8657 15.6874 9.06283V4.15085C15.6874 2.34796 17.1508 0.880859 18.9492 0.880859ZM23.8486 11.4064C25.1382 11.4064 26.1866 10.3548 26.1866 9.06283H26.1869V4.15085C26.1869 2.85805 25.1382 1.80675 23.8489 1.80675H18.9492C17.6599 1.80675 16.6115 2.85834 16.6115 4.15085V9.06283C16.6115 10.3551 17.6602 11.4064 18.9492 11.4064H23.8486Z" fill="black" fill-opacity="0.87"/>
<path fill-rule="evenodd" clip-rule="evenodd" d="M4.25011 15.6168H9.14981C10.9482 15.6168 12.4116 17.0839 12.4116 18.8868V23.7988C12.4116 25.6017 10.9482 27.0688 9.14981 27.0688H4.25011C2.45172 27.0688 0.988281 25.6017 0.988281 23.7988V18.8868C0.988281 17.0839 2.45172 15.6168 4.25011 15.6168ZM9.14981 26.1426C10.4388 26.1426 11.4875 25.091 11.4875 23.7988V18.8868C11.4875 17.594 10.4385 16.5433 9.14981 16.5433H4.25011C2.96082 16.5433 1.91215 17.5943 1.91215 18.8868V23.7988C1.91215 25.0913 2.96111 26.1426 4.25011 26.1426H9.14981Z" fill="black" fill-opacity="0.87"/>
<path fill-rule="evenodd" clip-rule="evenodd" d="M18.9492 15.6168H23.8489C25.6473 15.6168 27.1107 17.0839 27.1107 18.8868V23.7988C27.1107 25.6017 25.6473 27.0688 23.8489 27.0688H18.9492C17.1508 27.0688 15.6874 25.6017 15.6874 23.7988V18.8868C15.6874 17.0839 17.1508 15.6168 18.9492 15.6168ZM23.8486 26.1426C25.1382 26.1426 26.1866 25.091 26.1866 23.7988H26.1869V18.8868C26.1869 17.594 25.1382 16.5433 23.8489 16.5433H18.9492C17.6599 16.5433 16.6115 17.5943 16.6115 18.8868V23.7988C16.6115 25.0913 17.6602 26.1426 18.9492 26.1426H23.8486Z" fill="black" fill-opacity="0.87"/>
</svg>
