<svg width="27" height="26" viewBox="0 0 27 26" fill="none" xmlns="http://www.w3.org/2000/svg">
<path fill-rule="evenodd" clip-rule="evenodd" d="M8.91395 4.90514C8.91395 7.09533 7.13647 8.87698 4.95205 8.87698C2.76705 8.87698 0.989853 7.09533 0.990143 4.90514C0.990143 2.71554 2.76734 0.933594 4.95205 0.933594C7.13647 0.933594 8.91395 2.71554 8.91395 4.90514ZM7.98951 4.90514C7.98951 3.22591 6.62708 1.85977 4.95205 1.85977C3.27673 1.85977 1.9143 3.22591 1.9143 4.90514C1.9143 6.58466 3.27702 7.9508 4.95205 7.9508C6.62708 7.9508 7.98951 6.58466 7.98951 4.90514Z" fill="black" fill-opacity="0.87"/>
<path fill-rule="evenodd" clip-rule="evenodd" d="M18.7131 4.90514C18.7131 7.09533 16.9356 8.87698 14.7512 8.87698C12.5664 8.87698 10.7892 7.09533 10.7892 4.90514C10.7892 2.71554 12.5664 0.933594 14.7512 0.933594C16.9356 0.933594 18.7131 2.71554 18.7131 4.90514ZM17.7886 4.90514C17.7886 3.22591 16.4262 1.85977 14.7512 1.85977C13.0761 1.85977 11.7134 3.22591 11.7134 4.90514C11.7134 6.58466 13.0761 7.9508 14.7512 7.9508C16.4262 7.9508 17.7886 6.58466 17.7886 4.90514Z" fill="black" fill-opacity="0.87"/>
<path fill-rule="evenodd" clip-rule="evenodd" d="M23.312 12.9687C24.1001 12.495 24.8669 12.4234 25.4732 12.7679C26.079 13.1116 26.4125 13.8079 26.4125 14.7285V21.746C26.4125 22.6667 26.079 23.363 25.4729 23.7069C25.2201 23.8501 24.9398 23.9214 24.6411 23.9214C24.2237 23.9214 23.7709 23.782 23.3118 23.5059L19.4128 21.16V21.7458C19.4128 23.5487 17.9494 25.0158 16.151 25.0158H3.55186C1.75348 25.0158 0.290039 23.5487 0.290039 21.7458V14.7285C0.290039 12.9259 1.75348 11.4591 3.55186 11.4588H16.1513C17.9497 11.4588 19.4131 12.9256 19.4131 14.7285V15.3143L23.312 12.9687ZM18.4887 21.746C18.4887 23.0383 17.4403 24.0896 16.151 24.0896H3.55186C2.26286 24.0896 1.2139 23.0386 1.2139 21.746V14.7285C1.2139 13.4366 2.26257 12.385 3.55186 12.385H16.151C17.44 12.385 18.4887 13.4363 18.4887 14.7285V21.746ZM25.0173 22.9012C25.3168 22.7313 25.4883 22.31 25.4883 21.746V14.7288C25.4883 14.1649 25.3168 13.7439 25.0173 13.5739C24.7186 13.4043 24.2699 13.473 23.7869 13.7631L19.4131 16.3941V20.0805L23.7869 22.7118C24.2699 23.0019 24.7189 23.0706 25.0173 22.9012Z" fill="black" fill-opacity="0.87"/>
</svg>
