<svg width="28" height="25" viewBox="0 0 28 25" fill="none" xmlns="http://www.w3.org/2000/svg">
<path fill-rule="evenodd" clip-rule="evenodd" d="M15.6456 0.88766L26.2557 9.19377C26.7352 9.56919 27.0971 10.3139 27.0971 10.9253V12.0524C27.0971 12.7749 26.5131 13.363 25.795 13.363H23.9752C23.7668 13.363 23.5973 13.5336 23.5973 13.7431V21.5201C23.5973 23.3303 22.1338 24.8033 20.3352 24.8033H7.73627C5.93788 24.8033 4.47444 23.3303 4.47444 21.5201V13.7431C4.47444 13.5336 4.30494 13.363 4.09654 13.363H2.27667C1.55859 13.363 0.974609 12.7752 0.974609 12.0524V10.9253C0.974609 10.3139 1.33655 9.56919 1.81604 9.19377L12.4261 0.88766C12.8598 0.548474 13.431 0.361206 14.0359 0.361206C14.6402 0.361206 15.2122 0.548474 15.6456 0.88766ZM25.7948 12.4334C26.0034 12.4334 26.173 12.2625 26.173 12.0527V10.9253C26.173 10.6016 25.9416 10.1266 25.6885 9.92793L15.0781 1.62154C14.81 1.41177 14.43 1.29141 14.0356 1.29141C13.6411 1.29141 13.2612 1.41177 12.9933 1.62154L2.3829 9.92793C2.12893 10.1266 1.89818 10.6016 1.89818 10.9253V12.0524C1.89818 12.2622 2.06769 12.4331 2.27609 12.4331H4.09596C4.81404 12.4331 5.39802 13.0203 5.39802 13.7431V21.5201C5.39802 22.8176 6.44698 23.8731 7.73569 23.8731H10.3535V18.4204C10.3535 16.3765 12.005 14.7142 14.0353 14.7142C16.0656 14.7142 17.7171 16.3768 17.7171 18.4204V23.8734H20.3349C21.6244 23.8734 22.6728 22.8176 22.6728 21.5204V13.7434C22.6728 13.0209 23.2568 12.4334 23.9749 12.4334H25.7948ZM11.2782 23.8731V18.4204C11.2782 16.8896 12.5152 15.6447 14.0359 15.6447C15.5565 15.6447 16.7935 16.8896 16.7935 18.4204V23.8731H11.2782Z" fill="black" fill-opacity="0.87"/>
</svg>
