<svg width="21" height="27" viewBox="0 0 21 27" fill="none" xmlns="http://www.w3.org/2000/svg">
<path d="M4.84611 10.4726C5.05102 10.7804 5.35956 10.9652 5.69363 10.9798C5.70814 10.9806 5.72208 10.9806 5.73601 10.9806C6.05441 10.9806 6.36062 10.8247 6.58179 10.5477L8.56823 8.05864C8.72787 7.85845 8.69536 7.56747 8.49625 7.40743C8.29656 7.24798 8.00631 7.27998 7.84697 7.47988L5.86052 9.96919C5.81757 10.0236 5.77229 10.0594 5.7334 10.0547C5.69857 10.053 5.653 10.0166 5.61468 9.95901L4.93725 8.93972C4.7959 8.72701 4.50855 8.66911 4.29667 8.81111C4.08421 8.95281 4.02674 9.24059 4.16838 9.45358L4.84611 10.4726Z" fill="black" fill-opacity="0.87"/>
<path d="M10.3585 9.9753H15.7336C15.989 9.9753 16.1959 9.76812 16.1959 9.51207C16.1959 9.2566 15.989 9.04913 15.7336 9.04913H10.3582C10.1028 9.04913 9.89581 9.2566 9.89581 9.51207C9.8961 9.76842 10.103 9.9753 10.3585 9.9753Z" fill="black" fill-opacity="0.87"/>
<path d="M8.49655 12.8807C8.29686 12.721 8.00661 12.7533 7.84726 12.9529L5.86076 15.4425C5.8178 15.4969 5.76672 15.5286 5.73363 15.5274C5.6988 15.5257 5.65323 15.489 5.61492 15.4317L4.93746 14.413C4.79553 14.1997 4.50876 14.1427 4.29688 14.2841C4.08441 14.4261 4.02694 14.7136 4.16887 14.9269L4.84633 15.9453C5.05124 16.2534 5.36007 16.4388 5.69387 16.4528C5.70838 16.4536 5.72231 16.4542 5.73624 16.4542C6.05494 16.4542 6.36116 16.298 6.58204 16.021L8.56854 13.5322C8.72789 13.3317 8.69567 13.0405 8.49655 12.8807Z" fill="black" fill-opacity="0.87"/>
<path d="M10.3585 15.4489H15.7336C15.989 15.4489 16.1959 15.2417 16.1959 14.9856C16.1959 14.7296 15.989 14.5224 15.7336 14.5224H10.3582C10.1028 14.5224 9.89581 14.7296 9.89581 14.9856C9.89581 15.2417 10.103 15.4489 10.3585 15.4489Z" fill="black" fill-opacity="0.87"/>
<path d="M4.84611 21.4185C5.05102 21.7264 5.35985 21.9117 5.69363 21.926C5.70814 21.9266 5.72208 21.9272 5.73601 21.9272C6.05441 21.9272 6.36091 21.7709 6.58179 21.4942L8.56823 19.0046C8.72787 18.805 8.69536 18.5135 8.49625 18.354C8.29656 18.1937 8.00631 18.2263 7.84697 18.4259L5.86052 20.916C5.81757 20.9702 5.76648 21.0042 5.7334 21.0007C5.69857 20.9993 5.653 20.9623 5.61468 20.9047L4.93725 19.8857C4.7959 19.6733 4.50855 19.6157 4.29667 19.7577C4.08421 19.8991 4.02674 20.1871 4.16838 20.3998L4.84611 21.4185Z" fill="black" fill-opacity="0.87"/>
<path d="M10.3585 20.9224H15.7336C15.989 20.9224 16.1959 20.7153 16.1959 20.4592C16.1959 20.2031 15.989 19.9957 15.7336 19.9957H10.3582C10.1028 19.9957 9.89581 20.2031 9.89581 20.4592C9.89581 20.7153 10.103 20.9224 10.3585 20.9224Z" fill="black" fill-opacity="0.87"/>
<path fill-rule="evenodd" clip-rule="evenodd" d="M17.5955 26.6762H3.59678C1.79811 26.6762 0.334671 25.2091 0.334961 23.4059V5.8635C0.334961 4.06032 1.79811 2.59321 3.59678 2.59321H4.53661C4.55925 1.42901 5.50924 0.488281 6.67633 0.488281H14.516C15.6825 0.488281 16.633 1.42901 16.6557 2.5935H17.5955C19.3942 2.5935 20.8573 4.06061 20.8573 5.8638V23.4062C20.8573 25.2091 19.3942 26.6762 17.5955 26.6762ZM5.45873 2.63569C5.45873 1.96266 6.00498 1.41475 6.67633 1.41475H14.516C15.1873 1.41475 15.7336 1.96266 15.7336 2.63569V3.47778C15.7336 4.15081 15.1873 4.69872 14.516 4.69872H6.67633C6.00498 4.69872 5.45873 4.15081 5.45873 3.47778V2.63569ZM3.59678 3.51997C2.3075 3.51997 1.25882 4.57157 1.25882 5.8638V23.4062C1.25882 24.6988 2.30779 25.7501 3.59678 25.7501H17.5955C18.8851 25.7501 19.9335 24.6985 19.9335 23.4062V5.8638C19.9335 4.57128 18.8848 3.51997 17.5955 3.51997H16.6557C16.633 4.68417 15.6828 5.6249 14.516 5.6249H6.67633C5.50953 5.6249 4.55925 4.68417 4.53661 3.51997H3.59678Z" fill="black" fill-opacity="0.87"/>
</svg>
