<svg width="28" height="27" viewBox="0 0 28 27" fill="none" xmlns="http://www.w3.org/2000/svg">
<path fill-rule="evenodd" clip-rule="evenodd" d="M20.1202 5.71463H23.8577C25.6561 5.71463 27.1196 7.18863 27.1196 9V23.1003C27.1196 24.9116 25.6561 26.3856 23.8574 26.3853H4.2589C2.46051 26.3853 0.99707 24.9113 0.99707 23.1V9C0.99707 7.18863 2.46051 5.71463 4.2589 5.71463H7.99674V4.06464C7.99674 2.25329 9.46018 0.779297 11.2586 0.779297H16.8584C18.6567 0.779297 20.1202 2.25329 20.1202 4.06464V5.71463ZM8.92089 4.06464C8.92089 2.76665 9.96957 1.70983 11.2586 1.70983H16.8584C18.1474 1.70983 19.196 2.76635 19.196 4.06464V5.71463H8.92089V4.06464ZM17.5071 15.514H26.1957V8.99997C26.1957 7.7011 25.147 6.64485 23.8577 6.64485H4.25919C2.9699 6.64485 1.92123 7.70139 1.92123 8.99997V15.514H10.6099V15.2038C10.6099 14.1692 11.4449 13.3284 12.4718 13.3284H15.6448C16.6714 13.3284 17.5071 14.1692 17.5071 15.2038V15.514ZM11.534 16.8959V15.2041C11.534 14.6828 11.9546 14.2595 12.4718 14.2595H15.6448C16.1623 14.2595 16.5826 14.6828 16.5826 15.2041V16.8959C16.5826 17.4168 16.1623 17.8404 15.6448 17.8404H12.4718C11.9546 17.8404 11.534 17.4168 11.534 16.8959ZM23.8574 25.4548C25.147 25.4548 26.1954 24.398 26.1954 23.1003H26.1957V16.4451H17.5071V16.8959C17.5071 17.9296 16.6714 18.7713 15.6448 18.7713H12.4718C11.4449 18.7713 10.6099 17.9296 10.6099 16.8959V16.4451H1.92094V23.1003C1.92094 24.3983 2.9699 25.4548 4.2589 25.4548H23.8574Z" fill="black" fill-opacity="0.87"/>
</svg>
