<svg width="27" height="27" viewBox="0 0 27 27" fill="none" xmlns="http://www.w3.org/2000/svg">
<path fill-rule="evenodd" clip-rule="evenodd" d="M16.8536 6.47371C17.3728 5.95286 18.063 5.66624 18.798 5.66624C19.5323 5.66624 20.2225 5.95286 20.7412 6.47342C21.8128 7.54829 21.8128 9.29677 20.7409 10.3714C20.2219 10.8919 19.5317 11.1785 18.7971 11.1785C18.063 11.1785 17.3728 10.8919 16.8536 10.3714C15.7817 9.29648 15.782 7.548 16.8536 6.47371ZM18.7974 10.2526C19.2847 10.2526 19.7433 10.0623 20.0878 9.71636C20.7992 9.00289 20.7995 7.84218 20.0881 7.12841C19.7439 6.78273 19.2856 6.59243 18.7982 6.59243C18.3106 6.59243 17.852 6.78302 17.5072 7.12899C16.7955 7.84247 16.7955 9.00289 17.5072 9.71636C17.8517 10.0618 18.31 10.2526 18.7974 10.2526Z" fill="black" fill-opacity="0.87"/>
<path fill-rule="evenodd" clip-rule="evenodd" d="M26.3087 3.30031C26.1503 2.78587 25.9625 2.36395 25.954 2.3462C25.7607 1.9141 25.29 1.44213 24.8584 1.24747C24.8412 1.2399 24.4268 1.05397 23.9168 0.895387C23.0478 0.625942 22.1637 0.488892 21.2883 0.488892C16.5915 0.488892 12.6438 4.41621 9.89574 8.27923L5.81833 6.91571C5.31097 6.74636 4.64224 6.90494 4.26434 7.28409L1.0298 10.5256C0.67221 10.8846 0.521861 11.3261 0.618514 11.736C0.715167 12.1457 1.04605 12.4731 1.52641 12.6334L6.34832 14.2451C5.84561 15.2307 5.6822 15.6328 5.67262 15.6561C5.40414 16.3271 5.59251 17.2524 6.1019 17.7628L9.48011 21.1492C9.82144 21.4911 10.3686 21.7032 10.9084 21.7032C11.1516 21.7032 11.3778 21.6621 11.5812 21.5798C11.6047 21.5705 12.0041 21.4075 12.9892 20.9021L14.5966 25.7367C14.7568 26.2186 15.0831 26.5503 15.492 26.6472C15.573 26.6664 15.6554 26.676 15.7385 26.676C16.0725 26.676 16.4118 26.5223 16.6989 26.2343L19.9323 22.9925C20.3113 22.6131 20.4692 21.9429 20.2994 21.4343L18.9419 17.3504C23.5641 14.0554 28.1094 9.15332 26.3087 3.30031ZM11.2364 20.7203C11.2442 20.7173 12.0758 20.376 14.3232 19.1432C19.402 16.3579 27.5977 10.6318 25.4258 3.57412C25.2842 3.11351 25.1132 2.72942 25.1112 2.72534C25.0107 2.501 24.7037 2.19373 24.4799 2.09218C24.4764 2.09072 24.0967 1.92137 23.6431 1.78054C22.8629 1.53816 22.0705 1.41536 21.2883 1.41536C15.277 1.41536 10.4516 8.60658 8.11013 12.8941C6.87628 15.1539 6.53321 15.9942 6.52973 16.0023C6.39824 16.3303 6.50593 16.8578 6.75525 17.1075L10.1329 20.4936C10.3015 20.6629 10.6132 20.777 10.9078 20.777C11.0309 20.777 11.1444 20.7578 11.2364 20.7203ZM1.51742 11.5228C1.53831 11.6121 1.65093 11.6988 1.81811 11.7547L6.78108 13.4135C6.93462 13.1237 7.10529 12.806 7.30005 12.4495C7.8521 11.4384 8.54028 10.2718 9.34746 9.07185L5.52663 7.79417C5.35132 7.7351 5.04888 7.80697 4.91769 7.93849L1.68315 11.1806C1.55863 11.3057 1.49623 11.4337 1.51742 11.5228ZM19.4232 21.7273C19.4818 21.9037 19.4107 22.206 19.2792 22.3375L16.045 25.5793C15.9201 25.705 15.7921 25.7673 15.7036 25.7454C15.6148 25.7248 15.5283 25.6116 15.4726 25.444L13.8182 20.468C14.1032 20.3164 14.4164 20.1476 14.7667 19.955C15.8058 19.3853 16.9691 18.6959 18.1504 17.8992L19.4232 21.7273Z" fill="black" fill-opacity="0.87"/>
<path d="M8.84997 22.7908C7.81871 23.3065 4.91446 24.4189 3.87798 23.3792C2.84149 22.3404 3.95025 19.4286 4.46486 18.3948C4.57893 18.1655 4.48605 17.8876 4.25791 17.7735C4.02949 17.6589 3.75259 17.7517 3.63852 17.9801C3.41822 18.4221 1.53594 22.3422 3.22404 24.0345C3.73779 24.5492 4.45703 24.7328 5.22184 24.7328C6.9703 24.7328 8.95649 23.7726 9.26299 23.6193C9.49084 23.5046 9.58343 23.2267 9.46936 22.9983C9.35587 22.7699 9.07868 22.6779 8.84997 22.7908Z" fill="black" fill-opacity="0.87"/>
</svg>
