<svg width="27" height="27" viewBox="0 0 27 27" fill="none" xmlns="http://www.w3.org/2000/svg">
<path d="M3.31358 26.6762H21.5122C23.3109 26.6762 24.774 25.2091 24.774 23.4062V8.67026C24.774 8.4142 24.5671 8.20673 24.312 8.20673C24.0568 8.20673 23.8499 8.4142 23.8499 8.67026V23.4062C23.8499 24.6985 22.8015 25.7501 21.5119 25.7501H3.31329C2.02429 25.7501 0.975332 24.6988 0.975332 23.4062V5.16194C0.975332 3.86913 2.024 2.81754 3.31329 2.81754H18.0124C18.2675 2.81754 18.4748 2.61036 18.4748 2.35488C18.4748 2.09882 18.2675 1.89165 18.0124 1.89165H3.31358C1.5152 1.89165 0.0517578 3.35847 0.0517578 5.16194V23.4062C0.0517578 25.2091 1.5152 26.6762 3.31358 26.6762Z" fill="black" fill-opacity="0.87"/>
<path d="M25.3853 0.62417L10.6868 15.3595C10.5063 15.5405 10.5063 15.8338 10.6868 16.0145C10.7771 16.1053 10.8952 16.1507 11.0134 16.1507C11.1312 16.1507 11.2496 16.1053 11.3396 16.0145L26.039 1.27887C26.2192 1.09788 26.2192 0.804576 26.039 0.62417C25.8584 0.443473 25.5659 0.443473 25.3853 0.62417Z" fill="black" fill-opacity="0.87"/>
</svg>
