<svg width="22" height="27" viewBox="0 0 22 27" fill="none" xmlns="http://www.w3.org/2000/svg">
<path fill-rule="evenodd" clip-rule="evenodd" d="M5.48329 5.98282C5.48329 2.63218 7.65236 0.467285 11.0087 0.467285C14.3654 0.467285 16.5341 2.63218 16.5341 5.98312V7.89749H20.5857C21.3063 7.89749 21.8928 8.48293 21.8928 9.20252V25.3499C21.8928 26.0695 21.3066 26.6553 20.5857 26.6553H1.4317C0.710526 26.6553 0.124023 26.0698 0.124023 25.3499V9.20223C0.124023 8.48293 0.710526 7.8972 1.4317 7.8972H5.48329V5.98282ZM6.41142 5.98282C6.41142 2.5993 8.78599 1.39377 11.0087 1.39377C13.2314 1.39377 15.606 2.59959 15.606 5.98282V7.8972H6.41142V5.98282ZM20.9649 9.20252C20.9649 8.99389 20.7947 8.82367 20.5857 8.82367H16.5341V12.3553C16.5341 12.6114 16.3263 12.8189 16.0701 12.8189C15.8135 12.8189 15.6057 12.6114 15.6057 12.3553V8.82367H6.41113V12.3553C6.41113 12.6114 6.20358 12.8189 5.94705 12.8189C5.69053 12.8189 5.483 12.6114 5.483 12.3553V8.82367H1.4317C1.22211 8.82367 1.05217 8.99389 1.05217 9.20252V25.3502C1.05217 25.5595 1.2224 25.7294 1.4317 25.7294H20.5857C20.7947 25.7294 20.9649 25.5595 20.9649 25.3502V9.20252Z" fill="black" fill-opacity="0.87"/>
</svg>
