<svg width="27" height="28" viewBox="0 0 27 28" fill="none" xmlns="http://www.w3.org/2000/svg">
<path fill-rule="evenodd" clip-rule="evenodd" d="M20.7482 10.4842C20.7482 13.1701 19.7213 15.622 18.0401 17.4658L26.8582 26.2844C27.0473 26.4734 27.0473 26.7794 26.8582 26.9684C26.6693 27.1574 26.3633 27.1574 26.1742 26.9684L17.3558 18.1498C15.5117 19.831 13.0607 20.8579 10.3739 20.8579C4.65387 20.8579 0 16.204 0 10.4839C0 4.76374 4.65387 0.109807 10.3739 0.110107C16.0943 0.110107 20.7482 4.76404 20.7482 10.4842ZM0.967494 10.4842C0.967494 15.6709 5.18697 19.8907 10.3742 19.8907C15.5609 19.8907 19.781 15.6706 19.781 10.4842C19.781 5.29684 15.5612 1.07701 10.3742 1.07701C5.18697 1.07701 0.967494 5.29684 0.967494 10.4842Z" fill="black" fill-opacity="0.87"/>
</svg>
