<svg width="28" height="25" viewBox="0 0 28 25" fill="none" xmlns="http://www.w3.org/2000/svg">
<path d="M7.23096 11.6698H8.18269C8.69295 11.6698 9.10685 11.2549 9.10685 10.7433V9.78921C9.10685 9.27767 8.69295 8.86302 8.18269 8.86302H7.23096C6.7207 8.86302 6.3071 9.27767 6.3071 9.78921V10.7433C6.30739 11.2549 6.7207 11.6698 7.23096 11.6698Z" fill="black" fill-opacity="0.87"/>
<path d="M13.5302 11.6698H14.4826C14.9928 11.6698 15.4064 11.2549 15.4064 10.7433V9.78921C15.4064 9.27767 14.9928 8.86302 14.4826 8.86302H13.5302C13.02 8.86302 12.6064 9.27767 12.6064 9.78921V10.7433C12.6067 11.2549 13.0203 11.6698 13.5302 11.6698Z" fill="black" fill-opacity="0.87"/>
<path d="M19.8301 11.6698H20.7818C21.2921 11.6698 21.7057 11.2549 21.7057 10.7433V9.78921C21.7057 9.27767 21.2921 8.86302 20.7818 8.86302H19.8301C19.3199 8.86302 18.906 9.27767 18.906 9.78921V10.7433C18.9063 11.2549 19.3201 11.6698 19.8301 11.6698Z" fill="black" fill-opacity="0.87"/>
<path d="M7.23096 16.4418H8.18269C8.69295 16.4418 9.10685 16.0269 9.10685 15.5153V14.5609C9.10685 14.0494 8.69295 13.6347 8.18269 13.6347H7.23096C6.7207 13.6347 6.3071 14.0494 6.3071 14.5609V15.5153C6.30739 16.0269 6.7207 16.4418 7.23096 16.4418Z" fill="black" fill-opacity="0.87"/>
<path d="M13.5302 16.4418H14.4826C14.9928 16.4418 15.4064 16.0269 15.4064 15.5153V14.5609C15.4064 14.0494 14.9928 13.6347 14.4826 13.6347H13.5302C13.02 13.6347 12.6064 14.0494 12.6064 14.5609V15.5153C12.6067 16.0269 13.0203 16.4418 13.5302 16.4418Z" fill="black" fill-opacity="0.87"/>
<path d="M19.8301 16.4418H20.7818C21.2921 16.4418 21.7057 16.0269 21.7057 15.5153V14.5609C21.7057 14.0494 21.2921 13.6347 20.7818 13.6347H19.8301C19.3199 13.6347 18.906 14.0494 18.906 14.5609V15.5153C18.9063 16.0269 19.3201 16.4418 19.8301 16.4418Z" fill="black" fill-opacity="0.87"/>
<path d="M7.23096 21.2133H8.18269C8.69295 21.2133 9.10685 20.7983 9.10685 20.2868V19.3321C9.10685 18.8206 8.69295 18.4062 8.18269 18.4062H7.23096C6.7207 18.4062 6.3071 18.8206 6.3071 19.3321V20.2868C6.30739 20.7983 6.7207 21.2133 7.23096 21.2133Z" fill="black" fill-opacity="0.87"/>
<path d="M13.5302 21.2133H14.4826C14.9928 21.2133 15.4064 20.7983 15.4064 20.2868V19.3321C15.4064 18.8206 14.9928 18.4062 14.4826 18.4062H13.5302C13.02 18.4062 12.6064 18.8206 12.6064 19.3321V20.2868C12.6067 20.7983 13.0203 21.2133 13.5302 21.2133Z" fill="black" fill-opacity="0.87"/>
<path fill-rule="evenodd" clip-rule="evenodd" d="M4.20714 0.330688H23.8059C25.6043 0.330688 27.0678 1.79751 27.0678 3.6007V21.5639C27.0678 23.3671 25.6043 24.8339 23.8057 24.8339H4.20714C2.40875 24.8339 0.945312 23.3671 0.945312 21.5639V3.6007C0.945312 1.79751 2.40875 0.330688 4.20714 0.330688ZM1.86947 5.2421H26.1439V3.60041C26.1439 2.30759 25.0952 1.25629 23.8059 1.25629H4.20743C2.91814 1.25629 1.86947 2.30788 1.86947 3.60041V5.2421ZM26.1436 21.5639C26.1436 22.8561 25.0952 23.9077 23.8057 23.9077H4.20714C2.91814 23.9077 1.86918 22.8564 1.86918 21.5639V6.16828H26.1436V21.5639Z" fill="black" fill-opacity="0.87"/>
</svg>
