<svg width="28" height="26" viewBox="0 0 28 26" fill="none" xmlns="http://www.w3.org/2000/svg">
<path fill-rule="evenodd" clip-rule="evenodd" d="M22.2392 0.0703125C19.1541 0.0703125 16.6673 2.14394 14.2623 4.1495C12.0854 5.96458 10.0293 7.67888 7.75022 7.67888H3.97001C2.32575 7.67888 0.988281 9.02477 0.988281 10.68V13.2164C0.988281 14.8714 2.32575 16.2173 3.97001 16.2173H4.13778V22.0932C4.13778 23.7482 5.47554 25.0944 7.1198 25.0944H8.37977C10.024 25.0944 11.3615 23.7482 11.3615 22.0932V17.5045C12.3243 18.1335 13.2806 18.9296 14.2614 19.7476C16.6667 21.7526 19.1535 23.8268 22.2386 23.8268C24.9707 23.8265 27.1107 18.6091 27.1107 11.9485C27.1107 5.28768 24.9707 0.0703125 22.2392 0.0703125ZM18.2912 11.9485C18.2912 18.4975 20.3325 22.8966 22.2392 22.8966C24.1455 22.8966 26.1866 18.4975 26.1869 11.9485C26.1869 5.39927 24.1455 0.99991 22.2392 0.99991C20.3322 0.99991 18.2912 5.39927 18.2912 11.9485ZM14.8515 19.0312C12.6444 17.1905 10.3622 15.2874 7.75022 15.2874H3.97001C2.83543 15.2874 1.91215 14.3584 1.91215 13.2164V10.68C1.91215 9.53808 2.83543 8.60876 3.97001 8.60876H7.74993C10.3619 8.60876 12.6438 6.70544 14.8512 4.86553C16.4644 3.52052 18.1168 2.14657 19.9207 1.45653C18.3884 3.43608 17.3671 7.34728 17.3671 11.9485C17.3671 16.5489 18.3882 20.4604 19.9201 22.4394C18.1168 21.7499 16.4644 20.376 14.8515 19.0312ZM8.38006 24.1645C9.51465 24.1645 10.4379 23.2355 10.4379 22.0935V16.96C9.56341 16.5033 8.67525 16.2173 7.75022 16.2173H5.06193V22.0935C5.06193 23.2355 5.98522 24.1645 7.12009 24.1645H8.38006Z" fill="black" fill-opacity="0.87"/>
</svg>
