<svg width="26" height="27" viewBox="0 0 26 27" fill="none" xmlns="http://www.w3.org/2000/svg">
<path fill-rule="evenodd" clip-rule="evenodd" d="M18.5507 25.3802C16.7048 26.2744 14.7561 26.6762 12.3039 26.6762C5.679 26.6762 0.870117 21.7194 0.870117 14.8902C0.870117 6.6797 6.75011 0.488281 14.5469 0.488281C21.0206 0.488281 25.5416 4.99232 25.5413 11.4415C25.5413 17.417 22.0671 20.5436 18.6355 20.5436C17.7385 20.5436 16.9337 20.216 16.3687 19.6203C16.0045 19.2368 15.7503 18.7538 15.6119 18.1913C14.3443 19.7358 12.6701 20.5436 10.7087 20.5436C8.53569 20.5436 6.33543 18.8134 6.33543 15.5079C6.33543 10.9949 8.78557 6.44109 14.2587 6.44109C15.3144 6.44109 16.1247 6.57873 16.968 6.90142C17.5934 7.14031 18.0043 7.89191 17.8844 8.57629L16.4189 16.9364C16.3812 17.8087 16.5951 18.5152 17.0382 18.9822C17.4271 19.3919 17.9944 19.6171 18.6358 19.6171C21.6083 19.6171 24.6173 16.8086 24.6173 11.4412C24.6173 5.5379 20.4768 1.41475 14.5469 1.41475C7.27711 1.41475 1.7944 7.20811 1.7944 14.8905C1.7944 21.1829 6.21442 25.7501 12.3039 25.7501C14.5956 25.7501 16.4117 25.3808 18.1201 24.5603C18.3502 24.4497 18.6288 24.5358 18.7478 24.7619C18.8665 24.9883 18.7803 25.2688 18.5507 25.3802ZM10.709 19.6168C12.7418 19.6168 14.3597 18.6426 15.519 16.7207L16.9744 8.41567C17.0185 8.16484 16.8551 7.84942 16.6383 7.76591C16.1223 7.56863 15.436 7.36698 14.2587 7.36698C9.0923 7.36698 7.25941 11.7523 7.25941 15.5077C7.25941 17.9266 8.67791 19.6168 10.709 19.6168Z" fill="black" fill-opacity="0.87"/>
</svg>
