<svg width="28" height="27" viewBox="0 0 28 27" fill="none" xmlns="http://www.w3.org/2000/svg">
<path fill-rule="evenodd" clip-rule="evenodd" d="M23.835 26.8288H4.23644C2.43805 26.8288 0.974609 25.3617 0.974609 23.5586V3.91088C0.974609 2.10798 2.43805 0.640869 4.23644 0.640869H10.116C10.9041 0.640869 11.7977 1.1946 12.1501 1.90138L13.9482 5.50689C14.1467 5.90524 14.711 6.2547 15.1556 6.2547H23.8353C25.6337 6.2547 27.0971 7.72152 27.0971 9.52441V23.5588C27.0971 25.3617 25.6337 26.8288 23.835 26.8288ZM1.89848 3.91088C1.89848 2.61864 2.94744 1.56705 4.23644 1.56705H10.116C10.5607 1.56705 11.1252 1.9171 11.3235 2.31545L13.1216 5.92037C13.4739 6.62715 14.3673 7.18088 15.1556 7.18088H23.835C25.1243 7.18088 26.173 8.23218 26.173 9.52441V11.5874H1.89848V3.91088ZM26.173 12.5142H1.89848V23.5588C1.89848 24.8514 2.94744 25.9027 4.23644 25.9027H23.835C25.1246 25.9027 26.173 24.8511 26.173 23.5588V12.5142Z" fill="black" fill-opacity="0.87"/>
</svg>
