<svg width="21" height="27" viewBox="0 0 21 27" fill="none" xmlns="http://www.w3.org/2000/svg">
<path d="M8.49653 7.55974C8.29683 7.40029 8.00658 7.4323 7.84724 7.6322L5.86078 10.1215C5.81782 10.1759 5.77254 10.2117 5.73365 10.207C5.69882 10.2053 5.65325 10.1689 5.61494 10.1113L4.9375 9.09203C4.79614 8.87932 4.5088 8.82142 4.29692 8.96341C4.08445 9.10512 4.02698 9.3929 4.16863 9.60589L4.84636 10.6252C5.05127 10.933 5.35981 11.1178 5.69389 11.1324C5.7084 11.1332 5.72233 11.1332 5.73626 11.1332C6.05467 11.1332 6.36088 10.9773 6.58205 10.7003L8.56851 8.21124C8.72786 8.01105 8.69564 7.72007 8.49653 7.55974Z" fill="black" fill-opacity="0.87"/>
<path d="M15.7336 9.202H10.3582C10.1028 9.202 9.89581 9.40947 9.89581 9.66495C9.89581 9.92102 10.1028 10.1282 10.3582 10.1282H15.7336C15.989 10.1282 16.1959 9.92102 16.1959 9.66495C16.1959 9.40947 15.989 9.202 15.7336 9.202Z" fill="black" fill-opacity="0.87"/>
<path d="M8.49655 13.0333C8.29686 12.8735 8.00661 12.9058 7.84726 13.1054L5.86076 15.5951C5.8178 15.6495 5.76672 15.6812 5.73363 15.68C5.6988 15.6783 5.65323 15.6416 5.61492 15.5843L4.93746 14.5656C4.79553 14.3523 4.50876 14.2953 4.29688 14.4367C4.08441 14.5787 4.02694 14.8662 4.16887 15.0794L4.84633 16.0979C5.05124 16.406 5.36007 16.5914 5.69387 16.6053C5.70838 16.6062 5.72231 16.6068 5.73624 16.6068C6.05494 16.6068 6.36116 16.4505 6.58204 16.1735L8.56854 13.6848C8.72789 13.4843 8.69567 13.193 8.49655 13.0333Z" fill="black" fill-opacity="0.87"/>
<path d="M15.7336 14.675H10.3582C10.1028 14.675 9.89581 14.8822 9.89581 15.1382C9.89581 15.3943 10.1028 15.6015 10.3582 15.6015H15.7336C15.989 15.6015 16.1959 15.3943 16.1959 15.1382C16.1959 14.8822 15.989 14.675 15.7336 14.675Z" fill="black" fill-opacity="0.87"/>
<path d="M15.7336 20.1483H10.3582C10.1028 20.1483 9.89581 20.3557 9.89581 20.6118C9.89581 20.8679 10.1028 21.075 10.3582 21.075H15.7336C15.989 21.075 16.1959 20.8679 16.1959 20.6118C16.1959 20.3557 15.989 20.1483 15.7336 20.1483Z" fill="black" fill-opacity="0.87"/>
<path fill-rule="evenodd" clip-rule="evenodd" d="M14.516 0.640869C15.6825 0.640869 16.633 1.5816 16.6557 2.7458V2.74609H17.5955C19.3942 2.74609 20.8573 4.2132 20.8573 6.01639V23.5588C20.8573 25.3617 19.3942 26.8288 17.5955 26.8288H3.59678C1.79811 26.8288 0.334671 25.3617 0.334961 23.5586V6.0161C0.334961 4.21291 1.79811 2.7458 3.59678 2.7458H4.53661C4.55925 1.5816 5.50924 0.640869 6.67633 0.640869H14.516ZM5.45873 2.78828C5.45873 2.11525 6.00498 1.56734 6.67633 1.56734H14.516C15.1873 1.56734 15.7336 2.11525 15.7336 2.78828V3.63037C15.7336 4.3034 15.1873 4.85131 14.516 4.85131H6.67633C6.00498 4.85131 5.45873 4.3034 5.45873 3.63037V2.78828ZM19.9335 23.5588V6.01639C19.9335 4.72387 18.8851 3.67256 17.5955 3.67256H16.6557C16.633 4.83677 15.6828 5.7775 14.516 5.7775H6.67633C5.50953 5.7775 4.55925 4.83677 4.53661 3.67256H3.59678C2.3075 3.67256 1.25882 4.72416 1.25882 6.01639V23.5588C1.25882 24.8514 2.30779 25.9027 3.59678 25.9027H17.5955C18.8851 25.9027 19.9335 24.8511 19.9335 23.5588Z" fill="black" fill-opacity="0.87"/>
</svg>
