<svg width="24" height="27" viewBox="0 0 24 27" fill="none" xmlns="http://www.w3.org/2000/svg">
<path d="M23.3488 13.7349C23.3488 13.4788 23.1418 13.2716 22.8867 13.2716H8.22533L12.7097 8.77602C12.8899 8.59561 12.8899 8.30202 12.7097 8.12103C12.5292 7.94033 12.2366 7.94033 12.0563 8.12103L7.37751 12.8116C7.13196 13.0581 6.9967 13.3854 6.9967 13.7349C6.9967 14.084 7.13167 14.4117 7.37751 14.6576L12.0563 19.3487C12.2366 19.5294 12.5292 19.5294 12.7097 19.3487C12.8899 19.1677 12.8899 18.8741 12.7097 18.6934L8.22562 14.1981H22.887C23.1421 14.1981 23.3488 13.9904 23.3488 13.7349Z" fill="black" fill-opacity="0.87"/>
<path d="M15.2297 0.640869H4.03038C2.23199 0.640869 0.768555 2.10798 0.768555 3.91088V23.5586C0.768555 25.3617 2.23199 26.8288 4.03038 26.8288H15.2297C17.0281 26.8288 18.4915 25.3617 18.4915 23.5588V19.8119C18.4915 19.5559 18.2848 19.3487 18.0294 19.3487C17.774 19.3487 17.5671 19.5559 17.5671 19.8119V23.5588C17.5671 24.8511 16.5187 25.9027 15.2294 25.9027H4.03038C2.74167 25.9027 1.69242 24.8514 1.69242 23.5588V3.91088C1.69242 2.61864 2.74138 1.56705 4.03038 1.56705H15.2297C16.5187 1.56705 17.5673 2.61835 17.5673 3.91088V7.65779C17.5673 7.91385 17.7743 8.12103 18.0297 8.12103C18.2851 8.12103 18.4918 7.91385 18.4918 7.65779V3.91088C18.4915 2.10798 17.0281 0.640869 15.2297 0.640869Z" fill="black" fill-opacity="0.87"/>
</svg>
