<svg width="27" height="27" viewBox="0 0 27 27" fill="none" xmlns="http://www.w3.org/2000/svg">
<path d="M20.9987 8.12103C20.8181 8.30201 20.8181 8.59561 20.9987 8.77602L25.4827 13.2716H10.8214C10.5662 13.2716 10.3593 13.4788 10.3593 13.7349C10.3593 13.9903 10.5662 14.1981 10.8214 14.1981H25.4827L20.9989 18.6937C20.8184 18.8741 20.8184 19.1677 20.9989 19.3487C21.1792 19.5297 21.4718 19.5297 21.6523 19.3487L26.3308 14.6575C26.5764 14.4117 26.7113 14.084 26.7113 13.7349C26.7113 13.3854 26.5761 13.058 26.3305 12.8116L21.652 8.12103C21.4715 7.94033 21.1789 7.94033 20.9987 8.12103Z" fill="black" fill-opacity="0.87"/>
<path d="M3.85068 26.8288H15.0499C16.8483 26.8288 18.3118 25.3617 18.3118 23.5591V19.8122C18.3118 19.5559 18.1051 19.3487 17.8497 19.3487C17.5943 19.3487 17.3876 19.5559 17.3876 19.8122V23.5591C17.3876 24.8514 16.3392 25.9027 15.0496 25.9027H3.85068C2.56198 25.9027 1.51273 24.8517 1.51273 23.5591V3.91088C1.51273 2.61864 2.56169 1.56705 3.85068 1.56705H15.0499C16.3392 1.56705 17.3879 2.61835 17.3879 3.91088V7.65779C17.3879 7.91385 17.5945 8.12103 17.85 8.12103C18.1054 8.12103 18.312 7.91385 18.312 7.65779V3.91088C18.312 2.10798 16.8486 0.640869 15.0499 0.640869H3.85068C2.0523 0.640869 0.588867 2.10798 0.588867 3.91088V23.5588C0.588867 25.3617 2.0523 26.8288 3.85068 26.8288Z" fill="black" fill-opacity="0.87"/>
</svg>
