<svg width="27" height="25" viewBox="0 0 27 25" fill="none" xmlns="http://www.w3.org/2000/svg">
<path d="M24.5646 14.7622C24.3797 14.6831 24.1751 14.6807 23.9896 14.7552L19.2672 16.6448C19.0272 16.7411 18.9102 17.0141 19.006 17.2541C19.1018 17.4954 19.3743 17.6123 19.6141 17.5163L23.6073 15.9183C22.8393 18.4119 21.2999 20.5413 19.2002 21.9805C16.8529 23.5899 14.0869 24.1459 11.4116 23.5451C7.56873 22.6832 4.60324 19.5383 3.74816 15.4678C3.69447 15.2144 3.45414 15.0421 3.1993 15.0852C2.94446 15.1283 2.77147 15.3706 2.82401 15.6247C3.74439 20.0726 6.99172 23.516 11.2073 24.4614C11.9791 24.6342 12.7572 24.7198 13.5319 24.7198C15.7001 24.7198 17.8398 24.0499 19.7287 22.7551C21.9494 21.2333 23.5925 19.0023 24.4418 16.3896L25.9819 20.2582C26.0776 20.4988 26.3499 20.6158 26.5899 20.5198C26.83 20.4235 26.9469 20.1505 26.8512 19.9102L24.9669 15.1754C24.892 14.9883 24.7492 14.8416 24.5646 14.7622Z" fill="black" fill-opacity="0.87"/>
<path d="M2.68005 10.2934C2.75464 10.4802 2.89715 10.6269 3.08204 10.7063C3.17753 10.7473 3.27854 10.768 3.37926 10.768C3.47301 10.768 3.56676 10.7499 3.65732 10.7139L8.37909 8.82425C8.61942 8.72793 8.7361 8.455 8.64031 8.21436C8.54453 7.97372 8.2717 7.85675 8.03195 7.95277L4.03957 9.55052C4.80786 7.05801 6.34734 4.92951 8.44701 3.49005C10.7943 1.88066 13.56 1.32431 16.2353 1.92518C20.0776 2.78676 23.0434 5.93135 23.8982 10.0007C23.9516 10.2541 24.1919 10.4267 24.4467 10.3836C24.7016 10.3405 24.8749 10.0981 24.822 9.84412C23.9025 5.39712 20.6549 1.95457 16.4396 1.00918C13.5081 0.351863 10.4825 0.958259 7.91875 2.71547C5.69805 4.23786 4.05495 6.4682 3.20569 9.08031L1.66446 5.21147C1.56868 4.97083 1.29614 4.85357 1.05639 4.94959C0.816352 5.04591 0.699381 5.31884 0.795164 5.55948L2.68005 10.2934Z" fill="black" fill-opacity="0.87"/>
</svg>
