<svg width="27" height="23" viewBox="0 0 27 23" fill="none" xmlns="http://www.w3.org/2000/svg">
<path fill-rule="evenodd" clip-rule="evenodd" d="M3.61505 0.74646H23.2142C25.0128 0.74646 26.476 2.21328 26.4757 4.01617V19.4537C26.4757 19.4575 26.4751 19.4604 26.4751 19.4642C26.4751 19.4665 26.4748 19.4694 26.4745 19.472C26.4644 21.2668 25.0065 22.7237 23.2139 22.7237H3.61505C1.82595 22.7237 0.37035 21.2714 0.355257 19.4813C0.354967 19.4764 0.354677 19.472 0.354386 19.4671C0.354386 19.4624 0.353516 19.4584 0.353516 19.4534V4.01617C0.353516 2.21328 1.81695 0.74646 3.61505 0.74646ZM21.6712 14.1614L25.5518 18.2872H25.5521V4.01617C25.5521 2.72394 24.5034 1.67235 23.2142 1.67235H3.61534C2.32605 1.67235 1.27767 2.72394 1.27767 4.01617V18.2633L6.28303 12.7891C6.87455 12.1423 7.66723 11.7859 8.51534 11.7859C9.36286 11.7859 10.1558 12.142 10.7476 12.7891L14.5435 16.9408L17.1578 14.1614C17.7566 13.5239 18.5583 13.1732 19.4145 13.1732C20.2707 13.1732 21.0724 13.5242 21.6712 14.1614ZM23.2142 21.7969H3.61505C2.38381 21.7969 1.37374 20.8373 1.28609 19.6242L6.96395 13.4153C7.37843 12.9611 7.92932 12.7117 8.51534 12.7117C9.10135 12.7117 9.65195 12.9611 10.0667 13.4153L15.8746 19.7668C15.9655 19.8657 16.09 19.9169 16.2151 19.9169C16.3265 19.9169 16.4386 19.8762 16.5271 19.795C16.7152 19.6222 16.7277 19.3292 16.5555 19.1403L15.1702 17.6252L17.8303 14.7963C18.2532 14.347 18.816 14.0994 19.4151 14.0994C20.0142 14.0994 20.5767 14.347 20.9998 14.7963L25.5437 19.6277C25.4537 20.8388 24.4445 21.7969 23.2142 21.7969Z" fill="black" fill-opacity="0.87"/>
<path fill-rule="evenodd" clip-rule="evenodd" d="M15.7527 7.10374C15.7527 5.30056 17.2159 3.83374 19.0145 3.83374C20.8129 3.83374 22.2763 5.30056 22.2763 7.10374C22.2763 8.90663 20.8129 10.3737 19.0145 10.3737C17.2159 10.3737 15.7527 8.90663 15.7527 7.10374ZM16.6766 7.10374C16.6766 8.39626 17.7252 9.44727 19.0145 9.44727C20.3035 9.44727 21.3522 8.39626 21.3522 7.10374C21.3522 5.81151 20.3035 4.75992 19.0145 4.75992C17.725 4.75992 16.6766 5.81151 16.6766 7.10374Z" fill="black" fill-opacity="0.87"/>
</svg>
