<svg width="28" height="27" viewBox="0 0 28 27" fill="none" xmlns="http://www.w3.org/2000/svg">
<path fill-rule="evenodd" clip-rule="evenodd" d="M6.40223 18.3075C6.42254 18.3063 6.46869 18.2862 6.48321 18.2708C6.62023 18.0802 9.94534 13.4609 11.627 11.7759L12.6326 10.7677L3.27714 7.06148C2.9639 6.93694 2.74908 6.69834 2.6887 6.40561C2.62802 6.1126 2.72992 5.80795 2.96855 5.56876L4.19392 4.34055C4.42934 4.10427 4.85316 3.97159 5.17917 4.03124L16.6672 6.12278H16.6675C16.732 6.12278 16.8115 6.09078 16.8347 6.06983L20.2002 2.69652C21.8485 1.04435 23.6423 0.0582275 24.9989 0.0582275C25.6117 0.0582275 26.1377 0.260166 26.5195 0.642511C27.7761 1.90244 26.9331 4.50728 24.4696 6.97651L21.1042 10.3504C21.0763 10.3809 21.0467 10.4773 21.0519 10.5186L23.138 22.0314C23.1984 22.3654 23.0686 22.781 22.8294 23.0204L21.6052 24.2481C21.4133 24.4398 21.1759 24.5455 20.9358 24.5455C20.5776 24.5455 20.2629 24.3133 20.1154 23.9388L16.4179 14.5614L15.4123 15.5697C13.7308 17.255 9.12204 20.5876 8.92697 20.7287C8.91565 20.7406 8.8962 20.7895 8.89678 20.8131L9.50668 24.1791C9.56708 24.5132 9.43731 24.929 9.19838 25.1679L8.4201 25.9485C8.22851 26.1412 7.99074 26.2462 7.75125 26.2462C7.39302 26.2462 7.07833 26.0143 6.93086 25.6407L5.46658 21.9272C5.4451 21.8717 5.33913 21.766 5.28427 21.7439L1.57975 20.2771C1.26652 20.1526 1.05227 19.9137 0.991601 19.6209C0.931219 19.3279 1.0334 19.0233 1.27203 18.7847L2.05178 18.004C2.28692 17.7674 2.71134 17.635 3.03764 17.6953L6.40223 18.3075ZM13.5816 10.5701C13.6426 10.8625 13.5401 11.1678 13.3018 11.4064L12.2805 12.4306C10.6516 14.063 7.26325 18.7704 7.22958 18.8173C7.01793 19.1117 6.59469 19.2814 6.23734 19.2185L2.87217 18.6063H2.87187C2.80685 18.6063 2.72731 18.6389 2.70408 18.6593L1.94117 19.4237L5.62392 20.8823C5.91597 20.9981 6.21121 21.2941 6.32644 21.5862L7.78202 25.2781L8.54494 24.512C8.57251 24.4817 8.6027 24.3845 8.59689 24.3432L7.98638 20.9717C7.92107 20.6106 8.08945 20.1921 8.38585 19.9774C8.43374 19.9428 13.1299 16.5471 14.7585 14.9147L15.7798 13.891C15.9711 13.6993 16.2088 13.5933 16.4486 13.5933C16.8072 13.5933 17.1216 13.8258 17.2693 14.2003L20.9672 23.578L22.1768 22.3643C22.2044 22.334 22.2343 22.2374 22.2291 22.1955L20.1427 10.683C20.082 10.3501 20.2118 9.93372 20.4513 9.69453L23.8159 6.32094C25.796 4.33676 26.696 2.12999 25.8657 1.2975C25.6581 1.08974 25.3667 0.983827 24.9989 0.983827C23.8989 0.983827 22.3107 1.89139 20.8537 3.35122L17.4876 6.72569C17.2522 6.96167 16.8278 7.09407 16.5018 7.03442L5.01457 4.94287C4.94926 4.94287 4.86944 4.97546 4.84591 4.99612L3.63711 6.20746L12.9935 9.91393C13.307 10.0385 13.5212 10.2774 13.5816 10.5701Z" fill="black" fill-opacity="0.87"/>
</svg>
