<svg width="20" height="27" viewBox="0 0 20 27" fill="none" xmlns="http://www.w3.org/2000/svg">
<path fill-rule="evenodd" clip-rule="evenodd" d="M11.4897 26.1282C11.099 26.5801 10.5722 26.8288 10.0068 26.8288C9.44114 26.8288 8.91463 26.5801 8.52396 26.1273C8.18262 25.7336 0.167969 16.3941 0.167969 10.5044C0.167969 5.06576 4.58179 0.640869 10.0068 0.640869C15.4319 0.640869 19.8457 5.06576 19.8457 10.5047C19.8457 16.3944 11.8311 25.7339 11.4897 26.1282ZM18.9216 10.5044C18.9216 5.57643 14.9228 1.56705 10.0068 1.56705C5.09089 1.56705 1.09183 5.57643 1.09154 10.5044C1.09154 16.0493 9.14045 25.4269 9.22201 25.5212C9.43447 25.7668 9.71311 25.9024 10.0068 25.9024C10.3003 25.9024 10.5792 25.7668 10.7917 25.5212C10.8729 25.4269 18.9216 16.0496 18.9216 10.5044Z" fill="black" fill-opacity="0.87"/>
<path fill-rule="evenodd" clip-rule="evenodd" d="M10.0068 6.42578C12.2502 6.42578 14.0756 8.25545 14.0756 10.5044C14.0756 12.7534 12.2502 14.5831 10.0068 14.5831C7.7635 14.5831 5.93842 12.7534 5.93842 10.5044C5.93842 8.25545 7.7635 6.42578 10.0068 6.42578ZM10.0068 7.35196C8.27289 7.35196 6.86228 8.76612 6.86228 10.5044C6.86228 12.2427 8.27289 13.6566 10.0068 13.6566C11.7408 13.6566 13.1514 12.2424 13.1514 10.5044C13.1514 8.76641 11.7408 7.35196 10.0068 7.35196Z" fill="black" fill-opacity="0.87"/>
</svg>
