<svg width="28" height="26" viewBox="0 0 28 26" fill="none" xmlns="http://www.w3.org/2000/svg">
<path fill-rule="evenodd" clip-rule="evenodd" d="M23.9141 3.50757L24.8023 3.37325C25.4786 3.18496 26.1499 3.34424 26.5894 3.79072C26.935 4.14234 27.1205 4.64742 27.1103 5.212L27.045 6.13367C26.4329 14.6738 22.9883 20.7667 16.8069 24.2435C15.9794 24.7094 15.2921 25.0108 15.2633 25.0233C14.9322 25.1675 14.5012 25.247 14.0492 25.247C13.597 25.247 13.166 25.1672 12.8351 25.0233C12.8064 25.0105 12.1179 24.7088 11.2896 24.2429C5.10936 20.7661 1.66529 14.6735 1.05258 6.13396L0.988725 5.23752C0.977986 4.65091 1.16258 4.14813 1.50769 3.79709C1.95031 3.34712 2.62949 3.18787 3.31302 3.37759L4.2093 3.51135C7.21335 3.95986 9.8038 3.28998 11.8678 1.52319L12.4973 0.98474C12.9086 0.493286 13.4583 0.2229 14.0492 0.2229C14.6408 0.2229 15.1902 0.493286 15.6018 0.98474L16.2313 1.52377C18.3008 3.29521 20.9022 3.96391 23.9141 3.50757ZM16.3544 23.4395C22.2481 20.1235 25.5355 14.2795 26.1241 6.06811L26.1888 5.17138C26.1929 4.88095 26.102 4.61232 25.9311 4.43826C25.7206 4.22416 25.3924 4.16265 25.0313 4.26824L24.9704 4.28218L24.0529 4.42086C20.7676 4.9184 17.9078 4.17426 15.6305 2.22527L14.9115 1.59949C14.6756 1.30763 14.37 1.14662 14.0495 1.14662C13.7294 1.14662 13.4235 1.30763 13.1881 1.59949L13.1292 1.66013L12.4691 2.22527C10.1982 4.16844 7.34832 4.91462 4.07317 4.4249L3.08547 4.27348C2.96588 4.23807 2.84949 4.22038 2.73949 4.22038C2.50933 4.22038 2.31167 4.29754 2.16742 4.44463C1.99733 4.61753 1.90649 4.88474 1.912 5.19661L1.97498 6.06811C2.56447 14.2786 5.85037 20.1224 11.7438 23.4384C12.5289 23.8805 13.1988 24.1738 13.2055 24.1767C13.6324 24.3627 14.4666 24.3633 14.8944 24.1767C14.9005 24.1738 15.5695 23.8808 16.3544 23.4395Z" fill="black" fill-opacity="0.87"/>
</svg>
