<svg width="23" height="27" viewBox="0 0 23 27" fill="none" xmlns="http://www.w3.org/2000/svg">
<path fill-rule="evenodd" clip-rule="evenodd" d="M20.4526 11.6637V9.76563C20.4526 4.73405 16.3691 0.640869 11.3509 0.640869C6.33195 0.640869 2.2493 4.73405 2.2493 9.76534V11.6634C0.992229 12.1182 0.0898438 13.3223 0.0898438 14.737V23.5583C0.0895535 25.3617 1.5527 26.8288 3.35109 26.8288H19.3505C21.1489 26.8288 22.612 25.3617 22.612 23.5588V14.7373C22.6123 13.3225 21.7097 12.1182 20.4526 11.6637ZM11.3509 1.56734C6.84163 1.56734 3.17345 5.24472 3.17345 9.76534H3.17403V11.4766C3.23325 11.4734 3.29159 11.4676 3.35167 11.4676H5.56134V9.76563C5.56134 6.56517 8.15878 3.96121 11.3512 3.96121C14.5437 3.96121 17.1403 6.56517 17.1403 9.76563V11.4676H19.3508C19.4106 11.4676 19.4692 11.4731 19.5284 11.4766V9.76563C19.5284 5.24501 15.8603 1.56734 11.3509 1.56734ZM16.2161 9.76534V11.4673H6.4852V9.76534C6.4852 7.07555 8.66817 4.8871 11.3509 4.8871C14.0337 4.8871 16.2161 7.07555 16.2161 9.76534ZM19.3505 25.9027C20.6395 25.9027 21.6882 24.8511 21.6882 23.5588V14.7373C21.6882 13.445 20.6392 12.3935 19.3505 12.3935H3.35109C2.06209 12.3935 1.01342 13.4453 1.01342 14.7373V23.5588C1.01342 24.8514 2.06238 25.9027 3.35109 25.9027H19.3505Z" fill="black" fill-opacity="0.87"/>
<path fill-rule="evenodd" clip-rule="evenodd" d="M8.72882 17.2714C8.72882 15.8217 9.9052 14.6427 11.3509 14.6427C12.7967 14.6427 13.973 15.8217 13.9733 17.2714C13.9733 18.1513 13.538 18.9608 12.821 19.4473V22.6126C12.821 23.1861 12.3552 23.6528 11.7831 23.6528H10.919C10.3467 23.6528 9.88111 23.1861 9.88111 22.6126V19.4473C9.16419 18.9608 8.72882 18.151 8.72882 17.2714ZM11.8969 19.1857C11.8969 19.0141 11.9915 18.8566 12.143 18.776C12.7015 18.4804 13.0492 17.9034 13.0489 17.2714C13.0489 16.3324 12.2867 15.5689 11.3506 15.5689C10.4146 15.5689 9.65239 16.3324 9.65239 17.2714C9.65239 17.9034 9.99982 18.4801 10.5586 18.7766C10.7098 18.8566 10.8041 19.0141 10.8041 19.1857V22.6126C10.8041 22.6757 10.8558 22.7266 10.9188 22.7266H11.7828C11.8458 22.7266 11.8969 22.6757 11.8969 22.6126V19.1857Z" fill="black" fill-opacity="0.87"/>
</svg>
