<svg width="24" height="27" viewBox="0 0 24 27" fill="none" xmlns="http://www.w3.org/2000/svg">
<path fill-rule="evenodd" clip-rule="evenodd" d="M4.03594 11.62H20.0356C21.834 11.62 23.2972 13.0871 23.2969 14.89V23.7115C23.2969 25.5144 21.8337 26.9815 20.0353 26.9815H4.03594C2.23756 26.9815 0.774414 25.5144 0.774414 23.7112V14.89C0.774414 13.0871 2.23756 11.62 4.03594 11.62ZM20.0353 26.0554C21.3243 26.0554 22.373 25.0038 22.373 23.7115V14.89C22.373 13.5974 21.3241 12.5461 20.0353 12.5461H4.03594C2.74695 12.5461 1.69828 13.5977 1.69828 14.89V23.7115C1.69828 25.0041 2.74724 26.0554 4.03594 26.0554H20.0353Z" fill="black" fill-opacity="0.87"/>
<path fill-rule="evenodd" clip-rule="evenodd" d="M9.4137 17.4241C9.4137 15.9745 10.5901 14.7954 12.0358 14.7954C13.4815 14.7954 14.6579 15.9745 14.6579 17.4241C14.6579 18.304 14.2226 19.1135 13.5056 19.6V22.7653C13.5056 23.3388 13.0398 23.8055 12.4677 23.8055H11.6036C11.0313 23.8055 10.5657 23.3388 10.5657 22.7653V19.6C10.1176 19.2963 9.77941 18.8659 9.58901 18.3709C9.47494 18.0739 9.4137 17.7541 9.4137 17.4241ZM13.7175 17.658C13.7213 17.6333 13.7207 17.6077 13.723 17.583C13.724 17.5722 13.725 17.5614 13.726 17.5507C13.73 17.5087 13.7339 17.467 13.7335 17.4241C13.7335 16.4851 12.9713 15.7216 12.0352 15.7216C11.0992 15.7216 10.337 16.4851 10.337 17.4241C10.337 17.7354 10.422 18.0325 10.5738 18.2903C10.7308 18.5557 10.9593 18.778 11.2431 18.9287C11.3949 19.0088 11.4893 19.1668 11.4893 19.3384V22.7653C11.4893 22.8284 11.5404 22.8794 11.6033 22.8794H12.4674C12.5304 22.8794 12.5815 22.8284 12.5815 22.7653V19.3387C12.5815 19.1671 12.6761 19.0091 12.8276 18.929C12.8979 18.8918 12.9637 18.8508 13.0267 18.8054C13.3962 18.5394 13.6412 18.137 13.7114 17.6877C13.7129 17.6775 13.7164 17.6679 13.7175 17.658Z" fill="black" fill-opacity="0.87"/>
<path fill-rule="evenodd" clip-rule="evenodd" d="M7.17036 9.91804C7.17036 10.1741 6.96312 10.3813 6.70829 10.3813H3.39654C3.14083 10.3813 2.93417 10.1741 2.93417 9.91804C2.93417 4.88704 7.01682 0.793579 12.0358 0.793579C17.0539 0.793579 21.1375 4.88704 21.138 9.91804C21.138 10.1741 20.9305 10.3813 20.6757 10.3813H17.3639C17.1085 10.3813 16.9018 10.1741 16.9018 9.91804C16.9018 7.22825 14.7189 5.03981 12.0361 5.03981C9.35275 5.03981 7.17036 7.22825 7.17036 9.91804ZM20.2002 9.4548C19.9602 5.14922 16.3898 1.72005 12.0358 1.72005C7.68149 1.72005 4.11142 5.14922 3.87081 9.45451H6.26391C6.50018 6.47025 8.99864 4.11334 12.0358 4.11334C15.073 4.11334 17.5709 6.47025 17.8071 9.4548H20.2002Z" fill="black" fill-opacity="0.87"/>
</svg>
