<svg width="27" height="26" viewBox="0 0 27 26" fill="none" xmlns="http://www.w3.org/2000/svg">
<path fill-rule="evenodd" clip-rule="evenodd" d="M23.7708 0.172146L25.7366 0.566129C26.2527 0.670008 26.6576 1.16438 26.6576 1.69163V5.48481C26.6576 5.7368 26.5653 5.97016 26.3978 6.14126C26.2286 6.31439 25.999 6.40983 25.7509 6.40983C25.6861 6.40983 25.6202 6.40343 25.5552 6.39033L23.7206 6.02225L24.0863 7.86268C24.1403 8.13445 24.0837 8.38935 23.9266 8.58197C23.738 8.81301 23.4289 8.91369 23.1035 8.84851L21.2691 8.47984L21.6351 10.32C21.6891 10.5918 21.6322 10.8469 21.4746 11.0393C21.2862 11.2703 20.9789 11.3716 20.6518 11.3055L18.6305 10.9005C18.4816 10.8688 18.272 10.9575 18.1983 11.0317L16.4989 12.7351C16.4611 12.7726 16.4611 12.8364 16.4989 12.8742L18.1582 14.538C18.3777 14.758 18.4673 15.0376 18.4046 15.3038C18.3422 15.571 18.137 15.781 17.8421 15.8797L15.3126 16.725C15.2438 16.7477 15.1945 16.846 15.2093 16.931C15.6252 19.3132 14.8595 21.7519 13.1607 23.4547C11.7637 24.8549 9.90644 25.6263 7.931 25.6263C5.95527 25.6263 4.09797 24.8549 2.70129 23.4547C1.30432 22.0545 0.535156 20.1923 0.535156 18.2116C0.535156 16.2312 1.30432 14.3692 2.70158 12.9687C4.09448 11.5721 5.94831 10.803 7.922 10.803C8.35215 10.803 8.78491 10.8405 9.20839 10.9153C9.29459 10.9305 9.39182 10.8789 9.41446 10.8112L10.2576 8.27499C10.3769 7.91534 10.6605 7.69187 10.9981 7.69187C11.212 7.69187 11.4239 7.78673 11.5951 7.9587L13.2553 9.62222C13.3021 9.66907 13.3473 9.66877 13.3938 9.62251L22.4083 0.585334C22.7296 0.263221 23.3191 0.0816516 23.7708 0.172146ZM23.7708 5.08763L25.7314 5.48045L25.7331 1.69163C25.7331 1.60346 25.6417 1.49202 25.5555 1.47456L23.5891 1.08029C23.4033 1.0413 23.1517 1.14954 23.0617 1.24061L14.0474 10.2766C13.662 10.663 12.9869 10.663 12.602 10.2766L11.0753 8.74638L10.2907 11.1036C10.1267 11.5977 9.58658 11.9218 9.04875 11.827C8.67781 11.7615 8.29845 11.7286 7.92171 11.7286C6.19473 11.7286 4.57281 12.4016 3.35464 13.6234C2.13211 14.8485 1.45902 16.4782 1.45902 18.211C1.45902 19.9443 2.13211 21.5738 3.35464 22.7988C4.57659 24.025 6.20227 24.6998 7.931 24.6998C9.66001 24.6998 11.2854 24.025 12.5076 22.7988C13.9934 21.3096 14.6633 19.1753 14.2996 17.0904C14.2042 16.5501 14.5144 16.0153 15.0206 15.8459L17.3716 15.06L15.8455 13.5289C15.4476 13.1288 15.4476 12.479 15.8455 12.0801L17.5446 10.3764C17.8442 10.0759 18.3907 9.90738 18.8122 9.99176L20.7023 10.3709L20.3363 8.53047C20.2823 8.25928 20.3392 8.0038 20.4965 7.81117C20.6851 7.58014 20.9931 7.47888 21.319 7.54464L23.1543 7.91331L22.7877 6.07317C22.7337 5.80139 22.7906 5.54592 22.9476 5.35387C23.1363 5.12254 23.4434 5.02187 23.7708 5.08763Z" fill="black" fill-opacity="0.87"/>
<path fill-rule="evenodd" clip-rule="evenodd" d="M5.15272 17.8842C5.56749 17.4681 6.11868 17.2397 6.70528 17.2397C7.29189 17.2397 7.84308 17.4681 8.25756 17.8842C8.67204 18.2997 8.90076 18.8526 8.90076 19.4407C8.90076 20.0284 8.67233 20.581 8.25756 20.9971C7.84279 21.4126 7.29189 21.6422 6.70528 21.6422C6.11868 21.6422 5.5672 21.4126 5.15272 20.9965C4.73795 20.581 4.50952 20.0284 4.50952 19.4407C4.50952 18.8523 4.73795 18.2997 5.15272 17.8842ZM6.70528 20.7149C7.04488 20.7149 7.36387 20.5825 7.6042 20.3418C7.84482 20.1012 7.97717 19.7811 7.97688 19.4404C7.97688 19.1002 7.84453 18.7799 7.6042 18.5392C7.36416 18.298 7.04488 18.1653 6.70528 18.1653C6.36569 18.1653 6.04641 18.298 5.80637 18.5383C5.56604 18.7799 5.43369 19.1002 5.43369 19.4404C5.43369 19.7811 5.56604 20.1012 5.80608 20.3418C6.04612 20.5825 6.36569 20.7149 6.70528 20.7149Z" fill="black" fill-opacity="0.87"/>
</svg>
