<svg width="24" height="27" viewBox="0 0 24 27" fill="none" xmlns="http://www.w3.org/2000/svg">
<path fill-rule="evenodd" clip-rule="evenodd" d="M18.4056 4.87803H20.727C22.5257 4.87803 23.9892 6.34485 23.9889 8.14774V23.7115C23.9889 25.5144 22.5254 26.9815 20.727 26.9815H8.97426C7.17558 26.9815 5.71243 25.5144 5.71214 23.7113V22.8974H3.39073C1.59234 22.8974 0.128906 21.43 0.128906 19.6271V4.06358C0.128906 2.26069 1.59234 0.793579 3.39102 0.793579H15.1438C16.9425 0.793579 18.4056 2.26069 18.4056 4.06358V4.87803ZM3.39102 21.9706C2.10231 21.9706 1.05335 20.9193 1.05335 19.6271V4.06358C1.05335 2.77135 2.10202 1.71976 3.39102 1.71976H15.1438C16.4331 1.71976 17.4818 2.77106 17.4818 4.06358V19.6271C17.4818 20.919 16.4334 21.9706 15.1438 21.9706H3.39102ZM20.727 26.0554C22.016 26.0554 23.0647 25.0038 23.0647 23.7115V8.14803C23.0647 6.8558 22.0157 5.8045 20.727 5.8045H18.4056V19.6274C18.4056 21.4303 16.9425 22.8977 15.1438 22.8977H6.63601V23.7115C6.63601 25.0041 7.68497 26.0554 8.97426 26.0554H20.727Z" fill="black" fill-opacity="0.87"/>
<path d="M13.7094 11.3825H4.82541C4.57057 11.3825 4.36304 11.5897 4.36304 11.8458C4.36304 12.1013 4.57057 12.3087 4.82541 12.3087H13.7091C13.9645 12.3087 14.1714 12.1013 14.1714 11.8458C14.1714 11.5897 13.9645 11.3825 13.7094 11.3825Z" fill="black" fill-opacity="0.87"/>
<path d="M13.7094 6.84445H4.82541C4.57057 6.84445 4.36304 7.05192 4.36304 7.3074C4.36304 7.56346 4.57057 7.77063 4.82541 7.77063H13.7091C13.9645 7.77063 14.1714 7.56346 14.1714 7.3074C14.1714 7.05192 13.9645 6.84445 13.7094 6.84445Z" fill="black" fill-opacity="0.87"/>
<path d="M13.7094 15.9203H4.82541C4.57057 15.9203 4.36304 16.1275 4.36304 16.3836C4.36304 16.6396 4.57057 16.8468 4.82541 16.8468H13.7091C13.9645 16.8468 14.1714 16.6396 14.1714 16.3836C14.1714 16.1275 13.9645 15.9203 13.7094 15.9203Z" fill="black" fill-opacity="0.87"/>
</svg>
