<svg width="27" height="27" viewBox="0 0 27 27" fill="none" xmlns="http://www.w3.org/2000/svg">
<path fill-rule="evenodd" clip-rule="evenodd" d="M0.588867 13.887C0.588867 6.66783 6.44842 0.793579 13.6501 0.793579C20.852 0.793579 26.7113 6.66783 26.7113 13.887C26.7113 21.1073 20.8518 26.9815 13.6501 26.9815C6.44842 26.9815 0.588867 21.1076 0.588867 13.887ZM1.51302 13.887C1.51302 20.5963 6.95752 26.0551 13.6501 26.0551C20.3427 26.0551 25.7871 20.5966 25.7871 13.887C25.7871 7.17821 20.3427 1.72005 13.6501 1.72005C6.95752 1.72005 1.51302 7.17791 1.51302 13.887Z" fill="black" fill-opacity="0.87"/>
<path d="M19.2896 8.58479C19.0746 8.44628 18.789 8.50884 18.6514 8.72387L13.1085 17.3688C12.988 17.5562 12.8299 17.6662 12.6633 17.6778C12.4952 17.6883 12.3254 17.6025 12.18 17.4322L8.89118 13.5861C8.72544 13.3926 8.43374 13.3696 8.23985 13.5361C8.04626 13.7022 8.02391 13.9949 8.18964 14.189L11.4785 18.0354C11.7911 18.4003 12.2076 18.6049 12.6345 18.6049C12.6653 18.6049 12.6958 18.604 12.7265 18.6014C13.1851 18.5697 13.6071 18.3028 13.8855 17.869L19.4281 9.22494C19.5665 9.00961 19.5041 8.72329 19.2896 8.58479Z" fill="black" fill-opacity="0.87"/>
</svg>
