<svg width="27" height="21" viewBox="0 0 27 21" fill="none" xmlns="http://www.w3.org/2000/svg">
<path fill-rule="evenodd" clip-rule="evenodd" d="M22.2513 7.36633L24.9021 6.42691C25.3052 6.28369 25.7078 6.36935 25.9504 6.64418C26.1286 6.84644 26.2047 7.12997 26.1632 7.44242C26.1608 7.46267 26.0941 7.95567 25.8358 8.55745C25.5699 9.17542 25.1958 9.73326 24.723 10.2155C23.6903 11.2692 22.3079 11.8496 20.8297 11.8496C19.8986 11.8496 19.2539 11.6008 19.2272 11.5898C19.1393 11.5551 19.0331 11.5369 18.9196 11.5369C18.6215 11.5369 18.3104 11.6601 18.1449 11.843L16.7012 13.4186L20.5339 17.009C20.814 17.2662 20.9748 17.618 20.9821 17.997C20.9899 18.376 20.8439 18.7342 20.5716 19.0062L19.2026 20.3706C18.937 20.6353 18.5884 20.7806 18.2189 20.7806H18.1908C17.8103 20.7728 17.4571 20.6131 17.1953 20.3307L13.7327 16.6581L10.6967 19.9716C10.2329 20.4846 9.56853 20.7806 8.87602 20.7809H8.87573C7.52175 20.7806 6.42057 19.6826 6.42057 18.3332C6.42057 17.6432 6.71717 16.9807 7.2344 16.5163L10.659 13.3977L7.3714 9.91032C6.85185 9.34614 6.30331 9.01978 5.86155 9.01053C5.64241 9.00127 5.45639 9.08025 5.29762 9.2388C5.12492 9.41065 5.08777 9.566 5.1731 9.75813C5.35393 10.1661 5.29094 10.6084 5.01317 10.8859L3.81215 12.0837C3.57356 12.3212 3.25574 12.452 2.91704 12.452C2.57861 12.452 2.26051 12.3206 2.02251 12.0831L0.421237 10.4869C0.182948 10.2494 0.0517578 9.93229 0.0517578 9.59525C0.0517578 9.25789 0.182948 8.94081 0.420367 8.70355L1.62197 7.50664C1.90003 7.22977 2.34381 7.16698 2.75305 7.34724C2.94519 7.43229 3.10133 7.39525 3.27461 7.22282C3.44701 7.05126 3.48417 6.89591 3.39883 6.70322C3.21743 6.29527 3.28012 5.8526 3.55789 5.57574L6.3541 2.78931C8.53382 0.616245 11.8571 0.660799 14.1828 1.66734C14.4783 1.79551 15.2616 2.13546 15.1073 2.72162C14.947 3.32947 14.02 3.234 13.6708 3.19783C12.4126 3.06764 10.7193 3.21664 9.79434 4.6589C9.70001 4.80645 8.90244 6.13933 10.0733 7.20923L13.7118 10.6186L15.3853 9.095C15.6509 8.85602 15.7725 8.34221 15.643 8.0141C15.6323 7.98693 15.3844 7.34811 15.3844 6.4217C15.3844 3.42929 17.8271 0.994385 20.8294 0.994385C21.5886 0.994385 22.3239 1.14714 23.0149 1.44919C23.7071 1.7524 24.1802 2.16526 24.2 2.18319C24.4824 2.4323 24.6095 2.75373 24.5491 3.06619C24.4882 3.37808 24.2502 3.62863 23.8955 3.75448L21.2923 4.67682C20.2376 5.05061 20.1943 5.56128 20.4834 6.37281L20.5505 6.55971C20.8317 7.3487 21.1504 7.51042 21.5428 7.51042C21.7428 7.51042 21.9811 7.4618 22.2513 7.36633ZM24.9859 8.19495C25.1914 7.71699 25.2463 7.32553 25.2469 7.32178C25.2486 7.30703 25.2495 7.29428 25.2498 7.28387C25.2387 7.2859 25.2263 7.28966 25.2118 7.29516L22.5607 8.23429C22.1857 8.36738 21.8525 8.43189 21.5425 8.43189C20.237 8.43189 19.8176 7.25552 19.6794 6.86899L19.613 6.68239C19.1117 5.27542 19.5726 4.3097 20.9826 3.80916L23.5855 2.88682C23.5899 2.88508 23.5939 2.88392 23.5977 2.88247C23.5948 2.879 23.5913 2.8764 23.5879 2.87293C23.5849 2.8709 23.1975 2.53587 22.6428 2.29256C22.0702 2.0423 21.4595 1.91529 20.8291 1.91529C18.3362 1.91529 16.3083 3.93704 16.3083 6.42141C16.3083 7.16293 16.501 7.67302 16.5033 7.67823C16.7729 8.36159 16.555 9.28393 16.0061 9.77664L7.85553 17.1985C7.52987 17.4907 7.34469 17.9039 7.34469 18.3335C7.34469 19.1749 8.0314 19.8594 8.87573 19.86C9.30672 19.86 9.72149 19.6751 10.0123 19.3531L17.4603 11.2241C17.7987 10.8503 18.3583 10.6162 18.919 10.6162C19.1506 10.6162 19.3683 10.6553 19.5657 10.7334C19.5691 10.7346 20.0843 10.9287 20.8291 10.9287C22.0562 10.9287 23.2042 10.4467 24.0615 9.57208C24.4545 9.17138 24.7657 8.70791 24.9859 8.19495ZM5.88099 8.08906C5.40124 8.07893 4.98009 8.25166 4.64398 8.58753C4.20253 9.02732 4.0876 9.58975 4.32789 10.1305C4.35169 10.1849 4.35286 10.2343 4.35924 10.2343H4.35953L3.1588 11.4324C3.09465 11.4961 3.00877 11.5311 2.91674 11.5311C2.82532 11.5311 2.7397 11.4961 2.67584 11.4324L1.0737 9.83536C1.01043 9.77172 0.97502 9.68667 0.97502 9.59525C0.97502 9.50353 1.01043 9.4179 1.0737 9.35481L2.25848 8.1689C2.27357 8.16486 2.32407 8.16515 2.37922 8.18916C2.92168 8.42843 3.4862 8.31413 3.92796 7.87408C4.3694 7.43462 4.48434 6.87161 4.24404 6.33027C4.21937 6.27414 4.21269 6.22901 4.21182 6.22671L7.00771 3.44028C8.6624 1.79088 11.1158 1.64246 13.0712 2.23903C11.2441 2.21618 9.84659 2.86743 9.01534 4.16328C8.3916 5.13974 8.24183 6.56146 9.21849 7.65477L7.81867 9.05045C7.18651 8.44289 6.50735 8.10265 5.88099 8.08906ZM9.88374 8.29533L8.4569 9.71734L11.3413 12.7772L13.0279 11.2409L9.88374 8.29533ZM19.9041 17.6826C20.0007 17.7722 20.0556 17.8906 20.0579 18.0156C20.0608 18.1417 20.0106 18.2621 19.9177 18.3549L18.549 19.7196C18.4561 19.8122 18.3362 19.8727 18.2088 19.8591C18.0819 19.8568 17.9632 19.8024 17.8712 19.7028L14.3575 15.9762L16.0778 14.0985L19.9041 17.6826Z" fill="black" fill-opacity="0.87"/>
</svg>
