<svg width="27" height="27" viewBox="0 0 27 27" fill="none" xmlns="http://www.w3.org/2000/svg">
<path fill-rule="evenodd" clip-rule="evenodd" d="M0.353516 23.7115C0.353516 22.7891 0.750005 21.904 1.44087 21.2833L11.56 12.1856C11.9892 11.7992 12.1805 10.9903 11.9688 10.4534C11.9544 10.4168 11.6172 9.54676 11.6172 8.27374C11.6172 4.14913 14.9814 0.793579 19.1173 0.793579C20.1638 0.793579 21.1762 1.00483 22.1287 1.42122C23.0792 1.83731 23.7258 2.4021 23.7532 2.42596C24.1004 2.73236 24.2582 3.12256 24.1859 3.49676C24.1132 3.87037 23.8212 4.17415 23.3841 4.32895L19.7089 5.63195C18.0862 6.2078 18.0252 7.06734 18.4529 8.26733L18.5472 8.53125C18.9192 9.57411 19.376 9.99923 20.1255 9.99923C20.4293 9.99923 20.7873 9.92678 21.1893 9.78449L24.9313 8.45705C25.4293 8.28043 25.916 8.38081 26.2062 8.71078C26.4221 8.95608 26.5132 9.30409 26.4621 9.6905C26.4586 9.71844 26.3682 10.3903 26.0134 11.2167C25.6478 12.0681 25.1317 12.8374 24.4805 13.5017C23.0579 14.9543 21.1534 15.7542 19.1178 15.7542C17.8382 15.7542 16.9606 15.4149 16.9236 15.4001C16.7783 15.343 16.6047 15.3128 16.4209 15.3128C15.9427 15.3128 15.459 15.5063 15.1876 15.8068L6.06661 25.8971C5.44429 26.5864 4.55708 26.9815 3.63252 26.9815C1.82453 26.9815 0.353516 25.5144 0.353516 23.7115ZM12.8329 10.1159C13.1877 11.0145 12.9015 12.2267 12.1814 12.8741L2.06289 21.9715C1.56691 22.4173 1.28275 23.051 1.28275 23.7115C1.28275 25.0041 2.33714 26.0554 3.63252 26.0554C4.29421 26.0554 4.93023 25.7717 5.37689 25.2773L14.4965 15.1874C14.9426 14.6933 15.6795 14.3869 16.4197 14.3869C16.7231 14.3869 17.0073 14.4375 17.2632 14.5385C17.2699 14.5414 18.0243 14.828 19.1167 14.828C20.9002 14.828 22.569 14.1273 23.8151 12.8549C24.3863 12.2721 24.8379 11.5982 25.1583 10.8524C25.4597 10.1505 25.5396 9.57586 25.5405 9.57033C25.5583 9.43532 25.5338 9.3521 25.5072 9.32213C25.4579 9.26509 25.3468 9.29303 25.2414 9.32998L21.4994 10.6571C20.99 10.8381 20.5404 10.926 20.1244 10.926C18.4138 10.926 17.8551 9.35733 17.6713 8.84201L17.5771 8.57839C17.3285 7.88121 16.5729 5.76115 19.3968 4.7596L23.0717 3.45631C23.2132 3.40656 23.268 3.34341 23.2724 3.32072C23.2765 3.29831 23.2493 3.21975 23.1367 3.12053C23.1318 3.11616 22.5658 2.6247 21.7535 2.26942C20.9214 1.90482 20.0342 1.72005 19.117 1.72005C15.4937 1.72005 12.5458 4.66009 12.5458 8.27374C12.5458 9.36024 12.8303 10.1083 12.8329 10.1159Z" fill="black" fill-opacity="0.87"/>
</svg>
