<svg width="28" height="26" viewBox="0 0 28 26" fill="none" xmlns="http://www.w3.org/2000/svg">
<path fill-rule="evenodd" clip-rule="evenodd" d="M3.12162 9.93678C3.4618 9.59535 4.01125 9.52086 4.52092 9.74811C4.86661 9.90085 5.16789 9.83308 5.46801 9.5311C5.76784 9.22968 5.83604 8.9268 5.68308 8.57865C5.45698 8.0649 5.5307 7.51259 5.87087 7.17029L9.84067 3.17563C12.8732 0.123203 17.5059 0.188917 20.7512 1.6075C21.3962 1.88965 22.1166 2.29153 21.9575 2.89933C21.7898 3.54218 20.8253 3.51736 20.1165 3.44375C18.2797 3.25186 15.8016 3.47442 14.4365 5.6229C14.294 5.84838 13.09 7.88117 14.8635 9.51737L26.4866 20.3132C26.8515 20.652 27.0575 21.1094 27.0674 21.6015C27.077 22.0925 26.8892 22.558 26.5386 22.9109L24.5953 24.8668C24.2534 25.2112 23.805 25.3996 23.3293 25.3996C23.3171 25.3996 23.3052 25.3996 23.293 25.399C22.8042 25.3897 22.3497 25.1817 22.013 24.814L11.285 13.12C10.5184 12.2786 9.69062 11.7882 9.01285 11.7736C8.64656 11.7631 8.33657 11.8945 8.07651 12.1562C7.77697 12.4576 7.70847 12.7605 7.86172 13.1087C8.08725 13.6221 8.01353 14.175 7.67335 14.5173L5.96756 16.2335C5.65377 16.5496 5.24132 16.7076 4.82888 16.7076C4.41614 16.7076 4.00399 16.5496 3.68993 16.2335L1.41581 13.9455C1.1125 13.6399 0.945312 13.2334 0.945312 12.7991C0.945312 12.3656 1.1125 11.9585 1.41581 11.6533L3.12162 9.93678ZM6.54341 8.19604C6.85659 8.90751 6.71089 9.61988 6.133 10.2008C5.55537 10.7814 4.84804 10.9278 4.14041 10.6132C4.00254 10.5516 3.84406 10.549 3.7863 10.6065L2.08078 12.3227C1.95539 12.4489 1.88602 12.618 1.88602 12.7991C1.88602 12.9801 1.95539 13.1493 2.08078 13.2757L4.3549 15.5641C4.60626 15.8173 5.05092 15.8173 5.30228 15.5641L7.0081 13.8482C7.06557 13.7904 7.06238 13.6309 7.00143 13.4919C6.68854 12.7804 6.83395 12.0683 7.41155 11.4874C7.85331 11.0423 8.41494 10.8139 9.03317 10.8276C9.91759 10.8466 10.8873 11.3653 11.7871 12.2842L14.0371 10.0203C12.3821 8.29768 12.9917 6.1457 13.6438 5.11409C14.9294 3.09093 17.2029 2.18843 20.2134 2.50241C20.3135 2.51292 20.4047 2.51993 20.486 2.5249C20.4514 2.50913 20.4148 2.49277 20.3765 2.47583C17.4229 1.18517 13.2262 1.10748 10.5059 3.84505L6.53616 7.83971C6.47898 7.89723 6.48246 8.05672 6.54341 8.19604ZM14.7198 10.6719L25.8489 21.0086C26.0237 21.1713 26.1224 21.3886 26.1273 21.6205C26.1317 21.8521 26.042 22.0726 25.8733 22.2417L23.9304 24.1977C23.762 24.3668 23.538 24.4538 23.3121 24.453C23.0814 24.4483 22.8663 24.349 22.7041 24.1729L12.4314 12.9743L14.7198 10.6719Z" fill="black" fill-opacity="0.87"/>
</svg>
