<svg width="26" height="27" viewBox="0 0 26 27" fill="none" xmlns="http://www.w3.org/2000/svg">
<path fill-rule="evenodd" clip-rule="evenodd" d="M7.96835 13.8882C7.96835 11.0791 10.2483 8.79343 13.0498 8.79343C15.8512 8.79343 18.1312 11.0791 18.1312 13.8882C18.1312 16.6972 15.8512 18.9826 13.0498 18.9826C10.2483 18.9826 7.96835 16.6972 7.96835 13.8882ZM8.8928 13.8882C8.8928 16.186 10.7577 18.0561 13.0498 18.0561C15.3419 18.0561 17.2067 16.186 17.2067 13.8882C17.2067 11.59 15.3419 9.72019 13.0498 9.72019C10.7577 9.72019 8.8928 11.59 8.8928 13.8882Z" fill="black" fill-opacity="0.87"/>
<path fill-rule="evenodd" clip-rule="evenodd" d="M24.3793 11.1061L22.8579 11.9866C22.6506 12.1065 22.4901 12.444 22.5281 12.6809C22.5316 12.7018 22.6111 13.2032 22.6111 13.8879C22.6111 14.5716 22.5322 15.0733 22.5284 15.0942C22.4904 15.3314 22.6509 15.6686 22.8581 15.7885L24.3791 16.669C24.8083 16.9172 25.1163 17.3202 25.2452 17.8032C25.3737 18.2854 25.3084 18.7882 25.0606 19.2186L23.6607 21.6494C23.4131 22.0794 23.0114 22.3885 22.5299 22.5177C22.0489 22.6466 21.5468 22.5811 21.1175 22.3323L19.5969 21.4524C19.39 21.3325 19.0176 21.3619 18.8318 21.5132C18.8153 21.5272 18.4127 21.8534 17.8313 22.19C17.2569 22.5232 16.7675 22.7123 16.7472 22.7199C16.5234 22.806 16.3119 23.1147 16.3119 23.3548V25.1146C16.3119 26.1435 15.4765 26.9813 14.4499 26.9813H11.6502C10.6235 26.9813 9.78821 26.1435 9.78821 25.1146V23.3548C9.78821 23.1145 9.57662 22.806 9.35283 22.7199C9.33252 22.7123 8.84374 22.5235 8.26904 22.19C7.68796 21.8534 7.28568 21.5272 7.26855 21.5132C7.08308 21.3619 6.71127 21.3319 6.50404 21.4524L4.98255 22.3329C4.09293 22.8468 2.95254 22.5406 2.4388 21.6497L1.03892 19.2188C0.791052 18.7888 0.725745 18.2851 0.854616 17.803C0.983487 17.3199 1.29086 16.9172 1.72014 16.6687L3.24192 15.7882C3.44887 15.6683 3.60937 15.3305 3.57135 15.094C3.56787 15.073 3.48863 14.5716 3.48863 13.8876C3.48863 13.2035 3.56787 12.7015 3.57135 12.6806C3.60966 12.4437 3.44916 12.1062 3.24192 11.9863L1.72014 11.1055C1.29115 10.857 0.983487 10.4546 0.854616 9.97159C0.725745 9.48944 0.791052 8.98634 1.03892 8.55598L2.4388 6.12516C2.68667 5.69509 3.08838 5.38637 3.56961 5.25717C4.05143 5.12827 4.55269 5.19345 4.98197 5.44194L6.50433 6.32302C6.71214 6.4432 7.08366 6.41352 7.26942 6.26192C7.28597 6.24824 7.68796 5.92235 8.26904 5.58598C8.84345 5.2531 9.33223 5.06396 9.35254 5.05611C9.57633 4.96998 9.78792 4.66125 9.78792 4.42119V2.6602C9.78792 1.63072 10.6233 0.793579 11.6499 0.793579H14.4496C15.4762 0.793579 16.3116 1.63072 16.3119 2.66049V4.4209C16.3119 4.66183 16.5234 4.96998 16.7472 5.05611C16.7675 5.06396 17.2563 5.25252 17.8307 5.58598C18.4118 5.92235 18.8138 6.24824 18.8309 6.26221C19.017 6.41381 19.3888 6.4432 19.5957 6.32302L21.1175 5.44252C21.5468 5.19374 22.0492 5.12856 22.5299 5.25746C23.0114 5.38666 23.4128 5.69538 23.6607 6.12574L25.0606 8.55657C25.3087 8.98663 25.3737 9.48973 25.2452 9.97246C25.1163 10.4549 24.8086 10.8573 24.3793 11.1061ZM21.687 13.8879C21.687 13.282 21.6167 12.8319 21.6165 12.8272C21.5181 12.2159 21.8606 11.494 22.3958 11.1844L23.9161 10.3036C24.1318 10.1791 24.2862 9.97595 24.3515 9.73211C24.4168 9.48886 24.384 9.23542 24.2595 9.01893L22.8596 6.5881C22.7351 6.3722 22.5331 6.2174 22.2898 6.15222C22.0457 6.08646 21.7938 6.11934 21.5784 6.24446L20.0567 7.12466C19.5223 7.43456 18.7264 7.37112 18.2475 6.98063C18.244 6.97743 17.8815 6.685 17.3678 6.38733C16.8596 6.09315 16.4195 5.92206 16.4149 5.92031C15.8387 5.69888 15.3868 5.0401 15.3868 4.42061V2.6602C15.3868 2.14168 14.9663 1.71976 14.449 1.71976H11.6493C11.1321 1.71976 10.7115 2.14168 10.7115 2.6602V4.42119C10.7115 5.04069 10.2596 5.69888 9.68314 5.9206C9.67937 5.92176 9.23906 6.09315 8.73112 6.38762C8.21709 6.68558 7.85486 6.97772 7.85108 6.98092C7.37188 7.37141 6.57747 7.43456 6.04196 7.12466L4.5196 6.24359C4.30423 6.11963 4.05143 6.08646 3.80878 6.15193C3.56526 6.21711 3.36324 6.3722 3.23873 6.5881L1.83885 9.01893C1.71463 9.23542 1.68154 9.48857 1.74684 9.73211C1.81186 9.97595 1.96656 10.1791 2.18193 10.3036L2.67519 10.5892C2.67442 10.5887 2.6739 10.5882 2.6739 10.5882C2.6739 10.5882 2.76446 10.6405 3.70371 11.1844C4.23922 11.494 4.58171 12.2159 4.48332 12.8278C4.48274 12.8316 4.41279 13.282 4.41279 13.8879C4.41279 14.4934 4.48274 14.9435 4.48332 14.9479C4.58113 15.5589 4.23893 16.2811 3.70371 16.5907L2.67709 17.1858L2.67622 17.1843C2.60511 17.228 2.46869 17.3065 2.18338 17.4712C1.96801 17.5964 1.81331 17.7992 1.74829 18.0433C1.68299 18.2866 1.71579 18.54 1.8403 18.7565L3.24018 21.1873C3.4985 21.6357 4.07291 21.7905 4.52163 21.531C4.77705 21.3834 4.92421 21.2988 5.01767 21.2499L5.01535 21.2452L6.04283 20.651C6.5766 20.3406 7.37217 20.4043 7.85195 20.7945C7.85515 20.798 8.21796 21.091 8.7317 21.3884C9.24428 21.6855 9.67995 21.8537 9.68459 21.8554C10.2613 22.0771 10.7129 22.7362 10.7129 23.3551V25.1149C10.7129 25.6334 11.1335 26.0551 11.6507 26.0551H14.4505C14.9677 26.0551 15.3883 25.6334 15.3883 25.1149V23.3551C15.3883 22.7362 15.8402 22.0774 16.4166 21.8557C16.4207 21.8545 16.8613 21.6828 17.3698 21.3884C17.8836 21.091 18.2464 20.798 18.2499 20.7945C18.7293 20.4043 19.5246 20.3409 20.0593 20.651L21.5796 21.5307C21.7955 21.6555 22.0483 21.6887 22.291 21.6232C22.5342 21.5574 22.7362 21.4029 22.861 21.1864L24.2609 18.7556C24.3851 18.5397 24.4182 18.2863 24.3529 18.043C24.2876 17.7989 24.1332 17.5961 23.9176 17.4709L22.3964 16.5907C21.8611 16.2811 21.5184 15.5592 21.6165 14.9473C21.617 14.9435 21.687 14.4937 21.687 13.8879Z" fill="black" fill-opacity="0.87"/>
</svg>
