<svg width="26" height="27" viewBox="0 0 26 27" fill="none" xmlns="http://www.w3.org/2000/svg">
<path fill-rule="evenodd" clip-rule="evenodd" d="M13.3516 0.793579C17.0801 0.793579 20.1135 3.83458 20.1135 7.57248C20.1135 11.3098 17.0801 14.3508 13.3516 14.3508C9.62306 14.3508 6.58966 11.3098 6.58966 7.57248C6.58966 3.83458 9.62306 0.793579 13.3516 0.793579ZM13.3516 1.72005C10.1327 1.72005 7.5144 4.34554 7.5144 7.57248C7.5144 10.7988 10.1327 13.4243 13.3516 13.4243C16.5705 13.4243 19.1888 10.7988 19.1888 7.57248C19.1888 4.34554 16.5708 1.72005 13.3516 1.72005Z" fill="black" fill-opacity="0.87"/>
<path fill-rule="evenodd" clip-rule="evenodd" d="M3.83202 26.9816C2.35117 26.9816 0.818359 25.868 0.818359 24.0057C0.818359 22.0384 3.07011 16.9326 13.3516 16.9326C23.6331 16.9326 25.8849 22.0381 25.8849 24.0057C25.8849 25.868 24.3524 26.9816 22.8712 26.9816H3.83202ZM24.9604 24.0057C24.9604 22.4112 22.8277 17.8594 13.3516 17.8594C3.87556 17.8594 1.7428 22.4112 1.7428 24.0057C1.7428 25.3367 2.81934 26.0551 3.83202 26.0551H22.8712C23.8839 26.0551 24.9604 25.3367 24.9604 24.0057Z" fill="black" fill-opacity="0.87"/>
</svg>
