<svg width="28" height="27" viewBox="0 0 28 27" fill="none" xmlns="http://www.w3.org/2000/svg">
<path d="M9.59796 10.1587H18.4735C18.7286 10.1587 18.9356 9.95124 18.9356 9.69548C18.9356 9.43971 18.7286 9.23224 18.4735 9.23224H9.59796C9.34283 9.23224 9.13617 9.43971 9.13617 9.69548C9.13617 9.95124 9.34312 10.1587 9.59796 10.1587Z" fill="black" fill-opacity="0.87"/>
<path d="M9.59796 5.94858H18.4735C18.7286 5.94858 18.9356 5.74112 18.9356 5.48535C18.9356 5.22958 18.7286 5.02182 18.4735 5.02182H9.59796C9.34283 5.02182 9.13617 5.22958 9.13617 5.48535C9.13617 5.74112 9.34312 5.94858 9.59796 5.94858Z" fill="black" fill-opacity="0.87"/>
<path fill-rule="evenodd" clip-rule="evenodd" d="M24.722 11.0264C25.3071 10.6679 25.9074 10.6112 26.3697 10.8713C26.8321 11.1312 27.0971 11.6744 27.0971 12.3617V23.0281C27.0971 24.8313 25.6337 26.2981 23.8356 26.2981H4.23644C2.43805 26.2981 0.974609 24.8313 0.974609 23.0281V12.3617C0.974609 11.6744 1.2399 11.1312 1.70169 10.8713C2.16405 10.6112 2.76458 10.6679 3.34972 11.0264L3.77436 11.2868V3.37982C3.77436 1.57663 5.23751 0.110107 7.03619 0.110107H21.0355C22.8342 0.110107 24.2974 1.57663 24.2971 3.37982V11.2868L24.722 11.0264ZM4.69852 3.37982C4.69852 2.0873 5.74748 1.03571 7.03648 1.03571H21.0358C22.3248 1.03571 23.3735 2.08701 23.3735 3.37982V11.8528L19.8603 14.0049L15.9454 16.4034C14.911 17.038 13.1619 17.038 12.1272 16.4034L7.77342 13.7363L4.69852 11.8528V3.37982ZM26.173 23.0281V18.8179H26.1735V12.3617C26.1735 12.0242 26.0783 11.7687 25.9184 11.6788C25.7591 11.5895 25.4914 11.6407 25.2041 11.8167L20.3421 14.7952L16.4275 17.1937C15.7568 17.6043 14.8962 17.8097 14.0361 17.8097C13.1756 17.8097 12.3155 17.6043 11.6451 17.1937L7.29132 14.5266L2.8682 11.8167C2.58056 11.6404 2.31353 11.5886 2.1539 11.6791C1.99426 11.7687 1.89877 12.0242 1.89877 12.3617V23.0281C1.89877 24.3206 2.94744 25.3719 4.23644 25.3719H23.8353C25.1246 25.3719 26.173 24.3203 26.173 23.0281Z" fill="black" fill-opacity="0.87"/>
</svg>
