<svg width="27" height="20" viewBox="0 0 27 20" fill="none" xmlns="http://www.w3.org/2000/svg">
<path fill-rule="evenodd" clip-rule="evenodd" d="M3.79698 0.601807H23.3958C25.1942 0.601807 26.6576 2.0715 26.6576 3.87786V16.5303C26.6576 18.3366 25.1942 19.8063 23.3955 19.8063H3.79698C1.99859 19.8063 0.535156 18.3366 0.535156 16.5303V3.87786C0.535156 2.0715 1.99859 0.601807 3.79698 0.601807ZM3.79698 1.52962H23.3955C23.8558 1.52962 24.2839 1.66545 24.6459 1.89719L15.3149 10.7477C14.367 11.6463 12.8255 11.6463 11.8781 10.7477L2.54687 1.89719C2.90881 1.66545 3.33693 1.52962 3.79698 1.52962ZM23.3955 18.8782C24.6851 18.8782 25.7334 17.8248 25.7334 16.5303H25.7331V3.87786C25.7331 3.38029 25.5776 2.92002 25.314 2.53963L15.9486 11.4222C15.3004 12.0375 14.448 12.3453 13.5961 12.3453C12.7442 12.3453 11.892 12.0375 11.2439 11.4222L1.87814 2.53963C1.61459 2.91973 1.45902 3.38029 1.45902 3.87786V16.5303C1.45902 17.825 2.50798 18.8782 3.79698 18.8782H23.3955Z" fill="black" fill-opacity="0.87"/>
</svg>
