<svg width="28" height="24" viewBox="0 0 28 24" fill="none" xmlns="http://www.w3.org/2000/svg">
<path fill-rule="evenodd" clip-rule="evenodd" d="M17.655 5.39648H24.3683C25.8852 5.39648 27.119 6.64076 27.1196 8.16976V16.0533C27.1196 17.5821 25.8857 18.8258 24.3689 18.8258H23.8923C23.8323 18.8258 23.7818 18.8767 23.7818 18.9373V22.3979C23.7818 22.6104 23.7382 22.7907 23.6529 22.9338C23.529 23.1418 23.3241 23.2612 23.0907 23.2612H23.0904C22.871 23.2612 22.6568 23.157 22.4539 22.9525L18.495 18.9612C18.4335 18.8989 18.2579 18.8255 18.1708 18.8255H13.8578C12.3412 18.8255 11.1071 17.5818 11.1071 16.053V14.2858H9.94615C9.85878 14.2858 9.68318 14.359 9.62193 14.421L5.66243 18.4129C5.42097 18.6563 5.19545 18.7198 5.02623 18.7198C4.9171 18.7198 4.8306 18.6932 4.77865 18.6718C4.64514 18.6162 4.33486 18.4249 4.33486 17.8577V14.397C4.33486 14.3367 4.28435 14.2861 4.22488 14.2861H3.74771C2.23119 14.2861 0.99707 13.0418 0.99707 11.5128V3.62954C0.99707 2.10082 2.23119 0.85625 3.74771 0.855957H14.9041C16.4206 0.855957 17.655 2.10053 17.655 3.62954V5.39648ZM11.1068 8.16976V13.3547H9.94585C9.61323 13.3547 9.20197 13.5267 8.96803 13.7632L5.25872 17.503V14.397C5.25872 13.822 4.79461 13.3544 4.22459 13.3544H3.74742C2.73998 13.3544 1.92092 12.5285 1.92092 11.5128V3.62954C1.92092 2.61381 2.73998 1.788 3.74742 1.788H14.9038C15.911 1.788 16.7303 2.61381 16.7303 3.62954V5.39648H13.8572C12.3409 5.39648 11.1068 6.64076 11.1068 8.16976ZM24.3683 17.894C25.3758 17.894 26.1949 17.0682 26.1949 16.0533H26.1952V8.16976C26.1952 7.15434 25.3761 6.32822 24.3686 6.32822H13.8575C12.85 6.32822 12.0313 7.15434 12.0313 8.16976V16.0536C12.0313 17.0685 12.85 17.8943 13.8575 17.8943H18.1705C18.5025 17.8943 18.9138 18.0661 19.1486 18.3034L22.857 22.0421V18.9369C22.857 18.3622 23.3212 17.894 23.8918 17.894H24.3683Z" fill="black" fill-opacity="0.87"/>
</svg>
