<svg width="27" height="27" viewBox="0 0 27 27" fill="none" xmlns="http://www.w3.org/2000/svg">
<path fill-rule="evenodd" clip-rule="evenodd" d="M4.41058 0.401123H22.8896C24.9968 0.401123 26.7113 2.11706 26.7113 4.22669V15.7176C26.7113 17.8267 24.9968 19.5432 22.8893 19.5432H22.1892C21.9808 19.5432 21.8113 19.7128 21.8113 19.9215V24.9658C21.8113 25.236 21.7579 25.4609 21.6528 25.6355C21.5106 25.8717 21.2773 26.0071 21.0125 26.0071C20.7496 26.0071 20.4866 25.8776 20.2306 25.6213L14.4192 19.8038C14.2875 19.6725 13.976 19.5435 13.79 19.5435H4.41058C2.30308 19.5435 0.588867 17.8269 0.588867 15.7179V4.22698C0.588867 2.11706 2.30308 0.401123 4.41058 0.401123ZM22.8896 18.6178C24.4871 18.6178 25.7871 17.317 25.7871 15.7176V4.22698C25.7871 2.62754 24.4871 1.32592 22.8896 1.32592H4.41058C2.81305 1.32592 1.51302 2.62754 1.51302 4.22698V15.7179C1.51302 17.317 2.81305 18.6181 4.41058 18.6181H13.79C14.2187 18.6181 14.7696 18.8467 15.0726 19.1495L20.8846 24.967C20.8857 24.9679 20.8869 24.969 20.8875 24.9702V19.9212C20.8875 19.2027 21.4714 18.6178 22.1895 18.6178H22.8896Z" fill="black" fill-opacity="0.87"/>
</svg>
