<svg width="27" height="21" viewBox="0 0 27 21" fill="none" xmlns="http://www.w3.org/2000/svg">
<path fill-rule="evenodd" clip-rule="evenodd" d="M16.5716 2.01289C17.0267 1.94525 17.4897 1.90953 17.9532 1.90953C22.4863 1.90953 26.1742 5.14189 26.1742 9.11585C26.1742 10.6375 25.6405 12.0911 24.6307 13.3214C24.3776 13.6294 24.274 13.7328 24.2481 13.7568C24.0624 13.9319 23.9628 14.249 23.9858 14.3781L24.0888 14.9472V14.9478L24.5073 17.2617C24.6031 17.7914 24.3416 18.0274 24.2249 18.1046C24.1614 18.1465 24.0386 18.2086 23.8682 18.2086C23.7251 18.2086 23.5484 18.1647 23.3463 18.0268L21.4304 16.7218L20.6255 16.1734C20.4946 16.0838 20.2026 16.027 20.0491 16.0619C20.0015 16.0721 18.8681 16.3219 17.9526 16.3219C17.299 16.3219 16.6514 16.2513 16.0222 16.1184C14.3701 17.1428 12.3554 17.7471 10.1809 17.7471C9.0524 17.7471 7.65195 17.4391 7.59274 17.426C7.36896 17.3756 6.97683 17.4515 6.787 17.5814L5.7839 18.2642L3.39689 19.8903C3.16701 20.0473 2.96877 20.0973 2.80971 20.0973C2.62714 20.0973 2.49624 20.0312 2.42861 19.987C2.30206 19.9032 2.01936 19.6459 2.12646 19.0535L2.64775 16.1711V16.1699L2.77633 15.4599C2.81465 15.2471 2.66546 14.8178 2.41555 14.5827C2.39378 14.562 2.26752 14.439 1.94825 14.0502C1.94825 14.0496 1.94825 14.0496 1.94796 14.049C0.707432 12.5379 0.0517578 10.7516 0.0517578 8.88426C0.0517578 3.99651 4.59562 0.0198975 10.1812 0.0198975C12.6022 0.0198975 14.8272 0.768256 16.5716 2.01289ZM10.1812 16.8149C9.1537 16.8149 7.80462 16.5186 7.79127 16.516C7.32252 16.4123 6.66771 16.538 6.27007 16.8094L5.26697 17.4921L3.07819 18.9833L3.55652 16.338L3.55681 16.3374L3.6851 15.6274C3.78408 15.079 3.50921 14.3371 3.04917 13.9043C3.0483 13.9035 2.94119 13.7981 2.65994 13.4555C2.65965 13.4555 2.65965 13.4549 2.65965 13.4549C1.55815 12.1125 0.975623 10.532 0.975623 8.88455C0.975623 4.51093 5.1053 0.952125 10.1812 0.952125C15.2571 0.952125 19.3865 4.51064 19.3865 8.88455C19.3865 13.257 15.2571 16.8149 10.1812 16.8149ZM23.6177 13.0752C23.6176 13.075 23.7001 12.9936 23.9193 12.7262C24.7897 11.666 25.2501 10.4173 25.2504 9.11614C25.2504 5.6563 21.9766 2.84147 17.9532 2.84147C17.8345 2.84147 17.7167 2.85142 17.5985 2.8564C19.2796 4.43949 20.3106 6.55778 20.3106 8.88455C20.3106 11.43 19.0756 13.7272 17.1045 15.3449C17.3855 15.3727 17.6685 15.3894 17.9532 15.3894C18.7694 15.3894 19.8404 15.1537 19.8511 15.1516C20.2505 15.0629 20.8061 15.1704 21.1436 15.4011L21.9482 15.9495L23.5251 17.0234L23.1797 15.115V15.1144L23.0767 14.5447C22.9925 14.0765 23.2247 13.4447 23.6177 13.0752Z" fill="black" fill-opacity="0.87"/>
</svg>
