<svg width="27" height="27" viewBox="0 0 27 27" fill="none" xmlns="http://www.w3.org/2000/svg">
<path fill-rule="evenodd" clip-rule="evenodd" d="M3.90265 20.1913C3.95983 19.8762 3.75317 19.2709 3.39007 18.9332C3.36192 18.9074 3.20402 18.7542 2.79332 18.2592C1.19697 16.3355 0.353516 14.0636 0.353516 11.6886C0.353516 5.46474 6.21272 0.401123 13.4146 0.401123C20.6164 0.401123 26.4756 5.46474 26.4759 11.6886C26.4759 17.9119 20.6167 22.9747 13.4149 22.9747C11.959 22.9747 10.1479 22.5814 10.0718 22.5643C9.74383 22.4939 9.19151 22.5982 8.91346 22.7856L7.60617 23.6663L4.49531 25.7627C4.22222 25.9469 3.99176 26.0071 3.80745 26.0071C3.61763 26.0071 3.47686 25.9434 3.38775 25.8855C3.21215 25.7711 2.93525 25.4809 3.05571 24.8243L3.73518 21.1066L3.90265 20.1913ZM25.5515 11.6886C25.5515 5.97305 20.1071 1.32302 13.4146 1.32302C6.7221 1.32302 1.27766 5.97305 1.27737 11.6886C1.27737 13.8464 2.04768 15.9149 3.50501 17.6712C3.88059 18.1237 4.02166 18.2601 4.02311 18.2618C4.59255 18.7913 4.93214 19.6935 4.8111 20.3564L4.64392 21.2719L3.96419 24.9897C3.96273 24.9966 3.96128 25.0038 3.96012 25.0102C3.96651 25.0068 3.97231 25.0027 3.97841 24.9983L7.08895 22.9023L8.39565 22.0215C8.88617 21.6913 9.69159 21.5373 10.2698 21.6641C10.288 21.6679 12.0606 22.0525 13.4146 22.0525C20.1071 22.0525 25.5515 17.4033 25.5515 11.6886Z" fill="black" fill-opacity="0.87"/>
</svg>
