<svg width="27" height="27" viewBox="0 0 27 27" fill="none" xmlns="http://www.w3.org/2000/svg">
<path fill-rule="evenodd" clip-rule="evenodd" d="M3.92229 23.667L2.52764 19.0076L0.743771 13.0461C0.570492 12.467 0.654084 11.8885 0.973358 11.4582C1.29263 11.0281 1.82118 10.7817 2.42431 10.7817H4.9997C5.02031 9.36548 5.30881 5.18617 7.88042 2.49987C9.34938 0.964963 11.3138 0.18689 13.7165 0.18689C16.1192 0.18689 18.0833 0.964963 19.5528 2.50016C22.125 5.18646 22.4135 9.36577 22.4338 10.782H25.0092C25.612 10.782 26.1409 11.0284 26.4602 11.4585C26.7794 11.8885 26.863 12.4673 26.6897 13.0463L24.9433 18.8807L23.5109 23.6664C23.0901 25.0754 21.5532 26.2212 20.0863 26.2212H7.34636C5.87973 26.2212 4.34315 25.0754 3.92229 23.667ZM8.55003 3.13827C9.83786 1.79454 11.5762 1.11336 13.7165 1.11336C15.8568 1.11336 17.5948 1.79483 18.8829 3.13827C21.1965 5.55164 21.4789 9.4714 21.5068 10.782H5.92617C5.95404 9.47111 6.23645 5.55193 8.55003 3.13827ZM2.42402 11.7079C2.11172 11.7079 1.85978 11.8161 1.71436 12.0113C1.56924 12.2069 1.53905 12.4798 1.62874 12.7798L3.4129 18.7414L4.80726 23.4011C5.11493 24.4276 6.27709 25.295 7.34636 25.295H20.086C21.1559 25.295 22.3183 24.4273 22.626 23.4005L24.0581 18.6148L24.5004 18.7475L24.0581 18.6145L25.8042 12.7801C25.8936 12.4798 25.8634 12.2072 25.718 12.0116C25.5729 11.8161 25.3209 11.7079 25.0086 11.7079H2.42402Z" fill="black" fill-opacity="0.87"/>
<path d="M6.94003 16.7874H20.4926C20.7484 16.7874 20.955 16.58 20.955 16.3239C20.955 16.0679 20.7484 15.8607 20.4926 15.8607H6.94003C6.68432 15.8607 6.47766 16.0679 6.47766 16.3239C6.47766 16.58 6.68432 16.7874 6.94003 16.7874Z" fill="black" fill-opacity="0.87"/>
<path d="M19.0451 20.2155H8.38778C8.13265 20.2155 7.92542 20.4226 7.92542 20.6787C7.92542 20.9348 8.13265 21.1419 8.38778 21.1419H19.0454C19.3009 21.1419 19.5078 20.9348 19.5078 20.6787C19.5078 20.4226 19.3006 20.2155 19.0451 20.2155Z" fill="black" fill-opacity="0.87"/>
</svg>
