<svg width="28" height="27" viewBox="0 0 28 27" fill="none" xmlns="http://www.w3.org/2000/svg">
<path fill-rule="evenodd" clip-rule="evenodd" d="M2.15392 2.65121C4.02313 0.77761 9.50913 0.110107 14.0199 0.110107C18.5597 0.110107 24.0762 0.777319 25.9448 2.65063C26.6939 3.40223 27.1078 4.40115 27.1107 5.4638C27.1107 9.25116 24.2532 9.31896 22.8801 9.35097C22.8232 9.35271 22.7666 9.3533 22.7108 9.3533C21.5223 9.3533 20.3648 9.05795 19.9596 8.65088C19.5422 8.23274 19.308 7.7794 19.0816 7.34031C18.5196 6.25148 17.9891 5.22345 14.0498 5.22345C10.11 5.22345 9.57938 6.25177 9.01745 7.3409C8.79106 7.77969 8.55683 8.23333 8.13916 8.65175C7.71452 9.07774 6.47458 9.38298 5.21896 9.35097C3.84579 9.31896 0.987991 9.25116 0.988281 5.46497C0.990313 4.40202 1.4045 3.4031 2.15392 2.65121ZM20.6132 7.99618C20.7435 8.12392 21.6305 8.45214 22.8586 8.42537C24.6793 8.38231 26.1866 8.13003 26.1869 5.46438C26.1845 4.64965 25.8667 3.88234 25.2917 3.30533C23.9374 1.94821 19.4081 1.036 14.0202 1.036C8.66799 1.036 4.16187 1.94792 2.80727 3.30562C2.232 3.88292 1.91447 4.64994 1.91244 5.46555C1.91186 8.12916 3.41999 8.38172 5.24102 8.42479C5.29094 8.42595 5.3397 8.42683 5.38904 8.42683C6.55323 8.42683 7.36129 8.11868 7.48668 7.99647C7.80276 7.67989 7.99403 7.3086 8.19692 6.9152C8.98814 5.38233 9.87108 4.29727 14.0501 4.29727C18.2288 4.29727 19.1115 5.38233 19.9027 6.91491C20.1056 7.30831 20.2971 7.67959 20.6132 7.99618Z" fill="black" fill-opacity="0.87"/>
<path fill-rule="evenodd" clip-rule="evenodd" d="M24.3107 23.0281C24.3107 24.831 22.8475 26.2981 21.0489 26.2981H7.05014C5.25146 26.2981 3.78802 24.831 3.7886 23.0278V16.853C3.7886 16.2637 4.10236 15.5052 4.518 15.0879L8.92979 10.6653C9.34514 10.2486 10.1024 9.93439 10.6902 9.93439H17.4094C17.9975 9.93439 18.7544 10.2484 19.1698 10.6653L23.5816 15.0879C23.9969 15.5049 24.3107 16.2637 24.3107 16.853V23.0281ZM4.71218 20.2213V23.0281C4.71218 24.3203 5.76085 25.3716 7.04956 25.3716H21.0483C22.3379 25.3716 23.3862 24.32 23.3862 23.0278V16.853C23.3862 16.5128 23.1677 15.9838 22.9279 15.7429L18.5159 11.3203C18.2761 11.0794 17.7484 10.8606 17.4088 10.8606H10.6896C10.3503 10.8606 9.82231 11.0794 9.58227 11.3203L5.17048 15.7429C4.93074 15.9838 4.71218 16.5125 4.71218 16.853V20.2213Z" fill="black" fill-opacity="0.87"/>
<path fill-rule="evenodd" clip-rule="evenodd" d="M18.5713 18.1161C18.5713 20.6156 16.5427 22.6492 14.0495 22.6492C11.5563 22.6492 9.52771 20.6156 9.52771 18.1161C9.52771 15.616 11.5563 13.5829 14.0495 13.5829C16.5427 13.5829 18.5713 15.616 18.5713 18.1161ZM17.6474 18.1161C17.6474 16.1273 16.0334 14.5094 14.0495 14.5094C12.0657 14.5094 10.4516 16.127 10.4516 18.1158C10.4516 20.1046 12.0657 21.7225 14.0495 21.7225C16.0334 21.7225 17.6474 20.1049 17.6474 18.1161Z" fill="black" fill-opacity="0.87"/>
</svg>
