<svg width="27" height="27" viewBox="0 0 27 27" fill="none" xmlns="http://www.w3.org/2000/svg">
<path fill-rule="evenodd" clip-rule="evenodd" d="M20.8745 24.968C20.0154 25.8246 18.8767 26.2963 17.6676 26.2975C12.1461 26.2969 0.290039 14.4116 0.290039 8.87664C0.290039 7.66356 0.760534 6.52176 1.61445 5.66163C2.65354 4.61993 3.66245 4.11392 4.6998 4.11392C6.05265 4.11392 7.16402 4.99849 8.16335 5.95406C9.18125 6.92651 9.86508 8.30138 9.86508 8.97499C9.86508 9.83687 9.48688 10.4083 9.1531 10.9126L9.15307 10.9127C8.52932 11.8548 8.03657 12.5992 10.995 15.5648C12.56 17.1346 13.7004 17.8978 14.4815 17.8978C14.9056 17.8978 15.2277 17.6834 15.6355 17.4119C16.1385 17.0773 16.7086 16.6975 17.5683 16.6975C18.2402 16.6981 19.6114 17.384 20.5825 18.4035C21.6666 19.5433 23.9213 21.9145 20.8745 24.968ZM4.6998 5.04069C3.92019 5.04069 3.12491 5.45795 2.26867 6.31633C1.5892 7.00071 1.21477 7.91031 1.21448 8.87664C1.21477 11.1489 3.70395 15.1181 7.55643 18.989C11.4147 22.8657 15.3839 25.3707 17.6673 25.3707C18.6306 25.3701 19.5376 24.9945 20.2212 24.3121C22.4451 22.0832 21.3447 20.5486 19.9135 19.044C18.9778 18.0616 17.8414 17.6246 17.5674 17.6246C16.9872 17.6246 16.5977 17.8836 16.1464 18.1841C15.6956 18.4838 15.1842 18.824 14.4815 18.824C13.414 18.824 12.1372 18.0212 10.3411 16.2206C7.09871 12.9701 7.48445 11.7582 8.38248 10.4005C8.68202 9.94831 8.94063 9.55753 8.94063 8.97528C8.94063 8.70031 8.50526 7.56142 7.52538 6.62477C6.724 5.85833 5.77866 5.04069 4.6998 5.04069Z" fill="black" fill-opacity="0.87"/>
<path d="M9.69846 3.11149C13.5446 0.0824246 19.1406 0.390279 22.6355 3.89451C26.1426 7.41039 26.4415 13.0318 23.3971 16.8901C23.2383 17.0906 23.2578 17.3825 23.4505 17.551C23.6426 17.7188 23.9358 17.6993 24.0948 17.4994C27.4565 13.2742 27.1384 7.09817 23.2897 3.23952C19.4529 -0.60661 13.3048 -0.934542 9.09329 2.41024C8.89331 2.56912 8.87241 2.86271 9.0396 3.0562C9.20678 3.2497 9.4979 3.26978 9.69846 3.11149Z" fill="black" fill-opacity="0.87"/>
<path d="M19.8198 13.8992C20.0238 14.0529 20.3155 14.0127 20.4519 13.7965C21.0121 12.9067 21.3055 11.8871 21.3055 10.8207C21.3055 10.5899 21.2913 10.3574 21.2635 10.1308C20.9201 7.33564 18.54 5.22809 15.7269 5.22809C14.6699 5.22809 13.6586 5.51936 12.7748 6.07454C12.5583 6.21043 12.5174 6.50257 12.67 6.70742C12.8227 6.91256 13.1112 6.95242 13.3298 6.82032C14.0513 6.38385 14.871 6.15485 15.7269 6.15456C18.0742 6.15456 20.0598 7.91265 20.3457 10.2442C20.3692 10.4337 20.3811 10.6275 20.3811 10.8204C20.3811 11.684 20.1503 12.5107 19.7097 13.237C19.5771 13.4558 19.616 13.7453 19.8198 13.8992Z" fill="black" fill-opacity="0.87"/>
</svg>
