<svg width="27" height="25" viewBox="0 0 27 25" fill="none" xmlns="http://www.w3.org/2000/svg">
<path fill-rule="evenodd" clip-rule="evenodd" d="M25.5894 0.436654C25.415 0.436654 25.2367 0.472872 25.0585 0.54357L18.2191 3.27472C18.0536 3.3411 17.6868 3.3411 17.5216 3.27472L10.1621 0.336691C9.77922 0.183994 9.16273 0.183994 8.77931 0.336691L1.41975 3.27472C0.957674 3.45929 0.609375 3.97301 0.609375 4.46994V22.9164C0.609375 23.6342 1.09003 24.1545 1.7518 24.1545C1.92595 24.1545 2.10416 24.1186 2.28266 24.0476L9.12268 21.3159C9.28754 21.2501 9.65354 21.2501 9.81898 21.3165L17.1783 24.2545C17.3701 24.3319 17.6157 24.3733 17.8702 24.3733C18.1248 24.3733 18.3703 24.3316 18.5616 24.2554L25.9211 21.3159C26.3835 21.1316 26.7318 20.6179 26.7318 20.1218V1.67504C26.7318 0.957331 26.2514 0.436654 25.5894 0.436654ZM8.89309 20.422C8.95636 20.4037 9.0089 20.3299 9.0089 20.2528H9.00919V1.37776C9.00919 1.30039 8.95114 1.2607 8.87916 1.28996L1.76312 4.13122C1.65137 4.17556 1.53353 4.34968 1.53353 4.46994V22.9167C1.53353 23.1265 1.60696 23.2325 1.75209 23.2325C1.80723 23.2325 1.87196 23.2181 1.93988 23.1914L8.7796 20.4603C8.8153 20.4461 8.85304 20.4327 8.89309 20.422ZM17.4084 23.2137C17.4084 23.2911 17.3501 23.3299 17.2787 23.3018L10.1626 20.4603C10.1269 20.4461 10.0889 20.4333 10.0492 20.422C9.9853 20.4037 9.93305 20.3299 9.93305 20.2528V1.37804C9.93305 1.30068 9.9911 1.26127 10.0631 1.29025L17.1791 4.13151C17.2148 4.146 17.2531 4.15845 17.2926 4.16948C17.3565 4.18743 17.4087 4.26018 17.4087 4.33752V23.2137H17.4084ZM25.5781 20.4603C25.6895 20.4156 25.8077 20.2415 25.8077 20.1218H25.8074V1.67474C25.8074 1.38471 25.6457 1.30242 25.401 1.40006L18.5619 4.13122C18.5265 4.14571 18.4879 4.15787 18.4484 4.16919C18.3851 4.18656 18.3323 4.25989 18.3323 4.33723V23.2137C18.3323 23.2914 18.3903 23.3308 18.462 23.3018L25.5781 20.4603Z" fill="black" fill-opacity="0.87"/>
</svg>
