<svg width="26" height="27" viewBox="0 0 26 27" fill="none" xmlns="http://www.w3.org/2000/svg">
<path fill-rule="evenodd" clip-rule="evenodd" d="M20.1353 11.4263C19.4715 11.4263 18.5546 11.5829 17.3428 12.8014L12.6702 17.4998C11.2821 18.8954 11.2967 19.9082 11.3045 20.4518V20.452L11.3056 20.5597C11.3056 23.6958 8.76954 26.2462 5.65241 26.2462C4.86337 26.2462 4.1001 26.0853 3.38281 25.769C2.66465 25.4521 2.17392 25.0197 2.15308 25.0014C1.8649 24.7451 1.73469 24.414 1.79661 24.093C1.85853 23.7724 2.10216 23.5143 2.46471 23.3848L5.17704 22.4149C6.29244 22.0166 6.33847 21.4713 6.03234 20.6054L5.96289 20.4084C5.66515 19.5678 5.32576 19.3949 4.90853 19.3949C4.69758 19.3949 4.44671 19.4464 4.16288 19.5477L1.40079 20.5353C0.989051 20.6834 0.577893 20.5958 0.33137 20.3135C0.15024 20.1052 0.0726958 19.8128 0.114651 19.4907C0.117833 19.4697 0.186697 18.9532 0.45492 18.3239C0.730665 17.6758 1.11983 17.0916 1.61056 16.587C2.6823 15.4837 4.11774 14.8758 5.6527 14.8752L5.90385 14.8778C6.56791 14.8778 7.48484 14.7213 8.69662 13.5027L13.3693 8.80464C14.7573 7.40934 14.7428 6.39686 14.735 5.85238V5.85212L14.7338 5.74533C14.7338 2.6092 17.2699 0.0582275 20.387 0.0582275C21.1761 0.0582275 21.9393 0.219136 22.6563 0.535134C23.3742 0.852588 23.8655 1.28439 23.886 1.30272C24.1745 1.55907 24.3044 1.8902 24.2428 2.21115C24.1809 2.5318 23.9373 2.7899 23.5744 2.91938L20.8627 3.88921C19.747 4.28811 19.701 4.83282 20.0071 5.69935L20.0765 5.89576C20.3743 6.73695 20.7137 6.90921 21.1309 6.90921C21.3415 6.90921 21.5927 6.85771 21.8766 6.75645L24.6383 5.76861C25.0501 5.62021 25.4613 5.70808 25.7078 5.99062C25.8895 6.19896 25.9664 6.49139 25.9245 6.81348C25.9216 6.83501 25.8527 7.35091 25.5842 7.98088C25.3085 8.6283 24.9196 9.21259 24.4292 9.71711C23.3568 10.8205 21.9214 11.4289 20.3864 11.4289L20.1353 11.4263ZM10.3847 20.5606L10.3835 20.4657C10.3742 19.8332 10.3551 18.5174 12.0189 16.844L16.6921 12.1462C18.1591 10.6709 19.3601 10.5004 20.1359 10.5004L20.3888 10.5028C21.6714 10.5028 22.873 9.99413 23.7712 9.06972C24.182 8.64693 24.5073 8.15779 24.7382 7.61599C24.9534 7.11057 25.0113 6.6965 25.0119 6.69272C25.0157 6.66391 25.016 6.64154 25.0145 6.62495C24.9969 6.62699 24.9754 6.63162 24.9477 6.64154L22.1856 7.62938C21.7967 7.76876 21.4515 7.83597 21.1312 7.83597C19.7855 7.83597 19.3517 6.60982 19.2094 6.20682L19.1399 6.00983C18.6145 4.52439 19.0771 3.54498 20.5545 3.01686L23.2663 2.04675C23.2831 2.04063 23.297 2.03482 23.3085 2.02929C23.3001 2.01968 23.2894 2.00892 23.2764 1.99728C23.2732 1.99495 22.867 1.64026 22.286 1.38362C21.6867 1.11941 21.0479 0.98498 20.387 0.98498C17.7777 0.98498 15.6551 3.11928 15.6551 5.74387L15.6562 5.83873C15.6655 6.47132 15.6846 7.78738 14.0208 9.46018L9.34794 14.1583C7.88123 15.6335 6.68018 15.8043 5.90414 15.8043L5.65128 15.8017C4.36861 15.8017 3.16695 16.3109 2.2694 17.2347C1.85824 17.6575 1.53302 18.1467 1.30183 18.6884C1.08656 19.1939 1.02898 19.6079 1.0284 19.6123C1.02464 19.6405 1.02435 19.6629 1.02551 19.6795C1.04345 19.6775 1.06486 19.6722 1.09235 19.6624L3.85472 18.6751C4.24331 18.5363 4.5885 18.4691 4.90908 18.4691C6.25456 18.4691 6.68857 19.6952 6.83093 20.0982L6.90036 20.2946C7.42554 21.7809 6.96285 22.76 5.48575 23.2876L2.77373 24.2577C2.75724 24.2638 2.74306 24.2696 2.73148 24.2752C2.73959 24.2851 2.75058 24.2955 2.7636 24.3075C2.76678 24.3101 3.17272 24.6642 3.75374 24.9208C4.35267 25.1856 4.99186 25.3195 5.6527 25.3195C8.26172 25.3195 10.3847 23.1852 10.3847 20.5606Z" fill="black" fill-opacity="0.87"/>
</svg>
