<svg width="16" height="27" viewBox="0 0 16 27" fill="none" xmlns="http://www.w3.org/2000/svg">
<path fill-rule="evenodd" clip-rule="evenodd" d="M12.8908 4.97952V12.4093C12.8908 15.3988 10.9635 17.33 7.98179 17.33C5.00004 17.33 3.07306 15.3985 3.07306 12.4093V4.97952C3.07306 1.99002 5.00004 0.0582275 7.98179 0.0582275C10.9635 0.0582275 12.8908 1.99002 12.8908 4.97952ZM3.99693 4.97952C3.99693 2.03396 6.0551 0.984408 7.98179 0.984408C9.90848 0.984408 11.9666 2.03396 11.9666 4.97952V8.23119H3.99693V4.97952ZM3.99693 9.15737V12.4093C3.99693 15.3543 6.05481 16.4036 7.9815 16.4036C9.90819 16.4036 11.9664 15.3543 11.9664 12.4093V9.15737H3.99693Z" fill="black" fill-opacity="0.87"/>
<path d="M15.855 12.4093V9.15733C15.855 8.90156 15.6484 8.69409 15.393 8.69409C15.1375 8.69409 14.9309 8.90156 14.9309 9.15733V12.4093C14.9309 17.5454 11.3411 19.3753 7.98172 19.3753C4.62237 19.3753 1.03255 17.5454 1.03255 12.4093V9.15733C1.03255 8.90156 0.825606 8.69409 0.570476 8.69409C0.315347 8.69409 0.108398 8.90156 0.108398 9.15733V12.4093C0.108398 17.0475 3.00132 20.0978 7.51964 20.2922V25.3197H2.51457C2.25944 25.3197 2.05249 25.5269 2.05249 25.783C2.05249 26.039 2.25944 26.2462 2.51457 26.2462H13.4489C13.704 26.2462 13.9109 26.039 13.9109 25.783C13.9109 25.5269 13.704 25.3197 13.4489 25.3197H8.4438V20.2922C12.9627 20.0978 15.855 17.0478 15.855 12.4093Z" fill="black" fill-opacity="0.87"/>
</svg>
