<svg width="24" height="27" viewBox="0 0 24 27" fill="none" xmlns="http://www.w3.org/2000/svg">
<path fill-rule="evenodd" clip-rule="evenodd" d="M22.7254 8.21555H15.6591C17.602 7.68656 19.7477 6.78543 20.6609 5.28224C21.1259 4.5167 21.2379 3.66708 20.994 2.75632C20.4738 0.818447 18.4744 -0.336422 16.537 0.182381C14.5163 0.724171 13.1842 3.48347 12.3962 5.84382C12.3426 5.84179 12.2903 5.83713 12.2356 5.83713C12.1253 5.83713 12.017 5.84237 11.9111 5.85226C11.2346 3.9429 10.1087 1.74403 8.43292 1.29419C6.73731 0.83998 4.98644 1.85023 4.53075 3.54778C4.31861 4.34037 4.41465 5.08149 4.81563 5.75013C5.55823 6.98646 7.25442 7.75203 8.82575 8.21555H1.74598C1.04819 8.21555 0.480469 8.78293 0.480469 9.48069V12.6456C0.480469 13.3428 1.0479 13.9105 1.74598 13.9105H2.21796V24.9811C2.21796 25.6782 2.7854 26.2462 3.48289 26.2462H20.9879C21.6854 26.2462 22.2532 25.6785 22.2532 24.9811V13.9102H22.7254C23.4226 13.9102 23.9907 13.3428 23.9907 12.6453V9.48069C23.9904 8.78293 23.4226 8.21555 22.7254 8.21555ZM16.7765 1.07741C15.5045 1.41843 14.2832 3.16689 13.3163 6.01521C14.0312 6.26632 14.569 6.77466 14.8536 7.46629C17.4227 6.84679 19.1966 5.90755 19.8691 4.80128C20.2023 4.2525 20.2776 3.66242 20.0993 2.99667C19.7117 1.55228 18.223 0.690708 16.7765 1.07741ZM9.61461 7.47269C7.56316 6.94514 6.14866 6.17059 5.61002 5.27325C5.33825 4.82194 5.278 4.33542 5.42495 3.78722C5.74797 2.58348 6.99105 1.86682 8.19286 2.18893C9.20986 2.46157 10.2013 3.83407 11.0061 6.07195C10.3631 6.33965 9.87854 6.82672 9.61461 7.47269ZM14.0863 8.07821C13.8788 7.24456 13.2197 6.7636 12.2356 6.7636C11.2514 6.7636 10.5923 7.24456 10.3849 8.07821C10.366 8.15387 10.4181 8.21584 10.4955 8.21584H13.9757C14.0531 8.21584 14.1052 8.15387 14.0863 8.07821ZM9.38793 12.9846V9.14171H1.74598C1.55917 9.14171 1.40698 9.2936 1.40698 9.48069V12.6456C1.40698 12.8324 1.55917 12.9846 1.74598 12.9846H9.38793ZM22.7254 12.9846C22.9119 12.9846 23.0639 12.8324 23.0639 12.6456V9.48069C23.0639 9.2936 22.9119 9.14171 22.7254 9.14171H15.0832V12.9846H22.7254ZM14.1567 12.9846H10.3142V9.14811H14.1567V12.9846ZM9.38793 25.3198H3.48289C3.29608 25.3198 3.14419 25.1679 3.14419 24.9808V13.9102H9.38793V25.3198ZM10.3142 25.3198H14.1567V13.9102H10.3142V25.3198ZM21.3267 24.9808C21.3267 25.1679 21.175 25.3198 20.9879 25.3198H15.0832V13.9102H21.3267V24.9808Z" fill="black" fill-opacity="0.87"/>
</svg>
