<svg width="27" height="27" viewBox="0 0 27 27" fill="none" xmlns="http://www.w3.org/2000/svg">
<path fill-rule="evenodd" clip-rule="evenodd" d="M20.1124 1.81457C23.1328 3.56276 25.2928 6.38612 26.1952 9.76379C27.0982 13.1417 26.6346 16.6701 24.8908 19.6981C22.5656 23.7374 18.229 26.2462 13.5734 26.2462C11.295 26.2462 9.04203 25.6392 7.05702 24.4899C4.03697 22.7423 1.87665 19.9183 0.973971 16.5407C0.0712945 13.1633 0.534532 9.63488 2.27835 6.60639C4.60383 2.56704 8.94074 0.0582275 13.5966 0.0582275C15.8754 0.0582275 18.1283 0.665207 20.1124 1.81457ZM14.0468 25.304C18.1919 25.1408 22.0095 22.8511 24.0912 19.2351C25.0949 17.4919 25.6405 15.5708 25.7125 13.6152H22.6817C22.4263 13.6152 22.2199 13.408 22.2199 13.1522C22.2199 12.8962 22.4263 12.689 22.6817 12.689H25.7088C25.6728 11.7919 25.5407 10.8922 25.3036 10.0036C24.4647 6.86478 22.4574 4.24161 19.651 2.6165C17.9376 1.62427 16.0089 1.07345 14.0468 0.999249V4.02949C14.0468 4.28555 13.8399 4.49302 13.5847 4.49302C13.3296 4.49302 13.1229 4.28555 13.1229 4.02949V1.00012C8.9776 1.16365 5.15994 3.45394 3.07828 7.06933C2.0746 8.81258 1.52893 10.7336 1.45695 12.689H4.48773C4.74256 12.689 4.94951 12.8962 4.94951 13.1522C4.94951 13.408 4.74256 13.6152 4.48773 13.6152H1.46043C1.49642 14.5125 1.62848 15.412 1.86591 16.3009C2.70473 19.4397 4.71209 22.0628 7.5188 23.6882C9.23244 24.6802 11.1606 25.231 13.1229 25.3052V22.2744C13.1229 22.0183 13.3296 21.8114 13.5847 21.8114C13.8399 21.8114 14.0468 22.0183 14.0468 22.2744V25.304Z" fill="black" fill-opacity="0.87"/>
<path d="M14.6598 12.2708C14.6125 12.2097 14.5242 12.1213 14.463 12.0738C13.7844 11.5483 10.1339 8.72323 7.62004 6.77687C7.50627 6.69656 7.35127 6.70035 7.25085 6.80102C7.151 6.90112 7.14723 7.05738 7.23082 7.16708C9.16824 9.69189 11.9857 13.3521 12.5099 14.0333C12.5566 14.0944 12.6454 14.1829 12.7064 14.2303C13.3853 14.7558 17.0355 17.5815 19.5499 19.5279C19.6634 19.6082 19.8184 19.6041 19.9188 19.5037C20.0187 19.403 20.0225 19.2473 19.9389 19.1374C18.0009 16.6128 15.184 12.952 14.6598 12.2708Z" fill="black" fill-opacity="0.87"/>
</svg>
