<svg width="27" height="27" viewBox="0 0 27 27" fill="none" xmlns="http://www.w3.org/2000/svg">
<path d="M20.1908 13.2933C20.0112 13.4743 20.0118 13.7676 20.1929 13.948C20.3737 14.1284 20.6666 14.1279 20.8462 13.9466L24.7083 10.0533C27.1702 7.57272 27.1665 4.37284 24.6979 1.90099C23.5125 0.712054 22.0653 0.0582275 20.623 0.0582275C20.6204 0.0582275 20.6184 0.0582275 20.6166 0.0582275C19.1796 0.0602644 17.7852 0.700706 16.5845 1.91088L10.9971 7.54392C9.79258 8.75671 9.15867 10.1665 9.16419 11.6223C9.17406 13.0675 9.82857 14.514 11.0073 15.6948C11.5692 16.2584 12.186 16.7019 12.8399 17.0138C12.9038 17.044 12.9717 17.0586 13.0382 17.0586C13.2106 17.0586 13.3763 16.9608 13.4558 16.7944C13.565 16.5631 13.4672 16.2866 13.237 16.1772C12.678 15.9107 12.1477 15.5283 11.6604 15.0398C10.6546 14.0321 10.0962 12.8158 10.0881 11.617C10.0834 10.4144 10.6242 9.23188 11.6519 8.19716L17.2393 2.56384C18.263 1.53232 19.4313 0.986446 20.6175 0.984409C20.6193 0.984409 20.6207 0.984409 20.623 0.984409C21.8186 0.984409 23.0339 1.5425 24.0445 2.55569C25.6937 4.2067 26.5622 6.87205 24.0526 9.39948L20.1908 13.2933Z" fill="black" fill-opacity="0.87"/>
<path d="M6.87075 13.0102C7.0507 12.8292 7.04954 12.5362 6.86872 12.3555C6.68789 12.1751 6.3959 12.176 6.21566 12.3575L2.35042 16.2517C-0.109434 18.7303 -0.106241 21.9307 2.35913 24.4058C3.54538 25.5927 4.99197 26.2462 6.43422 26.2462C6.43683 26.2462 6.43944 26.2462 6.44205 26.2462C7.87907 26.2433 9.274 25.6026 10.4753 24.3921L16.0615 18.7608C17.2683 17.5431 17.9013 16.133 17.8929 14.6825C17.886 13.2372 17.2314 11.7907 16.0496 10.6096C15.4836 10.0428 14.8674 9.59878 14.2175 9.29179C13.9871 9.18268 13.7119 9.28132 13.6028 9.51265C13.4939 9.74427 13.5926 10.0204 13.8234 10.1295C14.3763 10.3911 14.9057 10.7729 15.3968 11.2649C16.4048 12.2726 16.963 13.4883 16.9685 14.6877C16.9757 15.8865 16.4356 17.0694 15.4061 18.1081L9.81996 23.7386C8.79538 24.771 7.62656 25.318 6.44002 25.32C6.43799 25.32 6.43625 25.32 6.43393 25.32C5.2381 25.32 4.02312 24.7628 3.01218 23.7508C1.36503 22.0975 0.498347 19.4309 3.00522 16.9055L6.87075 13.0102Z" fill="black" fill-opacity="0.87"/>
</svg>
