<svg width="27" height="27" viewBox="0 0 27 27" fill="none" xmlns="http://www.w3.org/2000/svg">
<path fill-rule="evenodd" clip-rule="evenodd" d="M0.0927734 13.1522C0.0927734 5.93248 5.95233 0.0582275 13.154 0.0582275C20.3559 0.0582275 26.2152 5.93248 26.2152 13.1522C26.2152 20.372 20.3557 26.2462 13.154 26.2462C5.95233 26.2462 0.0927734 20.3723 0.0927734 13.1522ZM1.01693 13.1522C1.01693 19.8616 6.46142 25.3197 13.154 25.3197C19.8466 25.3197 25.2911 19.8616 25.2911 13.1522C25.2911 6.44286 19.8466 0.9847 13.154 0.9847C6.46142 0.9847 1.01693 6.44286 1.01693 13.1522Z" fill="black" fill-opacity="0.87"/>
<path d="M11.5443 7.2579C11.3637 7.07692 11.0712 7.07692 10.8909 7.2579C10.7104 7.43889 10.7104 7.7319 10.8909 7.91318L16.0182 13.053C16.0728 13.1077 16.0728 13.1964 16.0182 13.2514L10.8909 18.3915C10.7104 18.5722 10.7104 18.8658 10.8909 19.0465C11.0712 19.2275 11.3637 19.2275 11.5443 19.0465L16.8991 13.6783C17.1885 13.3882 17.1885 12.9165 16.8991 12.6261L11.5443 7.2579Z" fill="black" fill-opacity="0.87"/>
</svg>
