<svg width="28" height="20" viewBox="0 0 28 20" fill="none" xmlns="http://www.w3.org/2000/svg">
<path fill-rule="evenodd" clip-rule="evenodd" d="M4.23644 0.575562H23.8353C25.6337 0.575562 27.0971 2.04496 27.0971 3.85103V16.504C27.0971 18.3104 25.6337 19.7801 23.835 19.7801H4.23644C2.43805 19.7801 0.974609 18.3104 0.974609 16.504V3.85103C0.974609 2.04496 2.43805 0.575562 4.23644 0.575562ZM4.23644 1.50337H23.835C24.6634 1.50337 25.3904 1.93944 25.8058 2.59354L15.7544 12.1273C14.8065 13.0257 13.2652 13.0257 12.3176 12.1273L2.26564 2.59354C2.68128 1.93944 3.40836 1.50337 4.23644 1.50337ZM1.89877 16.504C1.89877 16.6089 1.90805 16.7113 1.92111 16.8124L8.91614 10.1778L1.92111 3.54292C1.90776 3.64406 1.89877 3.74669 1.89877 3.85103V16.504ZM26.173 16.504V3.85103C26.173 3.74698 26.1637 3.64435 26.1509 3.5435L19.1556 10.1778L26.1506 16.8124C26.1637 16.7113 26.173 16.6092 26.173 16.504ZM23.8353 18.852H4.23644C3.40807 18.852 2.68099 18.4162 2.26564 17.7621L9.58923 10.8159L11.6837 12.8018C12.3318 13.4171 13.184 13.7249 14.0359 13.7249C14.8877 13.7249 15.7402 13.4171 16.3883 12.8018L18.4825 10.8159L25.8058 17.7618C25.3907 18.4162 24.6634 18.852 23.8353 18.852Z" fill="black" fill-opacity="0.87"/>
</svg>
