<svg width="27" height="22" viewBox="0 0 27 22" fill="none" xmlns="http://www.w3.org/2000/svg">
<path fill-rule="evenodd" clip-rule="evenodd" d="M20.7182 0.411621C22.8117 0.411621 24.44 1.05004 25.4376 1.58524C26.2039 1.99665 26.4436 2.19467 26.4837 2.23004C26.699 2.42023 26.85 2.75336 26.85 3.04068V20.9393C26.85 21.5519 26.5063 21.8256 26.1653 21.8256C26.0553 21.8256 25.8924 21.796 25.7195 21.6618L25.0014 21.2768C24.0972 20.7912 22.6202 20.2127 20.7182 20.2127C18.6319 20.2127 16.583 20.8944 15.2316 21.4661L14.4671 21.7894C14.2764 21.8894 14.0369 21.9439 13.789 21.9439C13.5409 21.9439 13.3011 21.8894 13.1102 21.7894L12.3445 21.4655C10.9931 20.8941 8.94508 20.2127 6.85906 20.2127C4.95734 20.2127 3.48026 20.7912 2.57614 21.2768L1.85835 21.6618C1.68507 21.7957 1.52253 21.8256 1.41253 21.8256C1.07148 21.8256 0.727539 21.5516 0.727539 20.9393V3.04068C0.727539 2.75336 0.878469 2.41966 1.09412 2.22975C1.13476 2.19467 1.37421 1.99694 2.14018 1.58554C3.13748 1.05004 4.76607 0.411621 6.85935 0.411621C9.8434 0.411621 12.6905 1.68991 13.6642 2.17583C13.733 2.21033 13.8448 2.21033 13.9136 2.17583C14.8874 1.6902 17.7341 0.411621 20.7182 0.411621ZM25.8022 20.6584C25.8707 20.6952 25.9258 20.6624 25.9258 20.585V3.0401C25.9235 3.01226 25.8916 2.94268 25.8692 2.91891C25.8681 2.91833 25.6594 2.75162 24.9999 2.39791C24.0964 1.91286 22.6199 1.33446 20.7182 1.33446C18.0061 1.33446 15.3271 2.51359 14.3762 2.97863C14.3066 3.01226 14.2505 3.10301 14.2505 3.18071V20.7387C14.2505 20.8158 14.3083 20.8541 14.3794 20.8239L14.8705 20.616C16.3009 20.0107 18.4766 19.289 20.7179 19.289C22.812 19.289 24.4409 19.9278 25.4388 20.4635L25.8022 20.6584ZM13.3267 20.739C13.3267 20.8161 13.2692 20.8541 13.1978 20.8242L12.705 20.6155C11.2749 20.011 9.10036 19.2893 6.85906 19.2893C4.7652 19.2893 3.13603 19.928 2.13844 20.4638L1.77476 20.6584C1.70713 20.6952 1.65169 20.6624 1.65169 20.585V3.04445C1.65431 3.01256 1.68594 2.94268 1.69958 2.92703C1.70191 2.92529 1.90537 2.75916 2.57788 2.3982C3.48171 1.91315 4.95821 1.33475 6.85935 1.33475C9.57172 1.33475 12.2507 2.51359 13.2016 2.97892C13.271 3.01284 13.327 3.10359 13.327 3.181V20.739H13.3267Z" fill="black" fill-opacity="0.87"/>
</svg>
