<svg width="27" height="24" viewBox="0 0 27 24" fill="none" xmlns="http://www.w3.org/2000/svg">
<path d="M12.7087 23.9478C13.7763 23.9478 14.6417 23.0802 14.6417 22.0099C14.6417 20.9397 13.7763 20.072 12.7087 20.072C11.6411 20.072 10.7756 20.9397 10.7756 22.0099C10.7756 23.0802 11.6411 23.9478 12.7087 23.9478Z" fill="black" fill-opacity="0.87"/>
<path d="M20.6552 23.9475C21.7226 23.9475 22.588 23.08 22.588 22.0099C22.588 20.9398 21.7226 20.0723 20.6552 20.0723C19.5877 20.0723 18.7224 20.9398 18.7224 22.0099C18.7224 23.08 19.5877 23.9475 20.6552 23.9475Z" fill="black" fill-opacity="0.87"/>
<path fill-rule="evenodd" clip-rule="evenodd" d="M7.22648 5.3282H25.1967C25.7157 5.3282 26.1731 5.54207 26.4511 5.91481C26.7295 6.28755 26.8053 6.78774 26.6587 7.28676L23.9115 16.6501C23.6322 17.6016 22.6381 18.3474 21.6487 18.3474H11.7149C10.7234 18.3474 9.73481 17.5978 9.46459 16.6417L6.43294 5.91772L5.72908 3.42899C5.39936 2.26275 4.27348 1.27692 3.27038 1.27634L1.07145 1.27518C0.816033 1.27518 0.609375 1.06771 0.609375 0.811652C0.609665 0.556175 0.816323 0.348999 1.07145 0.348999L3.27096 0.349581C4.67606 0.350163 6.17752 1.61824 6.61812 3.17613L7.22648 5.3282ZM23.025 16.3885L25.772 7.02547C25.8367 6.80607 25.8149 6.6085 25.7113 6.46999C25.6077 6.33119 25.4251 6.25467 25.1967 6.25467H7.48828L10.3536 16.3891C10.5089 16.9385 11.1454 17.4212 11.7152 17.4212H21.6487C22.2205 17.4212 22.8637 16.9385 23.025 16.3885Z" fill="black" fill-opacity="0.87"/>
</svg>
