<svg width="27" height="25" viewBox="0 0 27 25" fill="none" xmlns="http://www.w3.org/2000/svg">
<path d="M25.7638 3.68207H9.44298C9.18815 3.68207 8.9812 3.88954 8.9812 4.1456C8.9812 4.40108 9.18815 4.60855 9.44298 4.60855H25.7638C26.0189 4.60855 26.2258 4.40108 26.2258 4.1456C26.2258 3.88954 26.0189 3.68207 25.7638 3.68207Z" fill="black" fill-opacity="0.87"/>
<path d="M0.295416 2.59263C0.0884671 2.74248 0.0414468 3.03201 0.190926 3.23919L1.88366 5.58883C2.0552 5.82744 2.3022 5.96216 2.56517 5.96216C2.57417 5.96216 2.58346 5.96187 2.59303 5.96158C2.86616 5.95197 3.11405 5.79746 3.27368 5.53849L6.24323 0.718733C6.37704 0.501082 6.3097 0.215924 6.09259 0.081492C5.87548 -0.0529398 5.59075 0.0145672 5.45694 0.232219L2.55559 4.93966L0.94064 2.69767C0.790871 2.48962 0.502363 2.44307 0.295416 2.59263Z" fill="black" fill-opacity="0.87"/>
<path d="M25.7638 12.8731H9.44298C9.18815 12.8731 8.9812 13.0803 8.9812 13.3364C8.9812 13.5919 9.18815 13.7997 9.44298 13.7997H25.7638C26.0189 13.7997 26.2258 13.5919 26.2258 13.3364C26.2258 13.0803 26.0189 12.8731 25.7638 12.8731Z" fill="black" fill-opacity="0.87"/>
<path d="M0.190966 12.4297L1.88395 14.7794C2.05549 15.018 2.30219 15.1527 2.56515 15.1527C2.57415 15.1527 2.58344 15.1521 2.59272 15.1521C2.86584 15.1425 3.114 14.9883 3.27393 14.729L6.24311 9.90956C6.37691 9.6922 6.30958 9.40646 6.09248 9.27232C5.87537 9.13818 5.59065 9.20569 5.45684 9.42334L2.55557 14.1302L0.940663 11.8882C0.791188 11.681 0.502687 11.6342 0.295744 11.7838C0.0885108 11.9333 0.0414914 12.2226 0.190966 12.4297Z" fill="black" fill-opacity="0.87"/>
<path d="M25.7638 22.064H9.44298C9.18815 22.064 8.9812 22.2717 8.9812 22.5272C8.9812 22.7833 9.18815 22.9905 9.44298 22.9905H25.7638C26.0189 22.9905 26.2258 22.7833 26.2258 22.5272C26.2258 22.2714 26.0189 22.064 25.7638 22.064Z" fill="black" fill-opacity="0.87"/>
<path d="M0.190926 21.6206L1.88395 23.9702C2.05549 24.2088 2.3022 24.3435 2.56517 24.3435C2.57417 24.3435 2.58375 24.3435 2.59303 24.3432C2.86616 24.3333 3.11405 24.1791 3.27368 23.9204L6.24323 19.1004C6.37704 18.8831 6.3097 18.5973 6.09259 18.4632C5.87548 18.329 5.59075 18.3965 5.45694 18.6142L2.55559 23.321L0.94035 21.0788C0.790871 20.8716 0.502363 20.8247 0.295416 20.9746C0.0884671 21.1244 0.0414468 21.4134 0.190926 21.6206Z" fill="black" fill-opacity="0.87"/>
</svg>
