<svg width="22" height="27" viewBox="0 0 22 27" fill="none" xmlns="http://www.w3.org/2000/svg">
<path d="M11.7477 11.4639H10.2152C9.90576 11.4639 9.65527 11.7153 9.65527 12.0252V12.897C9.65527 13.2072 9.90547 13.4586 10.2152 13.4586H11.7477C12.0568 13.4586 12.3076 13.2075 12.3076 12.897V12.0252C12.3073 11.7156 12.0568 11.4639 11.7477 11.4639Z" fill="black" fill-opacity="0.87"/>
<path d="M6.72231 11.4639H5.19012C4.88073 11.4639 4.63025 11.7153 4.63025 12.0252V12.897C4.63025 13.2072 4.88044 13.4586 5.19012 13.4586H6.72231C7.0317 13.4586 7.28247 13.2075 7.28247 12.897V12.0252C7.28247 11.7156 7.03199 11.4639 6.72231 11.4639Z" fill="black" fill-opacity="0.87"/>
<path d="M16.7725 11.4639H15.24C14.9309 11.4639 14.6798 11.7153 14.6798 12.0252V12.897C14.6798 13.2072 14.9306 13.4586 15.24 13.4586H16.7725C17.0816 13.4586 17.3324 13.2075 17.3324 12.897V12.0252C17.3324 11.7156 17.0819 11.4639 16.7725 11.4639Z" fill="black" fill-opacity="0.87"/>
<path d="M11.7477 15.8373H10.2152C9.90576 15.8373 9.65527 16.0885 9.65527 16.3986V17.2704C9.65527 17.58 9.90547 17.8317 10.2152 17.8317H11.7477C12.0568 17.8317 12.3076 17.5803 12.3076 17.2704V16.3986C12.3073 16.0885 12.0568 15.8373 11.7477 15.8373Z" fill="black" fill-opacity="0.87"/>
<path d="M6.72231 15.8373H5.19012C4.88073 15.8373 4.63025 16.0885 4.63025 16.3986V17.2704C4.63025 17.58 4.88044 17.8317 5.19012 17.8317H6.72231C7.0317 17.8317 7.28247 17.5803 7.28247 17.2704V16.3986C7.28247 16.0885 7.03199 15.8373 6.72231 15.8373Z" fill="black" fill-opacity="0.87"/>
<path d="M11.7477 20.2095H10.2152C9.90576 20.2095 9.65527 20.4606 9.65527 20.7711V21.6426C9.65527 21.9522 9.90547 22.2042 10.2152 22.2042H11.7477C12.0568 22.2042 12.3076 21.9525 12.3076 21.6426V20.7711C12.3073 20.4606 12.0568 20.2095 11.7477 20.2095Z" fill="black" fill-opacity="0.87"/>
<path d="M6.72231 20.2095H5.19012C4.88073 20.2095 4.63025 20.4606 4.63025 20.7711V21.6426C4.63025 21.9522 4.88044 22.2042 5.19012 22.2042H6.72231C7.0317 22.2042 7.28247 21.9525 7.28247 21.6426V20.7711C7.28247 20.4606 7.03199 20.2095 6.72231 20.2095Z" fill="black" fill-opacity="0.87"/>
<path d="M16.7725 15.8373H15.24C14.9309 15.8373 14.6798 16.0885 14.6798 16.3986V20.2099V20.8747V21.6429C14.6798 21.9525 14.9306 22.2045 15.24 22.2045H16.7725C17.0816 22.2045 17.3324 21.9528 17.3324 21.6429V20.8747V20.2099V16.3983C17.3324 16.0885 17.0819 15.8373 16.7725 15.8373Z" fill="black" fill-opacity="0.87"/>
<path fill-rule="evenodd" clip-rule="evenodd" d="M3.98185 26.2718C2.18317 26.2718 0.719727 24.8047 0.719727 23.0018H0.720017V3.35386C0.720017 1.55097 2.18317 0.0838623 3.98185 0.0838623H17.9806C19.7796 0.0838623 21.2427 1.55097 21.2424 3.35386V23.0018C21.2424 24.8047 19.7793 26.2718 17.9806 26.2718H3.98185ZM3.98185 1.01004C2.69227 1.01004 1.64388 2.06105 1.64388 3.35386V23.0015C1.64388 24.294 2.69256 25.3453 3.98185 25.3453H17.9806C19.2702 25.3453 20.3186 24.2937 20.3186 23.0015V3.35386C20.3186 2.06076 19.2699 1.01004 17.9806 1.01004H3.98185Z" fill="black" fill-opacity="0.87"/>
<path fill-rule="evenodd" clip-rule="evenodd" d="M16.8607 8.72934H5.10168C4.2292 8.72934 3.51984 8.01761 3.51984 7.14322V5.17824C3.51984 4.30385 4.2292 3.59241 5.10168 3.59241H16.8607C17.7332 3.59241 18.4426 4.30385 18.4426 5.17824V7.14322C18.4426 8.01761 17.7332 8.72934 16.8607 8.72934ZM5.10197 4.51888C4.73916 4.51888 4.44398 4.81423 4.44398 5.17824H4.44369V7.14322C4.44369 7.50665 4.73887 7.80257 5.10168 7.80257H16.861C17.2238 7.80257 17.519 7.50665 17.519 7.14322V5.17824C17.519 4.81423 17.2238 4.51888 16.861 4.51888H5.10197Z" fill="black" fill-opacity="0.87"/>
</svg>
