<svg width="27" height="27" viewBox="0 0 27 27" fill="none" xmlns="http://www.w3.org/2000/svg">
<path fill-rule="evenodd" clip-rule="evenodd" d="M18.223 15.8724C18.8099 15.4815 19.4757 15.0385 20.471 15.0385C21.2506 15.0391 22.8501 15.8429 23.9891 17.0391C25.355 18.4755 27.8973 21.1491 24.3374 24.7182C23.3331 25.7194 22.002 26.2706 20.5891 26.2718H20.5885C14.0556 26.2706 0.0292969 12.2063 0.0292969 5.65627C0.0292969 4.23829 0.57932 2.90325 1.5772 1.89738C2.7945 0.677019 3.97292 0.0838623 5.18093 0.0838623C6.75757 0.0838623 8.06166 1.12349 9.23601 2.24635C10.4292 3.38697 11.2312 4.99093 11.2312 5.77386C11.2312 6.77156 10.7894 7.43895 10.3999 8.02803C9.63655 9.18085 9.03341 10.0918 12.5988 13.6668C14.4759 15.5493 15.8514 16.4644 16.8039 16.4644C17.3336 16.4644 17.7455 16.1905 18.223 15.8724ZM20.5885 25.3451C21.7562 25.3445 22.8559 24.8893 23.6852 24.0618C26.3827 21.3575 25.0522 19.4994 23.32 17.6783C22.1744 16.4751 20.8166 15.9643 20.4698 15.9643C19.7543 15.9643 19.2586 16.2947 18.7329 16.6439C18.1818 17.0103 17.612 17.3902 16.8036 17.3902C15.5599 17.3902 14.0614 16.4437 11.9452 14.3214C8.14003 10.5054 8.58527 9.09297 9.62988 7.51489C9.97847 6.98869 10.3073 6.49158 10.3073 5.77328C10.3073 5.35794 9.70418 3.97315 8.59862 2.91605C7.63412 1.99401 6.49489 1.00998 5.18093 1.00998C4.23037 1.00998 3.26529 1.51378 2.23113 2.55079C1.40711 3.38145 0.95287 4.4848 0.95287 5.65598C0.95287 8.37874 3.92067 13.1199 8.51387 17.7359C13.1137 22.3578 17.8532 25.3451 20.5885 25.3451Z" fill="black" fill-opacity="0.87"/>
</svg>
