<svg width="20" height="27" viewBox="0 0 20 27" fill="none" xmlns="http://www.w3.org/2000/svg">
<path d="M6.49339 9.28307C6.28094 9.14137 5.99418 9.19898 5.85254 9.41139L4.62653 11.2547L4.33425 10.8151C4.1929 10.6027 3.90584 10.5447 3.69367 10.6867C3.48121 10.8287 3.42374 11.1162 3.56538 11.3286L3.93255 11.8809C4.10118 12.1341 4.35399 12.2793 4.6274 12.2793C4.89994 12.2793 5.15362 12.1341 5.32255 11.8803L6.62197 9.92497C6.76303 9.71255 6.70586 9.42536 6.49339 9.28307Z" fill="black" fill-opacity="0.87"/>
<path d="M14.7222 10.8665H8.56541C8.30999 10.8665 8.10333 11.0737 8.10333 11.3298C8.10333 11.5858 8.30999 11.7933 8.56541 11.7933H14.7222C14.9777 11.7933 15.1846 11.5858 15.1846 11.3298C15.1846 11.0737 14.9777 10.8665 14.7222 10.8665Z" fill="black" fill-opacity="0.87"/>
<path d="M6.4934 14.026C6.28093 13.884 5.99417 13.9416 5.85253 14.1543L4.62623 15.9974L4.33424 15.558C4.19289 15.345 3.90583 15.2877 3.69366 15.43C3.4812 15.5717 3.42373 15.8592 3.56566 16.0719L3.93225 16.623C4.10088 16.8762 4.35369 17.0217 4.62739 17.0217C4.90022 17.0217 5.1539 16.8762 5.32254 16.6224L6.62198 14.6679C6.76275 14.4552 6.70586 14.1677 6.4934 14.026Z" fill="black" fill-opacity="0.87"/>
<path d="M14.7222 15.6104H8.56541C8.30999 15.6104 8.10333 15.8175 8.10333 16.0736C8.10333 16.3297 8.30999 16.5369 8.56541 16.5369H14.7222C14.9777 16.5369 15.1846 16.3297 15.1846 16.0736C15.1846 15.8175 14.9777 15.6104 14.7222 15.6104Z" fill="black" fill-opacity="0.87"/>
<path d="M6.4934 18.7701C6.28093 18.6281 5.99417 18.6854 5.85253 18.8981L4.62623 20.7406L4.33424 20.3015C4.19289 20.0882 3.90583 20.0309 3.69366 20.1735C3.4812 20.3152 3.42373 20.6024 3.56566 20.8151L3.93225 21.3665C4.10088 21.6194 4.35369 21.7649 4.62739 21.7649C4.90022 21.7649 5.1539 21.6194 5.32254 21.3659L6.62198 19.412C6.76275 19.199 6.70586 18.9118 6.4934 18.7701Z" fill="black" fill-opacity="0.87"/>
<path d="M14.7222 20.3536H8.56541C8.30999 20.3536 8.10333 20.5608 8.10333 20.8168C8.10333 21.0729 8.30999 21.2801 8.56541 21.2801H14.7222C14.9777 21.2801 15.1846 21.0729 15.1846 20.8168C15.1846 20.5608 14.9777 20.3536 14.7222 20.3536Z" fill="black" fill-opacity="0.87"/>
<path fill-rule="evenodd" clip-rule="evenodd" d="M15.8841 4.2943H14.3783C13.8683 3.89799 13.1343 3.50866 12.081 3.22234C12.1231 3.03873 12.1472 2.84843 12.1472 2.65232C12.1469 1.23642 10.9972 0.0838623 9.58484 0.0838623C8.17248 0.0838623 7.02281 1.23642 7.02281 2.65232C7.02281 2.84843 7.0469 3.03873 7.08898 3.22234C6.03567 3.50837 5.30163 3.8977 4.79137 4.2943H3.28555C1.48688 4.2943 0.0234375 5.76111 0.0234375 7.56401V23.0018C0.0234375 24.8047 1.48688 26.2718 3.28555 26.2718H15.8841C17.6828 26.2718 19.1462 24.8047 19.1462 23.0018V7.56401C19.1462 5.76111 17.6828 4.2943 15.8841 4.2943ZM11.2227 2.65261C11.2227 1.7468 10.4878 1.01033 9.58484 1.01033C8.68187 1.01033 7.94696 1.7468 7.94696 2.65261C7.94696 3.55755 8.68158 4.29459 9.58484 4.29459C10.4881 4.29459 11.2227 3.55725 11.2227 2.65261ZM7.45992 4.0848C7.92055 4.76946 8.70103 5.22048 9.58484 5.22048C10.4686 5.22048 11.2491 4.76917 11.7098 4.08509C14.3533 4.76277 14.6183 6.08119 14.6189 6.08614C14.6308 6.17547 14.6099 6.25345 14.5591 6.31077C14.5086 6.36838 14.434 6.39894 14.3444 6.39894H4.82533C4.73535 6.39894 4.66105 6.36867 4.61054 6.31077C4.55975 6.25345 4.53885 6.17517 4.55075 6.08614C4.55191 6.07246 4.80153 4.76452 7.45992 4.0848ZM15.8841 25.3456C17.1737 25.3456 18.2221 24.294 18.2221 23.0018H18.2224V7.56401C18.2224 6.2712 17.1737 5.22048 15.8844 5.22048H15.2334C15.4865 5.63047 15.5318 5.93628 15.5361 5.968C15.5808 6.31892 15.4775 6.66722 15.2531 6.92269C15.0288 7.17875 14.6979 7.3257 14.3446 7.3257H4.82533C4.47209 7.3257 4.14092 7.17875 3.91684 6.92269C3.69219 6.66722 3.58915 6.31892 3.63385 5.968C3.63821 5.93628 3.68348 5.63047 3.93658 5.22048H3.28555C1.99597 5.22048 0.947592 6.27149 0.947592 7.56401V23.0018C0.947592 24.2943 1.99626 25.3456 3.28555 25.3456H15.8841Z" fill="black" fill-opacity="0.87"/>
</svg>
