<svg width="27" height="24" viewBox="0 0 27 24" fill="none" xmlns="http://www.w3.org/2000/svg">
<path d="M19.1909 11.3741H16.7133V8.89033C16.7133 8.63456 16.5064 8.42709 16.2513 8.42709C15.9961 8.42709 15.7892 8.63456 15.7892 8.89033V11.3741H13.3113C13.0562 11.3741 12.8492 11.5819 12.8492 11.8377C12.8492 12.0934 13.0562 12.3009 13.3113 12.3009H15.7892V14.7847C15.7892 15.0402 15.9961 15.2479 16.2513 15.2479C16.5064 15.2479 16.7133 15.0402 16.7133 14.7847V12.3009H19.1909C19.446 12.3009 19.6533 12.0934 19.6533 11.8377C19.6533 11.5819 19.446 11.3741 19.1909 11.3741Z" fill="black" fill-opacity="0.87"/>
<path d="M12.278 23.9478C13.3456 23.9478 14.2111 23.0802 14.2111 22.0099C14.2111 20.9397 13.3456 20.072 12.278 20.072C11.2104 20.072 10.345 20.9397 10.345 22.0099C10.345 23.0802 11.2104 23.9478 12.278 23.9478Z" fill="black" fill-opacity="0.87"/>
<path d="M20.2244 23.9473C21.2917 23.9473 22.1569 23.0799 22.1569 22.0099C22.1569 20.94 21.2917 20.0726 20.2244 20.0726C19.1571 20.0726 18.2919 20.94 18.2919 22.0099C18.2919 23.0799 19.1571 23.9473 20.2244 23.9473Z" fill="black" fill-opacity="0.87"/>
<path fill-rule="evenodd" clip-rule="evenodd" d="M6.79582 5.3282H24.766C25.285 5.3282 25.7424 5.54207 26.0208 5.91481C26.2991 6.28755 26.3749 6.78774 26.2283 7.28676L23.4811 16.6501C23.2019 17.6016 22.2078 18.3474 21.2183 18.3474H11.2845C10.2927 18.3474 9.30416 17.5978 9.03393 16.6417L5.29871 3.42899C4.9687 2.26275 3.84282 1.27692 2.83972 1.27634L0.640788 1.27518C0.385369 1.27518 0.178711 1.06771 0.178711 0.811652C0.179001 0.556175 0.385659 0.348999 0.640788 0.348999L2.8403 0.349581C4.2454 0.350163 5.74657 1.61824 6.18717 3.17613L6.79582 5.3282ZM22.5944 16.3885L25.3413 7.02547C25.406 6.80607 25.3843 6.6085 25.2807 6.46999C25.177 6.33119 24.9945 6.25467 24.766 6.25467H7.05762L9.92268 16.3891C10.0785 16.9385 10.7145 17.4212 11.2845 17.4212H21.218C21.7898 17.4212 22.433 16.9385 22.5944 16.3885Z" fill="black" fill-opacity="0.87"/>
</svg>
