<svg width="19" height="27" viewBox="0 0 19 27" fill="none" xmlns="http://www.w3.org/2000/svg">
<path fill-rule="evenodd" clip-rule="evenodd" d="M13.3542 20.6583H4.95462C3.92771 20.6583 3.09265 19.8205 3.09265 18.7916V5.45932C3.09265 4.42984 3.92771 3.59241 4.95462 3.59241H13.3542C14.3808 3.59241 15.2159 4.42984 15.2159 5.45932V18.7916C15.2159 19.8205 14.3808 20.6583 13.3542 20.6583ZM4.95462 4.51917C4.43739 4.51917 4.01681 4.94051 4.01681 5.45932V18.7916C4.01681 19.3102 4.4371 19.7315 4.95462 19.7315H13.3542C13.8714 19.7315 14.2917 19.3102 14.2917 18.7916V5.45932C14.2917 4.94051 13.8714 4.51917 13.3542 4.51917H4.95462Z" fill="black" fill-opacity="0.87"/>
<path d="M9.15425 24.1244C9.7727 24.1244 10.274 23.6218 10.274 23.0018C10.274 22.3818 9.7727 21.8792 9.15425 21.8792C8.53581 21.8792 8.03445 22.3818 8.03445 23.0018C8.03445 23.6218 8.53581 24.1244 9.15425 24.1244Z" fill="black" fill-opacity="0.87"/>
<path fill-rule="evenodd" clip-rule="evenodd" d="M14.7541 26.2718H3.5548C1.75612 26.2718 0.292969 24.8047 0.292969 23.0015V3.35386C0.292969 1.55097 1.75612 0.0838623 3.5548 0.0838623H14.7541C16.5525 0.0838623 18.0156 1.55097 18.0156 3.35386V23.0018C18.0156 24.8047 16.5525 26.2718 14.7541 26.2718ZM3.5548 1.01004C2.26551 1.01004 1.21683 2.06105 1.21683 3.35386V23.0015C1.21683 24.294 2.26551 25.3453 3.5548 25.3453H14.7541C16.0434 25.3453 17.0918 24.2937 17.0918 23.0015V3.35386C17.0918 2.06076 16.0431 1.01004 14.7541 1.01004H3.5548Z" fill="black" fill-opacity="0.87"/>
</svg>
