<svg width="28" height="22" viewBox="0 0 28 22" fill="none" xmlns="http://www.w3.org/2000/svg">
<path d="M26.6182 1.04306H7.25846C6.99375 1.04306 6.77954 1.25751 6.77954 1.52289C6.77954 1.78797 6.99375 2.00272 7.25846 2.00272H26.6182C26.8829 2.00272 27.0971 1.78797 27.0971 1.52289C27.0971 1.25751 26.8829 1.04306 26.6182 1.04306Z" fill="black" fill-opacity="0.87"/>
<path d="M26.6182 20.1495H7.25846C6.99375 20.1495 6.77954 20.3642 6.77954 20.6296C6.77954 20.895 6.99375 21.1094 7.25846 21.1094H26.6182C26.8829 21.1094 27.0971 20.895 27.0971 20.6296C27.0971 20.3642 26.8829 20.1495 26.6182 20.1495Z" fill="black" fill-opacity="0.87"/>
<path d="M26.6182 10.5961H7.25846C6.99375 10.5961 6.77954 10.8112 6.77954 11.0763C6.77954 11.3413 6.99375 11.5564 7.25846 11.5564H26.6182C26.8829 11.5564 27.0971 11.3413 27.0971 11.0763C27.0971 10.8112 26.8829 10.5961 26.6182 10.5961Z" fill="black" fill-opacity="0.87"/>
<path d="M2.30716 2.85878C3.04311 2.85878 3.63971 2.26068 3.63971 1.5229C3.63971 0.785107 3.04311 0.187012 2.30716 0.187012C1.57121 0.187012 0.974609 0.785107 0.974609 1.5229C0.974609 2.26068 1.57121 2.85878 2.30716 2.85878Z" fill="black" fill-opacity="0.87"/>
<path d="M2.30716 12.4121C3.04311 12.4121 3.63971 11.814 3.63971 11.0763C3.63971 10.3385 3.04311 9.7404 2.30716 9.7404C1.57121 9.7404 0.974609 10.3385 0.974609 11.0763C0.974609 11.814 1.57121 12.4121 2.30716 12.4121Z" fill="black" fill-opacity="0.87"/>
<path d="M2.30716 21.9655C3.04311 21.9655 3.63971 21.3674 3.63971 20.6296C3.63971 19.8918 3.04311 19.2937 2.30716 19.2937C1.57121 19.2937 0.974609 19.8918 0.974609 20.6296C0.974609 21.3674 1.57121 21.9655 2.30716 21.9655Z" fill="black" fill-opacity="0.87"/>
</svg>
