<svg width="24" height="28" viewBox="0 0 24 28" fill="none" xmlns="http://www.w3.org/2000/svg">
<path fill-rule="evenodd" clip-rule="evenodd" d="M12.8312 0.9823C13.2367 0.9823 13.7586 1.19937 14.0454 1.48656L19.1598 6.61387C19.4466 6.90136 19.6628 7.42454 19.6628 7.83103V12.5204C19.6628 12.7759 19.4562 12.9837 19.2008 12.9837C18.9453 12.9837 18.7387 12.7759 18.7387 12.5204V7.83103C18.7387 7.81445 18.7329 7.79204 18.7306 7.77313H14.6508C13.6796 7.77313 12.8893 6.98109 12.8893 6.0066V1.91692C12.8701 1.91488 12.8484 1.90877 12.8312 1.90877H3.60188C2.42347 1.90877 1.46419 2.87016 1.46419 4.05182V21.1735C1.46419 22.3552 2.42318 23.3168 3.60188 23.3168H14.8389C15.0943 23.3168 15.3013 23.5243 15.3013 23.7801C15.3013 24.0361 15.0943 24.2436 14.8389 24.2436H3.60188C1.9135 24.2436 0.540039 22.8661 0.540039 21.1735V4.05182C0.540039 2.3592 1.91379 0.9823 3.60188 0.9823H12.8312ZM13.8132 6.00631C13.8132 6.46955 14.1887 6.84666 14.6508 6.84666H18.0853L13.8132 2.56405V6.00631Z" fill="black" fill-opacity="0.87"/>
<path d="M14.8389 16.5199H5.3634C5.10856 16.5199 4.90161 16.7274 4.90161 16.9835C4.90161 17.2395 5.10856 17.4467 5.3634 17.4467H14.8389C15.0943 17.4467 15.3013 17.2395 15.3013 16.9835C15.3013 16.7274 15.0943 16.5199 14.8389 16.5199Z" fill="black" fill-opacity="0.87"/>
<path d="M14.8389 12.5204H5.3634C5.10856 12.5204 4.90161 12.7276 4.90161 12.9837C4.90161 13.2391 5.10856 13.4463 5.3634 13.4463H14.8389C15.0943 13.4463 15.3013 13.2391 15.3013 12.9837C15.3013 12.7276 15.0943 12.5204 14.8389 12.5204Z" fill="black" fill-opacity="0.87"/>
<path d="M5.3634 9.44713H10.9391C11.1945 9.44713 11.4014 9.23936 11.4014 8.98388C11.4014 8.72781 11.1945 8.52063 10.9391 8.52063H5.3634C5.10856 8.52063 4.90161 8.72781 4.90161 8.98388C4.90161 9.23936 5.10856 9.44713 5.3634 9.44713Z" fill="black" fill-opacity="0.87"/>
<path d="M22.9025 20.0271C22.722 19.8461 22.4294 19.8461 22.2492 20.0271L19.6628 22.62V16.0372C19.6628 15.7811 19.4562 15.5737 19.2008 15.5737C18.9453 15.5737 18.7387 15.7811 18.7387 16.0372V22.62L16.1529 20.0271C15.9723 19.8461 15.6798 19.8461 15.499 20.0271C15.3187 20.208 15.3187 20.5013 15.499 20.6823L18.8739 24.0658C18.9607 24.1531 19.0783 24.202 19.2008 24.202C19.3232 24.202 19.4408 24.1531 19.5276 24.0658L22.9025 20.6823C23.0828 20.5013 23.0828 20.208 22.9025 20.0271Z" fill="black" fill-opacity="0.87"/>
<path d="M15.9613 26.2438C15.7061 26.2438 15.4989 26.451 15.4989 26.707C15.4989 26.9631 15.7061 27.1703 15.9613 27.1703H22.4405C22.6959 27.1703 22.9026 26.9631 22.9026 26.707C22.9026 26.451 22.6959 26.2438 22.4405 26.2438H15.9613Z" fill="black" fill-opacity="0.87"/>
</svg>
