<svg width="23" height="28" viewBox="0 0 23 28" fill="none" xmlns="http://www.w3.org/2000/svg">
<path fill-rule="evenodd" clip-rule="evenodd" d="M15.4795 27.1703C17.0268 27.1703 18.2856 25.9083 18.2856 24.3568V23.0579H19.1262C20.9249 23.0579 22.388 21.5911 22.388 19.7882V7.29418C22.388 6.8647 22.1596 6.31184 21.8566 6.00835L17.374 1.51479C17.0715 1.2113 16.5198 0.9823 16.0916 0.9823H7.86134C6.31431 0.9823 5.0555 2.44941 5.0555 4.2523V5.09468H3.75954C2.21193 5.09468 0.953125 6.35636 0.953125 7.90785V24.3568C0.953125 25.9083 2.21193 27.1703 3.75954 27.1703H15.4795ZM5.97936 4.2523C5.97936 2.95978 6.82341 1.90819 7.86134 1.90819H16.0916C16.1212 1.90819 16.1546 1.91255 16.1894 1.91837V5.32921C16.1894 6.3584 17.0245 7.19554 18.0514 7.19554H21.4534C21.4595 7.23046 21.4639 7.26392 21.4639 7.29418V19.7882C21.4639 21.0801 20.4152 22.1317 19.1259 22.1317H8.31732C7.02803 22.1317 5.97907 21.0804 5.97907 19.7882V4.2523H5.97936ZM20.8105 6.26994L17.1139 2.56376V5.3295C17.1139 5.84773 17.5342 6.26994 18.0514 6.26994H20.8105ZM1.87728 7.90785V24.3568C1.87728 25.3973 2.72161 26.2438 3.75954 26.2438H15.4795C16.5171 26.2438 17.3612 25.3973 17.3612 24.3568V23.0579H8.31732C6.51894 23.0579 5.0555 21.5911 5.0555 19.7882V6.02086H3.75954C2.72161 6.02086 1.87728 6.86702 1.87728 7.90785Z" fill="black" fill-opacity="0.87"/>
<path d="M9.49516 17.1831H17.9478C18.203 17.1831 18.4099 16.9759 18.4099 16.7198C18.4099 16.4638 18.203 16.2566 17.9478 16.2566H9.49516C9.24032 16.2566 9.03308 16.4638 9.03308 16.7198C9.03308 16.9759 9.24032 17.1831 9.49516 17.1831Z" fill="black" fill-opacity="0.87"/>
<path d="M9.49516 13.071H17.9478C18.203 13.071 18.4099 12.8635 18.4099 12.6074C18.4099 12.3514 18.203 12.1442 17.9478 12.1442H9.49516C9.24032 12.1442 9.03308 12.3514 9.03308 12.6074C9.03308 12.8635 9.24032 13.071 9.49516 13.071Z" fill="black" fill-opacity="0.87"/>
<path d="M9.49517 8.95827H14.4318C14.6873 8.95827 14.8939 8.7508 14.8939 8.49503C14.8939 8.23954 14.6873 8.03207 14.4318 8.03207H9.49517C9.24032 8.03207 9.03308 8.23954 9.03308 8.49503C9.03308 8.7508 9.24032 8.95827 9.49517 8.95827Z" fill="black" fill-opacity="0.87"/>
</svg>
