<svg width="22" height="28" viewBox="0 0 22 28" fill="none" xmlns="http://www.w3.org/2000/svg">
<path fill-rule="evenodd" clip-rule="evenodd" d="M18.1641 27.1703H4.16543C2.36676 27.1703 0.90332 25.7031 0.90332 23.9V4.2523C0.90332 2.44941 2.36647 0.9823 4.16514 0.9823H14.1047C14.5328 0.9823 15.0846 1.2113 15.3873 1.51508L20.8948 7.03666C21.1978 7.34044 21.426 7.89301 21.426 8.32249V23.9003C21.426 25.7031 19.9628 27.1703 18.1641 27.1703ZM4.16543 1.90848C2.87614 1.90848 1.82747 2.96007 1.82747 4.2523H1.82776V23.9C1.82776 25.1925 2.87672 26.2438 4.16572 26.2438H18.1644C19.454 26.2438 20.5024 25.1922 20.5024 23.9V8.3222C20.5024 8.29223 20.498 8.25906 20.4919 8.22414H16.0648C15.0379 8.22414 14.2028 7.38671 14.2028 6.35752V1.91896C14.168 1.91314 14.1346 1.90848 14.105 1.90848H4.16543ZM15.1267 2.56405L15.127 2.56434V6.35811C15.127 6.87634 15.5473 7.29767 16.0645 7.29767H19.849L15.127 2.56434V2.56405H15.1267Z" fill="black" fill-opacity="0.87"/>
<path d="M6.02743 20.1534H16.3023C16.5578 20.1534 16.7647 19.9462 16.7647 19.6901C16.7647 19.4338 16.5578 19.2266 16.3023 19.2266H6.02743C5.77201 19.2266 5.56506 19.4338 5.56506 19.6901C5.56506 19.9462 5.77201 20.1534 6.02743 20.1534Z" fill="black" fill-opacity="0.87"/>
<path d="M6.02743 15.2414H16.3023C16.5578 15.2414 16.7647 15.0339 16.7647 14.7778C16.7647 14.5224 16.5578 14.3146 16.3023 14.3146H6.02743C5.77201 14.3146 5.56506 14.5224 5.56506 14.7778C5.56506 15.0339 5.77201 15.2414 6.02743 15.2414Z" fill="black" fill-opacity="0.87"/>
<path d="M6.02743 10.3291H12.1029C12.3583 10.3291 12.565 10.1219 12.565 9.86584C12.565 9.61036 12.3583 9.4026 12.1029 9.4026H6.02743C5.77201 9.4026 5.56506 9.61036 5.56506 9.86584C5.56506 10.1219 5.77201 10.3291 6.02743 10.3291Z" fill="black" fill-opacity="0.87"/>
</svg>
