<svg width="28" height="28" viewBox="0 0 28 28" fill="none" xmlns="http://www.w3.org/2000/svg">
<path fill-rule="evenodd" clip-rule="evenodd" d="M0.919922 14.0763C0.919922 6.85655 6.7795 0.9823 13.9812 0.9823C21.1832 0.9823 27.0425 6.85655 27.0425 14.0763C27.0425 21.296 21.1829 27.1703 13.9812 27.1703C6.7795 27.1703 0.919922 21.296 0.919922 14.0763ZM1.84408 14.0763C1.84408 20.7853 7.2886 26.2438 13.9812 26.2438C20.6738 26.2438 26.1183 20.7853 26.1183 14.0763C26.1183 7.36663 20.6738 1.90877 13.9812 1.90877C7.2886 1.90877 1.84408 7.36663 1.84408 14.0763Z" fill="black" fill-opacity="0.87"/>
<path d="M14.7881 8.46246C14.6076 8.28176 14.315 8.28176 14.1345 8.46246C13.954 8.64345 13.954 8.93704 14.1345 9.11774L18.6188 13.6131H7.87736C7.62194 13.6131 7.41528 13.8202 7.41528 14.0763C7.41528 14.3318 7.62194 14.5395 7.87736 14.5395H18.6188L14.1345 19.0349C13.954 19.2156 13.954 19.5092 14.1345 19.6902C14.315 19.8709 14.6076 19.8709 14.7881 19.6902L19.8628 14.6024C20.0024 14.4619 20.0797 14.2748 20.0797 14.0763C20.0797 13.877 20.0024 13.6905 19.8628 13.5499L14.7881 8.46246Z" fill="black" fill-opacity="0.87"/>
</svg>
