<svg width="27" height="26" viewBox="0 0 27 26" fill="none" xmlns="http://www.w3.org/2000/svg">
<path d="M25.6897 14.305C25.4342 14.305 25.2276 14.5122 25.2276 14.7683V22.7256C25.2276 24.0173 24.1792 25.0692 22.8896 25.0692H3.29112C2.00212 25.0692 0.95316 24.0176 0.95316 22.7256V14.768C0.95316 14.5119 0.746213 14.3047 0.491083 14.3047C0.235954 14.3047 0.0292969 14.5122 0.0292969 14.768V22.7253C0.0292969 24.5282 1.49273 25.9953 3.29112 25.9953H22.8896C24.6883 25.9953 26.1517 24.5282 26.1517 22.7253V14.768C26.1517 14.5122 25.9451 14.305 25.6897 14.305Z" fill="black" fill-opacity="0.87"/>
<path d="M5.34439 8.6912L12.6284 1.38883V18.473C12.6284 18.729 12.8354 18.9362 13.0905 18.9362C13.346 18.9362 13.5526 18.729 13.5526 18.473V1.38913L20.8367 8.6912C21.0169 8.87219 21.3098 8.87219 21.49 8.6912C21.6702 8.5105 21.6702 8.2172 21.49 8.0365L14.0112 0.53889C13.5035 0.0293889 12.6775 0.0299709 12.1701 0.53889L4.69134 8.03679C4.51109 8.21749 4.51109 8.5105 4.69134 8.69149C4.87158 8.87219 5.16415 8.87219 5.34439 8.6912Z" fill="black" fill-opacity="0.87"/>
</svg>
