<svg width="23" height="28" viewBox="0 0 23 28" fill="none" xmlns="http://www.w3.org/2000/svg">
<path d="M11.5843 23.6617C11.8394 23.6617 12.0464 23.4539 12.0464 23.1982V11.9714C12.0464 11.7153 11.8394 11.5078 11.5843 11.5078C11.3292 11.5078 11.1223 11.7153 11.1223 11.9714V23.1984C11.1223 23.4542 11.3292 23.6617 11.5843 23.6617Z" fill="black" fill-opacity="0.87"/>
<path fill-rule="evenodd" clip-rule="evenodd" d="M15.0842 0.9823H8.08451C7.05761 0.9823 6.22256 1.81944 6.22256 2.84892V4.4909H2.485C1.4581 4.4909 0.623047 5.32834 0.623047 6.35781V7.05936C0.623047 8.08826 1.4581 8.92598 2.485 8.92598H2.7471L3.55893 24.0411C3.65152 25.7663 5.12889 27.1703 6.85269 27.1703H16.3163C18.0398 27.1703 19.5169 25.7663 19.6095 24.0411L20.4216 8.92598H20.6834C21.71 8.92598 22.5457 8.08826 22.5457 7.05936V6.35781C22.5457 5.32834 21.71 4.4909 20.6834 4.4909H16.9464V2.84892C16.9464 1.81944 16.1108 0.9823 15.0842 0.9823ZM8.08451 1.90877C7.56729 1.90877 7.14671 2.3304 7.14671 2.84892V4.4909H16.0214V2.84892C16.0214 2.3304 15.6011 1.90877 15.0839 1.90877H8.08451ZM21.6215 6.35752C21.6215 5.83871 21.2009 5.41738 20.6837 5.41738H2.485C1.96778 5.41738 1.5472 5.83871 1.5472 6.35752V7.05907C1.5472 7.57759 1.96778 7.99893 2.485 7.99893H20.6837C21.2009 7.99893 21.6215 7.57759 21.6215 7.05907V6.35752ZM18.6871 23.991C18.6206 25.2335 17.5568 26.2438 16.3163 26.2438H6.85269C5.61187 26.2438 4.54839 25.2332 4.48193 23.991L3.67242 8.92598H19.4963L18.6871 23.991Z" fill="black" fill-opacity="0.87"/>
<path d="M7.78032 23.6617C7.78467 23.6617 7.78873 23.6611 7.7928 23.6611C8.04793 23.6547 8.24907 23.4411 8.24239 23.1856L7.94082 11.9583C7.93415 11.7069 7.72865 11.5075 7.47933 11.5075C7.47468 11.5075 7.47062 11.5075 7.46685 11.5075C7.21172 11.5145 7.01058 11.7275 7.01725 11.983L7.31882 23.2104C7.3255 23.4624 7.53099 23.6617 7.78032 23.6617Z" fill="black" fill-opacity="0.87"/>
<path d="M15.3759 23.6611C15.3802 23.6611 15.384 23.6617 15.3886 23.6617C15.638 23.6617 15.8432 23.4621 15.8501 23.2104L16.1517 11.983C16.1586 11.7275 15.9575 11.5148 15.7024 11.5075C15.698 11.5075 15.694 11.5075 15.6896 11.5075C15.4403 11.5075 15.2348 11.7069 15.2278 11.9583L14.9266 23.1856C14.9193 23.4414 15.1208 23.6547 15.3759 23.6611Z" fill="black" fill-opacity="0.87"/>
</svg>
