<svg width="27" height="26" viewBox="0 0 27 26" fill="none" xmlns="http://www.w3.org/2000/svg">
<path d="M26.129 14.3051C25.8736 14.3051 25.667 14.5123 25.667 14.7686V22.726C25.667 24.0174 24.6186 25.0692 23.329 25.0692H3.73056C2.44157 25.0692 1.39261 24.0176 1.39261 22.726V14.7683C1.39261 14.512 1.18566 14.3048 0.930536 14.3048C0.675407 14.3048 0.46875 14.5123 0.46875 14.7683V22.7257C0.46875 24.5283 1.93218 25.9954 3.73056 25.9954H23.329C25.1277 25.9954 26.5911 24.5283 26.5911 22.7257V14.7683C26.5911 14.5123 26.3845 14.3051 26.129 14.3051Z" fill="black" fill-opacity="0.87"/>
<path d="M12.6096 18.02C13.117 18.5287 13.943 18.5292 14.4507 18.02L21.9295 10.5218C22.1098 10.3411 22.1098 10.0481 21.9295 9.86743C21.7493 9.68644 21.4564 9.68644 21.2762 9.86743L13.9921 17.1698V0.620753C13.9921 0.364402 13.7854 0.157227 13.53 0.157227C13.2749 0.157227 13.0679 0.364402 13.0679 0.620753V17.1701L5.78382 9.86772C5.60387 9.68673 5.311 9.68673 5.13076 9.86772C4.95051 10.0484 4.95051 10.3414 5.13076 10.5221L12.6096 18.02Z" fill="black" fill-opacity="0.87"/>
</svg>
