<svg width="27" height="28" viewBox="0 0 27 28" fill="none" xmlns="http://www.w3.org/2000/svg">
<path d="M13.8073 14.0763L18.5152 9.35662C18.6951 9.17563 18.6954 8.88262 18.5152 8.70192C18.3341 8.52093 18.0421 8.52093 17.8615 8.70192L13.154 13.4213L8.44612 8.70192C8.26645 8.52093 7.9733 8.52093 7.79306 8.70192C7.61252 8.88262 7.61252 9.17563 7.79306 9.35662L12.5006 14.0763L7.79335 18.7953C7.61281 18.9763 7.61281 19.2693 7.79335 19.4506C7.88361 19.5408 8.00175 19.5865 8.11988 19.5862C8.2383 19.5865 8.35643 19.5408 8.44641 19.4506L13.154 14.7313L17.8615 19.4506C17.9518 19.5408 18.0702 19.5865 18.1884 19.5865C18.3062 19.5865 18.4246 19.5408 18.5152 19.4506C18.6954 19.2693 18.6954 18.9763 18.5149 18.7953L13.8073 14.0763Z" fill="black" fill-opacity="0.87"/>
<path fill-rule="evenodd" clip-rule="evenodd" d="M0.0927734 14.0763C0.0927734 6.85655 5.95233 0.9823 13.154 0.9823C20.3559 0.9823 26.2152 6.85655 26.2152 14.0763C26.2152 21.296 20.3559 27.1703 13.154 27.1703C5.95233 27.1703 0.0927734 21.2963 0.0927734 14.0763ZM1.01693 14.0763C1.01693 20.7853 6.46171 26.2438 13.154 26.2438C19.8466 26.2438 25.2911 20.7853 25.2911 14.0766C25.2911 7.36692 19.8466 1.90848 13.154 1.90848C6.46142 1.90848 1.01693 7.36663 1.01693 14.0763Z" fill="black" fill-opacity="0.87"/>
</svg>
