<svg width="28" height="24" viewBox="0 0 28 24" fill="none" xmlns="http://www.w3.org/2000/svg">
<path fill-rule="evenodd" clip-rule="evenodd" d="M7.69427 12.9571C7.69427 9.4514 10.5393 6.59953 14.0359 6.59953C17.5325 6.59953 20.3776 9.4514 20.3776 12.9571C20.3776 16.4625 17.5325 19.3149 14.0359 19.3149C10.5393 19.3149 7.69427 16.4625 7.69427 12.9571ZM8.61843 12.9571C8.61843 15.9521 11.0487 18.3882 14.0359 18.3882C17.0232 18.3882 19.4534 15.9521 19.4534 12.9571C19.4534 9.96206 17.0232 7.52571 14.0359 7.52571C11.0487 7.52571 8.61843 9.96206 8.61843 12.9571Z" fill="black" fill-opacity="0.87"/>
<path fill-rule="evenodd" clip-rule="evenodd" d="M21.8209 4.63485L23.2754 4.63456C25.3826 4.63456 27.0971 6.35336 27.0971 8.46585V19.413C27.0971 21.5252 25.3826 23.2443 23.2754 23.2446H4.79633C2.68883 23.2446 0.974609 21.5255 0.974609 19.413V8.46585C0.974609 6.35336 2.68883 4.63456 4.79633 4.63456L6.25106 4.63485C6.79354 4.63485 7.43064 4.18558 7.61466 3.67346L8.11447 2.27968C8.43084 1.39656 9.4116 0.7052 10.3479 0.7052H17.7238C18.6595 0.7052 19.64 1.39656 19.9572 2.27939L20.4571 3.67346C20.6411 4.18558 21.2782 4.63485 21.8209 4.63485ZM23.2754 22.3181C24.8729 22.3181 26.173 21.0148 26.173 19.413V8.46614C26.173 6.86461 24.8729 5.56132 23.2754 5.56132L21.8212 5.56161C20.8855 5.56161 19.9044 4.86996 19.5878 3.98742L19.0879 2.59335C18.9039 2.08094 18.2665 1.63167 17.7238 1.63167H10.3479C9.80488 1.63167 9.1675 2.08094 8.98377 2.59335L8.48396 3.98713C8.16729 4.86996 7.18654 5.56132 6.25077 5.56132L4.79633 5.56103C3.19879 5.56103 1.89877 6.86402 1.89877 8.46585V19.413C1.89877 21.0148 3.19879 22.3181 4.79633 22.3181H23.2754Z" fill="black" fill-opacity="0.87"/>
</svg>
