<svg width="26" height="28" viewBox="0 0 26 28" fill="none" xmlns="http://www.w3.org/2000/svg">
<path fill-rule="evenodd" clip-rule="evenodd" d="M12.789 3.36551C18.2152 3.36551 22.6305 7.79098 22.6305 13.2314C22.6305 16.4834 21.0518 19.3728 18.6239 21.171L22.0665 26.3484C22.2082 26.5611 22.1507 26.8491 21.9385 26.9908C21.8596 27.0435 21.7708 27.0688 21.6825 27.0688C21.5336 27.0688 21.3871 26.9967 21.2977 26.8622L17.8559 21.6866C16.3747 22.5822 14.6411 23.0981 12.789 23.0981C10.9369 23.0981 9.20293 22.5819 7.72178 21.6866L4.27941 26.8622C4.19088 26.9967 4.04431 27.0688 3.89512 27.0688C3.80717 27.0688 3.71806 27.0435 3.63912 26.9908C3.42694 26.8491 3.36976 26.5611 3.51082 26.3484L6.95436 21.171C4.52583 19.3725 2.94745 16.4834 2.94745 13.2314C2.94745 7.79098 7.36216 3.36551 12.789 3.36551ZM3.87103 13.2314C3.87103 18.1611 7.87184 22.1717 12.789 22.1717C17.7061 22.1717 21.7066 18.1611 21.7066 13.2314C21.7066 8.30194 17.7064 4.2914 12.789 4.2914C7.87155 4.2914 3.87103 8.30223 3.87103 13.2314Z" fill="black" fill-opacity="0.87"/>
<path d="M20.2003 0.880859C18.8889 0.880859 17.6566 1.39298 16.7289 2.32207C16.5487 2.50306 16.5487 2.79636 16.7289 2.97706C16.9089 3.15775 17.2015 3.15804 17.3826 2.97706C18.1352 2.22255 19.1362 1.80704 20.2003 1.80704C22.3974 1.80704 24.1851 3.59917 24.1851 5.80215C24.1851 6.86887 23.7706 7.87216 23.0177 8.62696C22.8374 8.80794 22.838 9.10096 23.0177 9.28194C23.1082 9.37215 23.227 9.41783 23.3448 9.41783C23.4629 9.41783 23.581 9.37215 23.6713 9.28165C24.5987 8.35198 25.1095 7.1162 25.1095 5.80215C25.1092 3.0885 22.9071 0.880859 20.2003 0.880859Z" fill="black" fill-opacity="0.87"/>
<path d="M1.39291 5.80215C1.39291 3.59917 3.18027 1.80704 5.37776 1.80704C6.44182 1.80704 7.44261 2.22284 8.19552 2.97706C8.37605 3.15775 8.66804 3.15804 8.84858 2.97706C9.02883 2.79636 9.02883 2.50306 8.84858 2.32207C7.92123 1.39298 6.68824 0.880859 5.37776 0.880859C2.67088 0.880859 0.46875 3.0885 0.46875 5.80215C0.46875 7.11679 0.979591 8.35256 1.90636 9.28165C1.99663 9.37215 2.11476 9.41783 2.23347 9.41783C2.35132 9.41783 2.46945 9.37215 2.56001 9.28165C2.74025 9.10096 2.74025 8.80765 2.56001 8.62696C1.80739 7.87245 1.39291 6.86916 1.39291 5.80215Z" fill="black" fill-opacity="0.87"/>
<path d="M13.3274 13.1915C13.2937 13.1438 13.2502 13.0094 13.2502 12.9512L13.2508 7.30476C13.2508 7.04899 13.0435 6.84152 12.7887 6.84152C12.5333 6.84152 12.3266 7.04899 12.3266 7.30476V12.9512C12.3266 13.2035 12.4291 13.5236 12.5753 13.7296L15.3766 17.6618C15.4669 17.7887 15.6091 17.8559 15.7528 17.8559C15.8456 17.8559 15.9403 17.828 16.0215 17.7698C16.2288 17.6208 16.2769 17.3319 16.1286 17.1235L13.3274 13.1915Z" fill="black" fill-opacity="0.87"/>
</svg>
