<svg width="27" height="28" viewBox="0 0 27 28" fill="none" xmlns="http://www.w3.org/2000/svg">
<path fill-rule="evenodd" clip-rule="evenodd" d="M25.8723 6.74382L14.6396 1.08141C14.1082 0.814008 13.2351 0.814008 12.7037 1.08141L1.47073 6.74382C1.10849 6.92597 0.900391 7.21811 0.900391 7.54488C0.900391 7.54954 0.901834 7.5539 0.901834 7.55885V19.5453C0.901834 20.1965 1.33421 20.9129 1.90714 21.2118L12.7031 26.8526C12.9794 26.9964 13.3251 27.0688 13.6712 27.0688C14.0176 27.0688 14.3636 26.9964 14.6396 26.852L25.4347 21.2123C26.0079 20.9132 26.44 20.1968 26.44 19.5453V7.56932C26.4403 7.56088 26.4423 7.55332 26.4423 7.54488C26.4426 7.21811 26.2345 6.92597 25.8723 6.74382ZM13.1182 13.1724L1.95361 7.54488L13.1182 1.91739C13.3889 1.78121 13.9541 1.78121 14.2248 1.91739L25.3894 7.54488L14.2248 13.1724C13.9541 13.3085 13.3889 13.3085 13.1182 13.1724ZM13.1298 26.023C13.1537 26.0353 13.1811 26.0449 13.2079 26.0556V14.1716C13.0235 14.1361 12.8512 14.0822 12.7037 14.0083L1.82921 8.52751V19.5456C1.82921 19.8407 2.07426 20.2466 2.33316 20.3822L13.1298 26.023ZM25.0087 20.3828C25.2679 20.2472 25.5132 19.8407 25.5132 19.5456V8.52751L14.6393 14.0083C14.4918 14.0822 14.3195 14.1364 14.135 14.1716V26.0545C14.1616 26.0443 14.1893 26.035 14.213 26.0222L25.0087 20.3828Z" fill="black" fill-opacity="0.87"/>
</svg>
