<svg width="20" height="28" viewBox="0 0 20 28" fill="none" xmlns="http://www.w3.org/2000/svg">
<path fill-rule="evenodd" clip-rule="evenodd" d="M10.7145 10.4428H18.4145C18.8216 10.4428 19.155 10.6119 19.33 10.9069C19.5044 11.2017 19.4925 11.5768 19.2978 11.9358L11.5938 26.1205C11.2423 26.7679 10.8996 27.0688 10.5148 27.0688C10.1443 27.0688 9.70366 26.8203 9.70366 25.6369V17.5962C9.70366 17.5479 9.66279 17.5071 9.6144 17.5071H1.91496C1.50791 17.5071 1.17445 17.3378 0.999747 17.0427C0.825339 16.7474 0.837218 16.3723 1.0322 16.0138L8.73484 1.82914C9.08656 1.18202 9.42957 0.880859 9.81404 0.880859C10.1846 0.880859 10.6252 1.12935 10.6252 2.31304V10.3532C10.6252 10.4015 10.6661 10.4428 10.7145 10.4428ZM10.7837 25.6765L18.4878 11.4924C18.5153 11.4406 18.5252 11.4051 18.5284 11.3847C18.5089 11.3775 18.473 11.369 18.4142 11.369H10.7145C10.1568 11.369 9.70337 10.9136 9.70337 10.3535V2.31304C9.70337 2.19868 9.69814 2.10499 9.69147 2.02817C9.6483 2.09218 9.59963 2.1722 9.54518 2.27288L1.84137 16.457C1.81327 16.5088 1.80371 16.5449 1.80052 16.5652C1.81964 16.5719 1.85556 16.5807 1.91467 16.5807H9.6144C10.1721 16.5807 10.6255 17.036 10.6255 17.5959V25.6367C10.6255 25.7507 10.6307 25.8444 10.6374 25.9212C10.6806 25.8575 10.7292 25.7772 10.7837 25.6765Z" fill="black" fill-opacity="0.87"/>
</svg>
