<svg width="28" height="26" viewBox="0 0 28 26" fill="none" xmlns="http://www.w3.org/2000/svg">
<path fill-rule="evenodd" clip-rule="evenodd" d="M11.1815 0.582275H16.781C17.8079 0.582275 18.6432 1.41971 18.6432 2.44919V8.06276C18.6432 9.09195 17.8079 9.92909 16.7813 9.92909H11.1815C10.1549 9.92909 9.31958 9.09195 9.31958 8.06276V2.44919C9.31958 1.41971 10.1549 0.582275 11.1815 0.582275ZM16.7813 9.00262C17.2985 9.00262 17.7191 8.58099 17.7191 8.06276V2.44919C17.7191 1.93067 17.2985 1.50875 16.7813 1.50875H11.1815C10.6643 1.50875 10.2437 1.93067 10.2437 2.44919V8.06276C10.2437 8.58099 10.6643 9.00262 11.1815 9.00262H16.7813Z" fill="black" fill-opacity="0.87"/>
<path d="M23.7797 17.8867H23.7815C24.0363 17.8867 24.2427 17.6798 24.2427 17.4244V15.7815C24.2427 14.752 23.4073 13.9149 22.3807 13.9149H14.4433V11.3318C14.4433 11.0764 14.2369 10.8695 13.9821 10.8695H13.9803C13.7255 10.8695 13.5191 11.0764 13.5191 11.3318V13.9149H5.58198C4.55537 13.9149 3.72003 14.752 3.72003 15.7815V17.4244C3.72003 17.6798 3.9264 17.8867 4.18124 17.8867H4.18298C4.43782 17.8867 4.64418 17.6798 4.64418 17.4244V15.7815C4.64418 15.2627 5.06447 14.8413 5.58198 14.8413H13.5194V17.4244C13.5194 17.6798 13.7258 17.8867 13.9806 17.8867H13.9824C14.2372 17.8867 14.4436 17.6798 14.4436 17.4244V14.8413H22.381C22.8985 14.8413 23.3188 15.2627 23.3188 15.7815V17.4244C23.3185 17.6798 23.5249 17.8867 23.7797 17.8867Z" fill="black" fill-opacity="0.87"/>
<path fill-rule="evenodd" clip-rule="evenodd" d="M21.9137 18.8266H25.6472C26.4167 18.8266 27.0425 19.4542 27.0425 20.2253V23.9678C27.0425 24.7395 26.4164 25.3669 25.6472 25.3669H21.9137C21.1446 25.3669 20.5185 24.7392 20.5185 23.9678V20.2253C20.5185 19.4539 21.1449 18.8266 21.9137 18.8266ZM25.6472 24.4404C25.9067 24.4404 26.1183 24.2285 26.1183 23.9678V20.2253C26.1183 19.9649 25.907 19.7536 25.6472 19.7536H21.9137C21.6542 19.7536 21.4427 19.9646 21.4427 20.2253V23.9678C21.4427 24.2283 21.654 24.4404 21.9137 24.4404H25.6472Z" fill="black" fill-opacity="0.87"/>
<path fill-rule="evenodd" clip-rule="evenodd" d="M10.7192 20.2253C10.7192 19.4539 11.3455 18.8266 12.1144 18.8266H15.8478C16.6173 18.8266 17.243 19.4542 17.243 20.2253V23.9678C17.243 24.7395 16.617 25.3669 15.8478 25.3669H12.1144C11.3452 25.3669 10.7192 24.7392 10.7192 23.9678V20.2253ZM16.3192 23.9678V20.2253C16.3192 19.9646 16.1076 19.7536 15.8478 19.7536H12.1144C11.8546 19.7536 11.6433 19.9646 11.6433 20.2253V23.9678C11.6433 24.2283 11.8543 24.4404 12.1144 24.4404H15.8481C16.1076 24.4404 16.3192 24.2285 16.3192 23.9678Z" fill="black" fill-opacity="0.87"/>
<path fill-rule="evenodd" clip-rule="evenodd" d="M6.04872 25.3669H2.31517C1.546 25.3669 0.919922 24.7395 0.919922 23.9678V20.2253C0.919922 19.4542 1.546 18.8266 2.31517 18.8266H6.04872C6.81789 18.8266 7.44397 19.4542 7.44397 20.2253V23.9678C7.44397 24.7395 6.8176 25.3669 6.04872 25.3669ZM2.31517 19.7536C2.0554 19.7536 1.84409 19.9646 1.84409 20.2253V23.9678C1.84409 24.2283 2.05511 24.4404 2.31517 24.4404H6.04872C6.30849 24.4404 6.5198 24.2285 6.5198 23.9678V20.2253C6.5198 19.9649 6.30878 19.7536 6.04872 19.7536H2.31517Z" fill="black" fill-opacity="0.87"/>
</svg>
