<svg width="27" height="28" viewBox="0 0 27 28" fill="none" xmlns="http://www.w3.org/2000/svg">
<path d="M3.29112 24.2621H11.9284C12.1838 24.2621 12.3904 24.0549 12.3904 23.7988C12.3904 23.5428 12.1838 23.3356 11.9284 23.3356H3.29112C2.00241 23.3356 0.95316 22.2843 0.95316 20.9918V4.15086C0.95316 2.85834 2.00212 1.80675 3.29112 1.80675H17.2904C18.5794 1.80675 19.6281 2.85805 19.6281 4.15086V12.1082C19.6281 12.3637 19.8347 12.5712 20.0902 12.5712C20.3456 12.5712 20.5522 12.3637 20.5522 12.1082V4.15086C20.552 2.34797 19.0888 0.880859 17.2904 0.880859H3.29112C1.49273 0.880859 0.0292969 2.34797 0.0292969 4.15086V20.9918C0.0292969 22.7952 1.49273 24.2621 3.29112 24.2621Z" fill="black" fill-opacity="0.87"/>
<path fill-rule="evenodd" clip-rule="evenodd" d="M12.6285 20.2899C12.6285 16.5526 15.6619 13.5116 19.3898 13.5116C23.1184 13.5116 26.1518 16.5526 26.1518 20.2899C26.1518 24.0278 23.1184 27.0688 19.3898 27.0688C15.6619 27.0688 12.6285 24.0278 12.6285 20.2899ZM13.5526 20.2899C13.5526 23.5169 16.171 26.1423 19.3898 26.1423C22.609 26.1423 25.2276 23.5169 25.2276 20.2899C25.2276 17.063 22.609 14.4381 19.3898 14.4381C16.171 14.4381 13.5526 17.0627 13.5526 20.2899Z" fill="black" fill-opacity="0.87"/>
<path d="M22.1898 19.8267H19.8524V17.4831C19.8524 17.2274 19.6449 17.0199 19.3898 17.0199C19.1347 17.0199 18.9277 17.2274 18.9277 17.4831V19.8267H16.5901C16.3349 19.8267 16.128 20.0341 16.128 20.2899C16.128 20.5457 16.3349 20.7537 16.5901 20.7537H18.9277V23.097C18.9277 23.3528 19.1347 23.5605 19.3898 23.5605C19.6449 23.5605 19.8524 23.3528 19.8524 23.097V20.7537H22.1898C22.4449 20.7537 22.6522 20.5457 22.6522 20.2899C22.6522 20.0341 22.4449 19.8267 22.1898 19.8267Z" fill="black" fill-opacity="0.87"/>
<path d="M15.4284 6.49469H5.15305C4.89764 6.49469 4.69098 6.70187 4.69098 6.95792C4.69098 7.2134 4.89764 7.42087 5.15305 7.42087H15.4281C15.6835 7.42087 15.8902 7.2134 15.8902 6.95792C15.8902 6.70187 15.6838 6.49469 15.4284 6.49469Z" fill="black" fill-opacity="0.87"/>
<path d="M15.8902 11.8699C15.8902 11.6139 15.6835 11.4064 15.4281 11.4064H5.15305C4.89764 11.4064 4.69098 11.6139 4.69098 11.8699C4.69098 12.1254 4.89764 12.3328 5.15305 12.3328H15.4281C15.6838 12.3325 15.8902 12.1254 15.8902 11.8699Z" fill="black" fill-opacity="0.87"/>
<path d="M5.15305 16.3186C4.89764 16.3186 4.69098 16.5258 4.69098 16.7819C4.69098 17.038 4.89764 17.2452 5.15305 17.2452H11.2285C11.484 17.2452 11.6906 17.038 11.6906 16.7819C11.6906 16.5258 11.484 16.3186 11.2285 16.3186H5.15305Z" fill="black" fill-opacity="0.87"/>
</svg>
