<svg width="25" height="28" viewBox="0 0 25 28" fill="none" xmlns="http://www.w3.org/2000/svg">
<path fill-rule="evenodd" clip-rule="evenodd" d="M24.1665 7.36235L18.1236 1.3147C17.848 1.03886 17.4511 0.880859 17.0345 0.880859C16.7292 0.880859 16.441 0.965242 16.2023 1.1247L1.40039 11.0004C1.00497 11.2637 0.68457 11.8635 0.68457 12.3395V18.8879C0.68457 19.4908 1.00584 20.2671 1.4315 20.6925L7.40751 26.6738C7.85557 27.1219 8.64609 27.2008 9.1735 26.8487L23.8484 17.0577C24.3764 16.7056 24.7753 15.9604 24.7753 15.3246L24.775 8.83292C24.7747 8.35688 24.5023 7.69901 24.1665 7.36235ZM8.00499 17.914L2.1008 12.0052C2.0409 11.9452 2.01154 11.8783 2.01765 11.8163C2.02375 11.7543 2.06591 11.6944 2.13627 11.6475L16.7271 1.91295C16.8088 1.85825 16.9181 1.82857 17.0345 1.82857C17.1996 1.82857 17.3566 1.88647 17.4543 1.98482L23.3588 7.89394C23.4187 7.95359 23.448 8.02081 23.4419 8.0822C23.4355 8.14476 23.3937 8.2047 23.3233 8.25097L8.73215 17.9861C8.53446 18.118 8.17188 18.0813 8.00499 17.914ZM23.3233 16.2688C23.5879 16.0931 23.8283 15.6429 23.8283 15.3243V9.0529L9.25724 18.7747C8.99297 18.9504 8.75224 19.4006 8.75224 19.7192V25.9906L23.3233 16.2688ZM2.10051 20.0224L7.80527 25.7319H7.80556V19.7192C7.80556 19.3709 7.58169 18.83 7.33599 18.5844L7.3357 18.5838L1.63095 12.8749V18.8879C1.63095 19.2359 1.85483 19.7768 2.10051 20.0224Z" fill="black" fill-opacity="0.87"/>
</svg>
