<svg width="23" height="28" viewBox="0 0 23 28" fill="none" xmlns="http://www.w3.org/2000/svg">
<path fill-rule="evenodd" clip-rule="evenodd" d="M5.92256 19.4045C6.12083 19.5671 6.14884 19.8587 5.98592 20.0563C5.8224 20.2535 5.52924 20.2815 5.33155 20.1191L3.25638 18.4157C4.00009 23.0359 6.85487 25.9259 10.92 26.1301V11.2399H8.80802C8.55136 11.2399 8.34316 11.0325 8.34316 10.7764C8.34316 10.5206 8.55136 10.3132 8.80802 10.3132H10.92V7.95219C9.17359 7.72348 7.81993 6.23484 7.81993 4.4334C7.81993 2.47483 9.41943 0.880859 11.3848 0.880859C13.3502 0.880859 14.9494 2.47483 14.9494 4.4334C14.9494 6.23513 13.5958 7.72348 11.8497 7.95219V10.3132H13.9619C14.2189 10.3132 14.4268 10.5206 14.4268 10.7764C14.4268 11.0325 14.2189 11.2399 13.9619 11.2399H11.85V26.1298C15.9016 25.9256 18.755 23.0362 19.5098 18.4189L17.4372 20.1191C17.2389 20.2818 16.9467 20.2535 16.7835 20.0563C16.6205 19.859 16.6488 19.5674 16.8471 19.4045L19.6312 17.1191C19.7848 16.9902 19.9895 16.9338 20.1907 16.9687C20.3968 17.0045 20.5776 17.1311 20.6868 17.3173L22.4948 20.3452C22.6259 20.5649 22.5538 20.8495 22.333 20.9801C22.2586 21.0246 22.1762 21.0453 22.0959 21.0453C21.9374 21.0453 21.7832 20.9647 21.6962 20.8189L20.4106 18.666C19.5288 23.8815 16.1524 27.0688 11.3848 27.0688C6.60523 27.0688 3.22835 23.8826 2.35735 18.67L1.07493 20.8175C0.987916 20.9629 0.833744 21.0441 0.675192 21.0441C0.594604 21.0441 0.512554 21.0223 0.438096 20.9787C0.217351 20.8474 0.14523 20.5637 0.276333 20.3438L2.08463 17.315C2.19296 17.1317 2.3737 17.0042 2.57985 16.969C2.78015 16.9349 2.98513 16.9905 3.14252 17.122L5.92256 19.4045ZM11.3848 1.80733C9.93187 1.80733 8.74992 2.98492 8.74992 4.4334C8.74992 5.8816 9.93187 7.05889 11.3848 7.05889C12.8378 7.05889 14.02 5.8816 14.02 4.4334C14.02 2.98521 12.8378 1.80733 11.3848 1.80733Z" fill="black" fill-opacity="0.87"/>
</svg>
