<svg width="27" height="8" viewBox="0 0 27 8" fill="none" xmlns="http://www.w3.org/2000/svg">
<path fill-rule="evenodd" clip-rule="evenodd" d="M13.154 7.24483C11.3556 7.24483 9.89218 5.77772 9.89218 3.97483C9.89218 2.17194 11.3556 0.704834 13.154 0.704834C14.9524 0.704834 16.4158 2.17194 16.4158 3.97483C16.4158 5.77772 14.9524 7.24483 13.154 7.24483ZM13.154 6.31865C14.4433 6.31865 15.492 5.26677 15.492 3.97483C15.492 2.6826 14.443 1.63072 13.154 1.63072C11.865 1.63072 10.816 2.6826 10.816 3.97483C10.816 5.26706 11.8653 6.31865 13.154 6.31865Z" fill="black" fill-opacity="0.87"/>
<path fill-rule="evenodd" clip-rule="evenodd" d="M3.35487 0.704834C5.15324 0.704834 6.61667 2.17194 6.61667 3.97483C6.61667 5.77772 5.15295 7.24483 3.35458 7.24483C1.5562 7.24483 0.0927734 5.77772 0.0927734 3.97483C0.0927734 2.17194 1.55649 0.704834 3.35487 0.704834ZM1.01663 3.97483C1.01663 5.26706 2.06559 6.31865 3.35458 6.31865C4.64357 6.31865 5.69252 5.26677 5.69252 3.97483C5.69252 2.68231 4.64328 1.63072 3.35458 1.63072C2.0653 1.63072 1.01663 2.6826 1.01663 3.97483Z" fill="black" fill-opacity="0.87"/>
<path fill-rule="evenodd" clip-rule="evenodd" d="M19.6916 3.97483C19.6916 2.17194 21.155 0.704834 22.9534 0.704834C24.7518 0.704834 26.2152 2.17194 26.2152 3.97483C26.2152 5.77772 24.7518 7.24483 22.9534 7.24483C21.155 7.24483 19.6916 5.77772 19.6916 3.97483ZM20.6154 3.97483C20.6154 5.26706 21.6644 6.31865 22.9534 6.31865C24.2427 6.31865 25.2911 5.26677 25.2913 3.97483C25.2913 2.68231 24.2427 1.63072 22.9534 1.63072C21.6641 1.63072 20.6154 2.6826 20.6154 3.97483Z" fill="black" fill-opacity="0.87"/>
</svg>
