<svg width="28" height="27" viewBox="0 0 28 27" fill="none" xmlns="http://www.w3.org/2000/svg">
<path fill-rule="evenodd" clip-rule="evenodd" d="M22.1556 0.488281C22.4331 0.488281 22.7637 0.625913 22.9599 0.822032L26.7639 4.63558C26.9598 4.83199 27.0971 5.1637 27.0971 5.44217V23.4062C27.0971 25.2091 25.6337 26.6762 23.835 26.6762H4.23644C2.43805 26.6762 0.974609 25.2091 0.974609 23.4059V3.75828C0.974609 1.95539 2.43805 0.488281 4.23644 0.488281H7.87617C8.43984 0.488281 8.89843 0.947443 8.89843 1.51281V7.68793C8.89843 8.36096 9.44468 8.90858 10.116 8.90858H17.9557C18.627 8.90858 19.1733 8.36096 19.1733 7.68793V1.51281C19.1733 0.947443 19.6319 0.488281 20.1955 0.488281H22.1556ZM23.835 25.7501C25.1246 25.7501 26.173 24.6985 26.173 23.4062H26.1732V5.44217C26.1709 5.40492 26.1355 5.3188 26.1094 5.28941L22.3065 1.47731C22.279 1.45229 22.1928 1.4165 22.1536 1.41388L20.1955 1.41446C20.1424 1.41446 20.0977 1.45956 20.0977 1.51281V7.68793C20.0977 8.87134 19.1364 9.83505 17.9557 9.83505H10.116C8.9353 9.83505 7.97399 8.87134 7.97399 7.68793V1.51281C7.97399 1.45956 7.92929 1.41446 7.87617 1.41446H4.23644C2.94686 1.41446 1.89848 2.46547 1.89848 3.75828V23.4062C1.89848 24.6988 2.94715 25.7501 4.23644 25.7501H23.835Z" fill="black" fill-opacity="0.87"/>
<path d="M20.5731 14.5224H7.49857C7.24316 14.5224 7.0365 14.7296 7.0365 14.9856C7.0365 15.2417 7.24316 15.4489 7.49857 15.4489H20.5734C20.8288 15.4489 21.0355 15.2417 21.0355 14.9856C21.0355 14.7296 20.8285 14.5224 20.5731 14.5224Z" fill="black" fill-opacity="0.87"/>
<path d="M20.5731 18.7326H7.49857C7.24316 18.7326 7.0365 18.9397 7.0365 19.1961C7.0365 19.4522 7.24316 19.6593 7.49857 19.6593H20.5734C20.8288 19.6593 21.0355 19.4522 21.0355 19.1961C21.0352 18.9397 20.8285 18.7326 20.5731 18.7326Z" fill="black" fill-opacity="0.87"/>
</svg>
