<svg width="27" height="27" viewBox="0 0 27 27" fill="none" xmlns="http://www.w3.org/2000/svg">
<path fill-rule="evenodd" clip-rule="evenodd" d="M19.2684 4.20672C20.9527 4.68218 22.8762 4.66152 24.9535 4.14737C25.5323 4.00391 26.0963 4.14271 26.4544 4.51341C26.7238 4.79333 26.864 5.18819 26.8489 5.6264C26.6974 10.0516 25.815 13.9108 24.2262 17.0982C22.1964 21.1687 19.0089 24.1948 14.7512 26.0923C14.4885 26.2093 14.1463 26.2742 13.7887 26.2742C13.4306 26.2742 13.0887 26.2093 12.8254 26.0923C8.6217 24.2175 5.4597 21.2429 3.42794 17.2501C1.79092 14.0327 0.882437 10.1217 0.728604 5.6264C0.713801 5.18761 0.853702 4.79304 1.12306 4.51341C1.47977 4.14271 2.04373 4.0042 2.62365 4.14766C4.62726 4.64319 6.49067 4.68073 8.13001 4.25532C9.81463 3.81885 11.3083 2.88423 12.5697 1.47765C12.9087 1.09909 13.3412 0.890747 13.7885 0.890747C14.2351 0.890747 14.6682 1.09909 15.0078 1.47736C16.2237 2.83418 17.6575 3.7528 19.2684 4.20672ZM14.3756 25.2455C18.4328 23.4374 21.4685 20.5573 23.3995 16.6835C24.9286 13.6161 25.7784 9.88544 25.9256 5.5941C25.932 5.40642 25.8852 5.25541 25.79 5.15677C25.6783 5.04096 25.5204 5.01651 25.4075 5.01651C25.3341 5.01651 25.256 5.02699 25.1756 5.04678C22.9412 5.59934 20.8569 5.61709 19.0185 5.09886C17.2363 4.59634 15.6559 3.58636 14.3205 2.09685C13.9919 1.7308 13.5844 1.73109 13.257 2.09656C11.8722 3.64136 10.2248 4.66909 8.36134 5.15211C6.5734 5.61593 4.55586 5.57956 2.40219 5.04707C2.32121 5.02699 2.24284 5.01681 2.1697 5.01681C2.05679 5.01681 1.89861 5.04096 1.78715 5.15706C1.69224 5.2557 1.64551 5.40672 1.65189 5.5944C1.80108 9.95295 2.67532 13.733 4.25081 16.8287C6.18417 20.628 9.19523 23.4592 13.201 25.2455C13.4872 25.3736 14.0883 25.3736 14.3756 25.2455Z" fill="black" fill-opacity="0.87"/>
<path d="M19.8597 8.44628C19.6592 8.28857 19.3686 8.32378 19.2113 8.52513L12.7108 16.8442C12.6632 16.9053 12.6101 16.9384 12.5616 16.9384C12.5239 16.9373 12.4595 16.9044 12.4121 16.8424L9.48872 13.0199C9.33285 12.8165 9.04318 12.7783 8.84088 12.9343C8.63828 13.0894 8.59997 13.3804 8.75554 13.5832L11.679 17.406C11.9004 17.6953 12.22 17.8626 12.5561 17.8643C12.5581 17.8643 12.5596 17.8643 12.5616 17.8643C12.8954 17.8643 13.2147 17.7008 13.4382 17.4151L19.9387 9.09603C20.096 8.89526 20.0606 8.60399 19.8597 8.44628Z" fill="black" fill-opacity="0.87"/>
</svg>
