<svg width="27" height="27" viewBox="0 0 27 27" fill="none" xmlns="http://www.w3.org/2000/svg">
<path d="M22.8877 9.29608C22.704 9.11189 22.4061 9.11189 22.2224 9.29608C22.039 9.48027 22.039 9.77881 22.2224 9.96271L25.3627 13.1108H14.1409V1.86098L17.2811 5.00937C17.4649 5.19356 17.7627 5.19356 17.9464 5.00937C18.1301 4.82489 18.1301 4.52664 17.9464 4.34216L14.4062 0.793374C14.0007 0.386584 13.3406 0.386584 12.9354 0.793374L9.39493 4.34245C9.2112 4.52664 9.2112 4.82489 9.39493 5.00937C9.57866 5.19356 9.87645 5.19356 10.0602 5.00937L13.2002 1.86098V13.1108H1.97836L5.11892 9.96271C5.30265 9.77881 5.30265 9.48027 5.11892 9.29608C4.93487 9.11189 4.63737 9.11189 4.45364 9.29608L0.913707 12.8454C0.507931 13.2516 0.507931 13.9133 0.913707 14.3204L4.45364 17.8689C4.63737 18.0531 4.93487 18.0531 5.11892 17.8689C5.30265 17.6847 5.30265 17.3861 5.11892 17.202L1.97836 14.0539H13.2002V25.3034L10.0599 22.1556C9.87645 21.9717 9.57866 21.9717 9.39493 22.1556C9.2112 22.3398 9.2112 22.6386 9.39493 22.8225L12.9354 26.3713C13.1378 26.5744 13.4042 26.6762 13.6707 26.6762C13.9368 26.6762 14.2036 26.5744 14.4062 26.3713L17.9464 22.8225C18.1301 22.6386 18.1301 22.3398 17.9464 22.1556C17.7627 21.9717 17.4649 21.9717 17.2811 22.1556L14.1409 25.3034V14.0539H25.3627L22.2224 17.202C22.039 17.3861 22.039 17.6847 22.2224 17.8689C22.4061 18.0531 22.704 18.0531 22.8877 17.8689L26.4279 14.3195C26.8331 13.9133 26.8331 13.2513 26.4279 12.8454L22.8877 9.29608Z" fill="black" fill-opacity="0.87"/>
</svg>
