<svg width="22" height="27" viewBox="0 0 22 27" fill="none" xmlns="http://www.w3.org/2000/svg">
<path d="M11.8847 0.805156C11.6975 0.603799 11.4354 0.488281 11.1649 0.488281C10.8944 0.488281 10.6323 0.603799 10.4454 0.804574L6.90751 4.60416C6.73336 4.79154 6.7438 5.08456 6.92986 5.25915C7.11678 5.43402 7.40819 5.42326 7.58263 5.23645L10.7028 1.88585V8.42905C10.7028 8.68453 10.9098 8.89229 11.1649 8.89229C11.42 8.89229 11.627 8.68453 11.627 8.42905V1.88585L14.7472 5.23645C14.838 5.33393 14.9611 5.38427 15.0847 5.38427C15.1976 5.38427 15.3108 5.34237 15.3999 5.25915C15.5863 5.08456 15.5964 4.79154 15.4223 4.60416L11.8847 0.805156Z" fill="black" fill-opacity="0.87"/>
<path fill-rule="evenodd" clip-rule="evenodd" d="M21.8032 13.7443V23.946C21.8032 25.4515 20.5816 26.6763 19.0801 26.6763H3.24979C1.74803 26.6763 0.526367 25.4515 0.526367 23.946V13.7443C0.526367 12.2382 1.74803 11.0135 3.24979 11.0135H19.0798C20.5816 11.0135 21.8032 12.2382 21.8032 13.7443ZM3.24979 11.9403H19.0801C19.3933 11.9403 19.6876 12.0206 19.9445 12.1629L12.492 19.2191C11.7602 19.9119 10.5702 19.9119 9.83849 19.2191L2.38572 12.1629C2.64259 12.0209 2.93661 11.9403 3.24979 11.9403ZM1.45082 13.7443V23.946C1.45082 24.9406 2.25801 25.7498 3.24979 25.7498H19.0801C20.0722 25.7498 20.8791 24.9406 20.8791 23.946V13.7443C20.8791 13.3995 20.7804 13.0783 20.6123 12.8042L13.1262 19.8918C12.5857 20.4042 11.8749 20.6603 11.1649 20.6603C10.4547 20.6603 9.74416 20.4042 9.204 19.8918L1.71756 12.8036C1.5495 13.0777 1.45082 13.3992 1.45082 13.7443Z" fill="black" fill-opacity="0.87"/>
</svg>
