<svg width="28" height="27" viewBox="0 0 28 27" fill="none" xmlns="http://www.w3.org/2000/svg">
<path d="M4.18177 23.8695H12.8191C13.0745 23.8695 13.2815 23.6623 13.2815 23.4062C13.2815 23.1502 13.0745 22.943 12.8191 22.943H4.18177C2.89276 22.943 1.84379 21.8917 1.84379 20.5992V3.75828C1.84379 2.46576 2.89247 1.41417 4.18177 1.41417H18.1812C19.4702 1.41417 20.5189 2.46547 20.5189 3.75828V11.7156C20.5189 11.9711 20.7255 12.1786 20.981 12.1786C21.2364 12.1786 21.4431 11.9711 21.4431 11.7156V3.75828C21.4428 1.95539 19.9796 0.488281 18.1812 0.488281H4.18177C2.38337 0.488281 0.919922 1.95539 0.919922 3.75828V20.5992C0.919922 22.4026 2.38337 23.8695 4.18177 23.8695Z" fill="black" fill-opacity="0.87"/>
<path fill-rule="evenodd" clip-rule="evenodd" d="M13.5192 19.8973C13.5192 16.16 16.5526 13.119 20.2805 13.119C24.0091 13.119 27.0425 16.16 27.0425 19.8973C27.0425 23.6352 24.0091 26.6763 20.2805 26.6763C16.5526 26.6763 13.5192 23.6352 13.5192 19.8973ZM14.4433 19.8973C14.4433 23.1243 17.0617 25.7498 20.2805 25.7498C23.4997 25.7498 26.1183 23.1243 26.1183 19.8973C26.1183 16.6704 23.4997 14.0455 20.2805 14.0455C17.0617 14.0455 14.4433 16.6701 14.4433 19.8973Z" fill="black" fill-opacity="0.87"/>
<path d="M16.3192 6.1021H6.0438C5.78838 6.1021 5.58173 6.30928 5.58173 6.56534C5.58173 6.82082 5.78838 7.02829 6.0438 7.02829H16.3189C16.5743 7.02829 16.781 6.82082 16.781 6.56534C16.781 6.30928 16.5746 6.1021 16.3192 6.1021Z" fill="black" fill-opacity="0.87"/>
<path d="M16.781 11.4773C16.781 11.2213 16.5743 11.0138 16.3189 11.0138H6.0438C5.78838 11.0138 5.58173 11.2213 5.58173 11.4773C5.58173 11.7328 5.78838 11.9403 6.0438 11.9403H16.3189C16.5746 11.94 16.781 11.7328 16.781 11.4773Z" fill="black" fill-opacity="0.87"/>
<path d="M6.04381 15.9261C5.78838 15.9261 5.58173 16.1333 5.58173 16.3893C5.58173 16.6454 5.78838 16.8526 6.04381 16.8526H12.1193C12.3748 16.8526 12.5814 16.6454 12.5814 16.3893C12.5814 16.1333 12.3748 15.9261 12.1193 15.9261H6.04381Z" fill="black" fill-opacity="0.87"/>
<path d="M20.6076 16.7629C20.605 16.7609 20.6024 16.7591 20.5998 16.7568C20.5806 16.7385 20.5597 16.7207 20.5374 16.7053C20.5249 16.6972 20.5116 16.6913 20.4985 16.6847C20.4849 16.6771 20.4718 16.6687 20.4576 16.6631C20.4416 16.6567 20.4254 16.6529 20.4088 16.6477C20.3963 16.6439 20.3844 16.6393 20.3711 16.6364C20.3116 16.6247 20.2498 16.6247 20.1903 16.6364C20.1769 16.6393 20.165 16.6439 20.1525 16.6477C20.136 16.6529 20.1197 16.6564 20.1038 16.6631C20.0892 16.6689 20.0762 16.6771 20.0628 16.6847C20.0498 16.6913 20.0361 16.6972 20.0239 16.7053C20.0016 16.7207 19.9807 16.7382 19.9612 16.7568C19.9586 16.7591 19.956 16.7609 19.9537 16.7629L17.154 19.5697C16.9734 19.7504 16.9734 20.044 17.154 20.225C17.3342 20.4057 17.6271 20.4057 17.8073 20.225L19.8182 18.2085V22.7041C19.8182 22.9599 20.0251 23.1676 20.2802 23.1676C20.5354 23.1676 20.7429 22.9599 20.7429 22.7041V18.2085L22.7537 20.225C22.8443 20.3155 22.9624 20.3612 23.0803 20.3612C23.1984 20.3612 23.3168 20.3155 23.4071 20.225C23.5876 20.044 23.5876 19.7504 23.4071 19.5697L20.6076 16.7629Z" fill="black" fill-opacity="0.87"/>
</svg>
