<svg width="18" height="27" viewBox="0 0 18 27" fill="none" xmlns="http://www.w3.org/2000/svg">
<path d="M5.28613 8.6985C5.02935 8.6985 4.82106 8.90567 4.82106 9.16173V16.1085C4.82106 18.6514 6.53671 20.3612 9.09019 20.3612C11.6433 20.3612 13.3593 18.6514 13.3593 16.1085V6.95118C13.3593 3.02502 10.8126 0.488281 6.87119 0.488281C2.92956 0.488281 0.382812 3.02502 0.382812 6.95118V18.0028C0.382812 23.2718 3.80069 26.6762 9.09019 26.6762C14.3797 26.6762 17.7979 23.2718 17.7979 18.0028V9.16173C17.7979 8.90567 17.5896 8.6985 17.3328 8.6985C17.076 8.6985 16.8674 8.90567 16.8674 9.16173V18.0031C16.8674 22.7091 13.815 25.7501 9.09019 25.7501C4.36563 25.7501 1.31294 22.7091 1.31294 18.0031V6.95118C1.31294 2.86906 4.18394 1.41475 6.87119 1.41475C9.55845 1.41475 12.4295 2.86906 12.4295 6.95118V16.1085C12.4295 18.5609 10.7045 19.4344 9.09019 19.4344C7.4759 19.4344 5.7512 18.5609 5.7512 16.1085V9.16173C5.7512 8.90567 5.54263 8.6985 5.28613 8.6985Z" fill="black" fill-opacity="0.87"/>
</svg>
