<svg width="27" height="28" viewBox="0 0 27 28" fill="none" xmlns="http://www.w3.org/2000/svg">
<path d="M12.8254 23.2785H4.15224C2.85792 23.2785 1.80463 22.2312 1.80463 20.9447V4.17781C1.80463 2.89094 2.85792 1.84425 4.15224 1.84425H18.2093C19.5036 1.84425 20.5567 2.89123 20.5567 4.17781V12.1003C20.5567 12.3547 20.7642 12.5609 21.0206 12.5609C21.2771 12.5609 21.4846 12.3547 21.4846 12.1003V4.17781C21.4843 2.3828 20.0151 0.922119 18.2093 0.922119H4.15224C2.34643 0.922119 0.876953 2.3828 0.876953 4.17781V20.9447C0.876953 22.74 2.34643 24.2003 4.15224 24.2003H12.8251C13.0816 24.2003 13.2888 23.9944 13.2888 23.7391C13.2888 23.4848 13.0819 23.2785 12.8254 23.2785Z" fill="black" fill-opacity="0.87"/>
<path fill-rule="evenodd" clip-rule="evenodd" d="M13.3577 20.2717C13.3577 16.5018 16.4174 13.4341 20.1781 13.4341C23.9394 13.4341 26.9994 16.5015 26.9994 20.2717C26.9994 24.0424 23.9394 27.1101 20.1781 27.1101C16.4174 27.1101 13.3577 24.0424 13.3577 20.2717ZM14.2899 20.2717C14.2899 23.5269 16.931 26.1755 20.1781 26.1755C23.4255 26.1755 26.0671 23.5266 26.0671 20.2717C26.0671 17.0167 23.4255 14.3687 20.1781 14.3687C16.9312 14.3687 14.2899 17.0164 14.2899 20.2717Z" fill="black" fill-opacity="0.87"/>
<path d="M16.3741 11.3973H5.98771C5.72953 11.3973 5.52094 11.5926 5.52094 11.834C5.52094 12.0746 5.72953 12.2702 5.98771 12.2702H16.3741C16.632 12.2702 16.8406 12.0746 16.8406 11.834C16.8406 11.5926 16.632 11.3973 16.3741 11.3973Z" fill="black" fill-opacity="0.87"/>
<path d="M16.8406 6.88715C16.8406 6.64572 16.6317 6.45065 16.3739 6.45065H5.98771C5.72953 6.45065 5.52094 6.64572 5.52094 6.88715C5.52094 7.12803 5.72953 7.32364 5.98771 7.32364H16.3741C16.632 7.32364 16.8406 7.12803 16.8406 6.88715Z" fill="black" fill-opacity="0.87"/>
<path d="M5.98054 16.9259C5.72633 16.9259 5.52094 17.1208 5.52094 17.3623C5.52094 17.6039 5.72633 17.7988 5.98054 17.7988H12.0273C12.2815 17.7988 12.4869 17.6039 12.4869 17.3623C12.4869 17.1208 12.2815 16.9259 12.0273 16.9259H5.98054Z" fill="black" fill-opacity="0.87"/>
<path d="M22.7729 19.673C22.6571 19.673 22.5417 19.7174 22.4531 19.8063L20.4852 21.7803V17.3794C20.4852 17.129 20.2824 16.9259 20.0327 16.9259C19.783 16.9259 19.5802 17.129 19.5802 17.3794V21.7803L17.6126 19.8063C17.4359 19.6294 17.1498 19.6294 16.9731 19.8063C16.7965 19.9835 16.7965 20.2706 16.9731 20.4478L19.7131 23.1955C19.7154 23.1972 19.718 23.1989 19.7205 23.2009C19.739 23.2189 19.7594 23.2365 19.7813 23.2513C19.7932 23.259 19.8066 23.265 19.8194 23.2713C19.833 23.2787 19.8455 23.2872 19.8594 23.2921C19.875 23.2986 19.8909 23.3023 19.9071 23.3078C19.9199 23.3117 19.9316 23.316 19.9446 23.3188C20.0034 23.3302 20.0634 23.3302 20.1222 23.3188C20.1349 23.316 20.1466 23.3117 20.1588 23.3078C20.1753 23.3023 20.1909 23.2989 20.2068 23.2921C20.2205 23.2869 20.2332 23.2787 20.2469 23.2713C20.2596 23.265 20.2727 23.259 20.2849 23.2513C20.3068 23.236 20.327 23.2191 20.346 23.2009C20.3485 23.1989 20.3514 23.1972 20.3537 23.1955L23.0934 20.4478C23.2703 20.2706 23.2703 19.9835 23.0934 19.8063C23.0042 19.7177 22.8886 19.673 22.7729 19.673Z" fill="black" fill-opacity="0.87"/>
</svg>
