<svg width="23" height="27" viewBox="0 0 23 27" fill="none" xmlns="http://www.w3.org/2000/svg">
<path fill-rule="evenodd" clip-rule="evenodd" d="M0.845703 21.3749V20.3678C0.845703 19.7629 1.20483 19.0358 1.559 18.6304C1.92804 18.2088 2.45187 17.4936 2.85268 16.4818C3.2497 15.4797 3.45025 14.379 3.45025 13.2107C3.45025 9.81469 5.54206 6.76321 8.68589 5.52306C8.42556 5.03102 8.28886 4.48369 8.28886 3.92327C8.28886 2.0293 9.83234 0.488281 11.73 0.488281C13.6277 0.488281 15.1712 2.0293 15.1712 3.92298C15.1712 4.4834 15.0347 5.03073 14.7741 5.52277C17.9182 6.76292 20.0098 9.81439 20.0098 13.2104C20.0098 14.3784 20.2106 15.4794 20.6073 16.4816C21.0081 17.4933 21.5317 18.2085 21.901 18.6301C22.2555 19.0358 22.6143 19.7629 22.6143 20.3678V21.3749C22.6143 22.2496 21.9299 22.9608 21.0877 22.9608H16.227C16.2246 22.9631 16.2051 22.9834 16.201 23.0032C15.7842 25.1311 13.9037 26.6762 11.73 26.6762C9.55628 26.6762 7.67582 25.1311 7.25871 23.0029C7.25491 22.9832 7.23508 22.9631 7.22577 22.9599L2.41893 22.9608C1.55142 22.9608 0.845703 22.2496 0.845703 21.3749ZM2.2586 19.2389C1.99596 19.5394 1.77384 20.0568 1.77384 20.3678V21.3749C1.77384 21.7389 2.0633 22.0346 2.41922 22.0346H7.23305C7.67905 22.0346 8.08159 22.375 8.16962 22.8263C8.50164 24.5201 9.99909 25.7498 11.73 25.7498C13.4609 25.7498 14.9584 24.5201 15.2904 22.8257C15.3784 22.375 15.781 22.0346 16.227 22.0346H21.0869C21.4171 22.0346 21.6856 21.7389 21.6856 21.3749V20.3678C21.6856 20.0568 21.4635 19.5394 21.2008 19.2389C20.7843 18.7625 20.1925 17.9562 19.7436 16.822C19.304 15.7108 19.0807 14.4959 19.0807 13.2104C19.0807 10.1036 17.1102 7.32217 14.1769 6.28862C13.974 6.21762 13.8201 6.06719 13.7554 5.87602C13.6889 5.6831 13.7201 5.46719 13.8393 5.2833C14.1031 4.8768 14.2427 4.40658 14.2427 3.92298C14.2427 2.53938 13.1155 1.41446 11.7297 1.41446C10.3439 1.41446 9.21669 2.53938 9.21669 3.92298C9.21669 4.40658 9.35633 4.87767 9.62014 5.2833C9.73937 5.46719 9.77055 5.6831 9.70408 5.87602C9.63967 6.06719 9.48546 6.21762 9.28229 6.28921C6.34951 7.32217 4.37869 10.1036 4.37869 13.2104C4.37869 14.4959 4.15569 15.7108 3.71581 16.822C3.2669 17.9565 2.67516 18.7625 2.2586 19.2389Z" fill="black" fill-opacity="0.87"/>
</svg>
