<svg width="27" height="27" viewBox="0 0 27 27" fill="none" xmlns="http://www.w3.org/2000/svg">
<path d="M3.73058 23.8695H12.3678C12.6233 23.8695 12.8302 23.6623 12.8302 23.4062C12.8302 23.1502 12.6233 22.943 12.3678 22.943H3.73058C2.44187 22.943 1.39262 21.8917 1.39262 20.5992V3.75828C1.39262 2.46576 2.44158 1.41417 3.73058 1.41417H17.7299C19.0189 1.41417 20.0676 2.46547 20.0676 3.75828V11.7156C20.0676 11.9711 20.2743 12.1786 20.5297 12.1786C20.7851 12.1786 20.9918 11.9711 20.9918 11.7156V3.75828C20.9915 1.95539 19.5283 0.488281 17.7299 0.488281H3.73058C1.93219 0.488281 0.46875 1.95539 0.46875 3.75828V20.5992C0.46875 22.4026 1.93219 23.8695 3.73058 23.8695Z" fill="black" fill-opacity="0.87"/>
<path fill-rule="evenodd" clip-rule="evenodd" d="M13.0679 19.8973C13.0679 16.16 16.1013 13.119 19.8293 13.119C23.5578 13.119 26.5912 16.16 26.5912 19.8973C26.5912 23.6352 23.5578 26.6763 19.8293 26.6763C16.1013 26.6763 13.0679 23.6352 13.0679 19.8973ZM13.9921 19.8973C13.9921 23.1243 16.6104 25.7498 19.8293 25.7498C23.0484 25.7498 25.6671 23.1243 25.6671 19.8973C25.6671 16.6704 23.0484 14.0455 19.8293 14.0455C16.6104 14.0455 13.9921 16.6701 13.9921 19.8973Z" fill="black" fill-opacity="0.87"/>
<path d="M22.6293 19.4341H17.0298C16.7747 19.4341 16.5677 19.6416 16.5677 19.8973C16.5677 20.1531 16.7747 20.3612 17.0298 20.3612H22.6293C22.8844 20.3612 23.0916 20.1531 23.0916 19.8973C23.0916 19.6416 22.8844 19.4341 22.6293 19.4341Z" fill="black" fill-opacity="0.87"/>
<path d="M15.8679 6.1021H5.59252C5.33711 6.1021 5.13016 6.30928 5.13016 6.56534C5.13016 6.82082 5.33711 7.02829 5.59252 7.02829H15.8676C16.1231 7.02829 16.3297 6.82082 16.3297 6.56534C16.3297 6.30928 16.1233 6.1021 15.8679 6.1021Z" fill="black" fill-opacity="0.87"/>
<path d="M16.3297 11.4773C16.3297 11.2213 16.1231 11.0138 15.8676 11.0138H5.59252C5.33711 11.0138 5.13016 11.2213 5.13016 11.4773C5.13016 11.7328 5.33711 11.9403 5.59252 11.9403H15.8676C16.1233 11.94 16.3297 11.7328 16.3297 11.4773Z" fill="black" fill-opacity="0.87"/>
<path d="M5.59252 15.9261C5.33711 15.9261 5.13016 16.1333 5.13016 16.3893C5.13016 16.6454 5.33711 16.8526 5.59252 16.8526H11.668C11.9234 16.8526 12.1301 16.6454 12.1301 16.3893C12.1301 16.1333 11.9234 15.9261 11.668 15.9261H5.59252Z" fill="black" fill-opacity="0.87"/>
</svg>
