<svg width="27" height="21" viewBox="0 0 27 21" fill="none" xmlns="http://www.w3.org/2000/svg">
<path d="M25.7363 0.281738H0.571685C0.306977 0.281738 0.0927734 0.496482 0.0927734 0.761857C0.0927734 1.02723 0.306977 1.24168 0.571685 1.24168H25.7363C26.001 1.24168 26.2152 1.02694 26.2152 0.761857C26.2152 0.496773 26.001 0.281738 25.7363 0.281738Z" fill="black" fill-opacity="0.87"/>
<path d="M22.471 7.78868C22.7357 7.78868 22.95 7.57394 22.95 7.30885C22.95 7.04377 22.7357 6.82874 22.471 6.82874H3.83725C3.57254 6.82874 3.35834 7.04377 3.35834 7.30885C3.35834 7.57394 3.57254 7.78868 3.83725 7.78868H22.471Z" fill="black" fill-opacity="0.87"/>
<path d="M25.7363 13.3757H0.571685C0.306977 13.3757 0.0927734 13.5905 0.0927734 13.8559C0.0927734 14.1209 0.306977 14.336 0.571685 14.336H25.7363C26.001 14.336 26.2152 14.1209 26.2152 13.8559C26.2152 13.5905 26.001 13.3757 25.7363 13.3757Z" fill="black" fill-opacity="0.87"/>
<path d="M22.471 20.8829C22.7357 20.8829 22.95 20.6679 22.95 20.4025C22.95 20.1372 22.7357 19.9224 22.471 19.9224H3.83725C3.57254 19.9224 3.35834 20.1372 3.35834 20.4025C3.35834 20.6679 3.57254 20.8829 3.83725 20.8829H22.471Z" fill="black" fill-opacity="0.87"/>
</svg>
