<svg width="28" height="20" viewBox="0 0 28 20" fill="none" xmlns="http://www.w3.org/2000/svg">
<path fill-rule="evenodd" clip-rule="evenodd" d="M23.606 8.27221C23.7564 8.33474 24.1035 8.48494 24.3778 8.65019C26.0804 9.67408 27.0968 11.4672 27.0971 13.4467C27.0971 16.5341 24.5775 19.0461 21.4805 19.0461H6.59089C3.49424 19.0461 0.974609 16.5341 0.974609 13.4467C0.974609 11.6849 1.82213 10.0052 3.24202 8.95202C3.48727 8.76998 3.79203 8.59865 3.91946 8.52891C3.89333 8.38886 3.83789 8.05197 3.83789 7.73652C3.83789 5.27863 5.84349 3.27855 8.30885 3.27855C8.849 3.27855 9.37784 3.37436 9.88026 3.56477C10.1243 3.65681 10.3789 3.79543 10.544 3.89122C10.6381 3.73206 10.7829 3.4959 10.9275 3.2991C12.2522 1.49843 14.3773 0.423584 16.6128 0.423584C20.4989 0.423584 23.6609 3.57577 23.6609 7.45089C23.6609 7.76401 23.624 8.11796 23.606 8.27221ZM6.5906 18.1247H21.4802C24.0678 18.1247 26.1727 16.0259 26.1727 13.4465C26.1727 11.7925 25.3231 10.294 23.9003 9.4385C23.6141 9.26633 23.1959 9.10021 23.1921 9.09818C22.8531 8.96534 22.6328 8.59228 22.6798 8.23083C22.6804 8.22649 22.7364 7.79585 22.7364 7.4506C22.7364 4.08309 19.9896 1.34447 16.6125 1.34447C14.6702 1.34447 12.8233 2.27866 11.6719 3.84347C11.4694 4.11926 11.2505 4.51403 11.2482 4.51778C11.1216 4.74786 10.8796 4.89169 10.6175 4.89169C10.4776 4.89169 10.3412 4.85118 10.2224 4.77477C10.2192 4.77245 9.85849 4.54124 9.55257 4.42575C9.15522 4.27525 8.73639 4.19942 8.30856 4.19942C6.35259 4.19942 4.76147 5.78566 4.76147 7.73623C4.76147 8.04213 4.83607 8.40419 4.83665 8.40824C4.90947 8.75785 4.72548 9.14651 4.40824 9.31292C4.40475 9.31437 4.0463 9.50333 3.79319 9.69087C2.58867 10.584 1.89817 11.9531 1.89817 13.4467C1.89817 16.0259 4.00334 18.1247 6.5906 18.1247Z" fill="black" fill-opacity="0.87"/>
</svg>
