<svg width="27" height="22" viewBox="0 0 27 22" fill="none" xmlns="http://www.w3.org/2000/svg">
<path d="M26.3711 0.434326H1.20645C0.941743 0.434326 0.727539 0.649067 0.727539 0.914437C0.727539 1.17981 0.941743 1.39426 1.20645 1.39426H26.3711C26.6358 1.39426 26.85 1.17952 26.85 0.914437C26.85 0.649358 26.6358 0.434326 26.3711 0.434326Z" fill="black" fill-opacity="0.87"/>
<path d="M1.20645 7.94125H19.8405C20.1052 7.94125 20.3194 7.72651 20.3194 7.46143C20.3194 7.19635 20.1052 6.98132 19.8405 6.98132H1.20645C0.941743 6.98132 0.727539 7.19606 0.727539 7.46143C0.727539 7.7268 0.941743 7.94125 1.20645 7.94125Z" fill="black" fill-opacity="0.87"/>
<path d="M26.3711 13.5283H1.20645C0.941743 13.5283 0.727539 13.7431 0.727539 14.0084C0.727539 14.2735 0.941743 14.4885 1.20645 14.4885H26.3711C26.6358 14.4885 26.85 14.2735 26.85 14.0084C26.85 13.7431 26.6358 13.5283 26.3711 13.5283Z" fill="black" fill-opacity="0.87"/>
<path d="M19.8405 21.0355C20.1052 21.0355 20.3194 20.8205 20.3194 20.5551C20.3194 20.2898 20.1052 20.075 19.8405 20.075H1.20645C0.941743 20.075 0.727539 20.2898 0.727539 20.5551C0.727539 20.8205 0.941743 21.0355 1.20645 21.0355H19.8405Z" fill="black" fill-opacity="0.87"/>
</svg>
