<svg width="27" height="24" viewBox="0 0 27 24" fill="none" xmlns="http://www.w3.org/2000/svg">
<path d="M23.7224 8.31107C23.449 8.1455 23.1025 7.99478 22.9512 7.93163C22.969 7.77596 23.0058 7.4201 23.0058 7.10526C23.0058 3.20907 19.8438 0.0400391 15.9577 0.0400391C13.7222 0.0400391 11.5967 1.12131 10.272 2.93148C10.1274 3.12964 9.98261 3.36678 9.88915 3.52711C9.724 3.43051 9.46974 3.29084 9.22593 3.19831C8.72409 3.00772 8.19555 2.91082 7.65365 2.91082C5.18856 2.91082 3.18294 4.92118 3.18294 7.39216C3.18294 7.7102 3.23867 8.04919 3.26421 8.19002C3.13708 8.25927 2.83232 8.43211 2.58735 8.61543C1.16686 9.67342 0.319336 11.3631 0.319336 13.1343C0.319336 16.239 2.83899 18.7647 5.93595 18.7647H8.01878C8.2742 18.7647 8.48115 18.5575 8.48115 18.3015C8.48115 18.0451 8.2742 17.838 8.01878 17.838H5.93595C3.34838 17.838 1.24349 15.7281 1.24349 13.1343C1.24349 11.6323 1.93428 10.2563 3.13824 9.35829C3.39163 9.16974 3.75037 8.97944 3.75241 8.97799C4.07023 8.81213 4.25454 8.42077 4.18169 8.0681C4.18111 8.06432 4.1068 7.70089 4.1068 7.39216C4.1068 5.43214 5.69795 3.83729 7.65365 3.83729C8.08293 3.83729 8.50147 3.91353 8.89795 4.06455C9.20416 4.18065 9.56494 4.41314 9.56814 4.41546C9.73677 4.52487 9.94372 4.56008 10.1364 4.51149C10.33 4.46318 10.4964 4.3337 10.5942 4.15679C10.5962 4.15271 10.8139 3.75727 11.0174 3.4791C12.1688 1.90579 14.0153 0.96622 15.9577 0.96622C19.3347 0.96622 22.0817 3.72003 22.0817 7.10526C22.0817 7.45239 22.0262 7.88624 22.0254 7.89002C21.9775 8.25462 22.198 8.62911 22.5368 8.76208C22.5408 8.76354 22.9591 8.93143 23.2456 9.10427C24.6684 9.9644 25.5179 11.4708 25.5179 13.134C25.5179 15.7278 23.413 17.8377 20.8255 17.8377H18.7426C18.4872 17.8377 18.2803 18.0448 18.2803 18.3012C18.2803 18.5573 18.4872 18.7644 18.7426 18.7644H20.8255C23.9224 18.7644 26.4421 16.2387 26.4421 13.134C26.4418 11.1437 25.4253 9.34055 23.7224 8.31107Z" fill="black" fill-opacity="0.87"/>
<path d="M13.3806 23.4297C13.6357 23.4297 13.8427 23.2219 13.8427 22.9664V10.7474L17.5007 14.4149C17.5912 14.5054 17.7094 14.5508 17.8272 14.5508C17.9453 14.5508 18.0638 14.5054 18.154 14.4149C18.3346 14.2339 18.3346 13.9406 18.154 13.7599L14.0043 9.60009C13.672 9.26605 13.0889 9.26605 12.7568 9.59951L8.60714 13.7599C8.42661 13.9406 8.42661 14.2339 8.60714 14.4149C8.78739 14.5959 9.08025 14.5959 9.26049 14.4149L12.9188 10.7474V22.9667C12.9185 23.2222 13.1255 23.4297 13.3806 23.4297Z" fill="black" fill-opacity="0.87"/>
</svg>
