<svg width="27" height="22" viewBox="0 0 27 22" fill="none" xmlns="http://www.w3.org/2000/svg">
<path d="M25.7471 0.434326H0.582428C0.31772 0.434326 0.103516 0.649067 0.103516 0.914437C0.103516 1.17981 0.31772 1.39426 0.582428 1.39426H25.7471C26.0118 1.39426 26.226 1.17952 26.226 0.914437C26.226 0.649358 26.0118 0.434326 25.7471 0.434326Z" fill="black" fill-opacity="0.87"/>
<path d="M25.7471 6.98132H7.11301C6.8483 6.98132 6.63409 7.19635 6.63409 7.46143C6.63409 7.72651 6.8483 7.94125 7.11301 7.94125H25.7471C26.0118 7.94125 26.226 7.72651 26.226 7.46143C26.226 7.19635 26.0118 6.98132 25.7471 6.98132Z" fill="black" fill-opacity="0.87"/>
<path d="M25.7471 13.5283H0.582428C0.31772 13.5283 0.103516 13.7431 0.103516 14.0084C0.103516 14.2735 0.31772 14.4885 0.582428 14.4885H25.7471C26.0118 14.4885 26.226 14.2735 26.226 14.0084C26.226 13.7431 26.0118 13.5283 25.7471 13.5283Z" fill="black" fill-opacity="0.87"/>
<path d="M25.7471 20.075H7.11301C6.8483 20.075 6.63409 20.2898 6.63409 20.5551C6.63409 20.8205 6.8483 21.0355 7.11301 21.0355H25.7471C26.0118 21.0355 26.226 20.8205 26.226 20.5551C26.226 20.2898 26.0118 20.075 25.7471 20.075Z" fill="black" fill-opacity="0.87"/>
</svg>
