<svg width="28" height="20" viewBox="0 0 28 20" fill="none" xmlns="http://www.w3.org/2000/svg">
<path fill-rule="evenodd" clip-rule="evenodd" d="M22.541 6.3533C23.2225 5.97418 23.7206 5.79773 24.1072 5.79773C25.7256 5.79773 27.0425 7.56405 27.0425 9.73515C27.0425 11.906 25.7256 13.6723 24.1069 13.6726C23.7211 13.6726 23.2237 13.4967 22.5407 13.1182C22.4362 13.0596 22.3393 13.0282 22.2664 13.0282C22.058 13.0282 22.0026 13.4379 22.0026 13.6801V18.0209C22.0026 18.5858 21.544 19.0461 20.9806 19.0461H17.9129C17.2367 19.0461 16.7299 18.8176 16.4861 18.4032C16.2719 18.0389 16.2922 17.5867 16.5435 17.131C16.9394 16.4138 16.9821 16.1063 16.9821 16.007C16.9821 14.9136 15.6078 13.9903 13.9812 13.9903C12.3546 13.9903 10.9803 14.9136 10.9803 16.007C10.9803 16.106 11.023 16.4132 11.4183 17.1304C11.6699 17.5867 11.6905 18.0383 11.4763 18.4026C11.2325 18.8176 10.7257 19.0461 10.0492 19.0461H6.98152C6.41814 19.0461 5.95954 18.5858 5.95954 18.0209V13.6798C5.95954 13.4376 5.90382 13.0279 5.69571 13.0279C5.62285 13.0279 5.52591 13.0596 5.422 13.1179C4.73846 13.4964 4.24039 13.6723 3.85494 13.6723C2.23679 13.6723 0.919922 11.906 0.919922 9.73515C0.919922 7.56405 2.23679 5.79773 3.85494 5.79744C4.24184 5.79744 4.73962 5.97389 5.422 6.3533C5.52533 6.41068 5.62256 6.44242 5.69484 6.44242C5.90382 6.44242 5.95954 6.03331 5.95954 5.79133V1.44885C5.95954 0.88366 6.41814 0.423584 6.98152 0.423584H10.0492C10.726 0.423584 11.2328 0.652166 11.4763 1.06682C11.6905 1.43109 11.6702 1.88272 11.4183 2.33901C11.023 3.05591 10.9803 3.36342 10.9803 3.46241C10.9803 4.55581 12.3546 5.47946 13.9812 5.47946C15.6081 5.47946 16.9821 4.55581 16.9821 3.46241C16.9821 3.36342 16.9391 3.05533 16.5435 2.3393C16.2922 1.88243 16.2722 1.4308 16.4861 1.06652C16.7299 0.652166 17.2367 0.423584 17.9129 0.423584H20.9809C21.5443 0.423584 22.0029 0.88366 22.0029 1.44885V5.79162C22.0029 6.12706 22.0789 6.29013 22.1239 6.3574C22.1718 6.42843 22.2142 6.44271 22.2673 6.44271C22.3401 6.44271 22.4374 6.41097 22.541 6.3533ZM22.9883 12.3069C23.7029 12.7026 24.0088 12.7454 24.1072 12.7454C25.1976 12.7454 26.1183 11.367 26.1183 9.73545C26.1183 8.10364 25.1974 6.72488 24.1069 6.72488C24.0085 6.72488 23.7023 6.76768 22.988 7.16457C22.3497 7.51834 21.7051 7.39313 21.3573 6.87482C21.1725 6.59938 21.0784 6.23481 21.0784 5.79133V1.44885C21.0784 1.39586 21.0337 1.35072 20.9806 1.35072H17.9129C17.553 1.35072 17.3365 1.44448 17.2816 1.53766C17.2416 1.6058 17.2677 1.738 17.3522 1.89058C17.7301 2.57458 17.906 3.07426 17.906 3.4627C17.906 5.08606 16.1453 6.4069 13.9812 6.4069C11.8171 6.4069 10.0564 5.08606 10.0564 3.4627C10.0564 3.07484 10.2323 2.57546 10.6099 1.89029C10.6941 1.73771 10.7205 1.60551 10.6805 1.53766C10.6259 1.44448 10.4097 1.35072 10.0495 1.35072H6.98181C6.92898 1.35072 6.88399 1.39586 6.88399 1.44885V5.79133C6.88399 6.95606 6.2437 7.36927 5.69542 7.36927C5.46234 7.36957 5.21999 7.30025 4.97501 7.16457C4.26042 6.76739 3.95391 6.72459 3.85523 6.72459C2.76505 6.72459 1.84408 8.10335 1.84408 9.73515C1.84408 11.3672 2.76534 12.7454 3.85523 12.7454C3.95362 12.7454 4.25955 12.7023 4.97501 12.3063C5.2197 12.1703 5.46264 12.101 5.696 12.101C6.2437 12.101 6.8837 12.5148 6.8837 13.6802V18.0212C6.8837 18.0745 6.9284 18.1193 6.98152 18.1193H10.0495C10.4094 18.1193 10.6259 18.0255 10.6805 17.9324C10.7205 17.8645 10.6944 17.7323 10.6099 17.5794C10.2323 16.8951 10.0564 16.3952 10.0564 16.0073C10.0564 14.3842 11.8171 13.0637 13.9812 13.0637C16.1453 13.0637 17.906 14.3842 17.906 16.0073C17.906 16.3958 17.7301 16.8954 17.3519 17.58C17.2677 17.732 17.2416 17.8645 17.2816 17.9324C17.3368 18.0258 17.553 18.1193 17.9129 18.1193H20.9809C21.034 18.1193 21.0787 18.0745 21.0787 18.0212V13.6802C21.0787 12.5148 21.719 12.101 22.267 12.101C22.5001 12.101 22.7427 12.1703 22.9883 12.3069Z" fill="black" fill-opacity="0.87"/>
</svg>
