<svg width="27" height="27" viewBox="0 0 27 27" fill="none" xmlns="http://www.w3.org/2000/svg">
<path fill-rule="evenodd" clip-rule="evenodd" d="M15.9778 8.8649C16.4715 8.8649 16.9351 9.05782 17.2837 9.40757L17.4018 9.52542C18.1222 10.2476 18.1222 11.4223 17.4027 12.1442L3.30039 26.2816C2.9518 26.6314 2.4877 26.8237 1.99457 26.8237C1.50114 26.8237 1.03762 26.6314 0.68874 26.2816L0.570029 26.1617C0.221731 25.8132 0.0292969 25.3482 0.0292969 24.8538C0.0292969 24.3591 0.221441 23.8944 0.570029 23.5444L14.6723 9.40699C15.0212 9.05782 15.4847 8.8649 15.9778 8.8649ZM2.64704 25.6266L16.7493 11.4889C17.1092 11.1281 17.1092 10.5415 16.7496 10.1804L16.6315 10.0626C16.4562 9.8871 16.2248 9.79108 15.9781 9.79108C15.7317 9.79108 15.5004 9.8871 15.3262 10.062L1.22396 24.1997C1.04923 24.3743 0.953156 24.6062 0.953156 24.8538C0.953156 25.1005 1.04923 25.3327 1.22367 25.507L1.34267 25.6272C1.69039 25.9758 2.29875 25.9764 2.64704 25.6266Z" fill="black" fill-opacity="0.87"/>
<path fill-rule="evenodd" clip-rule="evenodd" d="M25.3837 3.23914C25.7556 3.29326 26.0232 3.49084 26.1172 3.78123C26.2115 4.07192 26.1108 4.38967 25.8409 4.653L24.4314 6.03049C24.4339 6.02834 24.4329 6.03573 24.4317 6.04449C24.4309 6.04993 24.4301 6.05589 24.43 6.06046L24.7609 7.98732C24.8262 8.36966 24.7077 8.60739 24.5966 8.73949C24.4599 8.90157 24.2634 8.9909 24.0419 8.9909C23.8869 8.9909 23.7252 8.94725 23.5615 8.86054L21.8189 7.94251L21.7898 7.95007L20.0646 8.86054C19.6667 9.07063 19.2612 9.01534 19.0293 8.73949C18.9181 8.60739 18.7997 8.36966 18.865 7.98732L19.1976 6.04242C19.1952 6.04836 19.1918 6.03966 19.1881 6.03037C19.1859 6.02508 19.1838 6.01958 19.1816 6.01652L17.7844 4.65271C17.5147 4.38967 17.4143 4.07192 17.5086 3.78123C17.6027 3.49084 17.8703 3.29356 18.2427 3.23914L20.1909 2.95486C20.186 2.95486 20.1915 2.94982 20.198 2.94384C20.2021 2.94007 20.2066 2.93594 20.2091 2.93245L21.0715 1.17844C21.2381 0.840904 21.508 0.64624 21.8134 0.64624C22.1181 0.64624 22.3886 0.840904 22.5547 1.1796L23.4263 2.94846C23.4242 2.94382 23.4318 2.94805 23.4401 2.95271C23.4448 2.95535 23.4497 2.95814 23.4533 2.95951L25.3837 3.23914ZM23.518 6.19809C23.4684 5.91206 23.5795 5.56987 23.7871 5.36735L25.0558 4.12721L23.3023 3.87144C23.015 3.82983 22.725 3.618 22.597 3.35699L21.8131 1.76505L21.0285 3.35844C20.9011 3.61829 20.6108 3.82983 20.3238 3.87144L18.5704 4.12721L19.8394 5.36735C20.0466 5.56987 20.1575 5.91206 20.1081 6.19809L19.8086 7.9492L21.3774 7.12195C21.5365 7.03873 21.7019 7.02069 21.8134 7.02069C21.9242 7.02069 22.09 7.03873 22.2484 7.12195L23.8172 7.94862L23.518 6.19809Z" fill="black" fill-opacity="0.87"/>
<path fill-rule="evenodd" clip-rule="evenodd" d="M12.5072 3.13353C12.8528 3.18416 13.1016 3.37067 13.1901 3.64419C13.2786 3.91771 13.1863 4.2148 12.9367 4.45893L11.7496 5.61935L12.0303 7.25784C12.0906 7.61109 11.9789 7.83281 11.8744 7.95677C11.7447 8.1107 11.5583 8.19566 11.3482 8.19566C11.2048 8.19566 11.0559 8.15551 10.9059 8.07665L9.43808 7.30265L7.97028 8.07607C7.59993 8.27132 7.2197 8.21603 7.00115 7.95677C6.89666 7.83311 6.7852 7.61109 6.84557 7.25842L7.12624 5.61993L5.93826 4.45893C5.68923 4.2148 5.59664 3.91742 5.68545 3.64419C5.77427 3.37009 6.02272 3.18416 6.36754 3.13353L8.00918 2.89522L8.74264 1.40483C8.89763 1.09115 9.15073 0.911621 9.43808 0.911621C9.72513 0.911621 9.97852 1.09115 10.1329 1.40483L10.8667 2.89522L12.5072 3.13353ZM10.8342 5.7468C10.7883 5.48172 10.8911 5.16484 11.0835 4.97687L12.0756 4.00704L10.7047 3.80743C10.438 3.76786 10.1698 3.57203 10.0511 3.33139L9.43808 2.08542L8.82478 3.33139C8.70578 3.57203 8.43758 3.76786 8.1723 3.80743L6.80001 4.00704L7.79207 4.97687C7.98451 5.16455 8.08696 5.48172 8.04139 5.74767L7.80745 7.11585L9.03318 6.46929C9.18179 6.3916 9.33533 6.37502 9.43808 6.37502C9.54053 6.37502 9.69378 6.39131 9.8421 6.46929L11.0687 7.11585L10.8342 5.7468Z" fill="black" fill-opacity="0.87"/>
<path fill-rule="evenodd" clip-rule="evenodd" d="M23.5188 15.908L25.1593 16.1469C25.505 16.1975 25.7534 16.384 25.8422 16.6576C25.9308 16.9317 25.8382 17.2282 25.5886 17.4723L24.4015 18.6321L24.6813 20.2712C24.7419 20.6239 24.6302 20.8456 24.526 20.9696C24.3963 21.1241 24.2096 21.209 23.9998 21.209C23.8564 21.209 23.7075 21.1689 23.5574 21.09L22.09 20.316L20.6222 21.0894C20.2524 21.2841 19.8716 21.23 19.6531 20.9696C19.5489 20.8459 19.4371 20.6245 19.4975 20.2712L19.7782 18.6327L18.5902 17.4717C18.3409 17.2282 18.2483 16.9308 18.3371 16.6576C18.4262 16.3835 18.6747 16.1975 19.0195 16.1469L20.6608 15.908L21.3948 14.4176C21.549 14.1042 21.8023 13.9244 22.0897 13.9244C22.3767 13.9244 22.6301 14.1042 22.7848 14.417L23.5188 15.908ZM23.4863 18.7602C23.4402 18.4951 23.5429 18.1782 23.7354 17.9902L24.7277 17.0204L23.3569 16.8208C23.0893 16.7806 22.8208 16.5848 22.7027 16.3436L22.0903 15.0988L21.477 16.3442C21.358 16.5854 21.0895 16.7812 20.8239 16.8202L19.4522 17.0204L20.444 17.9897C20.6364 18.1773 20.7392 18.4951 20.6936 18.7602L20.4594 20.1292L21.6857 19.4827C21.8343 19.4044 21.9875 19.3884 22.0903 19.3884C22.1924 19.3884 22.3457 19.4041 22.4931 19.4815L23.7203 20.1286L23.4863 18.7602Z" fill="black" fill-opacity="0.87"/>
</svg>
