<svg width="27" height="27" viewBox="0 0 27 27" fill="none" xmlns="http://www.w3.org/2000/svg">
<path fill-rule="evenodd" clip-rule="evenodd" d="M0.523438 13.7346C0.523438 6.51483 6.38299 0.640869 13.5847 0.640869C20.7866 0.640869 26.6459 6.51483 26.6459 13.7346C26.6459 20.9546 20.7863 26.8288 13.5847 26.8288C6.38299 26.8288 0.523438 20.9549 0.523438 13.7346ZM1.44759 13.7346C1.44759 7.02521 6.89209 1.56676 13.5847 1.56676C16.7652 1.56676 19.6622 2.80138 21.8286 4.81494L4.68764 21.9992C2.67854 19.8271 1.44759 16.9234 1.44759 13.7346ZM5.3407 22.6542C7.50713 24.6678 10.4041 25.9024 13.5847 25.9024C20.2772 25.9024 25.7217 20.4439 25.722 13.7343C25.722 10.5457 24.4908 7.64179 22.482 5.46964L5.3407 22.6542Z" fill="black" fill-opacity="0.87"/>
</svg>
