<svg width="20" height="27" viewBox="0 0 20 27" fill="none" xmlns="http://www.w3.org/2000/svg">
<path fill-rule="evenodd" clip-rule="evenodd" d="M0.542825 26.5197C0.670998 26.6099 0.821397 26.6553 0.98161 26.6553C1.11729 26.6553 1.25961 26.6227 1.40135 26.5566L1.20389 26.1266L1.4025 26.556L5.10966 24.8169C5.73898 24.5224 6.54324 23.8424 6.94161 23.2695L19.0455 5.84511C20.1182 4.30089 19.7446 2.16539 18.2129 1.08412C16.6806 0.00342339 14.5618 0.379659 13.4887 1.92388L1.3846 19.3485C0.986809 19.9212 0.627985 20.916 0.568519 21.6126L0.215467 25.7189L0.699576 25.7614L0.215179 25.7201C0.186311 26.0608 0.305823 26.3521 0.542825 26.5197ZM17.6858 1.84299C16.5683 1.05473 15.0234 1.3297 14.2416 2.45521L12.7824 4.55637L16.8328 7.41493L18.2923 5.31465C19.0743 4.18857 18.8021 2.63125 17.6858 1.84299ZM12.2549 5.31465L16.3056 8.17322L6.91273 21.6956L2.86204 18.8364L12.2549 5.31465ZM2.13747 19.8799C1.83493 20.3155 1.52923 21.1622 1.48391 21.6924L1.14356 25.6561L4.72197 23.9774C5.20059 23.7528 5.88561 23.174 6.18843 22.7384L6.38589 22.4541L2.3355 19.5953L2.13747 19.8799Z" fill="black" fill-opacity="0.87"/>
</svg>
