<svg width="25" height="27" viewBox="0 0 25 27" fill="none" xmlns="http://www.w3.org/2000/svg">
<path fill-rule="evenodd" clip-rule="evenodd" d="M3.92491 2.04425H22.2859C23.3079 2.04425 24.1396 2.8814 24.1399 3.91088V13.7349C24.1399 14.7638 23.3082 15.6015 22.2862 15.6015H3.93097V26.0848C3.93097 26.4951 3.59923 26.8288 3.19178 26.8288H1.65881C1.25137 26.8288 0.919922 26.4948 0.919922 26.0848V2.15686C0.919922 1.32059 1.59524 0.640869 2.42515 0.640869C3.2175 0.640869 3.86738 1.26094 3.92491 2.04425ZM1.83999 25.9024V2.15686C1.83999 1.83184 2.10238 1.56734 2.42515 1.56734C2.74793 1.56734 3.01031 1.83184 3.01031 2.15686V25.9024H1.83999ZM22.2859 14.675C22.8008 14.675 23.2195 14.2534 23.2195 13.7349V3.91088C23.2195 3.39235 22.8008 2.97073 22.2859 2.97073H3.93068V14.675H22.2859Z" fill="black" fill-opacity="0.87"/>
</svg>
