<svg width="27" height="24" viewBox="0 0 27 24" fill="none" xmlns="http://www.w3.org/2000/svg">
<path d="M21.8373 8.49271C22.0227 8.67759 22.3234 8.67759 22.5086 8.49271L25.9083 5.1039C26.3175 4.69592 26.3175 4.03159 25.9083 3.6239L22.5083 0.234494C22.3231 0.0496022 22.0224 0.0496022 21.837 0.234494C21.6515 0.419386 21.6515 0.719148 21.837 0.90375L24.8326 3.89037H21.8373C17.6664 3.89037 15.0164 7.3038 12.5183 10.7768C10.0195 7.3038 7.36987 3.89037 3.19928 3.89037H0.567328C0.304944 3.89037 0.0927734 4.10189 0.0927734 4.36345C0.0927734 4.62503 0.304944 4.83684 0.567328 4.83684H3.19899C6.99748 4.83684 9.41726 8.07864 11.9349 11.5893C9.41726 15.0999 6.99748 18.3417 3.19899 18.3417H0.567328C0.304944 18.3417 0.0927734 18.5532 0.0927734 18.8151C0.0927734 19.077 0.304944 19.2885 0.567328 19.2885H3.19899C7.36987 19.2885 10.0195 15.8756 12.518 12.4026C15.0161 15.8756 17.6661 19.2885 21.837 19.2885H24.8335L21.8373 22.2751C21.6518 22.4597 21.6518 22.7595 21.8373 22.9444C22.0227 23.1293 22.3234 23.1293 22.5086 22.9444L25.9083 19.5555C26.1059 19.3582 26.2151 19.0952 26.2151 18.8151C26.2151 18.535 26.1059 18.2726 25.9083 18.0753L22.5083 14.6859C22.3231 14.501 22.0224 14.501 21.837 14.6859C21.6515 14.8708 21.6515 15.1702 21.837 15.3551L24.8326 18.3417H21.8373C18.0388 18.3417 15.619 15.0999 13.1014 11.5893C15.619 8.07864 18.0388 4.83684 21.8373 4.83684H24.8335L21.8373 7.82346C21.6518 8.00834 21.6518 8.30782 21.8373 8.49271Z" fill="black" fill-opacity="0.87"/>
</svg>
