<svg width="26" height="27" viewBox="0 0 26 27" fill="none" xmlns="http://www.w3.org/2000/svg">
<path fill-rule="evenodd" clip-rule="evenodd" d="M16.978 15.8726V21.78C16.978 22.3736 16.6046 23.067 16.1098 23.3918L11.075 26.6949C10.7852 26.8849 10.4977 26.9815 10.2194 26.9815C9.66004 26.9815 9.09515 26.5593 9.09515 25.6166V15.8729C9.09515 15.4676 8.88487 14.828 8.64422 14.5033L0.854166 3.976C0.263831 3.17843 0.111403 2.39337 0.424937 1.76632C0.737893 1.13897 1.45463 0.793579 2.44295 0.793579H23.6302C24.6186 0.793579 25.3353 1.13897 25.6482 1.76603C25.9618 2.39337 25.8094 3.17814 25.219 3.97571L17.429 14.503C17.1883 14.8277 16.978 15.4673 16.978 15.8726ZM15.6065 22.6163C15.8379 22.4644 16.0568 22.0573 16.0568 21.78H16.0571V15.8726C16.0571 15.2735 16.3354 14.4294 16.6903 13.9495L24.4809 3.42285C24.8468 2.92761 24.9726 2.47543 24.8259 2.18212C24.6793 1.88824 24.2437 1.71976 23.6305 1.71976H2.44324C1.83006 1.71976 1.39446 1.88824 1.24782 2.18212C1.10118 2.47543 1.2267 2.92761 1.59288 3.42285L9.38294 13.9498C9.73753 14.4294 10.0161 15.2732 10.0161 15.8726V25.6166C10.0161 25.7199 10.0305 26.0554 10.2191 26.0554C10.2735 26.0554 10.3915 26.0376 10.572 25.9192L15.6065 22.6163Z" fill="black" fill-opacity="0.87"/>
</svg>
