<svg width="24" height="27" viewBox="0 0 24 27" fill="none" xmlns="http://www.w3.org/2000/svg">
<path d="M6.41958 5.96658C6.64046 5.83855 6.71592 5.55513 6.58792 5.3337C6.46079 5.11226 6.1778 5.0369 5.95692 5.16493C4.18755 6.19121 2.71134 7.67083 1.68763 9.44492C0.666528 11.2138 0.126953 13.2352 0.126953 15.2909C0.126953 21.737 5.35842 26.9816 11.7883 26.9816C18.2182 26.9816 23.4497 21.737 23.4497 15.2909C23.4497 13.2352 22.9101 11.2138 21.889 9.44492C20.8656 7.67112 19.3894 6.19121 17.6197 5.16493C17.3994 5.03719 17.1165 5.11226 16.9887 5.3337C16.8607 5.55513 16.9362 5.83825 17.1571 5.96658C18.7868 6.91196 20.147 8.27519 21.0891 9.90873C22.0289 11.5368 22.5256 13.3978 22.5256 15.2909C22.5256 21.2263 17.7089 26.0551 11.7883 26.0551C5.86781 26.0551 1.05111 21.2266 1.05111 15.2909C1.05111 13.3978 1.54773 11.5368 2.48756 9.90873C3.43 8.27519 4.79011 6.91138 6.41958 5.96658Z" fill="black" fill-opacity="0.87"/>
<path d="M11.3262 1.25682V15.2909C11.3262 15.5464 11.5332 15.7542 11.7883 15.7542C12.0435 15.7542 12.2504 15.5464 12.2504 15.2909V1.25682C12.2504 1.00075 12.0435 0.793579 11.7883 0.793579C11.5332 0.793579 11.3262 1.00075 11.3262 1.25682Z" fill="black" fill-opacity="0.87"/>
</svg>
