<svg width="27" height="27" viewBox="0 0 27 27" fill="none" xmlns="http://www.w3.org/2000/svg">
<path fill-rule="evenodd" clip-rule="evenodd" d="M18.8983 2.24206C19.8437 1.29464 20.9428 0.793579 22.0763 0.793579C23.2158 0.793579 24.3556 1.30803 25.2873 2.24148C26.1865 3.14264 26.6855 4.20238 26.7287 5.30606C26.776 6.49848 26.2774 7.65366 25.2873 8.64619L20.9858 12.9585C20.0402 13.9059 18.9416 14.4072 17.8081 14.4072C16.8039 14.4072 15.7996 14.0066 14.9372 13.2724L13.0576 15.1568C14.6763 17.0493 14.5733 19.3876 12.7441 21.2214L8.44256 25.5336C7.4978 26.4811 6.39863 26.9815 5.26489 26.9815C4.12566 26.9815 2.98555 26.4671 2.05384 25.5336C1.15465 24.6319 0.655702 23.5716 0.612454 22.4685C0.565143 21.2764 1.0638 20.1212 2.05384 19.1284L6.35538 14.8167C7.30072 13.8692 8.39932 13.3685 9.53306 13.3685C10.537 13.3685 11.5416 13.7686 12.4039 14.5027L14.2836 12.6183C12.6649 10.7264 12.7679 8.38751 14.5971 6.55435L18.8983 2.24206ZM20.3325 12.3041L24.6337 7.9909C25.4371 7.18635 25.8426 6.27094 25.8055 5.34359C25.7712 4.47677 25.366 3.6309 24.6337 2.89735C23.8767 2.13819 22.9682 1.72034 22.076 1.72034C21.1927 1.72034 20.3197 2.12713 19.5517 2.89735L15.2501 7.20963C13.5426 8.92116 13.9301 10.7203 14.9413 11.9584L17.3185 9.57557C17.4987 9.39458 17.7916 9.39458 17.9721 9.57557C18.1524 9.75656 18.1524 10.0499 17.9721 10.2308L15.5944 12.6142C16.275 13.1747 17.0471 13.4811 17.8081 13.4811C18.6914 13.4811 19.5645 13.0743 20.3325 12.3041ZM12.0911 20.5664L7.78892 24.8784C7.02121 25.6483 6.14843 26.0557 5.26489 26.0557C4.37266 26.0557 3.46418 25.6372 2.7072 24.8784C1.9749 24.1445 1.56971 23.2978 1.53546 22.4315C1.49859 21.5039 1.90408 20.5888 2.7072 19.7833L7.00844 15.4711C7.77644 14.7011 8.64951 14.2941 9.53277 14.2941C10.2938 14.2941 11.0659 14.6005 11.7465 15.1612L9.36878 17.5446C9.18853 17.7256 9.18853 18.0189 9.36878 18.1998C9.54931 18.3805 9.84218 18.3805 10.0224 18.1998L12.3996 15.8167C13.4111 17.0549 13.7986 18.854 12.0911 20.5664Z" fill="black" fill-opacity="0.87"/>
</svg>
