<svg width="22" height="27" viewBox="0 0 22 27" fill="none" xmlns="http://www.w3.org/2000/svg">
<path d="M14.8218 15.3006C15.007 15.4862 15.3094 15.4877 15.4786 15.2869C16.3404 14.2673 16.8103 12.9873 16.8103 11.6354C16.8103 10.1244 16.2234 8.7038 15.1573 7.63388C14.0912 6.56541 12.6734 5.97705 11.1655 5.97705C9.65798 5.97705 8.24011 6.56512 7.17432 7.63388C6.10794 8.70322 5.52106 10.1244 5.52106 11.6354C5.52106 12.9876 5.99126 14.2673 6.85301 15.2869C7.02223 15.4874 7.32467 15.4862 7.50985 15.3006C7.69473 15.1149 7.6927 14.8152 7.52697 14.6127C6.84169 13.7741 6.4693 12.7336 6.4693 11.6357C6.4693 10.3784 6.95779 9.19614 7.84479 8.30633C8.7315 7.4171 9.91079 6.92709 11.1655 6.92709C12.4203 6.92709 13.6001 7.41739 14.4866 8.30633C15.3736 9.19643 15.8618 10.3784 15.8618 11.6357C15.8618 12.7336 15.4897 13.7744 14.8044 14.6121C14.6389 14.8152 14.6366 15.1152 14.8218 15.3006Z" fill="black" fill-opacity="0.87"/>
<path d="M18.4774 18.966C18.6626 19.1516 18.9636 19.1522 19.1404 18.959C20.9753 16.9548 21.9802 14.3726 21.9802 11.6357C21.9802 8.7393 20.8552 6.01633 18.8127 3.96931C16.7702 1.92112 14.0544 0.793579 11.1655 0.793579C8.27639 0.793579 5.56083 1.92112 3.51806 3.96931C1.47559 6.01692 0.350586 8.73989 0.350586 11.6357C0.350586 14.3726 1.35542 16.9548 3.19037 18.959C3.36713 19.1522 3.66812 19.1516 3.8533 18.966C4.03848 18.7804 4.03732 18.4801 3.86114 18.286C2.20498 16.4621 1.29825 14.1192 1.29825 11.6357C1.29825 8.99362 2.32456 6.50983 4.18854 4.64118C6.05251 2.77281 8.52978 1.7442 11.1655 1.7442C13.8013 1.7442 16.2785 2.77281 18.1425 4.64118C20.0062 6.50925 21.0325 8.99304 21.0325 11.6357C21.0325 14.1192 20.1258 16.4624 18.4696 18.286C18.2937 18.4801 18.2926 18.7804 18.4774 18.966Z" fill="black" fill-opacity="0.87"/>
<path fill-rule="evenodd" clip-rule="evenodd" d="M5.44325 26.8075C5.5579 26.9024 5.72044 26.9815 5.94393 26.9815C6.17381 26.9815 6.469 26.8972 6.84168 26.6594L11.1655 23.9012L15.4894 26.6594C15.8624 26.8972 16.1567 26.9815 16.3871 26.9815C16.6106 26.9815 16.7732 26.9024 16.8878 26.8075C17.1203 26.6164 17.3307 26.2177 17.0149 25.4039L12.1277 12.8054C11.8386 12.0596 11.4006 11.9491 11.1655 11.9491C10.9304 11.9491 10.4924 12.0599 10.2033 12.8054L5.31612 25.4033C5.00033 26.2177 5.21076 26.6164 5.44325 26.8075ZM11.0869 13.1499C11.1147 13.0786 11.1417 13.0231 11.1655 12.9817C11.1893 13.0234 11.2166 13.0786 11.2442 13.1499L14.2216 20.825L11.1655 22.7752L8.10919 20.825L11.0869 13.1499ZM16.2034 25.9724C16.1895 25.9139 16.1668 25.8397 16.1311 25.7481L14.5719 21.7276L12.0479 23.3379L15.9982 25.8578C16.0809 25.9104 16.1488 25.9471 16.2034 25.9724ZM7.75916 21.7279L6.19993 25.7481C6.16423 25.8397 6.1413 25.9134 6.12766 25.9727C6.18194 25.9474 6.25015 25.9102 6.33258 25.8581L10.2832 23.3382L7.75916 21.7279Z" fill="black" fill-opacity="0.87"/>
</svg>
