<svg width="28" height="27" viewBox="0 0 28 27" fill="none" xmlns="http://www.w3.org/2000/svg">
<path fill-rule="evenodd" clip-rule="evenodd" d="M13.2276 14.6185L2.08132 12.1373C1.16528 11.9327 0.944981 11.5256 0.922051 11.2194C0.898831 10.9141 1.0547 10.4776 1.92952 10.1365L25.5962 0.908885C26.159 0.69033 26.6449 0.788985 26.8907 1.14956C27.0236 1.34367 27.1368 1.69143 26.9238 2.24088L17.7204 25.9691C17.4604 26.6408 17.1144 26.9815 16.6941 26.9815H16.6938C16.3699 26.9815 15.9383 26.7799 15.7253 25.8175L13.2442 14.622C13.2457 14.6309 13.2394 14.6265 13.2334 14.6222C13.2313 14.6208 13.2293 14.6194 13.2276 14.6185ZM25.9309 1.77263L2.26389 11.0003C2.13008 11.0523 2.03517 11.1006 1.96841 11.1399C2.0404 11.169 2.14169 11.2022 2.28189 11.2331L13.4479 13.7207C13.7785 13.7943 14.0728 14.0891 14.146 14.4209L16.6271 25.6164C16.6581 25.7572 16.6909 25.8582 16.72 25.9298C16.7594 25.8634 16.807 25.768 16.859 25.6335L26.0626 1.90533C26.0937 1.82618 26.1079 1.76535 26.114 1.72228C26.0676 1.72839 26.0089 1.74236 25.9309 1.77263Z" fill="black" fill-opacity="0.87"/>
</svg>
