<svg width="27" height="27" viewBox="0 0 27 27" fill="none" xmlns="http://www.w3.org/2000/svg">
<path d="M13.0905 12.7888C12.8354 12.7888 12.6284 12.9965 12.6284 13.252V25.471L8.97045 21.8036C8.79021 21.6223 8.49735 21.6223 8.3171 21.8036C8.13657 21.9842 8.13657 22.2776 8.3171 22.4585L12.4671 26.6186C12.6392 26.7912 12.8647 26.8773 13.0905 26.8773C13.3163 26.8773 13.5421 26.7912 13.714 26.6186L17.8639 22.4585C18.0445 22.2776 18.0445 21.9842 17.8639 21.8036C17.6837 21.6223 17.3908 21.6223 17.2106 21.8036L13.5526 25.471V13.2517C13.5526 12.9965 13.3456 12.7888 13.0905 12.7888Z" fill="black" fill-opacity="0.87"/>
<path d="M23.4327 9.16932C23.1587 9.00404 22.8118 8.85302 22.6612 8.78988C22.6789 8.63421 22.7158 8.27834 22.7158 7.9638C22.7158 4.06761 19.5538 0.897705 15.6676 0.897705C13.4321 0.897705 11.3067 1.97898 9.98195 3.78973C9.83741 3.98759 9.69257 4.22503 9.59882 4.38478C9.43367 4.28788 9.1797 4.1485 8.9356 4.05597C8.43347 3.86509 7.90464 3.7682 7.36361 3.7682C4.89852 3.7682 2.8929 5.77885 2.8929 8.25012C2.8929 8.56787 2.94863 8.90715 2.97417 9.04798C2.84704 9.11752 2.54257 9.29007 2.29702 9.47281C0.876825 10.5317 0.0292969 12.2211 0.0292969 13.9917C0.0292969 17.0964 2.54895 19.6221 5.64591 19.6221H7.72874C7.98416 19.6221 8.19111 19.4149 8.19111 19.1589C8.19111 18.9028 7.98416 18.6953 7.72874 18.6953H5.64591C3.05834 18.6953 0.953451 16.5855 0.953451 13.9917C0.953451 12.4902 1.64424 11.1142 2.8482 10.216C3.10159 10.0277 3.46034 9.8374 3.46353 9.83565C3.78048 9.66922 3.9645 9.27814 3.89223 8.92606C3.89107 8.92228 3.81676 8.55885 3.81676 8.25012C3.81676 6.2901 5.40791 4.69467 7.36361 4.69467C7.7926 4.69467 8.21085 4.77149 8.60791 4.92192C8.91383 5.03802 9.27461 5.27109 9.27868 5.27342C9.44731 5.38283 9.65484 5.41746 9.84757 5.36886C10.0406 5.32056 10.2066 5.19107 10.3041 5.01445C10.3062 5.01067 10.5238 4.61523 10.7273 4.33677C11.8787 2.76374 13.7253 1.82389 15.6676 1.82389C19.0447 1.82389 21.7916 4.57828 21.7916 7.96351C21.7916 8.31006 21.7362 8.7442 21.7353 8.7474C21.6874 9.11112 21.908 9.48648 22.247 9.62004C22.2508 9.6215 22.669 9.78881 22.9555 9.96223C24.3783 10.8224 25.2279 12.3287 25.2279 13.9914C25.2279 16.5852 23.123 18.695 20.5354 18.695H18.4526C18.1972 18.695 17.9902 18.9025 17.9902 19.1586C17.9902 19.4146 18.1972 19.6218 18.4526 19.6218H20.5354C23.6324 19.6218 26.152 17.0961 26.152 13.9914C26.1517 12.0023 25.1353 10.1988 23.4327 9.16932Z" fill="black" fill-opacity="0.87"/>
</svg>
