<svg width="28" height="27" viewBox="0 0 28 27" fill="none" xmlns="http://www.w3.org/2000/svg">
<path d="M1.75352 26.6387C2.54075 26.6387 3.17892 25.9989 3.17892 25.2097C3.17892 24.4205 2.54075 23.7807 1.75352 23.7807C0.966298 23.7807 0.328125 24.4205 0.328125 25.2097C0.328125 25.9989 0.966298 26.6387 1.75352 26.6387Z" fill="black" fill-opacity="0.87"/>
<path d="M1.37703 1.7392C14.8919 1.98857 25.8387 12.9634 26.0874 26.5122C26.0926 26.7729 26.3025 26.9838 26.5625 26.9838C26.8226 26.9838 27.0333 26.7726 27.0287 26.5122C26.7796 12.4431 15.4103 1.04551 1.37703 0.795852C1.11726 0.791196 0.90625 1.00274 0.90625 1.26287C0.90625 1.52359 1.11726 1.73396 1.37703 1.7392Z" fill="black" fill-opacity="0.87"/>
<path d="M1.37674 9.52868C10.5686 9.77543 18.0002 17.2259 18.2463 26.4406C18.2533 26.7013 18.4631 26.9122 18.7232 26.9122C18.983 26.9122 19.194 26.701 19.1876 26.4406C18.9412 16.7056 11.0873 8.83208 1.37645 8.58504C1.11639 8.57864 0.90625 8.79018 0.90625 9.0509C0.90625 9.31103 1.11697 9.52141 1.37674 9.52868Z" fill="black" fill-opacity="0.87"/>
<path d="M1.37675 17.3929C6.24542 17.6321 10.1635 21.5594 10.4018 26.4408C10.4146 26.7013 10.6242 26.9122 10.8836 26.9122C11.1437 26.9122 11.3553 26.7007 11.3437 26.4405C11.1037 21.0397 6.76468 16.6893 1.37675 16.4487C1.11697 16.4373 0.90625 16.6492 0.90625 16.9099C0.90625 17.1706 1.11726 17.3801 1.37675 17.3929Z" fill="black" fill-opacity="0.87"/>
</svg>
