<svg width="27" height="24" viewBox="0 0 27 24" fill="none" xmlns="http://www.w3.org/2000/svg">
<path fill-rule="evenodd" clip-rule="evenodd" d="M1.61002 11.6046L7.07588 14.7349L8.80051 15.7231V21.2822C8.80051 22.6446 9.34992 23.0513 9.67703 23.1726C9.76933 23.2072 9.89007 23.2357 10.0358 23.2357C10.4056 23.2357 10.9358 23.0513 11.5703 22.3094L14.4417 18.9537L19.0046 21.5667C19.2829 21.7261 19.583 21.8073 19.8765 21.8073C20.0744 21.8073 20.2686 21.7704 20.4509 21.6959C20.9039 21.5112 21.2487 21.1083 21.3968 20.5901L24.3819 10.1169L26.5022 2.67997C26.7463 1.82265 26.4328 1.35893 26.2241 1.15878C26.0151 0.958628 25.5397 0.664804 24.6954 0.946991L10.6949 5.62491L1.91071 8.55994C0.742187 8.95064 0.509122 9.60112 0.474293 9.9546C0.439463 10.308 0.540468 10.9923 1.61002 11.6046ZM10.9872 6.50317L2.20327 9.4382C1.63178 9.62876 1.41033 9.87749 1.39378 10.0456C1.37695 10.2144 1.54529 10.5012 2.06889 10.8011L7.53447 13.9308L8.98424 14.7614L24.936 1.84301L10.9872 6.50317ZM25.5911 2.50309L23.4929 9.86294L20.5081 20.3367C20.4378 20.5823 20.2939 20.7609 20.1026 20.8389C19.9119 20.9168 19.6846 20.8903 19.4626 20.7632L9.84509 15.2542L25.5911 2.50309ZM9.99776 22.3048C10.0747 22.3345 10.3786 22.2809 10.8688 21.7067L13.6246 18.4859L9.72434 16.252V21.2825C9.72434 22.038 9.92171 22.2763 9.99776 22.3048Z" fill="black" fill-opacity="0.87"/>
</svg>
