<svg width="27" height="27" viewBox="0 0 27 27" fill="none" xmlns="http://www.w3.org/2000/svg">
<path fill-rule="evenodd" clip-rule="evenodd" d="M13.6706 0.467285C7.24999 0.467285 0.609375 2.32809 0.609375 5.44184C0.609375 6.04998 0.865665 6.60924 1.32078 7.11671L1.31787 7.11933L9.35343 16.1568C9.48201 16.3023 9.60884 16.6352 9.60884 16.8295V24.9036C9.60884 26.1065 11.7143 26.6553 13.6706 26.6553C15.6269 26.6553 17.7323 26.1065 17.7323 24.9033V16.829C17.7323 16.6346 17.8592 16.3017 17.9878 16.1562L26.023 7.11903L26.0204 7.117C26.4755 6.60895 26.7318 6.04998 26.7318 5.44184C26.7318 2.32809 20.0909 0.467285 13.6706 0.467285ZM1.53353 5.44184C1.53353 7.35618 6.51769 9.48934 13.6706 9.48934C20.8235 9.48934 25.8077 7.35618 25.8077 5.44184C25.8077 3.52692 20.8235 1.39376 13.6706 1.39376C6.51769 1.39376 1.53353 3.52692 1.53353 5.44184ZM23.1443 8.965L17.2981 15.5405C17.1832 15.6703 16.9876 15.9773 16.8816 16.1484C16.8404 16.2141 16.7931 16.3311 16.7377 16.3852C16.4674 16.6477 15.4249 17.0935 13.6706 17.0935C11.9163 17.0935 10.8735 16.648 10.6035 16.3852C10.5478 16.3308 10.5008 16.2138 10.4596 16.1484C10.3542 15.9773 10.1589 15.6703 10.0433 15.5405L4.19657 8.965C4.1449 8.90709 4.16145 8.88323 4.23372 8.91146C6.7435 9.88274 10.2378 10.4155 13.6706 10.4155C17.1031 10.4155 20.5971 9.88274 23.1072 8.91175C23.1795 8.8841 23.1957 8.90767 23.1443 8.965ZM13.6706 25.7291C15.7293 25.7291 16.8085 25.1154 16.8085 24.9033V17.4307C16.0132 17.8296 14.8179 18.0196 13.6706 18.0196C12.5232 18.0196 11.3277 17.8296 10.5327 17.4307V24.9033C10.5327 25.1157 11.6119 25.7291 13.6706 25.7291Z" fill="black" fill-opacity="0.87"/>
</svg>
