<svg width="26" height="27" viewBox="0 0 26 27" fill="none" xmlns="http://www.w3.org/2000/svg">
<path fill-rule="evenodd" clip-rule="evenodd" d="M12.5455 1.25682C12.5455 1.00134 12.753 0.793579 13.0088 0.793579C13.2646 0.793579 13.4721 1.00134 13.4721 1.25682V4.31382C22.4799 4.5469 24.9507 11.4925 25.5959 14.5097C25.7004 14.9962 25.5913 15.4693 25.2889 15.8429C24.974 16.2323 24.4888 16.456 23.9574 16.456H13.4721V24.0625C13.4721 25.6719 12.1625 26.9815 10.5525 26.9815C8.94251 26.9815 7.6323 25.6719 7.63201 24.0625V23.0097C7.63201 22.7539 7.8398 22.5465 8.09562 22.5465C8.35142 22.5465 8.55921 22.7539 8.55921 23.0097V24.0625C8.55921 25.1612 9.45298 26.0554 10.5522 26.0554C11.6514 26.0554 12.5455 25.1609 12.5455 24.0625V16.456H2.0602C1.52877 16.456 1.04362 16.2325 0.728727 15.8429C0.426345 15.4699 0.316917 14.9962 0.421397 14.5097C1.06632 11.4925 3.53719 4.54661 12.5455 4.31382V1.25682ZM24.5689 15.2607C24.6556 15.1536 24.7473 14.9694 24.6905 14.704C24.0811 11.8548 21.7232 5.22866 13.0088 5.22866C4.29387 5.22866 1.93622 11.8548 1.32709 14.7035C1.27005 14.9694 1.36201 15.1536 1.44845 15.2607C1.58698 15.4315 1.80991 15.5295 2.0602 15.5295H23.9574C24.2077 15.5295 24.4303 15.4315 24.5689 15.2607Z" fill="black" fill-opacity="0.87"/>
</svg>
