<svg width="20" height="27" viewBox="0 0 20 27" fill="none" xmlns="http://www.w3.org/2000/svg">
<path fill-rule="evenodd" clip-rule="evenodd" d="M19.8885 16.3289C19.8885 21.8258 15.4274 26.2981 9.94424 26.2981C4.46114 26.2981 0 21.8258 0 16.3292C0 10.9749 7.77434 1.42882 8.10522 1.02494C8.58907 0.434547 9.24213 0.110107 9.94424 0.110107C10.6464 0.110107 11.2994 0.434547 11.7827 1.02465C12.1144 1.42853 19.8885 10.9749 19.8885 16.3289ZM9.94424 1.03629C9.52396 1.03629 9.124 1.24114 8.81953 1.61272C8.74 1.70932 0.924155 11.3055 0.924155 16.3289C0.924155 21.3148 4.97082 25.3716 9.94424 25.3716C14.9177 25.3716 18.9643 21.3148 18.9643 16.3289C18.9643 11.3055 11.1479 1.70932 11.069 1.61272C10.7645 1.24114 10.3645 1.03629 9.94424 1.03629Z" fill="black" fill-opacity="0.87"/>
<path d="M10.4053 21.8912C13.1083 21.668 15.2707 19.5011 15.493 16.7915C15.5136 16.5366 15.3055 16.3289 15.0504 16.3289C14.7953 16.3289 14.5904 16.5366 14.5651 16.791C14.348 18.9899 12.599 20.7436 10.4053 20.961C10.1516 20.9866 9.94434 21.1914 9.94434 21.4475C9.94434 21.7035 10.151 21.9125 10.4053 21.8912Z" fill="black" fill-opacity="0.87"/>
</svg>
