<svg width="27" height="27" viewBox="0 0 27 27" fill="none" xmlns="http://www.w3.org/2000/svg">
<path fill-rule="evenodd" clip-rule="evenodd" d="M26.85 13.2041C26.85 20.4238 20.9907 26.2981 13.7888 26.2981C6.58709 26.2981 0.727539 20.4238 0.727539 13.2041C0.727539 5.98436 6.5868 0.110107 13.7888 0.110107C20.9907 0.110107 26.85 5.98436 26.85 13.2041ZM13.3267 7.11946V1.07004C11.1922 1.34909 9.33749 3.54248 8.25632 6.73305C9.86865 6.97136 11.5727 7.09968 13.3267 7.11946ZM14.2508 1.07004C16.3853 1.34909 18.2397 3.54248 19.3212 6.73275C17.7089 6.97106 16.0048 7.09939 14.2508 7.11917V1.07004ZM10.4355 1.51233C9.15261 2.64976 8.08188 4.41774 7.35538 6.58377C6.22921 6.38533 5.15703 6.13101 4.14522 5.82694C5.70764 3.77904 7.90308 2.24384 10.4355 1.51233ZM20.2224 6.58377C21.3483 6.38504 22.4208 6.13101 23.432 5.82694C21.8699 3.77904 19.6744 2.24384 17.142 1.51233C18.4249 2.64976 19.4959 4.41774 20.2224 6.58377ZM25.9139 12.7409H21.2438C21.2061 10.8591 20.9428 9.07687 20.4973 7.47678C21.7262 7.25535 22.8945 6.96932 23.991 6.6248C25.1346 8.4018 25.8295 10.4939 25.9139 12.7409ZM7.08052 7.47707C5.8516 7.25564 4.68335 6.96961 3.58678 6.62538C2.44262 8.4018 1.74777 10.4939 1.6633 12.7411H6.33428C6.37173 10.8594 6.63498 9.07716 7.08052 7.47707ZM13.3267 12.7409H7.25728C7.29472 10.9028 7.55217 9.16911 7.98145 7.62605C9.68057 7.88415 11.4769 8.02528 13.3267 8.04535V12.7409ZM19.5961 7.62605C17.8969 7.88415 16.1009 8.02528 14.2508 8.04535V12.7409H20.3199C20.2828 10.9028 20.0253 9.16911 19.5961 7.62605ZM20.4973 18.9308C21.7259 19.1525 22.8942 19.4383 23.9907 19.7825C25.1346 18.0058 25.8295 15.9143 25.9139 13.667H21.2435C21.2058 15.5488 20.9425 17.3307 20.4973 18.9308ZM1.6633 13.6673H6.33428C6.37173 15.5491 6.63498 17.331 7.08052 18.9308C5.8516 19.1523 4.68306 19.4386 3.58649 19.7828C2.44262 18.0058 1.74777 15.914 1.6633 13.6673ZM7.98145 18.7821C9.68057 18.5235 11.4766 18.3832 13.3267 18.3622V13.6673H7.25728C7.29472 15.5049 7.55217 17.2388 7.98145 18.7821ZM14.2508 13.6673H20.3199C20.2828 15.5049 20.0253 17.2388 19.5961 18.7821C17.8969 18.5232 16.1009 18.3832 14.2508 18.3622V13.6673ZM13.3267 25.3376C11.1922 25.0585 9.33778 22.8657 8.25632 19.6751C9.86865 19.4365 11.5727 19.3082 13.3267 19.2887V25.3376ZM19.3209 19.6751C17.7089 19.4365 16.0048 19.3082 14.2508 19.2887V25.3376C16.3856 25.0585 18.2397 22.8657 19.3209 19.6751ZM10.4352 24.8953C9.15231 23.7578 8.08158 21.9896 7.35538 19.8235C6.22921 20.0229 5.15703 20.2769 4.14522 20.581C5.70735 22.6286 7.9025 24.164 10.4352 24.8953ZM17.1426 24.8953C18.4252 23.7578 19.4959 21.9899 20.2224 19.8235C21.3483 20.0229 22.4205 20.2769 23.432 20.581C21.8702 22.6286 19.6747 24.164 17.1426 24.8953Z" fill="black" fill-opacity="0.87"/>
</svg>
