<svg width="23" height="27" viewBox="0 0 23 27" fill="none" xmlns="http://www.w3.org/2000/svg">
<path d="M1.35965 26.298H21.9812C22.2242 26.298 22.4213 26.0903 22.4213 25.8348C22.4213 25.5788 22.2242 25.3716 21.9812 25.3716H1.35965C1.117 25.3716 0.919922 25.5788 0.919922 25.8348C0.919922 26.0903 1.117 26.298 1.35965 26.298Z" fill="black" fill-opacity="0.87"/>
<path d="M4.36368 10.2943C4.45395 10.2943 4.54509 10.2652 4.62316 10.2047L14.7334 2.39803L14.1341 6.62623C14.0984 6.87938 14.2644 7.11478 14.5041 7.15261C14.5259 7.1561 14.548 7.15785 14.57 7.15785C14.7839 7.15785 14.972 6.99257 15.0042 6.76299L15.7194 1.71336C15.7476 1.51725 15.7008 1.32113 15.5882 1.16109C15.4759 1.00134 15.3113 0.897172 15.125 0.868074L10.3298 0.115315C10.0906 0.0777788 9.86595 0.252074 9.82996 0.504935C9.79397 0.758085 9.95941 0.993777 10.2 1.03131L14.2014 1.65982L4.10275 9.45802C3.90712 9.60933 3.86503 9.89915 4.00871 10.1054C4.09462 10.2288 4.22842 10.2943 4.36368 10.2943Z" fill="black" fill-opacity="0.87"/>
<path fill-rule="evenodd" clip-rule="evenodd" d="M19.8845 23.3487H17.8923C17.0613 23.3487 16.3856 22.637 16.3859 21.7629V8.95317C16.3859 8.07849 17.0616 7.36734 17.8923 7.36734H19.8845C20.7149 7.36734 21.3906 8.07878 21.3906 8.95317V21.7629C21.3906 22.637 20.7149 23.3487 19.8845 23.3487ZM17.892 8.29352C17.5469 8.29352 17.2653 8.58945 17.2653 8.95317H17.2656V21.7629C17.2656 22.126 17.5472 22.4222 17.8923 22.4222H19.8845C20.2296 22.4222 20.5109 22.126 20.5109 21.7629V8.95317C20.5109 8.58945 20.2296 8.29352 19.8845 8.29352H17.892Z" fill="black" fill-opacity="0.87"/>
<path fill-rule="evenodd" clip-rule="evenodd" d="M10.6746 11.7108H12.6666C13.4967 11.7108 14.1724 12.4222 14.1724 13.2966V21.7629C14.1724 22.637 13.4967 23.3487 12.6666 23.3487H10.6746C9.84452 23.3487 9.16882 22.637 9.16882 21.7629V13.2966C9.16882 12.4222 9.84452 11.7108 10.6746 11.7108ZM12.6666 22.4222C13.012 22.4222 13.2927 22.126 13.2927 21.7629V13.2966C13.2927 12.9329 13.012 12.6369 12.6666 12.6369H10.6746C10.3292 12.6369 10.0486 12.9329 10.0486 13.2966V21.7629C10.0486 22.126 10.3292 22.4222 10.6746 22.4222H12.6666Z" fill="black" fill-opacity="0.87"/>
<path fill-rule="evenodd" clip-rule="evenodd" d="M5.44868 23.3487H3.45698C2.62657 23.3487 1.95087 22.637 1.95087 21.7629V17.6391C1.95087 16.7645 2.62657 16.0533 3.45698 16.0533H5.44868C6.27937 16.0533 6.95508 16.7645 6.95508 17.6391V21.7629C6.95508 22.637 6.27937 23.3487 5.44868 23.3487ZM3.45698 16.9795C3.11129 16.9795 2.83004 17.2754 2.83004 17.6391V21.7629C2.83004 22.126 3.11129 22.4222 3.45698 22.4222H5.44868C5.79437 22.4222 6.07533 22.126 6.07533 21.7629V17.6391C6.07533 17.2754 5.79437 16.9795 5.44868 16.9795H3.45698Z" fill="black" fill-opacity="0.87"/>
</svg>
