<svg width="27" height="26" viewBox="0 0 27 26" fill="none" xmlns="http://www.w3.org/2000/svg">
<path fill-rule="evenodd" clip-rule="evenodd" d="M5.18282 21.5407H2.86082C1.79648 21.5407 0.930664 20.6724 0.930664 19.6057V13.3497C0.930664 12.2829 1.79648 11.4149 2.86082 11.4149H5.18282C6.24716 11.4149 7.11298 12.2829 7.11298 13.3497V19.6057C7.11298 20.6724 6.24716 21.5407 5.18282 21.5407ZM2.86082 12.3749C2.32444 12.3749 1.88849 12.8122 1.88849 13.3497V19.6057C1.88849 20.1434 2.32444 20.5804 2.86082 20.5804H5.18282C5.7192 20.5804 6.15515 20.1434 6.15515 19.6057V13.3497C6.15515 12.8122 5.7192 12.3749 5.18282 12.3749H2.86082Z" fill="black" fill-opacity="0.87"/>
<path fill-rule="evenodd" clip-rule="evenodd" d="M14.3257 21.5407H12.0037C10.9394 21.5407 10.0735 20.6724 10.0735 19.6057V8.11206C10.0735 7.04505 10.9394 6.17706 12.0037 6.17706H14.3257C15.39 6.17706 16.2559 7.04505 16.2559 8.11206V19.6057C16.2559 20.6724 15.39 21.5407 14.3257 21.5407ZM12.0037 7.13729C11.4673 7.13729 11.0314 7.57463 11.0314 8.11206V19.6057C11.0314 20.1434 11.4673 20.5804 12.0037 20.5804H14.3257C14.8621 20.5804 15.298 20.1434 15.298 19.6057V8.11206C15.298 7.57463 14.8621 7.13729 14.3257 7.13729H12.0037Z" fill="black" fill-opacity="0.87"/>
<path fill-rule="evenodd" clip-rule="evenodd" d="M23.4686 21.5407H21.1465C20.0822 21.5407 19.2164 20.6724 19.2164 19.6057V2.87445C19.2164 1.80744 20.0822 0.939453 21.1465 0.939453H23.4686C24.5329 0.939453 25.3987 1.80744 25.3987 2.87445V19.6057C25.3987 20.6724 24.5329 21.5407 23.4686 21.5407ZM21.1465 1.89968C20.6102 1.89968 20.1742 2.33702 20.1742 2.87445V19.6057C20.1742 20.1434 20.6102 20.5804 21.1465 20.5804H23.4686C24.005 20.5804 24.4409 20.1434 24.4409 19.6057V2.87445C24.4409 2.33702 24.005 1.89968 23.4686 1.89968H21.1465Z" fill="black" fill-opacity="0.87"/>
<path d="M25.7471 24.5086H0.582428C0.31772 24.5086 0.103516 24.7234 0.103516 24.9887C0.103516 25.2541 0.31772 25.4689 0.582428 25.4689H25.7471C26.0118 25.4689 26.226 25.2541 26.226 24.9887C26.226 24.7234 26.0118 24.5086 25.7471 24.5086Z" fill="black" fill-opacity="0.87"/>
</svg>
