<svg width="26" height="26" viewBox="0 0 26 26" fill="none" xmlns="http://www.w3.org/2000/svg">
<path fill-rule="evenodd" clip-rule="evenodd" d="M22.7535 0H3.24653C1.45658 0 0 1.45629 0 3.24653V22.0373C0 23.8273 1.45658 25.2838 3.24653 25.2838H22.7535C24.5434 25.2838 26 23.8273 26 22.037V3.24653C26 1.45629 24.5434 0 22.7535 0ZM10.032 0.919533H5.9358V5.01598H10.032V0.919533ZM10.9521 0.919533H15.0482V5.01598H10.9521V0.919533ZM20.0639 0.919533H15.9678V5.01598H20.0639V0.919533ZM20.9837 5.01598H25.0802V3.24624C25.0802 1.96329 24.0364 0.919533 22.7532 0.919533H20.9837V5.01598ZM0.919822 3.24653C0.919822 1.96358 1.96387 0.919822 3.24682 0.919822H5.01627V5.01627H0.919822V3.24653ZM25.0805 19.3478H0.919822V5.9358H25.0805V19.3478ZM3.24653 24.3637H5.01598V20.2673H0.919533V22.037C0.919533 23.32 1.96387 24.3637 3.24653 24.3637ZM10.032 24.3637H5.9358V20.2673H10.032V24.3637ZM10.9521 24.3637H15.0482V20.2673H10.9521V24.3637ZM20.0639 24.3637H15.9678V20.2673H20.0639V24.3637ZM22.7532 24.3637C24.0367 24.3637 25.0802 23.3197 25.0802 22.037V20.2673H20.9837V24.3637H22.7532Z" fill="black" fill-opacity="0.87"/>
<path fill-rule="evenodd" clip-rule="evenodd" d="M12.1622 8.5095L16.9584 11.3871C17.4758 11.6974 17.7727 12.1547 17.7724 12.6415C17.7724 13.1285 17.476 13.5859 16.9586 13.8964L12.1622 16.774C11.8606 16.9546 11.5619 17.0465 11.2739 17.0465C10.6554 17.0465 10.0317 16.5894 10.0317 15.5679V9.71561C10.0317 8.6941 10.6554 8.23679 11.2739 8.23679C11.5619 8.23679 11.8606 8.32865 12.1622 8.5095ZM11.689 15.9854L16.4852 13.1075C16.7189 12.9673 16.8532 12.7975 16.8529 12.6415C16.8529 12.4858 16.7189 12.3159 16.4852 12.1758L11.689 9.29816C11.4937 9.18116 11.3554 9.15632 11.2739 9.15632C10.9937 9.15632 10.9518 9.50645 10.9518 9.71561V15.5676C10.9518 15.7759 10.9934 16.1266 11.2739 16.1266C11.3556 16.1266 11.494 16.1021 11.689 15.9854Z" fill="black" fill-opacity="0.87"/>
</svg>
