<svg width="19" height="27" viewBox="0 0 19 27" fill="none" xmlns="http://www.w3.org/2000/svg">
<path fill-rule="evenodd" clip-rule="evenodd" d="M9.09042 0.110107C14.0514 0.110107 18.0881 4.18466 18.0881 9.19297C18.0881 13.5041 14.467 18.4938 13.4995 19.7502H13.5217V21.8246C13.5217 24.2912 11.5338 26.2981 9.09042 26.2981C6.64739 26.2981 4.65949 24.2912 4.65949 21.8246V19.7502H4.68137C3.71381 18.4938 0.0927734 13.5041 0.0927734 9.19297C0.0927734 4.18466 4.12941 0.110107 9.09042 0.110107ZM1.01078 9.19297C1.01078 13.2949 4.73356 18.3116 5.48843 19.287H12.6921C13.447 18.311 17.1701 13.2911 17.1701 9.19297C17.1701 4.69533 13.5456 1.03629 9.09042 1.03629C4.63525 1.03629 1.01078 4.69533 1.01078 9.19297ZM12.6037 21.8246C12.6037 23.7808 11.0273 25.3716 9.09042 25.3716C7.15352 25.3716 5.57719 23.7805 5.57719 21.8246V20.2134H12.6039V21.8246H12.6037Z" fill="black" fill-opacity="0.87"/>
</svg>
