<svg width="27" height="26" viewBox="0 0 27 26" fill="none" xmlns="http://www.w3.org/2000/svg">
<path d="M4.76831 13.1645C4.76831 12.8991 4.55411 12.6844 4.2894 12.6844H1.00235C0.73764 12.6844 0.523438 12.8991 0.523438 13.1645C0.523438 13.4299 0.73764 13.6446 1.00235 13.6446H4.28911C4.55411 13.6446 4.76831 13.4299 4.76831 13.1645Z" fill="black" fill-opacity="0.87"/>
<path d="M26.167 12.6841H22.8799C22.6152 12.6841 22.401 12.8988 22.401 13.1642C22.401 13.4296 22.6152 13.6443 22.8799 13.6443H26.167C26.4317 13.6443 26.6459 13.4296 26.6459 13.1642C26.6459 12.8988 26.4317 12.6841 26.167 12.6841Z" fill="black" fill-opacity="0.87"/>
<path d="M5.78304 18.2537L3.12379 20.1904C2.90988 20.3461 2.86257 20.6461 3.01785 20.8611C3.17314 21.0753 3.47267 21.123 3.68687 20.9673L6.34611 19.0306C6.56003 18.8749 6.60734 18.5744 6.45205 18.3599C6.29677 18.1449 5.99695 18.0977 5.78304 18.2537Z" fill="black" fill-opacity="0.87"/>
<path d="M21.3862 8.07559L24.0456 6.13914C24.2595 5.98317 24.3068 5.68317 24.1515 5.46843C23.9962 5.25369 23.6967 5.20626 23.4825 5.36223L20.8231 7.29868C20.6092 7.45465 20.5619 7.75464 20.7172 7.96938C20.8725 8.18412 21.1723 8.23155 21.3862 8.07559Z" fill="black" fill-opacity="0.87"/>
<path d="M16.3092 4.75902C16.5609 4.84107 16.8311 4.70286 16.9127 4.45058L17.9286 1.31647C18.0101 1.06419 17.8728 0.793585 17.6209 0.711529C17.369 0.629473 17.099 0.767688 17.0175 1.01996L16.0016 4.15408C15.92 4.40606 16.0576 4.67696 16.3092 4.75902Z" fill="black" fill-opacity="0.87"/>
<path d="M10.2567 4.45059C10.3383 4.70287 10.6085 4.84079 10.8601 4.75902C11.1118 4.67726 11.2494 4.40636 11.1678 4.15408L10.1519 1.01998C10.0704 0.767699 9.80015 0.629776 9.5485 0.711541C9.29686 0.793305 9.15928 1.0642 9.24084 1.31648L10.2567 4.45059Z" fill="black" fill-opacity="0.87"/>
<path d="M24.0456 20.1904L21.3862 18.2537C21.1723 18.098 20.8725 18.1451 20.7172 18.3599C20.5619 18.574 20.6092 18.8749 20.8231 19.0306L23.4825 20.9673C23.6964 21.123 23.9962 21.0753 24.1515 20.8611C24.3068 20.6461 24.2595 20.3461 24.0456 20.1904Z" fill="black" fill-opacity="0.87"/>
<path d="M6.34611 7.29866L3.68687 5.3622C3.47296 5.20624 3.17314 5.25396 3.01785 5.46841C2.86257 5.68286 2.90988 5.98315 3.12379 6.13911L5.78304 8.07557C5.99695 8.23152 6.29677 8.1838 6.45205 7.96936C6.60734 7.75491 6.56003 7.45462 6.34611 7.29866Z" fill="black" fill-opacity="0.87"/>
<path fill-rule="evenodd" clip-rule="evenodd" d="M6.86652 13.1645C6.86652 9.45075 9.88018 6.42953 13.5846 6.42953C17.2891 6.42953 20.3028 9.45075 20.3028 13.1645C20.3028 16.2713 17.7436 19.8401 16.9661 20.8524V22.33C16.9661 24.1989 15.4489 25.7199 13.5846 25.7199C11.7204 25.7199 10.2032 24.1992 10.2032 22.33V20.8524C9.42594 19.8404 6.86652 16.2713 6.86652 13.1645ZM11.0229 20.3444H16.1461C16.7739 19.5305 19.3449 16.0231 19.3449 13.1645C19.3449 9.98004 16.7611 7.38976 13.5846 7.38976C10.4081 7.38976 7.82434 9.98033 7.82434 13.1645C7.82434 16.0274 10.3951 19.5311 11.0229 20.3444ZM16.0082 22.33C16.0082 23.6697 14.9212 24.7597 13.5846 24.7597C12.2483 24.7597 11.1611 23.6697 11.1611 22.33V21.3049H16.0082V22.33Z" fill="black" fill-opacity="0.87"/>
</svg>
