<svg width="27" height="20" viewBox="0 0 27 20" fill="none" xmlns="http://www.w3.org/2000/svg">
<path d="M20.5092 8.16721C21.0487 8.16721 21.4861 7.7287 21.4861 7.18777C21.4861 6.64685 21.0487 6.20834 20.5092 6.20834C19.9696 6.20834 19.5322 6.64685 19.5322 7.18777C19.5322 7.7287 19.9696 8.16721 20.5092 8.16721Z" fill="black" fill-opacity="0.87"/>
<path d="M16.3217 8.16721C16.8613 8.16721 17.2987 7.7287 17.2987 7.18777C17.2987 6.64685 16.8613 6.20834 16.3217 6.20834C15.7822 6.20834 15.3448 6.64685 15.3448 7.18777C15.3448 7.7287 15.7822 8.16721 16.3217 8.16721Z" fill="black" fill-opacity="0.87"/>
<path d="M10.8758 6.62647H9.20367V4.95015C9.20367 4.64026 8.95318 4.38885 8.64407 4.38885C8.33495 4.38885 8.08418 4.63997 8.08418 4.95015V6.62647H6.41176C6.10293 6.62647 5.85187 6.87758 5.85187 7.18777C5.85187 7.49795 6.10264 7.74935 6.41176 7.74935H8.08418V9.42538C8.08418 9.73498 8.33466 9.98668 8.64407 9.98668C8.95289 9.98668 9.20367 9.73527 9.20367 9.42538V7.74935H10.8758C11.1849 7.74935 11.436 7.49795 11.436 7.18777C11.436 6.87758 11.1852 6.62647 10.8758 6.62647Z" fill="black" fill-opacity="0.87"/>
<path d="M18.4156 6.06839C18.9554 6.06839 19.3929 5.62975 19.3929 5.08867C19.3929 4.54758 18.9554 4.10895 18.4156 4.10895C17.8759 4.10895 17.4384 4.54758 17.4384 5.08867C17.4384 5.62975 17.8759 6.06839 18.4156 6.06839Z" fill="black" fill-opacity="0.87"/>
<path d="M18.4156 10.266C18.9551 10.266 19.3925 9.82751 19.3925 9.28659C19.3925 8.74567 18.9551 8.30716 18.4156 8.30716C17.876 8.30716 17.4386 8.74567 17.4386 9.28659C17.4386 9.82751 17.876 10.266 18.4156 10.266Z" fill="black" fill-opacity="0.87"/>
<path fill-rule="evenodd" clip-rule="evenodd" d="M8.20985 0.862793H18.8498C22.5578 0.862793 24.9662 5.48264 25.9844 9.80628C26.9144 13.7575 26.8979 18.2373 25.0661 19.1554C24.5428 19.4178 24.0641 19.545 23.6024 19.545C22.1116 19.545 21.2484 18.2083 20.4134 16.9154C19.9313 16.1682 19.4326 15.3962 18.8132 14.848C17.8406 13.987 16.8869 13.9015 14.7825 13.9015L13.5298 13.9044L12.2771 13.9015C10.1728 13.9015 9.21905 13.987 8.24642 14.848C7.62703 15.396 7.12838 16.1682 6.64627 16.9154C5.81094 18.2083 4.94803 19.545 3.4573 19.545C2.99523 19.545 2.5169 19.4178 1.99358 19.1554C0.162104 18.2373 0.14556 13.7572 1.07523 9.80628C2.09342 5.48264 4.50249 0.862793 8.20985 0.862793ZM23.6024 18.6197C23.9129 18.6197 24.2664 18.521 24.6531 18.3276C25.6849 17.8108 26.1043 14.3487 25.0855 10.0193C24.1486 6.04015 22.0188 1.78839 18.8501 1.78839H8.21014C5.04178 1.78839 2.91193 6.04015 1.975 10.0193C0.955356 14.3487 1.37535 17.8108 2.4066 18.3276C2.79351 18.521 3.14732 18.6197 3.45759 18.6197C4.4456 18.6191 5.10621 17.5963 5.87102 16.4123C6.38708 15.6127 6.92085 14.7864 7.63515 14.1541C8.9018 13.0321 10.2248 12.975 12.2771 12.975L13.5298 12.9779L14.7828 12.975C16.8355 12.975 18.1581 13.0323 19.4248 14.1538C20.1391 14.7864 20.6729 15.6127 21.1889 16.4123C21.9534 17.5969 22.6141 18.6197 23.6024 18.6197Z" fill="black" fill-opacity="0.87"/>
</svg>
