<svg width="20" height="27" viewBox="0 0 20 27" fill="none" xmlns="http://www.w3.org/2000/svg">
<path fill-rule="evenodd" clip-rule="evenodd" d="M4.43703 0.589638L18.4767 11.219C19.3079 11.8505 19.6457 12.9434 19.3174 13.9394C18.9871 14.9363 18.0663 15.6064 17.0266 15.6064H15.3994C15.1426 15.6064 14.9483 15.6826 14.867 15.8159C14.7794 15.9588 14.8019 16.1869 14.9281 16.4418L17.1203 20.869C17.7158 22.0708 17.2318 23.5379 16.0421 24.139L12.276 26.0406C11.9454 26.2087 11.5713 26.2981 11.1951 26.2981C10.9312 26.2981 10.6723 26.2553 10.4253 26.1712C9.82727 25.9704 9.32 25.5255 9.03611 24.9514L6.84364 20.5225C6.7099 20.2513 6.5318 20.0965 6.35596 20.0965C6.20724 20.0965 6.0447 20.2041 5.89856 20.4017L4.92152 21.7163C4.46815 22.3265 3.74615 22.6911 2.99046 22.6911C2.73049 22.6911 2.47253 22.6489 2.22466 22.566C1.23781 22.2334 0.575195 21.3034 0.575195 20.2527V2.54035C0.575195 1.61097 1.08707 0.775573 1.91051 0.360057C2.23475 0.196819 2.60482 0.110107 2.98066 0.110107C3.51154 0.110107 4.02862 0.28062 4.43703 0.589638ZM17.0266 14.6799C17.6717 14.6799 18.2423 14.2644 18.4476 13.6467C18.6505 13.0292 18.4409 12.3509 17.9256 11.9593L3.8871 1.33076C3.45996 1.00777 2.79908 0.94725 2.32064 1.18905C1.81021 1.44657 1.49288 1.96451 1.49288 2.54064V20.2527C1.49288 20.9048 1.9033 21.4815 2.51432 21.687C3.11237 21.8877 3.80899 21.6701 4.18742 21.1606L5.16449 19.8457C5.48844 19.4101 5.91182 19.17 6.35625 19.17C6.89235 19.17 7.36934 19.5122 7.66447 20.1087L9.85722 24.5371C10.0331 24.8932 10.3469 25.1685 10.717 25.293C11.0874 25.4196 11.5162 25.3902 11.8641 25.213L15.6314 23.3109C16.3686 22.9385 16.6687 22.0289 16.2998 21.284L14.1073 16.8564C13.8358 16.3079 13.8283 15.751 14.0865 15.3288C14.3387 14.9165 14.8172 14.6799 15.3994 14.6799H17.0266Z" fill="black" fill-opacity="0.87"/>
</svg>
