<svg width="27" height="15" viewBox="0 0 27 15" fill="none" xmlns="http://www.w3.org/2000/svg">
<path fill-rule="evenodd" clip-rule="evenodd" d="M6.86547 0.782349H19.4641C23.1926 0.782349 26.226 3.82334 26.226 7.56122C26.226 11.2991 23.1926 14.3401 19.4641 14.3401H6.86547C3.13692 14.3401 0.103516 11.2991 0.103516 7.56122C0.103516 3.82334 3.13692 0.782349 6.86547 0.782349ZM6.86547 13.413H19.4641C22.6832 13.413 25.3019 10.7884 25.3019 7.56122C25.3019 4.33429 22.6832 1.7094 19.4641 1.7094H6.86547C3.6466 1.7094 1.02767 4.33429 1.02767 7.56122C1.02767 10.7881 3.6466 13.413 6.86547 13.413Z" fill="black" fill-opacity="0.87"/>
<path fill-rule="evenodd" clip-rule="evenodd" d="M15.5027 7.56126C15.5027 5.37135 17.28 3.58939 19.4641 3.58939C21.6488 3.58939 23.426 5.37135 23.426 7.56126C23.426 9.75118 21.6488 11.5331 19.4641 11.5331C17.28 11.5331 15.5027 9.75118 15.5027 7.56126ZM16.4266 7.56126C16.4266 9.24138 17.7893 10.6067 19.4641 10.6067C21.1394 10.6067 22.5022 9.24109 22.5022 7.56126C22.5022 5.88173 21.1391 4.51587 19.4641 4.51587C17.7893 4.51587 16.4266 5.88202 16.4266 7.56126Z" fill="black" fill-opacity="0.87"/>
</svg>
