<svg width="28" height="23" viewBox="0 0 28 23" fill="none" xmlns="http://www.w3.org/2000/svg">
<path fill-rule="evenodd" clip-rule="evenodd" d="M15.98 2.33277C17.2916 1.17055 19.0348 0.504028 20.7621 0.504028C23.4742 0.504028 25.8769 2.33422 26.7404 5.05824C28.2685 9.87794 24.8291 15.8063 17.5406 20.9173C16.5538 21.609 14.8277 22.6745 14.7545 22.7197C14.556 22.8421 14.3006 22.9093 14.0356 22.9093C13.7706 22.9093 13.5152 22.8421 13.3169 22.7197C13.2438 22.6742 11.5171 21.609 10.5305 20.9173C3.24211 15.8063 -0.196755 9.87794 1.3314 5.05824C2.19518 2.33422 4.59786 0.504028 7.30995 0.504028C9.03749 0.504028 10.7802 1.17055 12.0918 2.33277C13.2423 3.35225 13.963 5.06488 13.9932 5.13727C14.0083 5.17926 14.0228 5.21517 14.0362 5.24613C14.0469 5.22066 14.0582 5.192 14.0698 5.15956C14.1087 5.06488 14.8297 3.35225 15.98 2.33277ZM14.2695 21.9359C14.287 21.9252 16.0458 20.8397 17.0098 20.1633C23.9516 15.2958 27.2608 9.75256 25.86 5.33618C25.1187 2.99698 23.0699 1.42535 20.7621 1.42535C19.258 1.42535 17.7383 2.00704 16.5935 3.02159C15.6 3.9021 14.938 5.47489 14.9313 5.49052C14.677 6.20656 14.2608 6.31687 14.0362 6.31687C13.8115 6.31687 13.3956 6.20656 13.132 5.46823C13.1312 5.46823 12.4662 3.8966 11.4788 3.0213C10.3337 2.00675 8.81487 1.42506 7.31024 1.42506C5.00276 1.42506 2.95389 2.99669 2.21231 5.33589C0.811858 9.75256 4.12011 15.2955 11.0623 20.1633C12.0265 20.8397 13.7854 21.9252 13.8028 21.9359C13.8437 21.9611 13.9268 21.988 14.0362 21.988C14.1456 21.988 14.2283 21.9611 14.2695 21.9359Z" fill="black" fill-opacity="0.87"/>
</svg>
