<svg width="19" height="27" viewBox="0 0 19 27" fill="none" xmlns="http://www.w3.org/2000/svg">
<path d="M18.465 26.0195H1.18934C0.933922 26.0195 0.727264 26.2267 0.727264 26.4827C0.727264 26.7388 0.933922 26.9463 1.18934 26.9463H18.465C18.7204 26.9463 18.9271 26.7388 18.9271 26.4827C18.9271 26.2267 18.7204 26.0195 18.465 26.0195Z" fill="black" fill-opacity="0.87"/>
<path fill-rule="evenodd" clip-rule="evenodd" d="M1.38411 23.1869L4.42387 21.7692C5.05603 21.4747 5.86495 20.795 6.26521 20.2221L16.5745 5.46134C17.5176 4.1112 17.1893 2.24342 15.8425 1.29774C14.4958 0.352064 12.6333 0.681744 11.6897 2.03188L12.0681 2.29754L11.6897 2.03217L1.38005 16.7929C0.979796 17.3653 0.619307 18.3598 0.558936 19.0564L0.269557 22.4047C0.242564 22.721 0.355471 22.9925 0.579543 23.1496C0.701448 23.2352 0.843669 23.2782 0.994308 23.2782C1.12086 23.2785 1.38411 23.1869 1.38411 23.1869ZM15.3123 2.05661C14.382 1.40366 13.0968 1.63179 12.4458 2.5635L10.5223 5.3176L13.8935 7.68442L15.8173 4.93031C16.468 3.99859 16.2413 2.70928 15.3123 2.05661ZM9.99261 6.07618L13.3638 8.4427L6.55604 18.1899L3.18451 15.8237L9.99261 6.07618ZM2.13673 17.3242C1.83226 17.7595 1.52517 18.6066 1.47931 19.1367L1.21054 22.2461L4.03378 20.9295C4.51501 20.7051 5.20377 20.1264 5.50795 19.691L6.02633 18.9488L2.65453 16.5825L2.13673 17.3242Z" fill="black" fill-opacity="0.87"/>
</svg>
