<svg width="28" height="27" viewBox="0 0 28 27" fill="none" xmlns="http://www.w3.org/2000/svg">
<path fill-rule="evenodd" clip-rule="evenodd" d="M4.2589 0.467285H23.8577C25.6561 0.467285 27.1196 1.93439 27.1196 3.73729V17.0699C27.1196 18.8728 25.6561 20.3402 23.8574 20.3399H17.4989L19.2909 25.7288H21.7575C22.0126 25.7288 22.2199 25.936 22.2199 26.192C22.2199 26.4475 22.0126 26.6553 21.7575 26.6553H6.35857C6.10344 26.6553 5.89649 26.4475 5.89649 26.192C5.89649 25.936 6.10344 25.7288 6.35857 25.7288H8.8254L10.6174 20.3399H4.2589C2.46051 20.3399 0.99707 18.8725 0.99707 17.0696V3.73729C0.99707 1.93439 2.46051 0.467285 4.2589 0.467285ZM23.8574 19.4134C25.147 19.4134 26.1954 18.3618 26.1954 17.0699V3.73729C26.1954 2.44448 25.1467 1.39318 23.8574 1.39318H4.2589C2.9699 1.39318 1.92094 2.44477 1.92094 3.73729V17.0699C1.92094 18.3621 2.9699 19.4134 4.2589 19.4134H23.8574ZM18.3172 25.7288H9.79948L11.5915 20.3399H16.5249L18.3172 25.7288Z" fill="black" fill-opacity="0.87"/>
</svg>
