<svg width="27" height="25" viewBox="0 0 27 25" fill="none" xmlns="http://www.w3.org/2000/svg">
<path fill-rule="evenodd" clip-rule="evenodd" d="M11.4671 5.12563C11.4671 3.91926 12.4464 2.93839 13.6501 2.93839C14.8538 2.93839 15.8331 3.91926 15.8331 5.12563C15.8331 6.33201 14.854 7.31375 13.6501 7.31375C12.4461 7.31375 11.4671 6.33201 11.4671 5.12563ZM12.3097 5.12563C12.3097 5.86616 12.9111 6.46877 13.6501 6.46877C14.3891 6.46877 14.9902 5.86587 14.9902 5.12563C14.9902 4.38569 14.3891 3.78337 13.6501 3.78337C12.9111 3.78337 12.3097 4.38569 12.3097 5.12563Z" fill="black" fill-opacity="0.87"/>
<path fill-rule="evenodd" clip-rule="evenodd" d="M26.0066 6.2386L14.7899 0.517397C14.1693 0.201395 13.1311 0.201395 12.5103 0.517397L1.29388 6.2386C0.891597 6.44345 0.588867 6.93869 0.588867 7.39029V8.49979C0.588867 9.10007 1.07649 9.58921 1.67556 9.58921H3.54012V11.2859C3.54012 11.6741 3.85533 11.9898 4.24253 11.9898H4.35833V18.0407H4.24253C3.85533 18.0407 3.54012 18.3564 3.54012 18.7448V20.4427H2.41454C1.40795 20.4427 0.588867 21.2635 0.588867 22.2729V23.0114C0.588867 24.0205 1.40795 24.8417 2.41454 24.8417H24.8856C25.8922 24.8417 26.7113 24.0205 26.7113 23.0114V22.2729C26.7113 21.2635 25.8922 20.4427 24.8856 20.4427H23.76V18.7448C23.76 18.3564 23.4448 18.0407 23.0576 18.0407H22.9418V11.9898H23.0576C23.4448 11.9898 23.76 11.6741 23.76 11.2859V9.58921H25.6249C26.2237 9.58921 26.7113 9.10007 26.7113 8.49979V7.39029C26.7113 6.93869 26.4086 6.44345 26.0066 6.2386ZM25.6249 8.7445C25.7593 8.7445 25.8687 8.63422 25.8687 8.49979H25.8684V7.39029C25.8684 7.25673 25.743 7.05188 25.6246 6.99136L14.4073 1.27074C14.2164 1.17326 13.9403 1.11739 13.6501 1.11739C13.3598 1.11739 13.0841 1.17326 12.8925 1.27074L1.67556 6.99136C1.55714 7.05188 1.43146 7.25702 1.43146 7.39029V8.49979C1.43146 8.63422 1.54088 8.7445 1.67556 8.7445H25.6249ZM4.49882 11.1451H4.3833V9.58921H7.91186V11.0988H7.79634C7.40915 11.0988 7.09393 11.4151 7.09393 11.803V18.1358C7.09393 18.5243 7.40915 18.84 7.79634 18.84H7.91186V20.4427H4.38301V18.8854H4.49853C4.88543 18.8854 5.20093 18.5697 5.20093 18.1815V11.8492C5.20122 11.4608 4.88572 11.1451 4.49882 11.1451ZM11.8604 11.9438H11.7449C11.358 11.9438 11.0428 11.6281 11.0428 11.2399V9.58921H8.75416V11.2399C8.75416 11.6281 8.43953 11.9438 8.05234 11.9438H7.93653V17.995H8.05234C8.43953 17.995 8.75416 18.3107 8.75416 18.6991V20.4427H11.0428V18.6991C11.0428 18.3107 11.358 17.995 11.7449 17.995H11.8604V11.9438ZM19.3634 11.9898H19.2478C18.8606 11.9898 18.546 11.6741 18.546 11.2859V9.58921H16.2565V11.2859C16.2565 11.6741 15.9413 11.9898 15.5541 11.9898H15.4395V18.0407H15.5541C15.9413 18.0407 16.2565 18.3564 16.2565 18.7448V20.4427H18.546V18.7448C18.546 18.3564 18.8606 18.0407 19.2478 18.0407H19.3634V11.9898ZM19.5038 11.1451H19.3886V9.58921H22.9172V11.1451H22.8016C22.4145 11.1451 22.0992 11.4608 22.0992 11.8492V18.1818C22.0992 18.5699 22.4145 18.8857 22.8016 18.8857H22.9172V20.443H19.3886V18.8857H19.5038C19.8913 18.8857 20.2062 18.5699 20.2062 18.1818V11.8492C20.2062 11.4608 19.8913 11.1451 19.5038 11.1451ZM12.0009 11.0991H11.8851V9.5895H15.4139V11.1454H15.299C14.9115 11.1454 14.5969 11.4611 14.5969 11.8495V18.1821C14.5969 18.5702 14.9115 18.8859 15.299 18.8859H15.4139V20.4433H11.8851V18.8406H12.0009C12.3884 18.8406 12.703 18.5248 12.703 18.1364V11.8033C12.703 11.4154 12.3884 11.0991 12.0009 11.0991ZM25.8687 22.2729C25.8687 21.7294 25.4275 21.2871 24.8856 21.2871H2.41454C1.87264 21.2871 1.43146 21.7294 1.43146 22.2729V23.0114C1.43146 23.5547 1.87264 23.9973 2.41454 23.9973H24.8856C25.4275 23.9973 25.8687 23.5547 25.8687 23.0114V22.2729Z" fill="black" fill-opacity="0.87"/>
</svg>
