<svg width="27" height="27" viewBox="0 0 27 27" fill="none" xmlns="http://www.w3.org/2000/svg">
<path d="M25.3649 0.606606L17.1752 8.8166C17.1752 8.81543 17.1746 8.81369 17.1749 8.81252V1.80195C17.1746 1.53919 16.9627 1.32649 16.7009 1.32649C16.4394 1.3262 16.227 1.5389 16.227 1.80195V8.81223C16.227 9.7099 16.9549 10.44 17.8497 10.44H24.8433C25.1051 10.44 25.317 10.2273 25.317 9.96451C25.317 9.70176 25.1054 9.48934 24.8433 9.48934H17.8497C17.8483 9.48934 17.8468 9.48876 17.8457 9.48876L26.035 1.27877C26.2202 1.09312 26.2202 0.791668 26.035 0.606606C25.8499 0.421252 25.5503 0.421252 25.3649 0.606606Z" fill="black" fill-opacity="0.87"/>
<path d="M17.8457 17.6338C17.8468 17.6338 17.8486 17.6332 17.85 17.6332H24.8433C25.1054 17.6332 25.3173 17.4208 25.3173 17.158C25.3173 16.8953 25.1057 16.6826 24.8433 16.6826H17.8497C16.9549 16.6826 16.2267 17.4126 16.2267 18.3094V25.3205C16.2267 25.5833 16.4388 25.796 16.7009 25.796C16.963 25.796 17.1749 25.5836 17.1749 25.3205V18.3094C17.1749 18.3085 17.1752 18.3068 17.1752 18.3056L25.3649 26.5156C25.5501 26.7012 25.8499 26.7012 26.0354 26.5156C26.2205 26.3296 26.2205 26.029 26.0354 25.8434L17.8457 17.6338Z" fill="black" fill-opacity="0.87"/>
<path d="M9.05081 18.3094V25.3205C9.05081 25.5832 9.2624 25.796 9.52479 25.796C9.78659 25.796 9.99905 25.5835 9.99905 25.3205V18.3094C9.99905 17.4126 9.27082 16.6826 8.37627 16.6831H1.38244C1.12064 16.6826 0.908756 16.8958 0.908465 17.158C0.908756 17.4205 1.12035 17.6332 1.38273 17.6332H8.37627C8.37743 17.6332 8.37888 17.6338 8.38034 17.6338L0.190388 25.844C0.00549941 26.0293 0.00549941 26.3299 0.190678 26.5158C0.376149 26.7015 0.675973 26.7015 0.861442 26.5158L9.05052 18.3059C9.05052 18.3071 9.05081 18.3085 9.05081 18.3094Z" fill="black" fill-opacity="0.87"/>
<path d="M1.38345 9.48937C1.12165 9.48937 0.909474 9.70179 0.909474 9.96454C0.909474 10.2264 1.12136 10.44 1.38316 10.44H8.377C9.27155 10.4394 9.9995 9.70994 9.99979 8.81285V1.80198C9.99979 1.53923 9.78732 1.32652 9.52552 1.32652C9.26371 1.32652 9.05183 1.53894 9.05183 1.80198V8.81285C9.05183 8.81459 9.05125 8.81575 9.05125 8.8175L0.861583 0.606641C0.676403 0.420996 0.375995 0.420996 0.191686 0.606641C0.00650642 0.792577 0.00650642 1.09316 0.191395 1.27851L8.38136 9.48879C8.3799 9.48879 8.37845 9.48937 8.377 9.48937H1.38345Z" fill="black" fill-opacity="0.87"/>
</svg>
