<svg width="27" height="27" viewBox="0 0 27 27" fill="none" xmlns="http://www.w3.org/2000/svg">
<path fill-rule="evenodd" clip-rule="evenodd" d="M12.8078 0.467285C13.3686 0.467285 13.9929 0.778788 14.6135 1.36757L25.7886 11.9764C26.2318 12.3969 26.4759 12.9599 26.4759 13.5608C26.4759 14.1621 26.2318 14.7254 25.7886 15.1456L14.6135 25.7544C13.9929 26.3432 13.3686 26.6547 12.8078 26.6547C12.0299 26.6547 11.199 26.0331 11.199 24.2897V19.1325C11.199 18.9518 11.1702 18.8567 11.1505 18.8123C11.1049 18.8288 11.0155 18.8738 10.8849 18.9976L3.76743 25.755C3.14716 26.3438 2.52342 26.6553 1.96237 26.6553C1.1845 26.6553 0.353516 26.0337 0.353516 24.2903V2.83169C0.353516 1.08855 1.1845 0.467285 1.96208 0.467285C2.52342 0.467285 3.14774 0.778788 3.76743 1.36757L10.8849 8.12433C11.0155 8.24817 11.1049 8.29342 11.1505 8.30969C11.1702 8.26557 11.199 8.16958 11.199 7.98976V2.8314C11.199 1.08855 12.0299 0.467285 12.8078 0.467285ZM13.9749 25.0839L25.1501 14.4745C25.4072 14.2308 25.5489 13.9063 25.5486 13.5611C25.5486 13.2163 25.4072 12.8923 25.1504 12.6484L13.9746 2.0393C13.3831 1.47749 12.9892 1.39367 12.8075 1.39367C12.1745 1.39367 12.1254 2.49466 12.1254 2.83169V7.99005C12.1254 8.91672 11.6187 9.24535 11.1847 9.24535C10.8768 9.24564 10.5607 9.09422 10.2467 8.79608L3.12917 2.0393C2.53735 1.47749 2.14406 1.39367 1.96208 1.39367C1.32933 1.39367 1.28057 2.49466 1.28057 2.83169V24.2906C1.28057 24.6285 1.32933 25.7292 1.96237 25.7292C2.14406 25.7292 2.53764 25.6453 3.12917 25.0839L10.2469 18.3268C10.561 18.0283 10.8768 17.8775 11.185 17.8775C11.619 17.8775 12.1257 18.2064 12.1257 19.1331V24.2906C12.1257 24.6285 12.1748 25.7292 12.8078 25.7292C12.9895 25.7292 13.3837 25.6453 13.9749 25.0839Z" fill="black" fill-opacity="0.87"/>
</svg>
