<svg width="28" height="27" viewBox="0 0 28 27" fill="none" xmlns="http://www.w3.org/2000/svg">
<path d="M25.4859 0.467285H18.6685C18.4131 0.467285 18.2064 0.675045 18.2064 0.930525C18.2064 1.18659 18.4131 1.39376 18.6685 1.39376H25.4859C25.4874 1.39376 25.4885 1.39435 25.49 1.39435L17.5064 9.39803C17.3258 9.57844 17.3258 9.87175 17.5064 10.0527C17.6869 10.2337 17.9795 10.2337 18.16 10.0527L26.1433 2.04934C26.1436 2.0505 26.1439 2.05196 26.1439 2.05312V8.88765C26.1439 9.14371 26.3506 9.35089 26.606 9.35089C26.8614 9.35089 27.0678 9.14371 27.0678 8.88765V2.05312C27.0678 1.17873 26.3581 0.467285 25.4859 0.467285Z" fill="black" fill-opacity="0.87"/>
<path d="M26.6057 17.7717C26.3503 17.7717 26.1436 17.9789 26.1436 18.235V25.0694C26.1436 25.0706 26.1433 25.0721 26.1433 25.0732L18.16 17.0699C17.9795 16.8889 17.6869 16.8889 17.5064 17.0699C17.3258 17.2509 17.3258 17.5442 17.5064 17.7252L25.49 25.7285C25.4885 25.7285 25.4874 25.7291 25.4859 25.7291H18.6685C18.4131 25.7291 18.2064 25.9363 18.2064 26.1923C18.2064 26.4484 18.4131 26.6553 18.6685 26.6553H25.4859C26.3581 26.6553 27.0678 25.9438 27.0678 25.0694V18.235C27.0678 17.9789 26.8611 17.7717 26.6057 17.7717Z" fill="black" fill-opacity="0.87"/>
<path d="M9.80661 26.192C9.80661 25.936 9.59996 25.7288 9.34454 25.7288H2.52717C2.52572 25.7288 2.52456 25.7282 2.52311 25.7282L10.5067 17.7252C10.6872 17.5442 10.6872 17.2509 10.5067 17.0699C10.3262 16.8889 10.0336 16.8889 9.85334 17.0699L1.86976 25.0732C1.86976 25.0721 1.86947 25.0706 1.86947 25.0694V18.235C1.86947 17.9789 1.66252 17.7717 1.40739 17.7717C1.15226 17.7717 0.945312 17.9789 0.945312 18.235V25.0694C0.945312 25.9438 1.65497 26.6553 2.52717 26.6553H9.34454C9.59996 26.6553 9.80661 26.4481 9.80661 26.192Z" fill="black" fill-opacity="0.87"/>
<path d="M9.34455 1.39376C9.59997 1.39376 9.80663 1.18659 9.80663 0.930525C9.80663 0.675045 9.59997 0.467285 9.34455 0.467285H2.52717C1.65497 0.467285 0.945312 1.17873 0.945312 2.05312V8.88765C0.945312 9.14371 1.15226 9.35089 1.40739 9.35089C1.66252 9.35089 1.86947 9.14371 1.86947 8.88765V2.05312C1.86947 2.05138 1.86976 2.0505 1.86976 2.04876L9.85365 10.0527C10.0339 10.2337 10.3265 10.2337 10.507 10.0527C10.6875 9.87175 10.6875 9.57844 10.507 9.39803L2.52311 1.39435C2.52485 1.39435 2.52572 1.39376 2.52746 1.39376H9.34455Z" fill="black" fill-opacity="0.87"/>
</svg>
