<svg width="28" height="21" viewBox="0 0 28 21" fill="none" xmlns="http://www.w3.org/2000/svg">
<path fill-rule="evenodd" clip-rule="evenodd" d="M24.3908 1.45283C24.8706 0.995417 25.3594 0.753906 25.8043 0.753906C26.4362 0.753906 27.1108 1.24478 27.1108 2.62373V18.4994C27.1108 19.8775 26.4362 20.3687 25.8043 20.3687C25.3597 20.3687 24.8706 20.1266 24.3908 19.6695L19.1411 14.6708C19.1318 14.6617 19.1222 14.6536 19.1138 14.6452C19.1132 14.6577 19.1132 14.6696 19.1132 14.6827V18.4994C19.1132 19.8775 18.4384 20.3681 17.8068 20.3687C17.3616 20.3687 16.8728 20.1272 16.3924 19.6695L8.15224 11.8218C7.80074 11.4872 7.60715 11.0394 7.60715 10.5613C7.60715 10.0832 7.80074 9.6354 8.15195 9.30194L16.3924 1.45254C16.8728 0.995417 17.3616 0.753906 17.8068 0.753906C18.4384 0.753906 19.1132 1.24508 19.1132 2.62373V6.43902C19.1132 6.4524 19.1132 6.46521 19.1138 6.47743C19.1225 6.46957 19.1318 6.46142 19.1414 6.45182L24.3908 1.45283ZM25.8043 19.4422C26.0862 19.4422 26.1866 18.9347 26.1866 18.4994H26.1869V2.62314C26.1869 2.18813 26.0868 1.6798 25.8046 1.6798C25.7109 1.6798 25.4482 1.72315 25.0273 2.12383L19.7779 7.12282C19.5233 7.36549 19.263 7.48828 19.0035 7.48828C18.5983 7.48828 18.1894 7.16384 18.1894 6.43873V2.62344C18.1894 2.18842 18.0892 1.68009 17.8071 1.68009C17.7133 1.68009 17.4501 1.72344 17.0289 2.12412L8.78817 9.97352C8.62244 10.1309 8.53101 10.3399 8.53101 10.5613C8.53101 10.7827 8.62244 10.9914 8.78846 11.1494L17.0286 18.9976C17.4501 19.3989 17.7131 19.4422 17.8068 19.4422C18.0886 19.4422 18.1891 18.9347 18.1891 18.4994V14.6827C18.1891 13.9582 18.598 13.634 19.0032 13.634C19.2627 13.634 19.5231 13.7571 19.7776 13.9995L25.0271 18.9976C25.4479 19.3989 25.7109 19.4422 25.8043 19.4422Z" fill="black" fill-opacity="0.87"/>
<path fill-rule="evenodd" clip-rule="evenodd" d="M4.53019 20.3694H2.85023C1.82362 20.3694 0.988281 19.5317 0.988281 18.5028V2.62124C0.988281 1.59234 1.82362 0.754907 2.85023 0.754907H4.53019C5.5571 0.754907 6.39214 1.59234 6.39214 2.62124V18.5028C6.39214 19.5317 5.5571 20.3694 4.53019 20.3694ZM2.85023 1.68109C2.3333 1.68109 1.91244 2.10301 1.91244 2.62124V18.5028C1.91244 19.0213 2.33301 19.4429 2.85023 19.4429H4.53019C5.04771 19.4429 5.46799 19.0213 5.46799 18.5028V2.62124C5.46799 2.10301 5.04771 1.68109 4.53019 1.68109H2.85023Z" fill="black" fill-opacity="0.87"/>
</svg>
