<svg width="27" height="21" viewBox="0 0 27 21" fill="none" xmlns="http://www.w3.org/2000/svg">
<path fill-rule="evenodd" clip-rule="evenodd" d="M3.00997 19.6695C2.53018 20.1266 2.04111 20.3687 1.59645 20.3687C0.964579 20.3687 0.290039 19.8778 0.290039 18.4997V2.62373C0.290039 1.24478 0.964579 0.753906 1.59645 0.753906C2.0414 0.753906 2.53018 0.995417 3.00997 1.45283L8.25942 6.45182C8.269 6.46142 8.27857 6.46957 8.28699 6.47743C8.28757 6.46521 8.28757 6.4524 8.28757 6.43902V2.62373C8.28757 1.24508 8.9624 0.753906 9.59398 0.753906C10.0392 0.753906 10.528 0.995417 11.0084 1.45254L19.2491 9.30194C19.6 9.6354 19.7939 10.0829 19.7939 10.5613C19.7939 11.0394 19.6 11.4872 19.2488 11.8218L11.0084 19.6695C10.528 20.1272 10.0392 20.3687 9.59398 20.3687C8.9624 20.3681 8.28757 19.8775 8.28757 18.4994V14.6827C8.28757 14.6696 8.28757 14.6577 8.28699 14.6452C8.27828 14.6536 8.269 14.6617 8.25971 14.6708L3.00997 19.6695ZM1.59645 1.68038C1.31462 1.68038 1.21419 2.18872 1.21419 2.62373V18.4994C1.21419 18.9347 1.31433 19.4422 1.59645 19.4422C1.6902 19.4422 1.95288 19.3989 2.37374 18.9976L7.6229 13.9995C7.87745 13.7571 8.1378 13.634 8.39729 13.634C8.80247 13.634 9.21144 13.9585 9.21144 14.6827V18.4994C9.21144 18.9347 9.31157 19.4422 9.59369 19.4422C9.68774 19.4422 9.9507 19.3989 10.3719 18.9976L18.6123 11.1494C18.7786 10.9916 18.8698 10.783 18.8698 10.5613C18.8698 10.3396 18.7783 10.1309 18.6126 9.97352L10.3721 2.12441C9.9507 1.72373 9.68745 1.68038 9.59398 1.68038C9.31215 1.68038 9.21173 2.18872 9.21173 2.62373V6.43931C9.21173 7.16443 8.80276 7.48887 8.39758 7.48887C8.13809 7.48887 7.87774 7.36607 7.62319 7.1234L2.37374 2.12441C1.95288 1.72373 1.68991 1.68038 1.59645 1.68038Z" fill="black" fill-opacity="0.87"/>
<path fill-rule="evenodd" clip-rule="evenodd" d="M22.8709 0.75415H24.5505C25.5772 0.75415 26.4125 1.59158 26.4125 2.62048V18.502C26.4125 19.5309 25.5772 20.3687 24.5505 20.3687H22.8709C21.844 20.3687 21.0089 19.5309 21.0089 18.502V2.62048C21.0089 1.59158 21.844 0.75415 22.8709 0.75415ZM24.5505 19.4422C25.0678 19.4422 25.4883 19.0206 25.4883 18.502V2.62048C25.4883 2.10225 25.0678 1.68033 24.5505 1.68033H22.8709C22.3533 1.68033 21.9331 2.10225 21.9331 2.62048V18.502C21.9331 19.0206 22.3533 19.4422 22.8709 19.4422H24.5505Z" fill="black" fill-opacity="0.87"/>
</svg>
