<svg width="28" height="27" viewBox="0 0 28 27" fill="none" xmlns="http://www.w3.org/2000/svg">
<path fill-rule="evenodd" clip-rule="evenodd" d="M23.6832 0.958492C24.3029 0.369434 24.9272 0.0582275 25.4885 0.0582275C26.2661 0.0582275 27.0971 0.679479 27.0971 2.42258V23.8813C27.0971 25.6244 26.2661 26.2462 25.4883 26.2462C24.9272 26.2462 24.3035 25.9344 23.6832 25.346L16.5657 18.5888C16.4351 18.4649 16.3457 18.42 16.3001 18.4034C16.2804 18.4478 16.2516 18.5429 16.2516 18.7236V23.881C16.2516 25.6241 15.4206 26.2459 14.6428 26.2459C14.082 26.2459 13.4577 25.9341 12.8371 25.3457L1.66192 14.7371C1.21871 14.316 0.974609 13.7527 0.974609 13.1515C0.974609 12.5505 1.21871 11.9876 1.66192 11.567L12.8371 0.95878C13.4577 0.369722 14.082 0.0585176 14.6428 0.0585176C15.4206 0.0585176 16.2516 0.679479 16.2516 2.42258V7.58052C16.2516 7.76064 16.2804 7.85663 16.3001 7.90045C16.3457 7.88419 16.4351 7.83894 16.5657 7.7151L23.6832 0.958492ZM25.4883 25.3193C26.1213 25.3193 26.17 24.2186 26.17 23.8807H26.1698V2.42229C26.1698 2.08527 26.121 0.984305 25.4883 0.984305C25.3066 0.984305 24.913 1.06812 24.3212 1.62992L17.2036 8.38653C16.8896 8.6847 16.5738 8.83609 16.2656 8.8358C15.8316 8.8358 15.3249 8.5072 15.3249 7.58052V2.42229C15.3249 2.08527 15.2758 0.984305 14.6428 0.984305C14.4611 0.984305 14.0669 1.06812 13.4757 1.62992L2.29989 12.239C2.04302 12.4827 1.90167 12.8069 1.90167 13.1518C1.90167 13.4969 2.04302 13.8212 2.30047 14.0651L13.4757 24.6739C14.0672 25.2354 14.4611 25.3193 14.6428 25.3193C15.2758 25.3193 15.3249 24.2186 15.3249 23.8807V18.7236C15.3249 17.797 15.8316 17.4681 16.2656 17.4681C16.5735 17.4681 16.8896 17.6189 17.2036 17.9173L24.3214 24.6739C24.9133 25.2354 25.3066 25.3193 25.4883 25.3193Z" fill="black" fill-opacity="0.87"/>
</svg>
