<svg width="58" height="54" viewBox="0 0 58 54" fill="none" xmlns="http://www.w3.org/2000/svg">
<path d="M29.7079 26.262L29.6948 16.7952C29.6937 16.4327 29.3693 16.1382 28.9693 16.1377C28.568 16.1379 28.2445 16.4311 28.245 16.7941L28.258 26.2604L17.8113 26.2488C17.4116 26.2475 17.0868 26.5419 17.0876 26.9046C17.0878 27.2674 17.4125 27.5616 17.8131 27.5621L28.2599 27.5742L28.2729 37.0399C28.2734 37.4029 28.5981 37.6972 28.9991 37.6979C29.1991 37.6979 29.3806 37.6251 29.5112 37.5062C29.6427 37.3876 29.723 37.2231 29.7228 37.0421L29.7097 27.5759L40.1562 27.5877C40.3562 27.5876 40.538 27.5146 40.6689 27.396C40.7995 27.2776 40.8801 27.1128 40.8805 26.9313C40.8794 26.5683 40.5547 26.274 40.154 26.2736L29.7079 26.262Z" fill="#C6CACC" stroke="#C6CACC" stroke-width="0.5"/>
</svg>
