<svg width="49" height="50" viewBox="0 0 49 50" fill="none" xmlns="http://www.w3.org/2000/svg">
<path d="M34.526 25.8758C34.3317 25.8758 34.1744 26.0335 34.1744 26.2285V32.2836C34.1744 33.2663 33.3766 34.0667 32.3954 34.0667H17.4821C16.5012 34.0667 15.703 33.2665 15.703 32.2836V26.2283C15.703 26.0333 15.5455 25.8756 15.3514 25.8756C15.1573 25.8756 15 26.0335 15 26.2283V32.2834C15 33.6551 16.1136 34.7715 17.4821 34.7715H32.3954C33.764 34.7715 34.8776 33.6551 34.8776 32.2834V26.2283C34.8776 26.0335 34.7204 25.8758 34.526 25.8758Z" fill="black" fill-opacity="0.87"/>
<path d="M24.2385 28.7027C24.6246 29.0897 25.2532 29.0902 25.6395 28.7027L31.3304 22.997C31.4676 22.8595 31.4676 22.6365 31.3304 22.499C31.1933 22.3613 30.9704 22.3613 30.8333 22.499L25.2905 28.0557V15.4628C25.2905 15.2678 25.1333 15.1101 24.9389 15.1101C24.7447 15.1101 24.5873 15.2678 24.5873 15.4628V28.0559L19.0445 22.4992C18.9075 22.3615 18.6847 22.3615 18.5475 22.4992C18.4104 22.6367 18.4104 22.8597 18.5475 22.9972L24.2385 28.7027Z" fill="black" fill-opacity="0.87"/>
<rect x="0.25" y="0.360107" width="48.5" height="48.5" rx="3.75" stroke="black" stroke-opacity="0.87" stroke-width="0.5"/>
</svg>
