<svg width="28" height="28" viewBox="0 0 28 28" fill="none" xmlns="http://www.w3.org/2000/svg">
<path d="M13.5 22L16 27L18 24H21.5L18 16.5" fill="#F5F7FA"/>
<path d="M13.5 22L16 27L18 24H21.5L18 16.5L16 18.5L15 18L13.5 22Z" stroke="black" stroke-opacity="0.87" stroke-linecap="round" stroke-linejoin="round"/>
<path d="M15 18.5L11.5 27L9.5 24H5.5L9 17" fill="#F5F7FA"/>
<path d="M15 18.5L11.5 27L9.5 24H5.5L9 17L10 17.5L11.5 19L13.5 18.5H15Z" stroke="black" stroke-opacity="0.87" stroke-linecap="round" stroke-linejoin="round"/>
<path d="M13.5 1L15.5461 2.19845L17.9149 2.08817L19.1697 4.10023L21.3183 5.10338L21.4944 7.46813L22.9307 9.3549L21.9877 11.5306L22.3827 13.8687L20.5365 15.357L19.7997 17.6109L17.4734 18.0706L15.7735 19.7239L13.5 19.05L11.2265 19.7239L9.52662 18.0706L7.20033 17.6109L6.46349 15.357L4.61735 13.8687L5.01234 11.5306L4.06927 9.3549L5.50561 7.46813L5.68165 5.10338L7.8303 4.10023L9.08513 2.08817L11.4539 2.19845L13.5 1Z" fill="#F5F7FA"/>
<path d="M15.2934 2.62989L15.4213 2.7048L15.5694 2.69791L17.6456 2.60125L18.7454 4.36482L18.8239 4.49059L18.9582 4.55329L20.8415 5.43255L20.9958 7.50525L21.0068 7.65306L21.0966 7.77099L22.3555 9.42475L21.5289 11.3317L21.47 11.4677L21.4946 11.6139L21.8409 13.6633L20.2227 14.9677L20.1073 15.0607L20.0613 15.2016L19.4154 17.1771L17.3764 17.5801L17.231 17.6089L17.1248 17.7122L15.6348 19.1613L13.6421 18.5706L13.5 18.5285L13.3579 18.5706L11.3652 19.1613L9.87523 17.7122L9.76897 17.6089L9.62357 17.5801L7.58458 17.1771L6.93874 15.2016L6.89268 15.0607L6.77729 14.9677L5.15914 13.6633L5.50535 11.6139L5.53004 11.4677L5.4711 11.3317L4.64449 9.42475L5.90345 7.77099L5.99323 7.65306L6.00423 7.50525L6.15853 5.43255L8.04182 4.55329L8.17612 4.49059L8.25456 4.36482L9.35441 2.60125L11.4306 2.69791L11.5787 2.7048L11.7066 2.62989L13.5 1.57945L15.2934 2.62989Z" stroke="black" stroke-opacity="0.87"/>
</svg>
