<svg width="27" height="27" viewBox="0 0 27 27" fill="none" xmlns="http://www.w3.org/2000/svg">
<path fill-rule="evenodd" clip-rule="evenodd" d="M21.2502 8.47854H23.5884C25.3865 8.47854 26.85 9.94565 26.85 11.7488V22.9765C26.85 24.7791 25.3865 26.2462 23.5879 26.2462H3.98936C2.19098 26.2462 0.727539 24.7791 0.727539 22.9759V3.32823C0.727539 1.52534 2.19098 0.0582275 3.98936 0.0582275H17.9887C19.787 0.0582275 21.2502 1.52534 21.2502 3.32823V8.47854ZM3.98936 25.3197C2.70007 25.3197 1.6514 24.2682 1.6514 22.9756V3.32823C1.6514 2.03542 2.70007 0.984409 3.98936 0.984409H17.9887C19.2777 0.984409 20.3263 2.03542 20.3263 3.32823V22.9759C20.3263 23.8945 20.7063 24.725 21.3161 25.32H3.98936V25.3197ZM23.5876 25.3203C24.8774 25.3203 25.9258 24.2687 25.9258 22.9765V11.7491C25.9258 10.4566 24.8772 9.4053 23.5876 9.4053H21.2496V22.9765C21.2496 24.269 22.2986 25.3203 23.5876 25.3203Z" fill="black" fill-opacity="0.87"/>
<path fill-rule="evenodd" clip-rule="evenodd" d="M6.87234 8.11011H15.3184C16.3508 8.11011 17.1905 8.92924 17.1905 9.9372V12.6845C17.1905 13.6917 16.3508 14.5116 15.3184 14.5116H6.87234C5.83971 14.5116 5 13.6919 5 12.6845V9.9372C5 8.92924 5.83941 8.11011 6.87234 8.11011ZM15.3187 13.6048C15.8391 13.6048 16.2621 13.1921 16.2621 12.6843H16.2617V9.93691C16.2617 9.42881 15.8383 9.01639 15.3184 9.01639H6.87234C6.35164 9.01639 5.92902 9.42909 5.92902 9.93691V12.6843C5.92902 13.1921 6.35194 13.6048 6.87234 13.6048H15.3187Z" fill="black" fill-opacity="0.87"/>
<path d="M16.4335 11.0199H6.04733C5.78916 11.0199 5.58057 11.2153 5.58057 11.4562C5.58027 11.6974 5.78916 11.8928 6.04733 11.8928H16.4335C16.6914 11.8928 16.9003 11.6974 16.9003 11.4562C16.9 11.215 16.6914 11.0199 16.4335 11.0199Z" fill="black" fill-opacity="0.87"/>
<path d="M16.4335 15.0936H6.04733C5.78916 15.0936 5.58057 15.2888 5.58057 15.5301C5.58027 15.7714 5.78916 15.9666 6.04733 15.9666H16.4335C16.6914 15.9666 16.9003 15.7714 16.9003 15.5301C16.9003 15.2888 16.6914 15.0936 16.4335 15.0936Z" fill="black" fill-opacity="0.87"/>
</svg>
