<svg width="27" height="27" viewBox="0 0 27 27" fill="none" xmlns="http://www.w3.org/2000/svg">
<g filter="url(#filter0_i)">
<path fill-rule="evenodd" clip-rule="evenodd" d="M23.9914 10.4597C25.7961 10.4597 26.7113 11.3066 26.7113 12.9772C26.7113 14.06 26.2823 14.8571 25.5425 15.2406C25.8945 15.6336 26.0823 16.1906 26.0823 16.8882C26.0823 18.0396 25.5918 18.8662 24.7533 19.2112C25.0763 19.6328 25.1724 20.1729 25.1724 20.6658C25.1724 21.8414 24.6514 22.6476 23.7415 22.9478C23.9821 23.3758 23.9824 23.8637 23.9824 24.1054C23.9824 25.4618 22.7889 26.2718 20.7899 26.2718C16.1689 26.2718 12.3608 25.8607 9.4644 25.0528C8.98026 25.7861 8.15102 26.2718 7.21061 26.2718H3.29109C1.80124 26.2718 0.588867 25.0557 0.588867 23.5615V14.7148C0.588867 13.2206 1.80124 12.0045 3.29109 12.0045H7.21061C8.25522 12.0045 9.16138 12.6037 9.61098 13.4756C10.7772 11.3005 11.8563 9.89427 12.7477 8.73464C14.1572 6.90099 15.0082 5.79376 15.0082 3.19964V1.09409C15.0082 0.51704 15.4856 0.0494592 16.0574 0.0858523C17.906 0.195905 19.2179 0.845742 19.9578 2.01673C21.2709 4.09579 20.4512 7.26724 19.5326 9.56148C19.4202 9.84244 19.4139 10.0902 19.5154 10.241C19.6104 10.3819 19.8141 10.4597 20.0898 10.4597H23.9914ZM23.7812 14.5672H24.4117C25.5489 14.5672 25.7871 13.7025 25.7877 12.9769C25.7877 11.9946 25.487 11.3861 23.9917 11.3861H20.0901C19.498 11.3861 19.0226 11.1639 18.7503 10.7595C18.47 10.3435 18.443 9.79528 18.6752 9.21588C19.3613 7.50191 20.3389 4.352 19.1773 2.51255C18.6052 1.60767 17.5371 1.10195 16.0026 1.01082H16.0023C15.9625 1.01082 15.932 1.04867 15.932 1.0938V3.19935C15.932 6.10935 14.9034 7.44805 13.4791 9.30033C12.4801 10.6009 11.2393 12.2144 9.91255 14.9093V23.5615C9.91255 23.5665 9.91167 23.5714 9.91138 23.5764V24.2163C12.7024 24.9651 16.3593 25.3445 20.7896 25.3445C21.4714 25.3445 23.0579 25.224 23.0579 24.1051C23.0579 23.5537 23.0579 23.0776 22.0493 23.0776C21.7942 23.0776 21.5872 22.8697 21.5872 22.6141C21.5872 22.3579 21.7942 22.1506 22.0493 22.1506H22.8719C23.7975 22.1506 24.2477 21.6647 24.2477 20.6655C24.2477 19.7359 23.8747 19.3909 22.8719 19.3909C22.6168 19.3909 22.4098 19.183 22.4098 18.9271C22.4098 18.6712 22.6168 18.4635 22.8719 18.4635H23.7812C24.919 18.4635 25.1576 17.6061 25.1576 16.8876C25.1576 15.9111 24.746 15.4944 23.7812 15.4944C23.5261 15.4944 23.3192 15.2866 23.3192 15.0309C23.3192 14.7747 23.5261 14.5672 23.7812 14.5672ZM8.9881 14.8015L8.98752 23.5752C8.97997 24.5523 8.18585 25.3442 7.21032 25.3442H3.29109C2.31034 25.3442 1.51302 24.5439 1.51302 23.5612V14.7145C1.51302 13.731 2.31034 12.9309 3.29109 12.9309H7.21061C8.19108 12.9309 8.98839 13.731 8.98839 14.7145V14.8015H8.9881Z" fill="black" fill-opacity="0.87"/>
</g>
<defs>
<filter id="filter0_i" x="0.588867" y="0.0838623" width="26.1224" height="27.1879" filterUnits="userSpaceOnUse" color-interpolation-filters="sRGB">
<feFlood flood-opacity="0" result="BackgroundImageFix"/>
<feBlend mode="normal" in="SourceGraphic" in2="BackgroundImageFix" result="shape"/>
<feColorMatrix in="SourceAlpha" type="matrix" values="0 0 0 0 0 0 0 0 0 0 0 0 0 0 0 0 0 0 127 0" result="hardAlpha"/>
<feOffset dy="1"/>
<feGaussianBlur stdDeviation="1.5"/>
<feComposite in2="hardAlpha" operator="arithmetic" k2="-1" k3="1"/>
<feColorMatrix type="matrix" values="0 0 0 0 0 0 0 0 0 0 0 0 0 0 0 0 0 0 0.501961 0"/>
<feBlend mode="normal" in2="shape" result="effect1_innerShadow"/>
</filter>
</defs>
</svg>
