<svg width="39" height="27" viewBox="0 0 39 27" fill="none" xmlns="http://www.w3.org/2000/svg">
<path d="M22.0037 3.17272C22.0037 1.72022 21.4925 0.751887 19.959 1.23605C18.4959 2.62187 12.3214 8.34612 8.92739 11.4903C7.69084 12.6616 7.6909 14.503 8.92739 15.6743C12.3214 18.8185 18.4959 24.5427 19.959 25.9285C20.9813 26.4127 22.0037 25.9285 22.0037 24.476V18.1819C29.1601 18.1819 36.8278 27.381 37.8501 25.9285C38.8723 24.476 34.7831 10.9194 22.0037 8.98272V3.17272Z" stroke="black" stroke-opacity="0.87"/>
<path d="M15.0037 3.17272C15.0037 1.72022 14.4925 0.751887 12.959 1.23605C11.4959 2.62187 5.32144 8.34612 1.92739 11.4903C0.69084 12.6616 0.690903 14.503 1.92739 15.6743C5.32144 18.8185 11.4959 24.5427 12.959 25.9285C13.9813 26.4127 15.0037 25.9285 15.0037 24.476" stroke="black" stroke-opacity="0.87" stroke-linecap="round"/>
</svg>
