<svg width="30" height="27" viewBox="0 0 30 27" fill="none" xmlns="http://www.w3.org/2000/svg">
<path d="M15.1233 9.03833C15.1233 9.03833 15.1233 9.61011 15.1233 8.98272M15.1233 8.98272C15.1233 8.44163 15.1233 4.10514 15.1233 2.74417C15.1233 1.29167 16.1456 0.807502 17.168 1.29167C18.6311 2.67748 24.8055 8.40174 28.1996 11.546C29.4361 12.7172 29.4361 14.5586 28.1996 15.7299C24.8055 18.8741 18.6311 24.5983 17.168 25.9842C15.6344 26.4683 15.1233 25.5 15.1233 24.0475C15.1233 22.595 15.1233 18.2375 15.1233 18.2375C15.1233 18.2375 2.62695 18.2375 2.12695 18.2375C1.62695 18.2375 0.999566 18.1101 0.999566 17.1101C0.999566 16.1101 0.999567 10.6101 0.999567 10.1101C0.999567 9.61011 1.12696 8.98272 2.12695 8.98272C3.12695 8.98272 15.1233 8.98272 15.1233 8.98272Z" stroke="black" stroke-opacity="0.87"/>
</svg>
