<svg width="768" height="80" viewBox="0 0 768 80" fill="none" xmlns="http://www.w3.org/2000/svg">
<rect width="768" height="80" fill="white"/>
<line y1="79.5" x2="768" y2="79.5" stroke="#7C4DFF"/>
<path d="M4.04 57V26.3965H9.04289V57H4.04ZM26.2064 57.4187C22.7037 57.4187 20.0383 56.3999 18.2102 54.3625C16.396 52.3111 15.4889 49.3735 15.4889 45.5499C15.4889 41.6564 16.4379 38.663 18.3358 36.5698C20.2476 34.4765 23.0038 33.4299 26.6042 33.4299C29.0463 33.4299 31.2442 33.8834 33.1979 34.7905L31.7117 38.7468C29.6324 37.9374 27.9159 37.5327 26.5623 37.5327C22.5572 37.5327 20.5546 40.1911 20.5546 45.508C20.5546 48.1036 21.05 50.0573 22.0409 51.3691C23.0456 52.6669 24.5109 53.3159 26.4367 53.3159C28.6277 53.3159 30.7 52.7716 32.6537 51.6831V55.9743C31.7745 56.4906 30.8326 56.8604 29.8278 57.0837C28.837 57.307 27.6299 57.4187 26.2064 57.4187ZM58.8811 45.3824C58.8811 49.1642 57.9112 52.1157 55.9714 54.2369C54.0317 56.3581 51.3314 57.4187 47.8705 57.4187C45.7075 57.4187 43.7956 56.9302 42.135 55.9534C40.4743 54.9765 39.1974 53.574 38.3043 51.7459C37.4112 49.9178 36.9646 47.7966 36.9646 45.3824C36.9646 41.6285 37.9275 38.6979 39.8533 36.5907C41.7791 34.4835 44.4934 33.4299 47.9961 33.4299C51.3453 33.4299 53.9968 34.5114 55.9505 36.6744C57.9042 38.8235 58.8811 41.7262 58.8811 45.3824ZM42.0303 45.3824C42.0303 50.7272 44.005 53.3996 47.9542 53.3996C51.8617 53.3996 53.8154 50.7272 53.8154 45.3824C53.8154 40.0934 51.8477 37.4489 47.9124 37.4489C45.847 37.4489 44.3469 38.1327 43.4119 39.5003C42.4908 40.8679 42.0303 42.8286 42.0303 45.3824ZM85.1712 57H80.2311V42.7658C80.2311 40.9796 79.8683 39.6469 79.1427 38.7677C78.4309 37.8885 77.2936 37.4489 75.7306 37.4489C73.6513 37.4489 72.1302 38.063 71.1673 39.291C70.2044 40.5191 69.723 42.5774 69.723 45.4661V57H64.8038V33.8485H68.6554L69.3462 36.8838H69.5974C70.2951 35.7813 71.2859 34.93 72.5698 34.33C73.8537 33.7299 75.2771 33.4299 76.8401 33.4299C82.3942 33.4299 85.1712 36.2558 85.1712 41.9076V57ZM107.819 50.4062C107.819 52.6669 106.996 54.4044 105.349 55.6184C103.702 56.8186 101.344 57.4187 98.2739 57.4187C95.1898 57.4187 92.7128 56.9512 90.8428 56.0162V51.7668C93.564 53.0228 96.0969 53.6508 98.4413 53.6508C101.47 53.6508 102.984 52.7367 102.984 50.9086C102.984 50.3225 102.816 49.8341 102.481 49.4433C102.146 49.0526 101.595 48.6479 100.828 48.2292C100.06 47.8106 98.9926 47.3361 97.625 46.8058C94.9595 45.7731 93.1524 44.7405 92.2034 43.7078C91.2684 42.6751 90.8009 41.3354 90.8009 39.6887C90.8009 37.7071 91.5964 36.172 93.1872 35.0836C94.7921 33.9811 96.9691 33.4299 99.7182 33.4299C102.439 33.4299 105.014 33.9811 107.442 35.0836L105.851 38.7886C103.354 37.7559 101.253 37.2396 99.5508 37.2396C96.9551 37.2396 95.6573 37.9792 95.6573 39.4585C95.6573 40.1841 95.9922 40.7982 96.6621 41.3005C97.3459 41.8029 98.8251 42.4937 101.1 43.3729C103.012 44.1125 104.4 44.7893 105.265 45.4033C106.131 46.0174 106.773 46.7291 107.191 47.5385C107.61 48.3339 107.819 49.2898 107.819 50.4062Z" fill="#7C4DFF"/>
</svg>
