<svg width="33" height="34" viewBox="0 0 33 34" fill="none" xmlns="http://www.w3.org/2000/svg">
<path d="M29.982 9.17168L24.1486 3.33835C24.0396 3.23022 23.9103 3.14468 23.7682 3.08662C23.626 3.02856 23.4738 2.99913 23.3203 3.00002H4.65364C4.03481 3.00002 3.44131 3.24585 3.00373 3.68344C2.56614 4.12102 2.32031 4.71451 2.32031 5.33335V28.6667C2.32031 29.2855 2.56614 29.879 3.00373 30.3166C3.44131 30.7542 4.03481 31 4.65364 31H27.987C28.6058 31 29.1993 30.7542 29.6369 30.3166C30.0745 29.879 30.3203 29.2855 30.3203 28.6667V10C30.3212 9.84647 30.2917 9.69427 30.2337 9.55212C30.1756 9.40998 30.0901 9.28069 29.982 9.17168ZM11.6536 5.33335H20.987V10H11.6536V5.33335ZM20.987 28.6667H11.6536V19.3333H20.987V28.6667ZM23.3203 28.6667V19.3333C23.3203 18.7145 23.0745 18.121 22.6369 17.6834C22.1993 17.2458 21.6058 17 20.987 17H11.6536C11.0348 17 10.4413 17.2458 10.0037 17.6834C9.56614 18.121 9.32031 18.7145 9.32031 19.3333V28.6667H4.65364V5.33335H9.32031V10C9.32031 10.6189 9.56614 11.2123 10.0037 11.6499C10.4413 12.0875 11.0348 12.3333 11.6536 12.3333H20.987C21.6058 12.3333 22.1993 12.0875 22.6369 11.6499C23.0745 11.2123 23.3203 10.6189 23.3203 10V5.81168L27.987 10.4783V28.6667H23.3203Z" fill="#A78EC3"/>
</svg>
